<?xml version="1.0" encoding="UTF-8" standalone="no"?>
<!-- Created with Inkscape (http://www.inkscape.org/) -->

<svg
   version="1.1"
   id="svg2"
   xml:space="preserve"
   width="4266.6665"
   height="2666.6667"
   viewBox="0 0 4266.6665 2666.6667"
   sodipodi:docname="10051.eps"
   xmlns:inkscape="http://www.inkscape.org/namespaces/inkscape"
   xmlns:sodipodi="http://sodipodi.sourceforge.net/DTD/sodipodi-0.dtd"
   xmlns="http://www.w3.org/2000/svg"
   xmlns:svg="http://www.w3.org/2000/svg"><defs
     id="defs6" /><sodipodi:namedview
     id="namedview4"
     pagecolor="#ffffff"
     bordercolor="#666666"
     borderopacity="1.0"
     inkscape:pageshadow="2"
     inkscape:pageopacity="0.0"
     inkscape:pagecheckerboard="0" /><g
     id="g8"
     inkscape:groupmode="layer"
     inkscape:label="ink_ext_XXXXXX"
     transform="matrix(1.3333333,0,0,-1.3333333,0,2666.6667)"><g
       id="g10"
       transform="scale(0.1)"><path
         d="M 0,0 H 32000 V 20000 H 0 Z"
         style="fill:#ffffff;fill-opacity:1;fill-rule:nonzero;stroke:none"
         id="path12" /><path
         d="m 29934,8186.6 c -1.9,-124.8 -6.4,-249.1 -13.3,-372.7 -2.5,-46.1 -5.3,-92 -8.5,-137.9 -6.7,-97.3 -14.8,-194.1 -24.3,-290.4 -7,-71.8 -14.8,-143.4 -23.3,-214.6 -59.6,-500.5 -153.7,-985.6 -269.6,-1447.1 -180.6,-718.7 -487.5,-1373.4 -891.5,-1940.7 -50.1,-70.4 -101.7,-139.5 -154.8,-207.2 -108.2,-138.1 -222.4,-270.3 -342.2,-396.4 -149.1,-157.1 -306.8,-304.5 -472,-441.6 C 26818.9,1978 25669.7,1535.1 24445,1534.7 l -3407.1,-1.1 -4901.5,-1.7 -284.6,-0.2 -10908.9,-3.7 c -1078.99,-0.3 -1935.3,665.3 -2343.8,1563.4 -169.1,371.5 -261.6,782.8 -261.6,1203.2 0,10.2 0.09,20.5 0.2,30.7 0.09,9.1 0.2,18.1 0.4,27.2 0.5,21.7 1.2,43.5 2.1,65.3 0.4,10.3 0.9,20.6 1.5,30.9 0.6,10.9 1.2,21.8 1.89,32.8 0.71,9.7 1.31,19.4 2.11,29 0.9,11.1 1.8,22.2 2.7,33.3 2.6,30.2 5.8,60.3 9.4,90.5 1.2,9.9 2.4,19.7 3.7,29.5 3,22.4 6.2,44.8 9.6,67.2 1.4,9.1 2.9,18.2 4.39,27.2 3.41,20.6 7.01,41.3 10.91,61.9 3.51,18.5 7.1,37 11,55.5 2.7,12.9 5.5,25.8 8.3,38.7 4.5,19.7 9.1,39.4 13.9,59.1 l 0.3,1.2 c 2.6,10.3 5.2,20.5 7.8,30.8 2.7,10.3 5.4,20.5 8.2,30.8 13.9,51.3 29.3,102.5 46.2,153.5 10.2,30.5 20.9,61.1 32.2,91.5 15.5,41.8 32,83.4 49.6,124.9 4.4,10.3 8.8,20.7 13.4,31 4.5,10.3 9.1,20.7 13.8,31 4.7,10.3 9.4,20.6 14.19,30.9 4.81,10.3 9.61,20.5 14.62,30.8 4.89,10.3 9.89,20.5 14.99,30.7 9.4,18.9 19,37.8 28.9,56.6 2.8,5.5 5.7,11 8.7,16.5 13,24.4 26.4,48.8 40.2,73 2.4,4.3 4.9,8.6 7.4,12.9 4.5,7.9 9,15.8 13.7,23.6 5.9,10.1 11.8,20.1 17.9,30.1 11.3,18.7 22.6,37.4 34,56.2 11,18.2 22.1,36.5 33.2,54.8 38.8,63.9 77.7,128 116.5,192.6 13.4,22.3 26.7,44.6 40.1,67 37.6,63.2 75,127 111.9,191.4 6.9,12 13.7,24 20.5,36 0.7,1.2 1.41,2.4 2.1,3.7 19.3,33.9 38.4,68.1 57.2,102.5 5.9,10.7 11.8,21.4 17.5,32.1 10.7,19.6 21.2,39.2 31.7,58.9 5.2,9.8 10.4,19.6 15.5,29.4 3.8,7.2 7.6,14.4 11.4,21.7 4.9,9.4 9.8,18.8 14.6,28.3 6.9,13.3 13.7,26.7 20.4,40.1 12.5,24.5 24.7,49.1 36.8,73.9 7.8,15.8 15.4,31.7 23,47.7 6.3,13.2 12.6,26.4 18.7,39.7 13.1,28 26,56.1 38.5,84.5 5.5,12.2 10.9,24.5 16.2,36.8 13.99,31.9 27.6,64.2 40.9,96.7 3.7,9 7.4,18.1 11,27.2 11.2,27.6 22.1,55.4 32.6,83.5 3.3,8.5 6.5,17 9.7,25.6 17.7,47.6 34.7,96 50.9,145 3.5,10.6 7,21.3 10.4,32 6.6,20.3 13,40.8 19.2,61.4 1.1,3.4 2.1,6.8 3.2,10.2 3.2,10.9 6.5,21.9 9.7,32.9 3.4,11.7 6.8,23.5 10.1,35.3 3.4,11.8 6.7,23.7 9.9,35.6 6.5,23.8 12.8,47.7 18.8,71.9 3,12.1 6,24.2 8.9,36.3 3,12.2 5.79,24.4 8.69,36.6 2.81,12.3 5.61,24.5 8.31,36.9 2.1,9.7 4.3,19.5 6.3,29.3 0.6,2.6 1.2,5.2 1.7,7.8 0.3,1.2 0.61,2.4 0.8,3.7 2.1,9.9 4.1,19.8 6.1,29.8 1.8,8.8 3.6,17.7 5.3,26.7 1.2,5.9 2.3,11.8 3.3,17.7 2.3,11.5 4.4,23 6.4,34.6 0.7,3.5 1.4,7 1.9,10.6 2.2,11.8 4.2,23.7 6.1,35.7 1.2,6.8 2.4,13.6 3.4,20.4 1.8,10.6 3.5,21.3 5,32 0.7,4.1 1.4,8.3 1.9,12.5 2.1,13.5 4.1,27.1 5.9,40.7 0.5,3.8 1.1,7.6 1.6,11.5 2.1,15.5 4.09,31.2 6,46.9 2.2,17.2 4.2,34.4 6,51.8 l 0.1,1.1 c 4,35.1 7.3,70.5 10.2,106.3 3,36 5.5,72.3 7.4,109 1.09,18.3 1.9,36.7 2.6,55.3 4.2,101.4 4.6,205.8 1.1,313.3 -0.6,17.4 -1.3,35 -2.1,52.6 -0.51,13.1 -1.1,26.2 -1.8,39.3 -16.4,309.6 -65.9,645.3 -156.6,1012.9 -296.1,1200.8 -323.3,2291.6 -139.8,3265.7 16.5,88.4 34.9,175.9 55,262.3 53,228.7 117.9,450.5 193.7,665.6 55.1,156.1 116,308.5 182.4,457.4 171.1,383.7 378.71,743.3 617.6,1078 852.6,1195.3 2103.1,2074.1 3510.3,2608.9 3043.7,1157.2 6820.5,705.1 8889.8,-1635.2 965.4,-1091.6 2675.2,-1072.1 4558.5,-1052.5 1640.3,17 3412.1,34 4937.9,-683.3 632.8,-297.4 1223.3,-721.1 1744.6,-1323.4 84.1,-97.2 166.3,-199 246.7,-305.7 237.1,-314.8 457.6,-672 658.6,-1077.3 8.5,-17.1 17.1,-34.4 25.5,-51.7 170.7,-350.9 327.1,-737.4 467.1,-1162.8 60.1,-182.8 112.7,-366 158,-549.2 9.1,-36.3 17.7,-72.5 26.2,-108.7 112.1,-482.3 175.4,-964.2 199.4,-1440.3 0.2,-4.1 0.4,-8.3 0.6,-12.3 3.5,-72 6.1,-143.8 8,-215.5 0.1,-1.7 0.1,-3.5 0.1,-5.2 3,-122.9 3.4,-245.4 1.4,-367.3"
         style="fill:#dceaff;fill-opacity:1;fill-rule:nonzero;stroke:none"
         id="path14" /><path
         d="m 16136.4,1531.9 v 0 l 4901.5,1.7 3407.1,1.1 c 1224.7,0.4 2373.9,443.3 3289.5,1203.3 165.2,137.1 322.9,284.5 472,441.6 119.8,126.1 234,258.3 342.2,396.4 53.1,67.7 104.7,136.8 154.8,207.2 404,567.3 710.9,1222 891.5,1940.7 115.9,461.5 210,946.6 269.6,1447.1 8.5,71.2 16.3,142.8 23.3,214.6 9.5,96.3 17.6,193.1 24.3,290.4 3.2,45.9 6,91.8 8.5,137.9 6.9,123.6 11.4,247.9 13.3,372.7 0.2,11.2 0.3,22.4 0.5,33.7 -0.1,-11.3 -0.3,-22.5 -0.5,-33.7 -1.9,-124.8 -6.4,-249.1 -13.3,-372.7 -2.5,-46.1 -5.3,-92 -8.5,-137.9 -6.7,-97.3 -14.8,-194.1 -24.3,-290.4 -7,-71.8 -14.8,-143.4 -23.3,-214.6 -59.6,-500.5 -153.7,-985.6 -269.6,-1447.1 -180.6,-718.7 -487.5,-1373.4 -891.5,-1940.7 -50.1,-70.4 -101.7,-139.5 -154.8,-207.2 -108.2,-138.1 -222.4,-270.3 -342.2,-396.4 -149.1,-157.1 -306.8,-304.5 -472,-441.6 C 26818.9,1978 25669.7,1535.1 24445,1534.7 l -3407.1,-1.1 -4901.5,-1.7 m 13798.8,6768.7 c 0,18.7 0.1,37.5 0,56.3 0,-4.1 0.1,-8.2 0.1,-12.3 0,-14.7 -0.1,-29.4 -0.1,-44 m -1.9,221.4 c -0.2,10.6 -0.4,21.3 -0.7,31.9 0.3,-10.6 0.5,-21.3 0.7,-31.9 m -0.8,37.1 c -1.9,71.7 -4.5,143.5 -8,215.5 3.6,-72 6.3,-143.8 8,-215.5"
         style="fill:#9cd4ff;fill-opacity:1;fill-rule:nonzero;stroke:none"
         id="path16" /><path
         d="m 16136.4,1531.9 -283.9,0.1 -8024.8,2.7 c -1710.11,0.6 -3272.8,857.6 -4258.5,2232.6 l 643.5,1513.9 847.1,1993 v 0 c 32.8,-5.1 68.3,-9.3 106.6,-12.5 41.05,-3.4 81.07,-4.8 119.58,-4.8 253.47,0 442.52,63.4 442.52,63.4 4.9,64.8 21.4,223.7 48.8,454.4 30.4,255.3 74.2,598.6 130.6,999.9 v 0 h 24016.6 v 0 c 3.5,-72 6.1,-143.8 8,-215.5 v 0 c 0.1,-1.7 0.1,-3.5 0.1,-5.2 v 0 c 0.3,-10.6 0.5,-21.3 0.7,-31.9 0.5,-21.8 0.8,-43.6 1.1,-65.4 0.2,-17.4 0.3,-34.8 0.5,-52.2 0.1,-13.7 0.2,-27.4 0.3,-41.1 0,-2.1 0,-4.3 0,-6.4 0.1,-18.8 0,-37.6 0,-56.3 -0.1,-6.3 -0.1,-12.5 -0.2,-18.8 0,-1.6 0,-3.3 0,-4.9 -0.1,-18.9 -0.3,-37.8 -0.5,-56.6 -0.2,-11.3 -0.3,-22.5 -0.5,-33.7 -1.9,-124.8 -6.4,-249.1 -13.3,-372.7 -2.5,-46.1 -5.3,-92 -8.5,-137.9 -6.7,-97.3 -14.8,-194.1 -24.3,-290.4 -7,-71.8 -14.8,-143.4 -23.3,-214.6 -59.6,-500.5 -153.7,-985.6 -269.6,-1447.1 -180.6,-718.7 -487.5,-1373.4 -891.5,-1940.7 -50.1,-70.4 -101.7,-139.5 -154.8,-207.2 -108.2,-138.1 -222.4,-270.3 -342.2,-396.4 -149.1,-157.1 -306.8,-304.5 -472,-441.6 C 26818.9,1978 25669.7,1535.1 24445,1534.7 l -3407.1,-1.1 -4901.5,-1.7"
         style="fill:#8eccff;fill-opacity:1;fill-rule:nonzero;stroke:none"
         id="path18" /><path
         d="m 27367.4,12801.6 -5220.1,34.1 c 0,0 234.3,275 789.6,275 30.9,0 62.7,-0.9 95.5,-2.7 0,0 441.2,248.6 1035.9,248.6 257.8,0 544.4,-46.7 836.6,-180.5 0,0 274.9,29.3 645.6,29.3 345.8,0 775,-25.5 1142.2,-124.3 507.1,-136.4 674.7,-279.5 674.7,-279.5"
         style="fill:#f5faff;fill-opacity:1;fill-rule:nonzero;stroke:none"
         id="path20" /><path
         d="m 23595.2,11328.8 -8178.4,83.8 c 0,0 367,676.8 1237,676.8 48.4,0 98.2,-2.1 149.7,-6.5 0,0 691.1,611.8 1623,611.8 403.9,0 852.9,-114.8 1310.6,-444.2 0,0 430.8,72.2 1011.5,72.2 541.9,0 1214.3,-62.8 1789.6,-305.9 794.6,-335.8 1057,-688 1057,-688"
         style="fill:#f5faff;fill-opacity:1;fill-rule:nonzero;stroke:none"
         id="path22" /><path
         d="m 16217,15576.1 -3214.8,38.1 c 0,0 144.3,307.7 486.3,307.7 19,0 38.6,-0.9 58.8,-2.9 0,0 271.7,278.2 638,278.2 158.7,0 335.2,-52.2 515.1,-202 0,0 169.3,32.9 397.6,32.9 213,0 477.4,-28.6 703.5,-139.2 312.3,-152.7 415.5,-312.8 415.5,-312.8"
         style="fill:#f5faff;fill-opacity:1;fill-rule:nonzero;stroke:none"
         id="path24" /><path
         d="m 20191.1,13442.8 c -224.2,0 -405.9,181.7 -405.9,405.8 0,224.2 181.7,405.9 405.9,405.9 224.2,0 405.9,-181.7 405.9,-405.9 0,-224.1 -181.7,-405.8 -405.9,-405.8"
         style="fill:#f5faff;fill-opacity:1;fill-rule:nonzero;stroke:none"
         id="path26" /><path
         d="m 28206.5,3179.6 c -149.1,-157.1 -306.8,-304.5 -472,-441.6 C 26818.9,1978 25669.7,1535.1 24445,1534.7 l -3407.1,-1.1 -4901.5,-1.7 -284.4,-0.1 -10909.1,-3.8 c -1079,-0.3 -1935.3,665.3 -2343.8,1563.4 -169.1,371.5 -261.6,782.8 -261.6,1203.2 0,10.2 0.1,20.5 0.2,30.7 0.1,9.1 0.2,18.1 0.4,27.2 0.5,21.7 1.2,43.5 2.1,65.3 0.4,10.3 0.9,20.6 1.5,30.9 0.6,10.9 1.2,21.8 1.9,32.8 0.7,9.7 1.3,19.4 2.1,29 0.9,11.1 1.8,22.2 2.7,33.3 2.6,30.1 5.7,60.3 9.4,90.5 1.2,9.9 2.4,19.7 3.7,29.5 3,22.4 6.2,44.8 9.6,67.2 1.4,9.1 2.9,18.2 4.4,27.2 3.3,20.6 7,41.3 10.9,61.9 3.5,18.5 7.1,37 11,55.5 2.7,12.9 5.5,25.8 8.3,38.7 4.5,19.7 9.1,39.4 13.9,59.1 l 0.3,1.2 c 2.6,10.3 5.2,20.5 7.8,30.8 2.7,10.3 5.4,20.5 8.2,30.8 13.8,51.3 29.2,102.5 46.2,153.5 5.14,15.4 10.41,30.8 15.82,46.1 4.46,12.8 9.11,25.5 13.78,38.2 0.88,2.4 1.71,4.8 2.6,7.2 l 0.79,2.1 c 7.26,19.5 14.73,39 22.47,58.5 l 0.98,2.5 c 8.22,20.7 16.62,41.3 25.36,61.8 4.4,10.3 8.8,20.7 13.4,31 4.5,10.3 9.1,20.7 13.8,31 4.7,10.3 9.4,20.6 14.2,30.9 4.8,10.3 9.6,20.5 14.6,30.8 4.9,10.3 9.9,20.5 15,30.7 9.4,18.9 19,37.8 28.9,56.6 2.8,5.5 5.7,11 8.7,16.5 13,24.4 26.4,48.8 40.2,73 2.4,4.3 4.9,8.6 7.4,12.9 4.5,7.9 9,15.8 13.7,23.6 5.9,10.1 11.8,20.1 17.9,30.1 11.3,18.7 22.6,37.4 34,56.2 11,18.2 22.1,36.5 33.2,54.8 38.8,63.9 77.7,128 116.5,192.6 13.4,22.3 26.7,44.6 40.1,67 37.6,63.2 75,127 111.9,191.4 6.8,12 13.7,24 20.5,36 0.7,1.2 1.4,2.4 2.1,3.7 19.2,34 38.3,68.1 57.2,102.5 5.9,10.7 11.7,21.4 17.5,32.1 10.7,19.6 21.2,39.2 31.7,58.9 5.2,9.8 10.4,19.6 15.5,29.4 3.8,7.2 7.6,14.4 11.4,21.7 4.9,9.4 9.8,18.9 14.6,28.3 6.9,13.3 13.7,26.7 20.4,40.1 12.5,24.5 24.7,49.1 36.8,73.9 7.8,15.8 15.4,31.7 23,47.7 6.3,13.2 12.5,26.5 18.7,39.7 13.1,28 26,56.1 38.5,84.5 5.5,12.2 10.9,24.5 16.2,36.8 14,31.9 27.6,64.2 40.9,96.7 3.7,9 7.4,18.1 11,27.2 11.2,27.6 22.1,55.4 32.6,83.5 3.3,8.5 6.5,17 9.7,25.6 17.7,47.6 34.7,96 50.9,145 3.5,10.6 7,21.3 10.4,32 6.6,20.3 13,40.8 19.2,61.4 1.1,3.4 2.1,6.8 3.2,10.2 3.3,10.9 6.5,21.9 9.7,32.9 3.5,11.7 6.8,23.5 10.1,35.3 3.4,11.8 6.7,23.7 9.9,35.6 6.5,23.8 12.8,47.7 18.8,71.9 3.1,12 6.1,24.1 8.9,36.3 3,12.1 5.9,24.3 8.7,36.6 2.8,12.3 5.6,24.5 8.3,36.9 2.2,9.7 4.3,19.5 6.3,29.3 0.6,2.6 1.2,5.2 1.7,7.8 0.3,1.2 0.6,2.4 0.8,3.7 2.1,9.9 4.2,19.8 6.1,29.8 1.8,8.9 3.6,17.8 5.3,26.7 1.2,5.9 2.3,11.8 3.3,17.7 2.3,11.5 4.4,23 6.4,34.6 0.7,3.5 1.4,7 1.9,10.6 2.2,11.8 4.2,23.8 6.1,35.7 1.2,6.8 2.3,13.6 3.4,20.4 1.7,10.6 3.4,21.3 5,32 0.7,4.1 1.4,8.3 1.9,12.5 2.1,13.5 4,27.1 5.9,40.7 0.5,3.8 1.1,7.6 1.6,11.5 2.1,15.5 4.1,31.2 6,46.9 2.1,17.2 4.1,34.4 6,51.8 l 0.1,1.1 c 3.9,35.1 7.2,70.5 10.2,106.3 2.9,36 5.4,72.3 7.4,109 1,18.3 1.8,36.8 2.6,55.3 4.1,101.4 4.6,205.7 1.1,313.3 -0.6,17.4 -1.3,35 -2.1,52.6 h 8510.8 c 0,0 19.2,0 54,-0.2 32.6,-0.3 78.8,-0.8 135.9,-1.8 28.3,-0.5 59.3,-1.1 92.6,-1.8 81.1,-1.8 175.8,-4.5 279.3,-8.5 103.7,-4 216.2,-9.3 332.2,-16.3 131.2,-7.9 266.9,-18 399.8,-30.9 26.2,-2.6 52.2,-5.2 78.1,-8 19.7,-2.1 39.2,-4.2 58.6,-6.4 27,-3.1 53.7,-6.3 80.1,-9.7 658.5,-83.5 1133.6,-250.1 410,-583.1 -77.8,-35.8 -236.1,-79.7 -434.4,-132.6 -8.3,-2.2 -16.7,-4.5 -25.2,-6.7 -130.9,-34.9 -278,-73.5 -430.2,-116.2 l -0.1,-0.1 c -25.9,-7.2 -51.9,-14.6 -78,-22.1 -61,-17.5 -122.5,-35.6 -183.9,-54.5 -106.2,-32.5 -211.8,-67 -313.3,-103.7 -182.2,-65.6 -351.2,-137.9 -486.3,-217.3 -266.8,-156.6 -401.8,-341 -246.1,-556.6 1.5,-2.1 3.2,-4.3 5.1,-6.4 71,-82.5 357.8,-157.5 800,-227 8.1,-1.3 16.3,-2.6 24.5,-3.8 19.2,-3 38.6,-5.9 58.3,-8.9 243.9,-36.4 530.3,-71.3 850.3,-105 25.5,-2.7 51.3,-5.3 77.4,-8 804.9,-82.8 1810.6,-158.2 2881.3,-230.2 144.4,-9.8 290,-19.4 436.5,-29 9.5,-0.7 19,-1.3 28.6,-1.9 6,-0.4 11.9,-0.8 17.9,-1.2 350.7,-23 706.1,-45.7 1061.6,-68.3 323,-20.5 646,-40.9 965.7,-61.3 140.7,-9 280.8,-17.9 419.9,-27 162.9,-10.5 324.6,-21 484.4,-31.6 458.4,-30.4 902.3,-60.9 1320.6,-92 194.8,-14.5 384.1,-29.1 566.7,-43.9 102,-8.2 202,-16.5 299.6,-24.9 192.3,-16.5 375.8,-33.1 549,-50 1229.8,-120.3 1940.8,-253.8 1601.3,-417.1 -4.5,-2.2 -9.2,-4.4 -14,-6.5 -61.5,-27.5 -152.6,-55.8 -275.7,-85 -3184.6,-755.8 -1520.4,-1792.9 4062.8,-2201.8"
         style="fill:#ffe0b3;fill-opacity:1;fill-rule:nonzero;stroke:none"
         id="path28" /><path
         d="m 21037.9,1533.6 -4901.5,-1.7 -284.6,-0.2 -10908.87,-3.7 c -1079.01,-0.3 -1935.31,665.3 -2343.82,1563.4 -301.12,661.6 -359.27,1449.2 -84.82,2189.8 61.85,167.1 140.62,331.8 237.41,492 361.6,598.8 752.96,1206.5 920.12,2001.5 h 3849.13 c 0,0 238.77,0.1 561.85,-12.4 C 8974.04,7728 10506.9,7598.1 9441.57,7108 9061.32,6933.1 6762.56,6564.9 7244.04,5898.1 7725.64,5231.5 22272.1,5049.9 19403,4369.1 16880.2,3770.4 17779.3,2315.6 21037.9,1533.6"
         style="fill:#ffe6c5;fill-opacity:1;fill-rule:nonzero;stroke:none"
         id="path30" /><path
         d="m 16934.3,1875.7 c -461.9,-109.7 -821.8,-225.2 -1082.5,-344 L 4942.93,1528 c -1079.01,-0.3 -1935.31,665.3 -2343.82,1563.4 -301.12,661.6 -359.27,1449.2 -84.82,2189.8 h 2537.9 c 0,0 238.76,0.2 561.85,-12.3 891.23,-34.3 2424.08,-164.2 1358.76,-654.3 C 6592.56,4439.6 4293.79,4071.5 4775.27,3404.7 5256.88,2738 19803.3,2556.4 16934.3,1875.7"
         style="fill:#fff0e2;fill-opacity:1;fill-rule:nonzero;stroke:none"
         id="path32" /><path
         d="m 8218.9,12163.1 c -8.4,22.6 -17,44.9 -26.1,66.9 -61.5,152.3 -135.7,290.6 -219.1,416.1 -33.1,49.9 -67.7,97.9 -103.6,143.8 -6.4,8.4 -13,16.7 -19.7,24.9 -1.5,2 -3.1,4 -4.7,6 -5,6.2 -10,12.3 -15.1,18.4 -100.1,121.6 -208.9,229 -322,323.6 220.5,-15.9 378.9,-18.9 378.9,-18.9 -256.9,326 -585.9,517 -908,626.8 78.1,3.9 127.4,7.7 127.4,7.7 -20.2,64.1 -57.4,120 -100.3,167.2 -108.6,119.4 -253.8,182.9 -253.8,182.9 -69.6,31.8 -134.6,54.9 -195.2,70.9 -276.4,72.8 -460,-3.3 -565.9,-81 -31.9,-23.4 -56.7,-46.8 -74.9,-66.4 -133.4,278.9 -1482.1,-533.1 -1152.4,-522.9 115.4,3.6 452.7,52.9 543.7,61.3 -5.3,-78.9 41.7,-122.9 129.6,-143.3 23.5,-5.3 47.1,-8.3 70.5,-9.1 -32.1,-46.7 -113.7,-174.4 -225.3,-378.1 -227.3,-414.7 -579.1,-1144.6 -891.2,-2148.4 -252.4,-811.6 -401.4,-1759.6 -451.8,-2124.6 -12.3,-89.1 -18.8,-143.5 -19.4,-152.5 0,0 66,-60.5 246.3,-75.4 169.1,-13.9 305.5,31.9 305.5,31.9 2.3,30.2 9.2,98.1 20.6,196 50.2,433.4 187,1455.4 390.9,2404.6 206.2,960.1 511.8,1585 698.1,1922.6 85.5,22.1 159.7,48 224.1,75.9 37.4,-93.7 88.8,-196.8 157.8,-309.1 11.2,-18.6 23,-37.4 35.4,-56.5 11.7,-18.2 24,-36.7 36.6,-55.6 150.8,106.7 289.6,55.3 289.6,55.3 -53.1,-11.4 -158.5,-114.5 -210.7,-169 102.3,-141.9 217.5,-288.2 337.2,-429.9 v -0.8 c 3.9,-4.5 7.6,-9 11.4,-13.5 0.7,1.4 2.2,2.2 3.1,3.7 17.7,18.1 37,38.1 56.1,58.3 67.9,71.2 135.6,144.9 135.6,144.9 8.3,-97.8 -26.5,-228.9 -57.6,-323.7 -3.7,-10.7 -7.6,-21.3 -10.7,-31.1 30.4,-34.1 59.9,-68.2 90.3,-101.5 35.5,-40.3 70.5,-79.7 105.3,-117.6 39.8,-43.6 78.6,-85.5 116,-125.4 22.9,-24.6 45.3,-48.5 67.1,-71.5 48.2,-50.8 93.2,-97.7 133.8,-139.6 37.1,-38.1 70.5,-72.1 99.2,-101.2 39.6,-40.3 70.4,-71.2 90.3,-90.5 15.1,-15.2 23.5,-23.6 23.5,-23.6 0.7,7.6 1.5,15.2 1.5,22 1.8,20.9 3.4,41.5 4.6,62 2,30.8 3.3,61.4 3.8,91.9 7.5,344.6 -58.4,652.7 -166.6,924.1 -4,10 -8.1,19.9 -12.2,29.9 -20.4,49.3 -42.3,97.4 -65.3,144.3 36.7,-20.9 73.5,-41.4 110.2,-61.5 6.1,-3.4 12.1,-6.8 18.2,-10 35.9,-19.7 71.7,-39.1 107.3,-58.1 47.1,86 75.2,173.4 90.3,229.8 1.1,4.3 2.2,8.4 3.1,12.3 7.9,30.8 11.2,49.7 11.2,49.7 6.5,-11.4 12.7,-23.2 18.4,-35.6 1,-2.2 2.1,-4.5 3.1,-6.7 v -0.1 c 46.4,-103.7 65.7,-237 71,-351.8 21.3,-10.9 42.4,-21.6 63.3,-32.1 36.9,-18.6 73,-36.6 108.3,-53.9 44.8,-22.2 88.3,-43.2 130,-63.2 2.2,3.6 4.3,7.3 6.4,10.9 68.9,121 61.2,245.2 61.2,245.2 63.5,-105.3 105.3,-253.1 128.7,-349.4 25.1,-11.3 48.5,-21.9 70.5,-32.6 24.6,-11.2 47.3,-21.5 67.8,-30.7 82.3,-37.1 130.9,-58 130.9,-58 -18.9,66.8 -39.4,130.4 -62.1,192.6 z m -2377.1,1043.1 c -2.6,-10.2 -1,-9.9 6.1,2.8 -2,-1 -4,-1.9 -6.1,-2.8 z m 149.9,912.2 c -19,148.9 -77,274.9 -202.2,338.5 0,0 -272.9,144.2 -494.5,58.9 0,0 27.7,-41 73.4,-104.5 -286.6,183.6 -641,322.1 -1056,320.2 0,0 101,-122.1 250.9,-284.7 -212.5,43.3 -440.6,62.3 -679.6,43.3 -66.4,-148.9 -127.3,-301.3 -182.4,-457.4 66.6,-31.6 136.9,-64.4 210.4,-97.8 106.4,76.9 243.1,154.7 366,173.1 0,0 -99.6,-112.2 -163.2,-263.6 81.3,-35 164.2,-69.8 248.3,-103.7 -285.2,-62.3 -577.2,-178.1 -855.2,-373.6 -20.1,-86.4 -38.5,-173.9 -55,-262.3 21.6,-2.2 44.4,-4.6 68.5,-6.9 127,-12.2 285.5,-26.6 460.6,-38.3 51.4,-3.7 103.9,-6.4 157.5,-9.2 45,-3 90.2,-5 135.7,-7.4 5.8,8.5 11.7,18.1 17.7,27.6 54.8,83.3 135.6,192.4 217.4,246.7 0,0 -25.6,-162.7 -39.5,-276.6 -0.8,-1.5 -0.4,-3.2 -1.1,-4.7 5.9,-0.1 11.8,-0.2 17.7,-0.3 l 0.6,0.3 c 185.5,-5.3 371.8,-4.4 546.3,3.9 10.2,74.9 25.2,221.4 1,270.1 0,0 126.8,-76.4 137.1,-261 38.4,3.3 75.3,6.7 110.8,10.9 7.3,0.7 14.6,1.6 21.8,2.6 103.4,12.7 195.4,30.3 277.2,51.6 85.5,22.1 159.7,48 224.1,75.9 12.4,5.3 24.2,10.7 35.8,16.2 15.7,64.8 195.8,554.2 149.9,912.2"
         style="fill:#cce3ff;fill-opacity:1;fill-rule:nonzero;stroke:none"
         id="path34" /><path
         d="m 12681.9,13724.1 c -16.7,51.7 -34.2,102.7 -52.5,153.1 -1.9,5.7 -4,11.4 -6.1,17.1 -21.3,57.4 -43.5,113.8 -66.7,169.1 -33.2,79.5 -68.2,156.8 -105,232.1 -37.7,77.1 -77.1,152 -118.1,224.8 -279.6,495.4 -635.1,893.9 -1017.2,1213.9 405.9,-29.3 697.4,-34.9 697.4,-34.9 -472.8,599.8 -1078.3,951.4 -1671.1,1153.6 143.7,7 234.4,14 234.4,14 -131.2,417.1 -651.51,644.4 -651.51,644.4 -820.29,374.8 -1292.29,93.3 -1493.89,-96 -16.7,-15.7 -31.6,-30.8 -44.7,-44.8 -139.99,292.7 -1007.23,-67.4 -1614.28,-427.5 -457.53,-271.4 -767.25,-542.8 -506.42,-534.7 212.3,6.6 833.2,97.3 1000.6,112.6 -9.8,-145 76.7,-225.9 238.5,-263.6 43.2,-9.8 86.5,-15.3 129.7,-16.7 -58.9,-86 -209.1,-321 -414.6,-696 -184.91,-337.3 -414.5,-787.9 -662.8,-1345.2 -179.7,-403.3 -369.2,-862.4 -558.4,-1375 C 5857.99,12442.5 5717,12031 5580.2,11590.8 5286,10644.9 5068.19,9598 4924.4,8786.9 4851.1,8373.3 4797,8021 4761.9,7774.7 c -31.3,-219.4 -47.5,-354.6 -48.9,-374.2 0,0 95.2,-87.3 346.8,-126.3 32.8,-5.1 68.3,-9.3 106.6,-12.5 311.2,-25.6 562.1,58.6 562.1,58.6 4.9,64.8 21.4,223.7 48.8,454.4 30.4,255.3 74.2,598.6 130.6,999.9 0.5,4.1 1.1,8.2 1.7,12.3 129.8,923.8 325.5,2151.5 576.2,3319.2 12.1,56.2 24.29,111.8 36.7,166.8 144.8,640.4 313,1196.5 484.1,1672.7 479.2,1333.5 980.99,2040.5 1055.3,2219.6 60,-260.8 182.7,-577.5 411.5,-949.9 40.5,-67 85.1,-135.3 132.5,-206.5 277.6,196.7 532.9,101.9 532.9,101.9 -97.7,-21 -291.6,-210.7 -387.8,-311.1 29,-40.2 58.6,-80.6 88.69,-121.1 137.11,-184.7 284.71,-372.3 437.71,-556.9 31.2,-37.8 62.6,-75.4 94.3,-112.9 0,0 0,0 0,-1.4 7,-8.4 14,-16.8 21,-25.1 1.3,2.7 4.1,4.1 5.5,6.9 147.9,150.7 352.9,373.9 352.9,373.9 15.4,-180 -48.8,-421.3 -106,-595.7 -6.9,-19.5 -13.9,-39 -19.5,-57.2 55.8,-62.7 110.2,-125.5 166,-186.9 65.59,-73.9 129.7,-146.5 193.9,-216.2 217.6,-238.5 419.9,-450.6 583.1,-619.3 163.2,-167.4 285.9,-291.6 348.7,-353 27.9,-27.9 43.3,-43.2 43.3,-43.2 1.4,13.9 2.8,27.9 2.8,40.4 8.3,96.3 13.9,189.8 15.3,283.2 2.9,134.7 -0.3,266.4 -9,395 -7.7,113.9 -19.8,225.5 -35.8,334.6 -69.8,475.9 -215,906.5 -404.4,1291.7 145.1,-82.3 290.2,-161.8 433.9,-238.6 145,265.1 192.5,537.1 192.5,537.1 114.4,-198.1 159,-484.1 170.1,-725.4 196.7,-100.4 383.6,-192.5 555.2,-274.8 20.9,34.2 38.3,68.7 52.7,102.7 59.9,140.1 70.5,270.8 71.9,332.2 0.4,23.3 -0.4,36.6 -0.4,36.6 3.7,-6.2 7.4,-12.5 11.2,-18.8 61.9,-107.5 112.1,-236.3 151.7,-358.9 12.3,-38.3 23.7,-76.1 34,-112.4 15.7,-55.3 29.1,-107.3 40.2,-153 46,-20.9 89.3,-40.4 129.7,-59.9 12.4,-5.7 24.5,-11.2 36.4,-16.6 20.3,-9.2 39.8,-18.1 58.5,-26.5 169.5,-76.7 270.6,-120.1 270.6,-120.1 -17.8,62.7 -36.4,123.9 -55.8,184.1 m -4529.4,4391.5 c 0,0 -54,28.5 -140.9,61.4 -178.2,67.3 -494.8,152.6 -769,47 0,0 51,-75.3 135,-192.1 -527.4,337.9 -1179.5,592.6 -1943.3,589 0,0 185.9,-224.6 461.7,-523.9 -679.2,138.6 -1445.1,142.3 -2253.6,-123.3 -115.6,-38.5 -230.7,-82 -348.4,-131.2 0,0 133.8,-71.7 355.3,-184.3 40.4,-19.4 82.6,-41.1 127.7,-64.1 165.5,76.5 426.1,185.9 650.8,215 0,0 -199.5,-139.2 -291.6,-390.8 171.3,-83 359.7,-171.9 560.8,-263.2 195.7,141.5 447.3,284.7 673.5,318.6 0,0 -183.3,-206.6 -300.3,-485.1 149.5,-64.7 302.1,-128.6 456.8,-190.9 -624.01,-136.6 -1265.8,-412.1 -1861.1,-907.4 -72.3,-59.3 -141.9,-121.9 -212,-188.3 -9.9,-7.9 -19.9,-17.6 -29.9,-27.4 0,0 21.5,-2.5 60.7,-6.9 87.1,-10.9 260.7,-29.6 493.3,-53.1 152.3,-14.7 329.3,-30.9 523.3,-46.5 103.7,-8.3 212.2,-16.4 324.4,-23.9 94.6,-6.8 191.31,-11.8 290,-17.1 82.69,-5.4 165.7,-8.9 249.6,-13.4 10.7,15.6 21.6,33.2 32.6,50.8 100.8,153.4 249.6,353.9 400,453.9 0,0 -46.9,-299.4 -72.7,-508.9 -1.3,-2.8 -0.7,-5.9 -2,-8.7 10.9,-0.2 21.8,-0.5 32.7,-0.7 1.1,0.8 1.1,0.8 1.1,0.8 341.3,-10 684,-8.2 1005.4,6.9 18.6,137.9 46.3,407.7 1.8,497.2 0,0 233.2,-140.7 252.21,-480.4 70.6,6.1 138.59,12.3 203.99,20 13.5,1.6 26.8,3.2 40.1,4.9 308.9,37.7 1071.7,1098.4 1171.1,1865.8 40.1,310.4 -28.3,572.9 -279.1,700.3"
         style="fill:#abcef4;fill-opacity:1;fill-rule:nonzero;stroke:none"
         id="path36" /><path
         d="m 13293.3,7865.1 c 0,0 -1975.3,-238.7 -1790.1,-436.2 185.2,-197.6 -282.4,-36.4 -418.2,-233.9 -135.8,-197.5 541.6,-173.5 541.6,-334 0,-160.5 -765.4,-259.3 -481.5,-456.8 284,-197.5 2605,86.4 2617.3,-74.1 12.4,-160.5 -592.6,-506.2 284,-469.1 876.5,37 2246.9,518.5 2160.5,333.3 -86.5,-185.2 950.6,98.8 950.6,98.8 0,0 -596.7,-24.7 -711.9,131.7 -99.9,135.5 378.6,428 -551.5,230.4 -159.6,-33.9 -1076.1,-181 -1547.3,-131.7 -458,48 622.5,304.7 205.7,378.6 -268.9,47.7 -1481,-31.8 -1685.1,20.6 -365,93.8 543.2,382.7 -67.9,444.5 -516,52.1 493.8,497.9 493.8,497.9"
         style="fill:#ffffff;fill-opacity:1;fill-rule:nonzero;stroke:none"
         id="path38" /><path
         d="m 28548.7,3576 c -108.2,-138.1 -222.4,-270.3 -342.2,-396.4 -149.1,-157.1 -306.8,-304.5 -472,-441.6 -631.6,167.9 -407.4,560.7 -2125.8,455.5 -1814.7,-111.1 -1370.3,55.6 -1055.5,314.8 314.8,259.3 -3036.8,148.2 -3185,407.4 -148.1,259.2 611.1,444.4 481.5,759.2 -33.7,81.8 123.8,176 375.5,270.7 120.4,45.5 262.6,91 415.6,135.2 757.5,219.3 1782.8,408.9 1782.8,408.9 4,-5.6 7.3,-11.2 9.8,-16.8 17.2,-37.6 2.9,-75.1 -33.2,-112.5 -207.6,-215.2 -1134,-426.2 -902.5,-611.4 277.8,-222.2 2648.1,351.8 1907.4,-166.7 -740.7,-518.5 870.3,-574 2018.4,-333.3 1148.1,240.7 666.6,-407.4 1074,-648.1 15.9,-9.4 33,-17.7 51.2,-24.9"
         style="fill:#ffffff;fill-opacity:1;fill-rule:nonzero;stroke:none"
         id="path40" /><path
         d="m 17515.5,6280.7 c 0,0 1612.1,-87.3 1464,-291 -148.2,-203.7 185.1,-240.8 1222.1,-148.2 1037,92.6 2614.3,122.4 2474.4,-9.3 -139.9,-131.7 222.2,-222.2 749,-189.3 526.7,32.9 1124.8,-18.3 998.6,-153.2 l -27.4,-151.4 c 0,0 485.6,337.5 82.3,419.8 -403.3,82.3 -1605,181.1 -1481.5,279.8 123.4,98.8 -115.2,271.6 -749,172.9 -633.7,-98.8 -2823,-164.6 -2650.2,-49.4 172.9,115.2 -1308.6,230.4 -2082.3,119.3"
         style="fill:#ffffff;fill-opacity:1;fill-rule:nonzero;stroke:none"
         id="path42" /><path
         d="m 11061.5,9907.6 -65.2,29.8 1030.9,2257.4 65.1,-29.8 -1030.8,-2257.4"
         style="fill:#8fb5e2;fill-opacity:1;fill-rule:nonzero;stroke:none"
         id="path44" /><path
         d="m 11403.6,3843.3 -196.7,63.8 c 0,0 -40.8,533.6 46.7,1173.2 55.4,405.2 157,844.1 341,1196.6 83.3,159.5 183.4,301.3 303.8,414.4 0,0 150.9,350.3 350.7,818.6 222.2,520.6 1612.6,673.2 819.2,-417.4 -162.8,-223.8 -337.6,-617.8 -547.1,-857 -358,-409 -610.6,-886.4 -784,-1306.8 -247.9,-601.1 -333.6,-1085.4 -333.6,-1085.4"
         style="fill:#ffb27d;fill-opacity:1;fill-rule:nonzero;stroke:none"
         id="path46" /><path
         d="m 10955.9,3813.5 c -59.6,-96.6 69.1,-191.2 228.3,-280.4 159.3,-89.1 93.3,-98.1 296.9,-249.7 203.6,-151.5 323.7,-134.8 354.9,-112.6 27.7,19.6 -55.5,113.2 -142.8,215.6 -11,12.9 -21.9,25.9 -32.9,38.9 -97.5,116.8 -112,263.5 -157.7,415.5 -43.4,144 25.4,502 25.4,502 l -271.8,215.9 c 0,0 -55.2,-325.6 -85.6,-461.2 -17.9,-79.7 -83.1,-146.4 -135.9,-195.6 -28.7,-26.8 -57.8,-54.3 -78.8,-88.4"
         style="fill:#ffb27d;fill-opacity:1;fill-rule:nonzero;stroke:none"
         id="path48" /><path
         d="m 13824.6,8498.5 c -9.6,-73 -17.1,-229.4 -63.7,-220.9 -38,6.9 -77.5,214.2 -118.9,264.2 -60.1,72.6 -95.2,208.2 -98.9,240.1 -7.6,66 -23.1,82.2 -23.1,82.2 l 0.1,0.1 h -0.2 c 0,0 -378.3,1139 -374.3,1412.2 1.1,89 -4.5,268.9 -12.8,470.8 -9,219.6 -21.1,465.1 -30.5,649.2 187.3,2.3 389.6,-21.6 553.4,-48.1 -5.8,-220.7 -16,-445.4 -25,-640.7 -13.5,-290.4 -24.5,-515.6 -15.2,-566 25.7,-138.3 34.7,-860.2 96.9,-1245.5 8.3,-38.2 12.3,-114.7 41.7,-162.7 35.5,-57.9 83.5,-135.3 70.5,-234.9"
         style="fill:#ffb27d;fill-opacity:1;fill-rule:nonzero;stroke:none"
         id="path50" /><path
         d="m 13263.1,9701.3 c -318.1,1016.9 322.2,1003.6 289.1,1512.5 -33.1,508.9 -427.1,1056 -427.1,1056 0,0 -14.1,1.4 -38.7,3.7 -13.5,1.2 -25.2,10 -29.8,22.7 -14.7,40.2 -19,128.2 -18.7,220 0.3,140.1 11,288.7 11,288.7 l -472.5,93.6 -28.1,5.5 c 0.9,-237.6 -44.1,-416.3 -92.8,-516.1 -23.1,-47.5 -68.3,-80 -120.7,-87.3 -101.5,-14.2 -280,-44.6 -400.4,-94.9 -58.5,-24.4 -103.1,-53.5 -118.7,-87.7 -129.8,-285.3 -259.3,-1005.3 -350.3,-1518.9 -50.8,-286.3 -98.8,-465.8 -109.7,-555.6 -17.2,-141.8 431.8,-239.2 488.2,28.2 18.3,87.1 63.4,261.3 115.9,456.5 8,29.6 16.1,59.6 24.3,89.9 92.9,-251.7 140.3,-368.2 137.7,-477 -3.7,-154.8 -108.6,-293.9 -328,-785.8 -121.2,-271.9 1794.1,-692.5 1469.3,346"
         style="fill:#ffb27d;fill-opacity:1;fill-rule:nonzero;stroke:none"
         id="path52" /><path
         d="m 13048.9,12804.9 c 0,0 -10.7,-148.6 -11,-288.7 -264.4,7.4 -404.2,248.6 -461.5,382.3 l 472.5,-93.6"
         style="fill:#e8945b;fill-opacity:1;fill-rule:nonzero;stroke:none"
         id="path54" /><path
         d="m 14010.1,3591.1 -200.7,-49.4 c 0,0 -315.7,432.3 -578.1,1022.1 -166.3,373.6 -311,800.2 -340.1,1196.8 -13.3,179.4 -2.8,352.7 40,512.2 0,0 -56.1,377.3 -132.8,880.6 -85.2,559.6 -195.7,1275 -282.3,1801.1 l 52.3,15.5 854,499.4 c 0,0 392.4,-894.6 292.2,-2239.5 -20.6,-276 38.3,-702.9 -13.9,-1016.7 -89,-536.1 -52.3,-1075 21.5,-1523.7 105.8,-641.6 287.9,-1098.4 287.9,-1098.4"
         style="fill:#ffb27d;fill-opacity:1;fill-rule:nonzero;stroke:none"
         id="path56" /><path
         d="m 11625.4,8898.7 c 137.9,746.2 505.2,1025 446.4,1072 l -0.8,0.9 c -226.5,160.7 -128.6,436.6 -113.7,535.3 -69.6,-18.7 -294,-61 -550.8,80.7 105.8,517.2 256.5,1242.4 407.6,1529.7 7.3,14 19.9,26.9 37.1,39.1 -1.1,1.2 -1.4,1.8 -1.4,1.8 141.4,103.1 430.4,134.7 430.4,134.7 0,0 155.7,-381.3 203.3,-441 308.3,-385.1 862,-211.2 786.7,28.7 -27.2,87.3 -167.2,362.3 -184.1,393 -0.9,1.5 39.1,-3.8 39.1,-3.8 92.9,-12.3 158.7,-21.6 206,-29.8 92.9,-15.8 116,-26.9 139.1,-44.7 81.5,-81.5 187.6,-284 196.1,-645.5 3.2,-134.4 143.2,-1618.5 -309.8,-1592.8 -10.2,0.6 -1.4,-23.7 18.2,-69.5 64,-147 -1973.9,-2202.4 -1749.4,-988.8"
         style="fill:#f9ddbf;fill-opacity:1;fill-rule:nonzero;stroke:none"
         id="path58" /><path
         d="m 13645.2,3330 c 0.2,-113.5 159.4,-126.1 341.8,-118.1 182.3,8 130.9,-34.3 383.8,-56 252.9,-21.7 346.2,55.8 361,91.1 13.3,31.3 -106.7,67 -234.9,108.1 -16.1,5.2 -32.3,10.5 -48.5,15.8 -144.4,48 -233.8,165 -352.8,270.2 -112.7,99.6 -242.7,440.1 -242.7,440.1 l -344.8,40.4 c 0,0 124.5,-305.8 170.1,-437.1 26.8,-77.2 6.5,-168.2 -12.6,-237.8 -10.2,-37.9 -20.5,-76.7 -20.4,-116.7"
         style="fill:#ffb27d;fill-opacity:1;fill-rule:nonzero;stroke:none"
         id="path60" /><path
         d="m 13803.6,5100.6 c -755.3,-431.6 -2606.3,1061.9 -2604.3,1101.6 10.5,211.3 201.6,1482.9 426.1,2696.5 137.9,746.2 505.2,1025 446.4,1072 14.1,-11.3 227.1,-183.2 617.8,-159.8 349.7,21.1 619.1,64.9 685.2,76.6 64,-147 245.4,-515.8 298,-988.8 171.2,-1539.1 130.8,-3798.1 130.8,-3798.1"
         style="fill:#a0312b;fill-opacity:1;fill-rule:nonzero;stroke:none"
         id="path62" /><path
         d="m 13254.4,9882.6 c 0,0 -147.3,-2344.1 -495.6,-3295.2 -348.3,-951 -776.9,-1352.9 -1259.1,-1513.6 -482.2,-160.8 -1915.48,-348.3 -1326.1,669.7 589.4,1018.1 924.2,1192.2 897.4,1942.3 -26.7,750.1 973.2,2199.5 973.2,2199.5 l 577.3,-76.4 632.9,73.7"
         style="fill:#b5453c;fill-opacity:1;fill-rule:nonzero;stroke:none"
         id="path64" /><path
         d="m 12071,9971.6 c 0,0 618.5,-258.1 1285.6,-14.6 l 33.9,-104.5 c 0,0 -686.3,-238.5 -1346.3,32.8 l 26.8,86.3"
         style="fill:#ed7d2b;fill-opacity:1;fill-rule:nonzero;stroke:none"
         id="path66" /><path
         d="m 13262.1,13939.7 c 0,0 -647.5,705.7 -948.8,219.5 0,0 -236.8,-112 -304.3,-527.6 -68.9,-424.1 189.4,-776.1 329.9,-690.3 90.1,55.1 199.8,-24.3 199.8,-24.3 l 723.4,1022.7"
         style="fill:#152847;fill-opacity:1;fill-rule:nonzero;stroke:none"
         id="path68" /><path
         d="m 13123.3,12756.7 c 0,0 -684.9,-44.5 -706,382.5 -21.2,426.9 -123.8,708.7 312.6,755.1 436.4,46.5 529.5,-112.2 571.2,-253 41.7,-140.8 -0.2,-862 -177.8,-884.6"
         style="fill:#f4a36c;fill-opacity:1;fill-rule:nonzero;stroke:none"
         id="path70" /><path
         d="m 12977.1,13003.7 c 0,0 14.3,-49.8 139.1,-36 0,0 104.8,11.6 98.9,66.7 0,0 -103.8,34.5 -238,-30.7"
         style="fill:#ffffff;fill-opacity:1;fill-rule:nonzero;stroke:none"
         id="path72" /><path
         d="m 11297.4,13523.4 c 0,0 2096.8,941.4 2636.3,1022.9 539.4,81.6 719.4,101.2 634,-89 -85.3,-190.2 -606.9,-971.7 -1506.7,-1077.2 -899.9,-105.5 -1244.3,-452.6 -1749.1,-420.4 -504.7,32.2 -658.7,171.1 -459.6,326.7 199,155.5 445.1,237 445.1,237"
         style="fill:#ed7d2b;fill-opacity:1;fill-rule:nonzero;stroke:none"
         id="path74" /><path
         d="m 11935,13592.4 c 0,0 -45.9,615.6 84.7,799.5 130.7,183.8 419.2,78.4 603.8,211 184.7,132.6 733.6,-515.1 733.6,-515.1 0,0 -572.4,-488.6 -1422.1,-495.4"
         style="fill:#f99746;fill-opacity:1;fill-rule:nonzero;stroke:none"
         id="path76" /><path
         d="m 12392.2,9560 -35.9,6 -913.5,-1277.8 c 0,0 555.3,-35.8 818,107.5 262.7,143.3 250.8,1097.2 250.8,1097.2 l -119.4,67.1"
         style="fill:#8fb5e2;fill-opacity:1;fill-rule:nonzero;stroke:none"
         id="path78" /><path
         d="m 10994.9,9978 c 0,0 859.9,-382.1 1397.3,-418 0,0 -238.9,-1158.3 -776.3,-1253.9 -537.4,-95.5 -1098.7,286.6 -1074.8,585.2 23.9,298.5 453.8,1086.7 453.8,1086.7"
         style="fill:#aac9f5;fill-opacity:1;fill-rule:nonzero;stroke:none"
         id="path80" /><path
         d="m 12392.2,9560 c 0,0 101.5,51.5 119.4,-67.1 0,0 -111.2,22.4 -119.4,67.1"
         style="fill:#8fb5e2;fill-opacity:1;fill-rule:nonzero;stroke:none"
         id="path82" /><path
         d="m 12444.4,9524.2 c -19.3,0 -35.2,15.1 -35.8,34.3 -0.2,6.3 -21.1,643.6 -67.9,1291.1 -84.4,1168.7 -178,1355.1 -214.3,1381 -16.1,11.4 -19.7,33.5 -8.1,49.4 11.6,15.8 34,19.4 50,7.9 63.5,-45.2 157.9,-243.1 243.9,-1433.4 46.9,-649 67.8,-1287.4 68,-1293.8 0.6,-19.5 -14.9,-35.8 -34.7,-36.5 h -1.1"
         style="fill:#8fb5e2;fill-opacity:1;fill-rule:nonzero;stroke:none"
         id="path84" /><path
         d="m 11354.7,10033.3 c 0,0 109,-742 377.7,-1252.5 l 197,44.8 -85.5,1246.1 c 0,0 -229.9,146.5 -489.2,-38.4"
         style="fill:#ffb27d;fill-opacity:1;fill-rule:nonzero;stroke:none"
         id="path86" /><path
         d="m 11902.5,8879.3 c 0,0 170.2,-44.7 228.4,-85 58.2,-40.4 94.1,-207.5 37.3,-276.2 -35.7,-43.3 -144.8,97 -211.9,97 -67.2,0 -206,40.3 -223.9,165.7 -18,125.4 170.1,98.5 170.1,98.5"
         style="fill:#ffb27d;fill-opacity:1;fill-rule:nonzero;stroke:none"
         id="path88" /><path
         d="m 11917.2,8875.5 c 0,0 90.7,-13.3 200.4,-10.5 0,0 11.5,-19.1 -17.1,-27.7 -28.7,-8.5 -99.3,-16.2 -99.3,-16.2 l -89.7,58.2 5.7,-3.8"
         style="fill:#ffb27d;fill-opacity:1;fill-rule:nonzero;stroke:none"
         id="path90" /><path
         d="m 22681.3,8355.9 -222.4,-983.6 116.3,-298.9 c -810.8,-130.8 -955,-532.3 -1159.2,-383.7 0,0 -14.4,261.5 -9.2,363.4 5.1,101.8 -14.8,255.5 3.9,403.1 l 98.8,914.9 c 0,0 -16.7,562.8 200.8,583.4 78.9,7.5 197.8,86.6 206.6,165.3 1.4,12.4 34.1,203.5 40.2,335.8 l 384.2,-189.8 c 0,0 -18.7,-227.4 -13.7,-278.7 0.5,-3.9 1,-7.7 1.4,-11.5 6.6,-57.2 66.4,-93.9 121.4,-111 338.6,-105.9 230.9,-508.7 230.9,-508.7"
         style="fill:#ffb27d;fill-opacity:1;fill-rule:nonzero;stroke:none"
         id="path92" /><path
         d="m 22507.8,8352.8 c -1.8,-13.8 -14.4,-23.6 -28.2,-21.8 -13.7,1.8 -23.5,14.4 -21.7,28.1 1.7,13.8 14.3,23.6 28.1,21.8 13.8,-1.8 23.5,-14.4 21.8,-28.1"
         style="fill:#ed975d;fill-opacity:1;fill-rule:nonzero;stroke:none"
         id="path94" /><path
         d="m 21896.5,8430.9 c -1.8,-13.8 -14.4,-23.5 -28.2,-21.7 -13.7,1.7 -23.5,14.3 -21.7,28.1 1.7,13.8 14.3,23.5 28.1,21.7 13.8,-1.7 23.5,-14.3 21.8,-28.1"
         style="fill:#ed975d;fill-opacity:1;fill-rule:nonzero;stroke:none"
         id="path96" /><path
         d="m 22492,7118.5 c 0,0 430.2,-1074.7 334,-1524.6 -96.2,-449.9 -453.8,-1001.3 -453.8,-1001.3 l -205.1,132.6 c 0,0 234.2,822 167.5,1042.8 -66.7,220.9 -349.4,1174 -349.4,1174 l 506.8,176.5"
         style="fill:#ffb27d;fill-opacity:1;fill-rule:nonzero;stroke:none"
         id="path98" /><path
         d="m 22398.4,4704.8 c 0,0 25.7,-198 127.6,-346 101.8,-147.9 154.1,-243.8 77,-265.8 -77.1,-22.1 -265.3,141.4 -361.1,210.3 -95.8,69 -309.9,135 -78.7,467.7 l 235.2,-66.2"
         style="fill:#ffb27d;fill-opacity:1;fill-rule:nonzero;stroke:none"
         id="path100" /><path
         d="m 22050.1,6995.7 c 0,0 46.2,-1193.6 -265.5,-1532.1 -186.4,-202.3 -1098.8,-261.5 -1098.8,-261.5 l -110.9,188.6 c 0,0 827.6,376.1 833.6,433.9 23.7,229.4 -1.7,1228.5 -1.7,1228.5 l 643.3,-57.4"
         style="fill:#ffb27d;fill-opacity:1;fill-rule:nonzero;stroke:none"
         id="path102" /><path
         d="m 20692.7,5203.8 c 0,0 -194,-47.4 -329.8,-164.8 -135.9,-117.5 -225.5,-180 -255.8,-105.8 -30.4,74.2 111.4,279.3 169.4,382.1 58,102.7 100.1,322.8 456.1,129.5 l -39.9,-241"
         style="fill:#ffb27d;fill-opacity:1;fill-rule:nonzero;stroke:none"
         id="path104" /><path
         d="m 22450.4,8864.6 c 0,0 176,-28.2 511,158.1 271.6,151 667.1,900.5 667.1,900.5 L 23759,9862 c 0,0 -261.3,-882.6 -435.1,-1060.2 -173.9,-177.5 -642.6,-445.9 -642.6,-445.9 l -230.9,508.7"
         style="fill:#ffb27d;fill-opacity:1;fill-rule:nonzero;stroke:none"
         id="path106" /><path
         d="m 23628.5,9923.2 c 0,0 -6.5,126.2 7.7,142.5 14.2,16.4 40.3,-63.6 45.8,-52.2 5.5,11.4 65.5,154.9 114.5,142.2 68.8,-17.9 49.1,-92.9 39.3,-154.2 -9.9,-61.2 -76.8,-139.5 -76.8,-139.5 l -130.5,61.2"
         style="fill:#ffb27d;fill-opacity:1;fill-rule:nonzero;stroke:none"
         id="path108" /><path
         d="m 21730.5,8952.4 c 0,0 -176,-28.2 -511,158.1 -271.7,151.1 -667.1,900.5 -667.1,900.5 l -130.5,-61.1 c 0,0 261.2,-882.7 435.1,-1060.2 173.8,-177.6 659.6,-494.9 659.6,-494.9 l 213.9,557.6"
         style="fill:#ffb27d;fill-opacity:1;fill-rule:nonzero;stroke:none"
         id="path110" /><path
         d="m 20552.4,10011 c 0,0 6.4,126.2 -7.8,142.6 -14.2,16.3 -40.2,-63.7 -45.7,-52.3 -5.5,11.4 -65.5,155 -114.5,142.2 -68.8,-17.9 -49.2,-92.8 -39.3,-154.1 9.9,-61.3 76.8,-139.5 76.8,-139.5 l 130.5,61.1"
         style="fill:#ffb27d;fill-opacity:1;fill-rule:nonzero;stroke:none"
         id="path112" /><path
         d="m 21946.4,9268.2 c 0,0 40.6,-129.4 383.2,-173.2 l 4.1,67.2 -387.3,106"
         style="fill:#ed975d;fill-opacity:1;fill-rule:nonzero;stroke:none"
         id="path114" /><path
         d="m 22467.2,9173.4 c 0,0 -563,-138.8 -619.6,277.8 -56.6,416.7 152.5,715.2 311.6,730.6 317.2,30.7 383.6,-96.3 435,-230.5 51.5,-134.2 132.6,-717.8 -127,-777.9"
         style="fill:#ffb27d;fill-opacity:1;fill-rule:nonzero;stroke:none"
         id="path116" /><path
         d="m 22295.6,9413 c 0,0 49.1,-66 153,-45.7 0,0 113.2,19.4 96,106.6 0,0 -140.4,4.9 -249,-60.9"
         style="fill:#ffffff;fill-opacity:1;fill-rule:nonzero;stroke:none"
         id="path118" /><path
         d="m 21940.3,9255.9 c 0,0 -99.2,75.7 -69.1,257.4 0,0 -66.1,81.6 -10.5,138 54.2,54.9 111,-68.9 124.3,-49.6 13.4,19.4 9.7,345 87.3,319.4 435.7,-143.1 661.4,197.3 661.4,197.3 0,0 -490.6,433.3 -919.8,188.5 -497.1,-283.6 -258.4,-1051 126.4,-1051"
         style="fill:#2c3a64;fill-opacity:1;fill-rule:nonzero;stroke:none"
         id="path120" /><path
         d="m 21574.2,10031.9 c 0,0 -32.4,72.8 -11.9,129.8 0,0 9.2,-74.2 40.8,-104.1 31.6,-29.8 -28.9,-25.7 -28.9,-25.7"
         style="fill:#2c3a64;fill-opacity:1;fill-rule:nonzero;stroke:none"
         id="path122" /><path
         d="m 21579.8,10086.1 c 0,0 -67.4,0.1 -93.2,-56.9 0,0 43.4,38.5 94.6,9 l -1.4,47.9"
         style="fill:#2c3a64;fill-opacity:1;fill-rule:nonzero;stroke:none"
         id="path124" /><path
         d="m 21416,6689.8 634.1,-32.6 c 0,0 182.1,16.7 341.4,43.8 126.7,21.5 239,49.6 234.1,81 -11.1,70.7 -134.7,731.8 -134.7,731.8 0,0 -544.1,-88.8 -1063.6,96.2 0,0 -121.2,-353.4 -11.3,-920.2"
         style="fill:#f77d48;fill-opacity:1;fill-rule:nonzero;stroke:none"
         id="path126" /><path
         d="m 20841.3,9094.9 0.1,0.1 h -0.1 z"
         style="fill:#e26337;fill-opacity:1;fill-rule:nonzero;stroke:none"
         id="path128" /><path
         d="m 22050.1,6657.2 c 0,0 44.5,329.3 137,416.2 0,0 -49.3,-220.5 0,-401.4 l -137,-14.8"
         style="fill:#e26337;fill-opacity:1;fill-rule:nonzero;stroke:none"
         id="path130" /><path
         d="m 19055,6076.5 c 0,0 84.4,-1296.2 -58.3,-1484.2 -142.8,-188.1 -380.8,49.9 -420.1,170.9 -39.4,121.1 -204.5,1144.2 -106.2,1204.5 98.2,60.3 584.6,108.8 584.6,108.8"
         style="fill:#f2a36d;fill-opacity:1;fill-rule:nonzero;stroke:none"
         id="path132" /><path
         d="m 17705.8,4655.2 c 121.6,10.2 497,-35.6 791.8,-76 175,-23.9 321.6,-46 369.9,-53.4 1.2,-0.1 2.2,-0.3 3.2,-0.5 6.5,-1 10.8,-1.6 12.7,-1.9 l 1,-0.2 c 0,0 184.9,339.9 -189.7,485.4 -68.8,26.7 -145.9,37.7 -226,37.9 -12,0.1 -24,-0.1 -36.1,-0.6 -347.8,-12.4 -736.1,-211.4 -736.1,-211.4 l 9.3,-179.3"
         style="fill:#f2a36d;fill-opacity:1;fill-rule:nonzero;stroke:none"
         id="path134" /><path
         d="m 17705.8,4655.2 c 0,0 -324.1,-233.3 -393.7,-171.5 -69.6,61.9 144.4,211.5 170.2,273.4 25.8,61.8 139.6,144.4 214.2,77.4 74.6,-67.1 9.3,-179.3 9.3,-179.3"
         style="fill:#f2a36d;fill-opacity:1;fill-rule:nonzero;stroke:none"
         id="path136" /><path
         d="m 17517.4,9483.8 c 0,0 -277.9,216.6 -498.6,118.9 -220.7,-97.8 -349.9,248.7 -614.6,260.7 -264.7,12.1 -411,-104.3 -341.2,-327.8 69.8,-223.6 521.1,-571.7 719.9,-484.5 198.9,87.2 346.3,432.3 462.4,408.5 116.1,-23.8 277.9,-153.6 277.9,-153.6 l -5.8,177.8"
         style="fill:#2c3a64;fill-opacity:1;fill-rule:nonzero;stroke:none"
         id="path138" /><path
         d="m 18615.6,7879.4 c -234.7,37 -314.2,334.2 -129.8,484.1 186.5,151.6 361.8,314.3 402.9,418.3 95.7,241.8 153.6,766.6 153.6,766.6 l 168.3,-52.1 c 0,0 71.2,-579.5 -15.6,-905.3 -63.1,-236.7 -285.5,-513.7 -402.5,-647.5 -44,-50.4 -110.8,-74.6 -176.9,-64.1"
         style="fill:#ffb27d;fill-opacity:1;fill-rule:nonzero;stroke:none"
         id="path140" /><path
         d="m 19210.6,9496.3 c 0,0 -8.9,234.7 -80.9,323 -72,88.2 -125.2,165.4 -196.5,127 -71.4,-38.4 36.8,-253.2 23.3,-261.5 -13.6,-8.4 -108.9,75.8 -111.3,49.4 -2.4,-26.3 113.3,-139.5 135.8,-151.7 22.5,-12.3 61.3,-34.1 61.3,-34.1 l 168.3,-52.1"
         style="fill:#ffb27d;fill-opacity:1;fill-rule:nonzero;stroke:none"
         id="path142" /><path
         d="m 18363.8,5922.1 c 0,0 84.4,-1296.1 -58.4,-1484.1 -142.8,-188.1 -450.3,44.1 -489.6,165.1 -39.4,121.1 -134.9,1150 -36.7,1210.3 98.3,60.3 584.7,108.7 584.7,108.7"
         style="fill:#ffb27d;fill-opacity:1;fill-rule:nonzero;stroke:none"
         id="path144" /><path
         d="m 18276.5,4407.4 c 0,0 -798.5,-681.1 -924.9,-849.9 l -140.2,112 c 0,0 236.4,796.1 593.9,979.6 357.5,183.5 471.2,-241.7 471.2,-241.7"
         style="fill:#ffb27d;fill-opacity:1;fill-rule:nonzero;stroke:none"
         id="path146" /><path
         d="m 17597.4,7676.1 c 224.4,77.9 250.1,384.5 42.2,499.4 -210.4,116.3 -411.7,245.5 -470.6,340.5 -136.9,221.1 -286.7,727.4 -286.7,727.4 l -156.4,-81 c 0,0 32.3,-583 175.4,-888.4 103.9,-221.7 371.8,-455 510.6,-566.1 52.3,-41.8 122.3,-53.8 185.5,-31.8 v 0"
         style="fill:#ffb27d;fill-opacity:1;fill-rule:nonzero;stroke:none"
         id="path148" /><path
         d="m 16782.9,9051.1 c 0,0 -140.1,188.5 -139.3,302.4 0.8,113.8 -6.2,207.3 73.5,222.1 79.7,14.8 130,-220.3 145.8,-218.4 15.7,2 37.3,127.3 55.7,108.3 18.4,-19 -0.9,-179.7 -10.7,-203.4 -9.9,-23.6 -26.4,-65 -26.4,-65 l -98.6,-146"
         style="fill:#ffb27d;fill-opacity:1;fill-rule:nonzero;stroke:none"
         id="path150" /><path
         d="m 18294.5,8353.9 c 0,0 112.2,-5 157.2,19.6 144.2,78.8 334.5,263.5 334.5,263.5 0,0 385.5,-407.8 115.9,-894.8 -13.8,-24.9 -607.6,611.7 -607.6,611.7"
         style="fill:#f77d48;fill-opacity:1;fill-rule:nonzero;stroke:none"
         id="path152" /><path
         d="m 17800.6,8259.7 c 0,0 -296.7,116.3 -477,111.1 0,0 -265.4,-689.7 149.2,-944.9 414.6,-255.2 327.8,833.8 327.8,833.8"
         style="fill:#f77d48;fill-opacity:1;fill-rule:nonzero;stroke:none"
         id="path154" /><path
         d="m 18205.1,9545.1 c 0,0 295.3,327 126.5,516.2 -168.9,189.2 74.7,510.1 -242.4,595.9 -317.1,85.7 -579.4,-160.9 -509.8,-439.7 69.6,-278.8 428.9,-313.2 478,-437.1 49,-123.9 46.9,-189.2 46.9,-189.2 l 100.8,-46.1"
         style="fill:#2c3a64;fill-opacity:1;fill-rule:nonzero;stroke:none"
         id="path156" /><path
         d="m 19223.1,5443.7 43.2,-117.4 c 0,0 -44.9,-80.2 -167.4,-65 -122.5,15.2 -222.8,-31.5 -279,-67.5 -56.1,-36 -140.9,-33.7 -230.9,-20.6 -89.9,13.2 -86.4,-3.1 -134,-1.4 -47.7,1.7 -80.6,50.9 -134.8,33.7 -54.3,-17.3 -195.2,-15.9 -274.9,16.4 -79.8,32.2 -265.1,3.1 -306.1,45.5 -41,42.4 -78.6,91.3 -160,98.3 -81.4,7 -138.6,18.9 -162.5,71 -24,52.1 -115.2,60.4 -147.5,76.8 -32.4,16.5 -32.1,66.3 -66.5,79.9 -34.5,13.6 -80,45.1 -92.4,77.3 -12.4,32.1 -66.5,27.3 -72.9,45.7 -6.4,18.4 28.9,47.7 28.9,47.7 l 2156.8,-320.4"
         style="fill:#e26337;fill-opacity:1;fill-rule:nonzero;stroke:none"
         id="path158" /><path
         d="m 19223.1,5443.7 c -444.8,-343.8 -1597.8,-329.2 -2156.8,320.4 -7.5,1.6 289.6,1494.6 289.6,1494.6 0,0 1.4,664.9 77.5,756.2 287.5,345.5 785.6,349.6 1011.9,334.8 660.1,-43.3 822,-2872.4 777.8,-2906"
         style="fill:#f77d48;fill-opacity:1;fill-rule:nonzero;stroke:none"
         id="path160" /><path
         d="m 18436,9381 c -4.3,6.6 -182.9,268.1 -500.9,310.2 -257.7,34.2 -491.1,-155.2 -521.4,-413.4 -30.5,-259.4 21.7,-592.3 446.9,-697.9 L 18436,9381"
         style="fill:#2c3a64;fill-opacity:1;fill-rule:nonzero;stroke:none"
         id="path162" /><path
         d="m 18173.2,8126.6 -0.9,-0.4 c -139.6,-62.9 -314.2,-0.3 -381.9,137.1 l 0.4,1.3 c 0,0 60.7,119.3 69.8,315.3 3.8,82.4 0.3,177.6 -17.6,281.6 l 420.6,-165.3 c 0,0 -5.9,-37.9 -6.9,-93.2 -0.9,-59.7 3.9,-139.6 28.2,-213.5 l 0.6,-1.9 c 34.6,-103.4 -12.9,-216.2 -112.3,-261"
         style="fill:#ffb27d;fill-opacity:1;fill-rule:nonzero;stroke:none"
         id="path164" /><path
         d="m 18284.9,8389.5 c -228.2,-16.5 -424.3,190.4 -424.3,190.4 l 396.1,23.1 c -0.9,-59.7 3.9,-139.6 28.2,-213.5"
         style="fill:#ea9c68;fill-opacity:1;fill-rule:nonzero;stroke:none"
         id="path166" /><path
         d="m 18382.7,8527.3 c 0,0 -442.1,-164.9 -634.5,180.6 -207.7,372.8 -50.4,675.1 101.9,709.6 303.6,68.6 493.8,-30.9 560.2,-149.5 66.3,-118.5 216.6,-652 -27.6,-740.7"
         style="fill:#ffb27d;fill-opacity:1;fill-rule:nonzero;stroke:none"
         id="path168" /><path
         d="m 18182.6,8712.7 c 0,0 23.6,-45 140.8,-6.8 0,0 98.4,32 81.7,83.8 0,0 -106.6,12.4 -222.5,-77"
         style="fill:#ffffff;fill-opacity:1;fill-rule:nonzero;stroke:none"
         id="path170" /><path
         d="m 18038.7,9382.3 c 0,0 57.2,-418.2 -335.7,-581 -156.3,-64.8 -261.3,573.4 65,713.1 326.3,139.7 657.9,-0.8 704.8,-223.2 46.9,-222.4 18.9,-270.1 18.9,-270.1 0,0 -169.9,420.2 -453,361.2"
         style="fill:#2c3a64;fill-opacity:1;fill-rule:nonzero;stroke:none"
         id="path172" /><path
         d="m 17523.2,9306 c -15.7,55.9 -4.5,71.9 13.5,76.9 17.9,5.1 35.8,-2.8 51.4,-58.8 15.7,-55.9 -4.1,-110.4 -4.1,-110.4 0,0 -45.2,36.3 -60.8,92.3"
         style="fill:#f99746;fill-opacity:1;fill-rule:nonzero;stroke:none"
         id="path174" /><path
         d="m 17653.5,9306.3 c 45,36.7 64.1,32.9 75.9,18.4 11.8,-14.4 11.7,-33.9 -33.3,-70.7 -45,-36.7 -102.9,-40.3 -102.9,-40.3 0,0 15.2,55.9 60.3,92.6"
         style="fill:#f99746;fill-opacity:1;fill-rule:nonzero;stroke:none"
         id="path176" /><path
         d="m 17478.4,9257.3 c -57.6,8.1 -71.9,-5.2 -74.5,-23.6 -2.6,-18.5 7.6,-35.1 65.2,-43.2 57.5,-8 108.8,18.9 108.8,18.9 0,0 -41.9,39.9 -99.5,47.9"
         style="fill:#f99746;fill-opacity:1;fill-rule:nonzero;stroke:none"
         id="path178" /><path
         d="m 17505,9128.7 c -26.2,-51.9 -18.3,-69.7 -1.6,-78.1 16.6,-8.4 35.6,-4.2 61.8,47.7 26.2,51.9 17.4,109.1 17.4,109.1 0,0 -51.3,-26.8 -77.6,-78.7"
         style="fill:#f99746;fill-opacity:1;fill-rule:nonzero;stroke:none"
         id="path180" /><path
         d="m 17695,9181.8 c 49.3,-30.7 51.8,-50.1 42,-65.9 -9.9,-15.8 -28.4,-22 -77.7,8.7 -49.3,30.8 -71.4,84.3 -71.4,84.3 0,0 57.8,3.7 107.1,-27.1"
         style="fill:#f99746;fill-opacity:1;fill-rule:nonzero;stroke:none"
         id="path182" /><path
         d="m 17558.5,9213.6 c -0.5,13.6 10.2,25 23.7,25.4 13.6,0.5 24.9,-10.1 25.4,-23.6 0.5,-13.6 -10.1,-25 -23.7,-25.4 -13.5,-0.5 -24.9,10.1 -25.4,23.6"
         style="fill:#ffb93e;fill-opacity:1;fill-rule:nonzero;stroke:none"
         id="path184" /><path
         d="m 17351.6,3557.5 c 0,0 223.5,-241.8 169.4,-365.5 -54.2,-123.8 -487.3,146.9 -479.6,255.2 7.7,108.3 170,222.3 170,222.3 l 140.2,-112"
         style="fill:#ffb27d;fill-opacity:1;fill-rule:nonzero;stroke:none"
         id="path186" /><path
         d="m 8995.15,12907.2 c 0,0 661.11,-136.6 831.02,-343.1 169.87,-206.5 84.33,-1459.6 200.63,-1821.3 137.9,-428.9 97.6,-855.2 97.6,-855.2 l -929.56,739.4 -199.69,2280.2"
         style="fill:#ffb27d;fill-opacity:1;fill-rule:nonzero;stroke:none"
         id="path188" /><path
         d="m 9626.51,10648.7 c -54.94,0 -92.2,45 -92.2,45 l 139.2,1056.4 c 0,0 252.92,-676.4 121.31,-944.3 -60.83,-123.8 -121.1,-157.1 -168.31,-157.1"
         style="fill:#f6a56e;fill-opacity:1;fill-rule:nonzero;stroke:none"
         id="path190" /><path
         d="m 7684.12,3134.9 c 0,0 -69.13,-422.1 17.33,-473.2 l 1149.82,-85.3 c 0,0 10.12,132.7 -172.29,176.2 -182.4,43.6 -498.55,176.4 -535.09,421.4 -36.53,245 -459.77,-39.1 -459.77,-39.1"
         style="fill:#ffb27d;fill-opacity:1;fill-rule:nonzero;stroke:none"
         id="path192" /><path
         d="m 10292.6,3382.9 c 0,0 -69.2,-422.2 17.3,-473.3 l 1149.8,-85.3 c 0,0 10.1,132.7 -172.3,176.3 -182.4,43.5 -541.2,116.6 -577.7,361.6 -36.5,244.9 -417.1,20.7 -417.1,20.7"
         style="fill:#ffb27d;fill-opacity:1;fill-rule:nonzero;stroke:none"
         id="path194" /><path
         d="m 9112.5,9064 c 0,0 -117.44,-740.3 -256.99,-1630.3 -189.63,-1209 -440.1,-2226.5 -500.3,-2504.1 -204.52,-943.2 -207.64,-1775.5 -207.64,-1775.5 0,0 -90.06,-126.8 -463.45,-19.2 0,0 -156.51,617.5 -256.59,2202 -15.43,244.2 79.52,621.9 79.52,641.6 2.35,1215.7 28.38,3353.7 28.38,3353.7 L 9112.5,9064"
         style="fill:#ffb27d;fill-opacity:1;fill-rule:nonzero;stroke:none"
         id="path196" /><path
         d="m 8110.31,12747.5 c 0,0 764.31,-306.5 1181.85,-144.9 0,0 -114.05,125.3 -304.54,211.3 8.91,86.6 15.33,161.7 17.59,225.2 8.12,146.6 2.5,229 2.5,229 l -300.81,205 -285.39,196.4 c 62.59,-602.7 -311.2,-922 -311.2,-922"
         style="fill:#ffb27d;fill-opacity:1;fill-rule:nonzero;stroke:none"
         id="path198" /><path
         d="m 7576.51,12442.7 c -0.43,-2.3 -0.07,-1018.3 70.86,-1643.2 7.59,-67.4 12.63,-140.6 15.53,-217.6 14.73,-391.6 -25.98,-883.4 -63.77,-1236.4 -27.4,-255.6 -53.21,-438.6 -55.3,-457.9 -5.05,-45.2 2013.85,-282.9 2027.85,-272.6 5.84,3.6 -279.11,964.7 -53.91,1862.3 275.42,1097.5 195.47,1916.8 -40.6,2146.9 -93.93,91.7 -482.06,283 -482.06,283 -149.71,-17.8 -133.09,-191.8 -283.04,-104.1 -164.31,95.3 -388.41,205.3 -419.61,185 -235.48,-146.1 -599.79,-83.3 -715.95,-545.4"
         style="fill:#ffb27d;fill-opacity:1;fill-rule:nonzero;stroke:none"
         id="path200" /><path
         d="m 9005.21,13039.1 c -362.53,71 -572.84,399.1 -572.84,399.1 l 274.53,34.9 300.81,-205 c 0,0 1.9,-27.9 1.89,-80.2 0,-37.5 -0.99,-87.6 -4.39,-148.8 v 0"
         style="fill:#f6a56e;fill-opacity:1;fill-rule:nonzero;stroke:none"
         id="path202" /><path
         d="m 9137.2,13286.8 c 0,0 -697.98,-163.7 -793.88,265.8 -95.89,429.4 -250.56,697.4 191.03,820.1 441.59,122.7 565.06,-22.2 632.48,-157.8 67.43,-135.6 149.46,-874.5 -29.63,-928.1"
         style="fill:#ffb27d;fill-opacity:1;fill-rule:nonzero;stroke:none"
         id="path204" /><path
         d="m 8028.37,14390.4 c -6.92,6.9 -22.1,11.8 -55.11,11.3 0,0 25.16,18.2 60.26,21.5 3.76,46.2 22.56,128.9 99.93,153.9 0,0 -40.76,-25.4 -42.97,-74.4 84.78,99.8 275.49,181.3 819.36,175.6 716.78,-7.6 513,-480.1 424.41,-540.9 -88.59,-60.7 -331.1,72.6 -502.13,47.2 -171.04,-25.3 -186.77,-276.1 -242.78,-314.2 -56.01,-38 -37.19,23.8 -118.55,54.1 -81.37,30.3 -79.95,-101 -51.34,-184.5 28.6,-83.5 -72.19,-203.1 -72.19,-203.1 0,0 0,0 -117.66,110.6 -117.65,110.6 -255.09,603.4 -212.53,713.4 3.76,9.7 7.45,19.5 11.3,29.5"
         style="fill:#2c3a64;fill-opacity:1;fill-rule:nonzero;stroke:none"
         id="path206" /><path
         d="m 9500.55,9333.1 c 0,0 965.05,-2154.3 1158.35,-3101.3 193.4,-947 49.2,-2935.3 49.2,-2935.3 l -415.5,86.4 c 0,0 -667.58,1633 -455.67,2518 100.83,421.2 -1940.53,1544.9 -1683.14,2749.8 165.11,772.9 1346.76,682.4 1346.76,682.4"
         style="fill:#ffb27d;fill-opacity:1;fill-rule:nonzero;stroke:none"
         id="path208" /><path
         d="m 8959.59,10139.7 c -2.26,-29.7 -15.61,-52.8 -29.83,-51.8 -14.21,1.1 -23.91,26 -21.64,55.7 2.26,29.6 15.62,52.8 29.83,51.7 14.22,-1.1 23.91,-26 21.64,-55.6"
         style="fill:#ed985f;fill-opacity:1;fill-rule:nonzero;stroke:none"
         id="path210" /><path
         d="m 10427,7228.9 c 0,0 -417.6,-232 -1023.14,-334 l -0.12,-0.1 c -103.13,-17.4 -216.25,-32.1 -339.89,-42.6 l -284.04,279.1 -851,835.9 -295.52,1737.9 c 0,0 978.83,-271.2 1920.65,-110.7 0,0 543.26,-1020.5 873.06,-2365.5"
         style="fill:#ffffff;fill-opacity:1;fill-rule:nonzero;stroke:none"
         id="path212" /><path
         d="m 9403.86,6894.9 -0.12,-0.1 c -103.13,-17.4 -216.25,-32.1 -339.89,-42.6 l -284.04,279.1 268.62,1575.8 c 28.96,-675.6 355.43,-1812.2 355.43,-1812.2"
         style="fill:#dceaff;fill-opacity:1;fill-rule:nonzero;stroke:none"
         id="path214" /><path
         d="m 7633.27,9705.1 c 0,0 -151.7,-346.4 -187.5,-815.8 -35.79,-469.4 -20.53,-1912.2 -20.53,-1912.2 0,0 318.53,-274.5 1331.19,-152.5 l 367.29,2386.5 -1490.45,494"
         style="fill:#ffffff;fill-opacity:1;fill-rule:nonzero;stroke:none"
         id="path216" /><path
         d="m 8185.27,12938.1 c 0,0 733.88,-318 809.84,-30.9 0,0 697.27,-118.5 831.06,-343.1 133.79,-224.7 183.13,-1069.4 183.13,-1069.4 0,0 -148.1,-98.7 -345.63,-156.4 l 139.91,-2131.6 c 0,0 -567.9,-452.7 -2460.9,-49.4 l 279.83,3004.1 562.76,776.7"
         style="fill:#f77d48;fill-opacity:1;fill-rule:nonzero;stroke:none"
         id="path218" /><path
         d="m 9363.77,10956.5 c -119.65,-18.3 -229.45,-61.2 -325.02,-122.9 -266.45,-172.1 -421.87,-489.8 -370.96,-823.6 69.18,-453.6 492.91,-765.2 946.49,-696 386.82,59 670.52,376 702.42,749.4 5.7,64.4 3.7,130.4 -6.4,197.1 -69.2,453.5 -492.96,765.2 -946.53,696"
         style="fill:#c5ddff;fill-opacity:1;fill-rule:nonzero;stroke:none"
         id="path220" /><path
         d="m 9363.77,10956.5 c -119.65,-18.3 -229.45,-61.2 -325.02,-122.9 -47.11,-120 -64.23,-253.6 -43.4,-390.2 63.01,-413.1 449.03,-697 862.31,-633.9 185.74,28.3 345.34,121.9 459.04,253.9 5.7,64.4 3.7,130.4 -6.4,197.1 -69.2,453.5 -492.96,765.2 -946.53,696"
         style="fill:#f8fbff;fill-opacity:1;fill-rule:nonzero;stroke:none"
         id="path222" /><path
         d="m 9614.28,9314 v 0 c 324.19,318.1 371.44,650.4 350.24,877 -22.94,245.2 -124.05,417.9 -125.08,419.7 l -10.98,-6.6 c 1.01,-1.7 100.75,-172.2 123.39,-414.9 20.81,-223.6 -17.15,-560.7 -337.57,-875.2"
         style="fill:#163560;fill-opacity:1;fill-rule:nonzero;stroke:none"
         id="path224" /><path
         d="m 8658.19,10141 v 0 c 124.14,336.9 414.31,457.5 639.75,499.9 244.93,46.1 463.07,11.8 465.24,11.5 l 2.04,12.6 c -2.19,0.3 -222.54,35 -469.65,-11.5 -228.69,-43.1 -511.17,-170 -637.38,-512.5"
         style="fill:#163560;fill-opacity:1;fill-rule:nonzero;stroke:none"
         id="path226" /><path
         d="m 9862.97,10673.7 3.33,-12.3 c 1.93,0.5 198.1,55.3 297.1,-40.8 -104.2,101.2 -292.28,55.3 -300.43,53.1"
         style="fill:#163560;fill-opacity:1;fill-rule:nonzero;stroke:none"
         id="path228" /><path
         d="m 9424.07,10963.7 c 209.3,-22.5 393.4,-295.8 395.21,-298.5 l 10.63,7.1 c -0.46,0.6 -46.93,69.9 -119.15,141 -66.94,65.9 -173.95,138.3 -286.69,150.4"
         style="fill:#163560;fill-opacity:1;fill-rule:nonzero;stroke:none"
         id="path230" /><path
         d="m 9806.33,10724.9 c -9.03,0.1 -17.33,-1.8 -24.55,-5.1 -20.14,-9.4 -31.95,-30.4 -28.2,-55 5.1,-33.5 36.98,-60.7 71.21,-60.9 29.2,-0.2 50.68,19.4 53.18,45.9 0.45,4.6 0.32,9.3 -0.43,14.2 -5.09,33.4 -36.98,60.7 -71.21,60.9"
         style="fill:#163560;fill-opacity:1;fill-rule:nonzero;stroke:none"
         id="path232" /><path
         d="m 7871.23,12825.3 c 0,0 -559.31,-86.2 -693.44,-387.1 -178.29,-400 -430.95,-1808.7 -230.13,-2091.1 204.03,-286.9 1521.18,-463.1 1521.18,-463.1 l 122.84,263.6 c 0,0 -1118.73,500.1 -1123.17,549.9 -4.45,49.7 101.11,726.4 252.42,1067.3 132.21,297.9 150.3,1060.5 150.3,1060.5"
         style="fill:#ffb27d;fill-opacity:1;fill-rule:nonzero;stroke:none"
         id="path234" /><path
         d="m 8591.68,10147.6 c 0,0 158.38,33.5 265.98,-16.7 107.59,-50.2 285.23,-42.1 276.66,-95.6 -8.57,-53.4 -291.64,-52.8 -247.68,-93.2 43.95,-40.3 426.23,-188.9 321.24,-303.2 -104.99,-114.3 -347.52,-94.1 -420.72,-51.2 -73.2,43 -351.01,322.5 -351.01,322.5 l 155.53,237.4"
         style="fill:#ffb27d;fill-opacity:1;fill-rule:nonzero;stroke:none"
         id="path236" /><path
         d="m 8185.27,12938.1 c 0,0 -802.47,-191.3 -962.96,-388.8 -160.49,-197.6 -361.11,-978.4 -361.11,-978.4 0,0 358.02,-271.6 808.64,-203.7 450.62,67.9 543.21,993.8 543.21,1012.3 0,18.5 -27.78,558.6 -27.78,558.6"
         style="fill:#f77d48;fill-opacity:1;fill-rule:nonzero;stroke:none"
         id="path238" /><path
         d="m 9181.31,13574.5 c 0,0 -11.58,-75.3 -88.16,-89.6 -139.87,-26.1 -185.06,62.2 -185.06,62.2 0,0 159.04,67 273.22,27.4"
         style="fill:#ffffff;fill-opacity:1;fill-rule:nonzero;stroke:none"
         id="path240" /><path
         d="m 18849.1,2859.1 c 7.9,-13.7 -5.9,-36.5 -30.8,-50.9 -25,-14.4 -51.6,-15 -59.5,-1.2 -7.9,13.7 5.9,36.5 30.8,50.9 24.9,14.4 51.6,14.9 59.5,1.2"
         style="fill:#e8c7a0;fill-opacity:1;fill-rule:nonzero;stroke:none"
         id="path242" /><path
         d="m 19610.8,2798.4 c 9.9,-17 -7.3,-45.4 -38.3,-63.3 -31.1,-18 -64.2,-18.6 -74.1,-1.6 -9.8,17.1 7.3,45.5 38.4,63.4 31,17.9 64.2,18.6 74,1.5"
         style="fill:#f4d9b3;fill-opacity:1;fill-rule:nonzero;stroke:none"
         id="path244" /><path
         d="m 19071.3,3030.5 c -7.8,-20.9 -44.9,-26.5 -83,-12.5 -38.1,14 -62.7,42.4 -55,63.3 7.7,21 44.9,26.6 83,12.6 38,-14.1 62.7,-42.4 55,-63.4"
         style="fill:#fff0e2;fill-opacity:1;fill-rule:nonzero;stroke:none"
         id="path246" /><path
         d="m 19398.9,3128.8 c 7.9,-13.7 -5.9,-36.5 -30.8,-50.9 -24.9,-14.4 -51.6,-15 -59.5,-1.2 -7.9,13.7 5.9,36.5 30.8,50.9 25,14.4 51.6,14.9 59.5,1.2"
         style="fill:#e8c7a0;fill-opacity:1;fill-rule:nonzero;stroke:none"
         id="path248" /><path
         d="m 20160.7,3068.1 c 9.8,-17 -7.4,-45.4 -38.4,-63.3 -31,-17.9 -64.2,-18.6 -74.1,-1.6 -9.8,17.1 7.4,45.5 38.4,63.4 31,17.9 64.2,18.6 74.1,1.5"
         style="fill:#f4d9b3;fill-opacity:1;fill-rule:nonzero;stroke:none"
         id="path250" /><path
         d="m 19621.1,3300.2 c -7.7,-20.9 -44.9,-26.5 -83,-12.5 -38.1,14 -62.7,42.4 -55,63.3 7.7,21 44.9,26.6 83,12.6 38.1,-14.1 62.7,-42.4 55,-63.4"
         style="fill:#fff0e2;fill-opacity:1;fill-rule:nonzero;stroke:none"
         id="path252" /><path
         d="m 19603.4,2935.8 c 4.5,-7.8 -3.4,-20.9 -17.7,-29.1 -14.3,-8.3 -29.5,-8.6 -34.1,-0.7 -4.5,7.8 3.4,20.9 17.7,29.1 14.3,8.3 29.5,8.6 34.1,0.7"
         style="fill:#e8c7a0;fill-opacity:1;fill-rule:nonzero;stroke:none"
         id="path254" /><path
         d="m 20039.8,2901.1 c 5.6,-9.8 -4.2,-26.1 -22,-36.3 -17.8,-10.3 -36.8,-10.7 -42.4,-0.9 -5.7,9.8 4.2,26 22,36.3 17.7,10.3 36.7,10.6 42.4,0.9"
         style="fill:#f4d9b3;fill-opacity:1;fill-rule:nonzero;stroke:none"
         id="path256" /><path
         d="m 19730.6,3034 c -4.4,-12 -25.6,-15.2 -47.5,-7.1 -21.8,8 -35.9,24.2 -31.5,36.2 4.4,12.1 25.7,15.3 47.5,7.2 21.9,-8 36,-24.3 31.5,-36.3"
         style="fill:#fff0e2;fill-opacity:1;fill-rule:nonzero;stroke:none"
         id="path258" /><path
         d="m 5523.13,3430.9 c 10.28,-17.8 -7.63,-47.3 -39.99,-66 -32.35,-18.7 -66.91,-19.4 -77.18,-1.6 -10.28,17.8 7.62,47.4 39.98,66 32.36,18.7 66.92,19.4 77.19,1.6"
         style="fill:#e8c7a0;fill-opacity:1;fill-rule:nonzero;stroke:none"
         id="path260" /><path
         d="m 6511.56,3352.2 c 12.79,-22.1 -9.5,-58.9 -49.78,-82.2 -40.28,-23.3 -83.3,-24.1 -96.09,-2 -12.79,22.2 9.49,59 49.77,82.2 40.28,23.3 83.3,24.2 96.1,2"
         style="fill:#f4d9b3;fill-opacity:1;fill-rule:nonzero;stroke:none"
         id="path262" /><path
         d="m 5811.41,3653.4 c -10.02,-27.2 -58.21,-34.5 -107.64,-16.3 -49.43,18.2 -81.38,55 -71.37,82.2 10.02,27.2 58.21,34.5 107.63,16.3 49.43,-18.2 81.39,-55 71.38,-82.2"
         style="fill:#fff0e2;fill-opacity:1;fill-rule:nonzero;stroke:none"
         id="path264" /><path
         d="m 6236.55,3780.9 c 10.28,-17.8 -7.62,-47.4 -39.98,-66 -32.36,-18.7 -66.92,-19.5 -77.19,-1.6 -10.28,17.7 7.62,47.3 39.98,66 32.36,18.7 66.92,19.4 77.19,1.6"
         style="fill:#e8c7a0;fill-opacity:1;fill-rule:nonzero;stroke:none"
         id="path266" /><path
         d="m 7224.98,3702.2 c 12.79,-22.2 -9.5,-59 -49.77,-82.2 -40.29,-23.3 -83.31,-24.2 -96.1,-2 -12.79,22.1 9.49,58.9 49.77,82.2 40.29,23.3 83.31,24.1 96.1,2"
         style="fill:#f4d9b3;fill-opacity:1;fill-rule:nonzero;stroke:none"
         id="path268" /><path
         d="m 6524.82,4003.3 c -10.01,-27.1 -58.19,-34.4 -107.63,-16.2 -49.43,18.2 -81.38,55 -71.37,82.2 10.01,27.2 58.2,34.4 107.64,16.2 49.43,-18.2 81.38,-55 71.36,-82.2"
         style="fill:#fff0e2;fill-opacity:1;fill-rule:nonzero;stroke:none"
         id="path270" /><path
         d="m 6501.85,3530.5 c 5.88,-10.2 -4.37,-27.1 -22.91,-37.8 -18.54,-10.7 -38.34,-11.2 -44.23,-1 -5.89,10.2 4.37,27.2 22.91,37.9 18.54,10.7 38.34,11.1 44.23,0.9"
         style="fill:#e8c7a0;fill-opacity:1;fill-rule:nonzero;stroke:none"
         id="path272" /><path
         d="m 7068.14,3485.4 c 7.33,-12.7 -5.44,-33.8 -28.52,-47.1 -23.07,-13.3 -47.73,-13.8 -55.05,-1.1 -7.33,12.6 5.44,33.7 28.52,47.1 23.07,13.3 47.72,13.8 55.05,1.1"
         style="fill:#f4d9b3;fill-opacity:1;fill-rule:nonzero;stroke:none"
         id="path274" /><path
         d="m 6667.01,3657.9 c -5.74,-15.5 -33.35,-19.7 -61.67,-9.3 -28.32,10.5 -46.63,31.5 -40.89,47.1 5.74,15.6 33.34,19.8 61.66,9.3 28.32,-10.4 46.63,-31.5 40.9,-47.1"
         style="fill:#fff0e2;fill-opacity:1;fill-rule:nonzero;stroke:none"
         id="path276" /><path
         d="m 14868.2,4025 c 10,-17.3 -7.4,-46 -38.8,-64.2 -31.5,-18.1 -65,-18.8 -75,-1.5 -10,17.2 7.4,46 38.8,64.1 31.4,18.2 65,18.9 75,1.6"
         style="fill:#e8c7a0;fill-opacity:1;fill-rule:nonzero;stroke:none"
         id="path278" /><path
         d="m 15828.4,3948.5 c 12.4,-21.5 -9.2,-57.3 -48.4,-79.9 -39.1,-22.6 -80.9,-23.4 -93.3,-1.9 -12.4,21.5 9.2,57.3 48.3,79.9 39.2,22.6 81,23.4 93.4,1.9"
         style="fill:#f4d9b3;fill-opacity:1;fill-rule:nonzero;stroke:none"
         id="path280" /><path
         d="m 15148.2,4241.1 c -9.7,-26.5 -56.5,-33.5 -104.5,-15.8 -48,17.6 -79.1,53.4 -69.4,79.8 9.8,26.4 56.6,33.5 104.6,15.8 48,-17.7 79.1,-53.4 69.3,-79.8"
         style="fill:#fff0e2;fill-opacity:1;fill-rule:nonzero;stroke:none"
         id="path282" /><path
         d="m 15561.2,4364.9 c 10,-17.3 -7.4,-46 -38.8,-64.1 -31.4,-18.2 -65,-18.9 -75,-1.6 -10,17.3 7.4,46 38.8,64.2 31.5,18.1 65.1,18.8 75,1.5"
         style="fill:#e8c7a0;fill-opacity:1;fill-rule:nonzero;stroke:none"
         id="path284" /><path
         d="m 16521.4,4288.5 c 12.4,-21.5 -9.2,-57.3 -48.3,-79.9 -39.2,-22.6 -81,-23.5 -93.4,-1.9 -12.4,21.5 9.2,57.2 48.4,79.8 39.1,22.6 80.9,23.5 93.3,2"
         style="fill:#f4d9b3;fill-opacity:1;fill-rule:nonzero;stroke:none"
         id="path286" /><path
         d="m 15841.3,4581 c -9.8,-26.4 -56.6,-33.5 -104.6,-15.8 -48,17.7 -79,53.5 -69.3,79.9 9.7,26.4 56.5,33.4 104.5,15.8 48.1,-17.7 79.1,-53.5 69.4,-79.9"
         style="fill:#fff0e2;fill-opacity:1;fill-rule:nonzero;stroke:none"
         id="path288" /><path
         d="m 15818.9,4121.7 c 5.8,-9.9 -4.2,-26.4 -22.2,-36.8 -18,-10.4 -37.3,-10.8 -43,-0.9 -5.7,9.9 4.3,26.4 22.3,36.8 18,10.4 37.2,10.8 42.9,0.9"
         style="fill:#e8c7a0;fill-opacity:1;fill-rule:nonzero;stroke:none"
         id="path290" /><path
         d="m 16369.1,4077.9 c 7.1,-12.3 -5.3,-32.8 -27.8,-45.8 -22.4,-12.9 -46.3,-13.4 -53.4,-1.1 -7.1,12.3 5.3,32.8 27.7,45.8 22.4,12.9 46.3,13.4 53.5,1.1"
         style="fill:#f4d9b3;fill-opacity:1;fill-rule:nonzero;stroke:none"
         id="path292" /><path
         d="m 15979.4,4245.5 c -5.6,-15.1 -32.4,-19.2 -59.9,-9.1 -27.5,10.2 -45.3,30.7 -39.7,45.8 5.5,15.1 32.3,19.2 59.9,9 27.5,-10.1 45.3,-30.6 39.7,-45.7"
         style="fill:#fff0e2;fill-opacity:1;fill-rule:nonzero;stroke:none"
         id="path294" /><path
         d="m 19937,2442.9 c 11.5,-19.8 -8.5,-52.7 -44.5,-73.5 -36,-20.8 -74.4,-21.6 -85.9,-1.8 -11.4,19.8 8.5,52.7 44.5,73.5 36,20.8 74.5,21.6 85.9,1.8"
         style="fill:#e8c7a0;fill-opacity:1;fill-rule:nonzero;stroke:none"
         id="path296" /><path
         d="m 21036.9,2355.3 c 14.2,-24.6 -10.6,-65.6 -55.4,-91.5 -44.8,-25.9 -92.7,-26.9 -106.9,-2.2 -14.2,24.6 10.5,65.6 55.4,91.5 44.8,25.9 92.7,26.9 106.9,2.2"
         style="fill:#f4d9b3;fill-opacity:1;fill-rule:nonzero;stroke:none"
         id="path298" /><path
         d="m 20257.8,2690.4 c -11.1,-30.2 -64.8,-38.3 -119.8,-18.1 -55,20.3 -90.5,61.2 -79.4,91.5 11.2,30.2 64.8,38.3 119.8,18.1 55,-20.3 90.5,-61.2 79.4,-91.5"
         style="fill:#fff0e2;fill-opacity:1;fill-rule:nonzero;stroke:none"
         id="path300" /><path
         d="m 20730.9,2832.3 c 11.4,-19.8 -8.5,-52.7 -44.5,-73.5 -36,-20.8 -74.5,-21.6 -85.9,-1.8 -11.4,19.8 8.5,52.7 44.5,73.5 36,20.8 74.5,21.6 85.9,1.8"
         style="fill:#e8c7a0;fill-opacity:1;fill-rule:nonzero;stroke:none"
         id="path302" /><path
         d="m 21830.8,2744.7 c 14.2,-24.6 -10.6,-65.6 -55.4,-91.5 -44.9,-25.8 -92.7,-26.8 -107,-2.2 -14.2,24.7 10.6,65.6 55.4,91.5 44.9,25.9 92.7,26.9 107,2.2"
         style="fill:#f4d9b3;fill-opacity:1;fill-rule:nonzero;stroke:none"
         id="path304" /><path
         d="m 21051.7,3079.8 c -11.2,-30.2 -64.8,-38.3 -119.8,-18.1 -55,20.3 -90.6,61.2 -79.4,91.5 11.1,30.2 64.7,38.4 119.7,18.1 55,-20.3 90.6,-61.2 79.5,-91.5"
         style="fill:#fff0e2;fill-opacity:1;fill-rule:nonzero;stroke:none"
         id="path306" /><path
         d="m 21026.1,2553.7 c 6.5,-11.4 -4.9,-30.2 -25.5,-42.1 -20.6,-11.9 -42.7,-12.4 -49.2,-1 -6.6,11.3 4.9,30.2 25.5,42.1 20.6,11.9 42.6,12.3 49.2,1"
         style="fill:#e8c7a0;fill-opacity:1;fill-rule:nonzero;stroke:none"
         id="path308" /><path
         d="m 21656.2,2503.5 c 8.2,-14.1 -6,-37.6 -31.7,-52.4 -25.7,-14.8 -53.1,-15.4 -61.3,-1.3 -8.1,14.1 6.1,37.6 31.8,52.4 25.7,14.9 53.1,15.4 61.2,1.3"
         style="fill:#f4d9b3;fill-opacity:1;fill-rule:nonzero;stroke:none"
         id="path310" /><path
         d="m 21209.9,2695.5 c -6.4,-17.3 -37.1,-22 -68.6,-10.4 -31.6,11.6 -51.9,35.1 -45.5,52.4 6.3,17.4 37.1,22 68.6,10.4 31.5,-11.6 51.9,-35.1 45.5,-52.4"
         style="fill:#fff0e2;fill-opacity:1;fill-rule:nonzero;stroke:none"
         id="path312" /><path
         d="m 23369.2,1909.4 c 11.4,-19.8 -8.5,-52.7 -44.5,-73.5 -36,-20.8 -74.5,-21.6 -85.9,-1.8 -11.5,19.8 8.4,52.7 44.5,73.5 36,20.8 74.4,21.6 85.9,1.8"
         style="fill:#e8c7a0;fill-opacity:1;fill-rule:nonzero;stroke:none"
         id="path314" /><path
         d="m 24469,1821.8 c 14.3,-24.7 -10.5,-65.6 -55.4,-91.5 -44.8,-25.9 -92.7,-26.9 -106.9,-2.2 -14.2,24.6 10.6,65.6 55.4,91.5 44.8,25.8 92.7,26.8 106.9,2.2"
         style="fill:#f4d9b3;fill-opacity:1;fill-rule:nonzero;stroke:none"
         id="path316" /><path
         d="m 23689.9,2156.9 c -11.1,-30.3 -64.7,-38.4 -119.7,-18.1 -55,20.3 -90.6,61.2 -79.5,91.5 11.2,30.2 64.8,38.3 119.8,18 55,-20.2 90.6,-61.2 79.4,-91.4"
         style="fill:#fff0e2;fill-opacity:1;fill-rule:nonzero;stroke:none"
         id="path318" /><path
         d="m 24163,2298.8 c 11.4,-19.8 -8.5,-52.7 -44.5,-73.5 -36,-20.8 -74.4,-21.6 -85.9,-1.8 -11.4,19.8 8.5,52.7 44.5,73.5 36,20.8 74.5,21.6 85.9,1.8"
         style="fill:#e8c7a0;fill-opacity:1;fill-rule:nonzero;stroke:none"
         id="path320" /><path
         d="m 25262.9,2211.2 c 14.2,-24.6 -10.6,-65.6 -55.4,-91.5 -44.8,-25.9 -92.7,-26.9 -106.9,-2.2 -14.3,24.6 10.5,65.6 55.4,91.5 44.8,25.9 92.6,26.9 106.9,2.2"
         style="fill:#f4d9b3;fill-opacity:1;fill-rule:nonzero;stroke:none"
         id="path322" /><path
         d="m 24483.8,2546.3 c -11.2,-30.2 -64.8,-38.3 -119.8,-18.1 -55,20.3 -90.5,61.2 -79.4,91.5 11.1,30.2 64.8,38.3 119.8,18.1 55,-20.3 90.5,-61.2 79.4,-91.5"
         style="fill:#fff0e2;fill-opacity:1;fill-rule:nonzero;stroke:none"
         id="path324" /><path
         d="m 24458.2,2020.2 c 6.6,-11.4 -4.9,-30.2 -25.5,-42.1 -20.6,-12 -42.6,-12.4 -49.2,-1.1 -6.5,11.4 4.9,30.2 25.5,42.1 20.6,12 42.7,12.4 49.2,1.1"
         style="fill:#e8c7a0;fill-opacity:1;fill-rule:nonzero;stroke:none"
         id="path326" /><path
         d="m 25088.4,1970 c 8.1,-14.1 -6.1,-37.6 -31.8,-52.4 -25.7,-14.9 -53.1,-15.4 -61.2,-1.3 -8.2,14.1 6,37.6 31.7,52.4 25.7,14.8 53.1,15.4 61.3,1.3"
         style="fill:#f4d9b3;fill-opacity:1;fill-rule:nonzero;stroke:none"
         id="path328" /><path
         d="m 24642,2162 c -6.4,-17.4 -37.1,-22 -68.6,-10.4 -31.5,11.6 -51.9,35.1 -45.5,52.4 6.4,17.3 37.1,22 68.6,10.4 31.5,-11.6 51.9,-35.1 45.5,-52.4"
         style="fill:#fff0e2;fill-opacity:1;fill-rule:nonzero;stroke:none"
         id="path330" /><path
         d="m 19793.6,8092.8 h -437.9 c -11.1,0 -20.1,9 -20.1,20.1 v 8.7 c 0,11 9,20 20.1,20 h 437.9 c 11.1,0 20.1,-9 20.1,-20 v -8.7 c 0,-11.1 -9,-20.1 -20.1,-20.1"
         style="fill:#ffffff;fill-opacity:1;fill-rule:nonzero;stroke:none"
         id="path332" /><path
         d="m 20589.2,8092.8 h -640 c -11.1,0 -20.1,9 -20.1,20.1 v 8.7 c 0,11 9,20 20.1,20 h 640 c 11.1,0 20.1,-9 20.1,-20 v -8.7 c 0,-11.1 -9,-20.1 -20.1,-20.1"
         style="fill:#ffffff;fill-opacity:1;fill-rule:nonzero;stroke:none"
         id="path334" /><path
         d="m 20090.5,8211.8 h -498.1 c -9.8,0 -17.8,8 -17.8,17.8 v 13.2 c 0,9.8 8,17.8 17.8,17.8 h 498.1 c 9.8,0 17.8,-8 17.8,-17.8 v -13.2 c 0,-9.8 -8,-17.8 -17.8,-17.8"
         style="fill:#ffffff;fill-opacity:1;fill-rule:nonzero;stroke:none"
         id="path336" /><path
         d="m 20323.2,8211.8 h -125.7 c -5.1,0 -9.3,4.1 -9.3,9.2 v 30.4 c 0,5 4.2,9.2 9.3,9.2 h 125.7 c 5.1,0 9.2,-4.2 9.2,-9.2 V 8221 c 0,-5.1 -4.1,-9.2 -9.2,-9.2"
         style="fill:#ffffff;fill-opacity:1;fill-rule:nonzero;stroke:none"
         id="path338" /><path
         d="M 20509.7,8211.8 H 20384 c -5.1,0 -9.3,4.1 -9.3,9.2 v 30.4 c 0,5 4.2,9.2 9.3,9.2 h 125.7 c 5.1,0 9.2,-4.2 9.2,-9.2 V 8221 c 0,-5.1 -4.1,-9.2 -9.2,-9.2"
         style="fill:#ffffff;fill-opacity:1;fill-rule:nonzero;stroke:none"
         id="path340" /><path
         d="m 24699.9,6565.7 h -1034.2 c -18.7,0 -34.1,15.3 -34.1,34.1 0,18.8 15.4,34.2 34.1,34.2 h 1034.2 c 18.8,0 34.2,-15.4 34.2,-34.2 0,-18.8 -15.4,-34.1 -34.2,-34.1"
         style="fill:#ffffff;fill-opacity:1;fill-rule:nonzero;stroke:none"
         id="path342" /><path
         d="m 25374.8,6743.2 h -1034.2 c -18.8,0 -34.1,15.4 -34.1,34.2 0,18.8 15.3,34.2 34.1,34.2 h 1034.2 c 18.8,0 34.1,-15.4 34.1,-34.2 0,-18.8 -15.3,-34.2 -34.1,-34.2"
         style="fill:#ffffff;fill-opacity:1;fill-rule:nonzero;stroke:none"
         id="path344" /><path
         d="m 26534.5,6565.7 h -1500.2 c -18.8,0 -34.1,15.3 -34.1,34.1 0,18.8 15.3,34.2 34.1,34.2 h 1500.2 c 18.8,0 34.2,-15.4 34.2,-34.2 0,-18.8 -15.4,-34.1 -34.2,-34.1"
         style="fill:#ffffff;fill-opacity:1;fill-rule:nonzero;stroke:none"
         id="path346" /><path
         d="m 27061,8337.2 h -893.7 c -16.3,0 -29.6,13.3 -29.6,29.6 0,16.2 13.3,29.5 29.6,29.5 h 893.7 c 16.2,0 29.5,-13.3 29.5,-29.5 0,-16.3 -13.3,-29.6 -29.5,-29.6"
         style="fill:#ffffff;fill-opacity:1;fill-rule:nonzero;stroke:none"
         id="path348" /><path
         d="m 27644.2,8490.7 h -893.7 c -16.2,0 -29.5,13.3 -29.5,29.5 0,16.3 13.3,29.6 29.5,29.6 h 893.7 c 16.2,0 29.5,-13.3 29.5,-29.6 0,-16.2 -13.3,-29.5 -29.5,-29.5"
         style="fill:#ffffff;fill-opacity:1;fill-rule:nonzero;stroke:none"
         id="path350" /><path
         d="M 28646.5,8337.2 H 27350 c -16.2,0 -29.5,13.3 -29.5,29.6 0,16.2 13.3,29.5 29.5,29.5 h 1296.5 c 16.2,0 29.5,-13.3 29.5,-29.5 0,-16.3 -13.3,-29.6 -29.5,-29.6"
         style="fill:#ffffff;fill-opacity:1;fill-rule:nonzero;stroke:none"
         id="path352" /></g></g></svg>
