<?xml version="1.0" encoding="UTF-8" standalone="no"?>
<!-- Created with Inkscape (http://www.inkscape.org/) -->

<svg
   version="1.1"
   id="svg2"
   xml:space="preserve"
   width="4544.1465"
   height="2666.6667"
   viewBox="0 0 4544.1465 2666.6667"
   sodipodi:docname="Happy smiling man riding kick scooter on sidewalk.eps"
   xmlns:inkscape="http://www.inkscape.org/namespaces/inkscape"
   xmlns:sodipodi="http://sodipodi.sourceforge.net/DTD/sodipodi-0.dtd"
   xmlns="http://www.w3.org/2000/svg"
   xmlns:svg="http://www.w3.org/2000/svg"><defs
     id="defs6" /><sodipodi:namedview
     id="namedview4"
     pagecolor="#ffffff"
     bordercolor="#666666"
     borderopacity="1.0"
     inkscape:pageshadow="2"
     inkscape:pageopacity="0.0"
     inkscape:pagecheckerboard="0" /><g
     id="g8"
     inkscape:groupmode="layer"
     inkscape:label="ink_ext_XXXXXX"
     transform="matrix(1.3333333,0,0,-1.3333333,0,2666.6667)"><g
       id="g10"
       transform="scale(0.1)"><path
         d="M 0,0 H 34081.1 V 20000 H 0 Z"
         style="fill:#ffffff;fill-opacity:1;fill-rule:nonzero;stroke:none"
         id="path12" /><path
         d="m 32120.3,1157.7 c 1025.9,1426.1 364.5,10609 -1289.4,11539.1 -856.6,481.8 -1633.8,357.9 -2365.7,234.1 -820.7,-138.9 -1584.4,-277.7 -2339.1,437.2 -622.6,589.8 -108.1,2053.8 -1395.2,2534.7 -761.9,284.6 -2007.4,-1.6 -3140,-287.9 -1554.8,-393 -2897,-786 -2484,297.9 713.8,1873.4 -4142.4,3165.8 -8774.1,2917.7 C 5701.14,18582.4 6560.9,16043 6625.79,15632.3 6690.67,15221.5 7372.05,13237.8 4733.08,12326.1 2094.1,11414.5 2699.76,10172.2 2959.34,9460.8 3185.42,8841.3 4462.68,8108.3 2602.42,6505.4 1053.65,5170.8 1462.38,1856.1 1912.29,1176.3 l 30208.01,-18.6"
         style="fill:#eafcfc;fill-opacity:1;fill-rule:nonzero;stroke:none"
         id="path14" /><path
         d="M 12476.6,12852.7 H 7751.21 c -2.24,21.5 -3.47,43.2 -3.47,65.2 0,371.5 325.07,672.6 726.06,672.6 128.14,0 248.45,-30.9 352.97,-84.8 147.64,376.5 537.27,645.4 994.75,645.4 384.48,0 721.08,-190 906.38,-474.2 80.7,23.3 166.5,35.9 255.4,35.9 344.2,0 640.9,-187.7 777.7,-458.6 47,11.3 96.4,17.4 147.2,17.4 277.1,0 508.9,-179 568.4,-418.9"
         style="fill:#fbfefe;fill-opacity:1;fill-rule:nonzero;stroke:none"
         id="path16" /><path
         d="M 15592.1,16346.9 H 11557 c 50.8,204.9 248.7,357.7 485.3,357.7 43.5,0 85.6,-5.2 125.7,-14.8 116.8,231.3 370.2,391.6 664.1,391.6 76,0 149.3,-10.8 218.2,-30.6 158.2,242.6 445.6,404.9 773.9,404.9 390.7,0 723.4,-229.7 849.5,-551.2 89.2,46.1 192,72.4 301.4,72.4 342.4,0 620,-257.1 620,-574.3 0,-18.8 -1.1,-37.4 -3,-55.7"
         style="fill:#fbfefe;fill-opacity:1;fill-rule:nonzero;stroke:none"
         id="path18" /><path
         d="m 18388.4,13187.1 h -2268.2 c 28.6,115.2 139.8,201.1 272.8,201.1 24.4,0 48.1,-2.9 70.7,-8.4 65.6,130.1 208,220.1 373.2,220.1 42.7,0 83.9,-6 122.7,-17.1 88.9,136.3 250.5,227.6 435,227.6 219.6,0 406.6,-129.1 477.5,-309.9 50.2,25.9 107.9,40.8 169.4,40.8 192.5,0 348.5,-144.6 348.5,-322.9 0,-10.5 -0.5,-21 -1.6,-31.3"
         style="fill:#fbfefe;fill-opacity:1;fill-rule:nonzero;stroke:none"
         id="path20" /><path
         d="m 26057.5,12369.7 h -3539.2 c 44.5,179.7 218.1,313.7 425.7,313.7 38.1,0 75,-4.5 110.2,-13 102.5,202.9 324.7,343.5 582.5,343.5 66.6,0 130.9,-9.4 191.3,-26.9 138.8,212.9 390.9,355.2 678.9,355.2 342.6,0 634.5,-201.5 745.1,-483.5 78.2,40.5 168.3,63.6 264.3,63.6 300.4,0 543.8,-225.5 543.8,-503.8 0,-16.5 -0.9,-32.8 -2.6,-48.8"
         style="fill:#fbfefe;fill-opacity:1;fill-rule:nonzero;stroke:none"
         id="path22" /><path
         d="m 2562,6469.7 v 49.5 h 56.41 c -5.29,-4.6 -10.66,-9.2 -15.99,-13.8 -13.61,-11.8 -27.11,-23.7 -40.42,-35.7"
         style="fill:#e2eefc;fill-opacity:1;fill-rule:nonzero;stroke:none"
         id="path24" /><path
         d="m 2562,1294.5 v 5175.2 c 13.31,12 26.81,23.9 40.42,35.7 5.33,4.6 10.7,9.2 15.99,13.8 h 655.05 v 238.1 435.2 l 1066.96,1031 V 6665.1 l 319.17,-10 v 1571.4 h 372.37 V 10591 h 223.42 v 449.7 h 872.4 V 10591 h 223.41 v -669.6 h 904.2 V 7375.2 l 182.52,-10 10.34,2521.8 h 647.73 V 8545.5 l 404.28,-10 v 2096.7 h 138.31 v 442.5 h 1212.85 v -442.5 h 138.3 V 7806.6 h 255.38 v 881.1 h 212.7 v 430.8 h 308.6 v 1257.6 h 446.8 V 9118.5 h 308.5 v -430.8 h 212.8 V 7197.1 h 149 l 117,1.4 v 1727 l 1282.8,-28.2 V 7704.1 h 811.9 v 509.7 h 957.5 v 2792.9 h 276.6 v 359.7 h 606.4 V 7932.2 h 662.3 v -509.7 h 265.8 l 604,1424.8 2544.2,79.6 V 7838.6 l 265.8,-1.4 V 8689 h 212.8 v 430.9 h 308.4 v 1257.5 h 446.7 V 9119.9 h 308.4 V 8689 h 212.7 v -514.7 h 255.3 v 2459.3 h 138.2 v 442.5 h 1212.5 v -442.5 H 23511 V 8536.8 l 404.2,10 v 1341.6 h 1148.6 l 51.6,-2521.8 171.7,10 v 851.2 h 372.3 v 669.6 h 223.3 v 449.7 h 872.1 v -449.7 h 223.4 v -669.6 h 372.2 V 6656.5 l 319.1,10 v 1558.4 h 1066.6 V 6758.7 6520.6 h 651.4 v 739.6 h 456.7 V 5599.1 h 818.2 V 1295.9 L 16777.5,1295.2 2562,1294.5"
         style="fill:#cfebf9;fill-opacity:1;fill-rule:nonzero;stroke:none"
         id="path26" /><path
         d="M 22254.6,1711.6 C 18397.4,2126.1 13566.9,6151 10291.2,6620.5 6837.02,7115.5 3286.51,1602.3 3286.51,1602.3 l 18968.09,48.3 v 61"
         style="fill:#86b1f2;fill-opacity:1;fill-rule:nonzero;stroke:none"
         id="path28" /><path
         d="m 9291.77,3979 h -171.1 v 1896.6 h 171.1 V 3979"
         style="fill:#355389;fill-opacity:1;fill-rule:nonzero;stroke:none"
         id="path30" /><path
         d="M 9206.23,9554.9 8647.72,5041.3 h 1117.01 z"
         style="fill:#3c8f7c;fill-opacity:1;fill-rule:nonzero;stroke:none"
         id="path32" /><path
         d="m 8850.29,6678.3 796.38,-682.9 -30.62,247.5 -741.02,635.4 -24.74,-200"
         style="fill:#50bfa5;fill-opacity:1;fill-rule:nonzero;stroke:none"
         id="path34" /><path
         d="m 8972.71,7667.7 487.67,-166.7 -22.93,185.2 -443.68,151.7 -21.06,-170.2"
         style="fill:#50bfa5;fill-opacity:1;fill-rule:nonzero;stroke:none"
         id="path36" /><path
         d="M 10942.4,3960.3 H 10789 v 1425.6 h 153.4 V 3960.3"
         style="fill:#355389;fill-opacity:1;fill-rule:nonzero;stroke:none"
         id="path38" /><path
         d="m 10887,7927.6 -400.9,-2877.5 h 801.8 z"
         style="fill:#3c8f7c;fill-opacity:1;fill-rule:nonzero;stroke:none"
         id="path40" /><path
         d="m 10511.5,5232.6 719.4,226.8 -10.9,78 -696.6,-219.6 -11.9,-85.2"
         style="fill:#50bfa5;fill-opacity:1;fill-rule:nonzero;stroke:none"
         id="path42" /><path
         d="m 10638.2,6141.7 476.7,150.3 -10.9,78 -453.9,-143.1 -11.9,-85.2"
         style="fill:#50bfa5;fill-opacity:1;fill-rule:nonzero;stroke:none"
         id="path44" /><path
         d="m 31678.2,4089.1 123.9,254.8 c 88.3,190.6 14.3,412.5 -165.2,495.6 -452.2,209.4 -999.2,-10.4 -1221.6,-490.9 l -162.6,-351.2 c -71.2,-153.9 -214.8,-249.7 -365.7,-261.3 -137,-10.5 -259.9,-101.4 -320.4,-232 l -85.7,-185.2 c -92.8,-200.5 -90.9,-428.7 -1.8,-622.3 52.1,-113.3 55.1,-251.5 -3.5,-377.9 l -121.3,-262.2 c -134.2,-289.9 -21.8,-627.3 251.1,-753.6 l 155.7,-72.1 c 272.9,-126.3 602.9,6.3 737.1,296.2 124.7,386.9 331.1,548 512.3,610.8 266.3,92.4 489.8,292.3 612.1,556.5 l 17.1,37 c 129.1,278.9 128.9,596.1 8.6,867.3 -53.1,119.8 -66.8,281.5 29.9,490.5"
         style="fill:#96d9c9;fill-opacity:1;fill-rule:nonzero;stroke:none"
         id="path46" /><path
         d="m 2227.26,4091.9 -123.94,254.7 c -88.26,190.7 -14.31,412.6 165.18,495.7 452.29,209.4 999.24,-10.4 1221.65,-490.9 l 162.6,-351.2 c 71.24,-153.9 214.81,-249.7 365.7,-261.3 137.03,-10.5 259.92,-101.4 320.41,-232.1 l 85.72,-185.1 c 92.81,-200.5 90.86,-428.7 1.76,-622.3 -52.12,-113.3 -55.06,-251.5 3.45,-377.9 l 121.37,-262.2 c 134.19,-289.9 21.75,-627.3 -251.15,-753.6 l -155.69,-72.1 c -272.89,-126.3 -602.9,6.3 -737.09,296.2 -124.71,386.9 -331.09,548 -512.24,610.8 -266.38,92.4 -489.81,292.2 -612.12,556.5 l -17.16,37 c -129.09,278.9 -128.83,596.1 -8.56,867.3 53.1,119.8 66.82,281.5 -29.89,490.5"
         style="fill:#96d9c9;fill-opacity:1;fill-rule:nonzero;stroke:none"
         id="path48" /><path
         d="m 24458.1,1732.9 h 171.1 v 1896.6 h -171.1 V 1732.9"
         style="fill:#355389;fill-opacity:1;fill-rule:nonzero;stroke:none"
         id="path50" /><path
         d="m 24543.7,7308.8 558.5,-4513.6 h -1117 z"
         style="fill:#3c8f7c;fill-opacity:1;fill-rule:nonzero;stroke:none"
         id="path52" /><path
         d="m 24899.6,4432.2 -796.4,-682.9 30.7,247.5 741,635.4 24.7,-200"
         style="fill:#50bfa5;fill-opacity:1;fill-rule:nonzero;stroke:none"
         id="path54" /><path
         d="m 24777.2,5421.6 -487.7,-166.8 23,185.3 443.6,151.7 21.1,-170.2"
         style="fill:#50bfa5;fill-opacity:1;fill-rule:nonzero;stroke:none"
         id="path56" /><path
         d="m 23233.8,1714.2 h 153.3 v 1425.6 h -153.3 V 1714.2"
         style="fill:#355389;fill-opacity:1;fill-rule:nonzero;stroke:none"
         id="path58" /><path
         d="m 23289.1,5681.5 401,-2877.5 h -801.9 z"
         style="fill:#3c8f7c;fill-opacity:1;fill-rule:nonzero;stroke:none"
         id="path60" /><path
         d="m 23664.6,2986.5 -719.3,226.8 10.8,78 696.6,-219.6 11.9,-85.2"
         style="fill:#50bfa5;fill-opacity:1;fill-rule:nonzero;stroke:none"
         id="path62" /><path
         d="m 23538,3895.6 -476.7,150.3 10.8,78 454,-143.1 11.9,-85.2"
         style="fill:#50bfa5;fill-opacity:1;fill-rule:nonzero;stroke:none"
         id="path64" /><path
         d="m 1908.51,1180.8 c 0,0 3447.66,3289.7 7893.09,3491.8 1492.8,67.8 7605.3,-1292.7 12752.5,-2361.6 216.4,-44.9 5611,-1139.5 6345.5,-1172 l -26991.09,41.8"
         style="fill:#96d9c9;fill-opacity:1;fill-rule:nonzero;stroke:none"
         id="path66" /><path
         d="m 25996.1,1158 c 0,0 900.7,1196.4 1467.4,1379.8 566.8,183.5 32.6,-545.2 32.6,-545.2 0,0 1005.5,1099.4 1374.5,1000.3 338.2,-90.9 0,-772.3 0,-772.3 0,0 380.9,377.3 842.8,377.3 462,0 -357,-1413 -357,-1413 L 25996.1,1158"
         style="fill:#50bfa5;fill-opacity:1;fill-rule:nonzero;stroke:none"
         id="path68" /><path
         d="m 28899.6,1164.8 c 0,0 615.6,1646.4 1378.1,1456 617.9,-154.3 178.6,-982.7 216.2,-945.1 37.7,37.7 369.1,600 905.3,600 536.2,0 -164.6,-758.9 -164.6,-758.9 0,0 1142.4,356.8 1231.9,-17.9 74.2,-310.9 -341,-334.1 -341,-334.1 h -3225.9"
         style="fill:#3c8f7c;fill-opacity:1;fill-rule:nonzero;stroke:none"
         id="path70" /><path
         d="m 6039.42,1158 c 0,0 -900.65,1196.4 -1467.43,1379.8 -566.78,183.5 -32.59,-545.2 -32.59,-545.2 0,0 -978.54,1335.1 -1347.5,1235.9 -338.21,-90.8 -200.48,-765.1 -200.48,-765.1 0,0 -207.36,134.5 -669.32,134.5 -461.95,0 357.06,-1413 357.06,-1413 L 6039.42,1158"
         style="fill:#50bfa5;fill-opacity:1;fill-rule:nonzero;stroke:none"
         id="path72" /><path
         d="m 3862.82,1164.8 c 0,0 -441.84,1181.5 -989.03,1044.9 -443.42,-110.7 -128.16,-705.3 -155.19,-678.2 -27.03,27 -264.85,430.5 -649.66,430.5 -384.81,0 118.12,-544.6 118.12,-544.6 0,0 -819.87,256 -884.07,-12.8 -53.28,-223.2 244.7,-239.8 244.7,-239.8 h 2315.13"
         style="fill:#3c8f7c;fill-opacity:1;fill-rule:nonzero;stroke:none"
         id="path74" /><path
         d="m 6726.17,1528.7 c 4.04,23.9 6.13,48.3 6.13,73.2 0,277.3 -259.89,502.1 -580.49,502.1 -320.59,0 -580.49,-224.8 -580.49,-502.1 0,-24.9 2.1,-49.3 6.14,-73.2 h 1148.71"
         style="fill:#3c8f7c;fill-opacity:1;fill-rule:nonzero;stroke:none"
         id="path76" /><path
         d="m 7383.13,1652.1 c 4.03,33.7 6.14,68.2 6.14,103.2 0,391.1 -259.9,708.1 -580.5,708.1 -320.59,0 -580.49,-317 -580.49,-708.1 0,-35 2.1,-69.5 6.14,-103.2 h 1148.71"
         style="fill:#50bfa5;fill-opacity:1;fill-rule:nonzero;stroke:none"
         id="path78" /><path
         d="m 7170.59,1218.2 c -4.04,23.9 -6.14,48.3 -6.14,73.2 0,277.3 259.9,502.1 580.5,502.1 320.59,0 580.48,-224.8 580.48,-502.1 0,-24.9 -2.1,-49.3 -6.13,-73.2 H 7170.59"
         style="fill:#50bfa5;fill-opacity:1;fill-rule:nonzero;stroke:none"
         id="path80" /><path
         d="m 6241.56,1218.2 c -5.12,33.7 -7.79,68.2 -7.79,103.2 0,391.1 329.48,708.1 735.89,708.1 406.42,0 735.89,-317 735.89,-708.1 0,-35 -2.66,-69.5 -7.78,-103.2 H 6241.56"
         style="fill:#3c8f7c;fill-opacity:1;fill-rule:nonzero;stroke:none"
         id="path82" /><path
         d="m 6806.58,2029.5 c -203.13,0 -384.59,-100.5 -504.35,-258.3 -60.98,14.5 -125.78,22.3 -192.94,22.3 -360.63,0 -652.98,-224.8 -652.98,-502.1 0,-24.9 2.36,-49.3 6.9,-73.2 h 1989.44 c 4.54,33.7 6.91,68.2 6.91,103.2 0,391.1 -292.35,708.1 -652.98,708.1"
         style="fill:#50bfa5;fill-opacity:1;fill-rule:nonzero;stroke:none"
         id="path84" /><path
         d="m 4290.2,2709.7 c -170.88,267 -202.77,589.3 -199.42,812.8 3.62,242.6 48.39,424.2 48.84,426 l -12.36,4.3 c -0.45,-1.8 -45.58,-184.7 -49.27,-428.9 -3.41,-225.6 28.84,-551.3 201.83,-821.6 l 10.38,7.4"
         style="fill:#3c8f7c;fill-opacity:1;fill-rule:nonzero;stroke:none"
         id="path86" /><path
         d="m 4181.7,3992.8 c -4.2,-54.8 -28.5,-100.9 -63.49,-129.1 -29.9,38.2 -46.68,90.5 -42.48,145.4 4.2,54.9 28.5,100.9 63.49,129.2 29.9,-38.2 46.67,-90.6 42.48,-145.5"
         style="fill:#3c8f7c;fill-opacity:1;fill-rule:nonzero;stroke:none"
         id="path88" /><path
         d="m 4066.21,3866.1 c 28.98,-47.5 37.97,-101.5 28.68,-148.5 -44.39,10.6 -87.35,41.7 -116.34,89.2 -28.98,47.5 -37.97,101.5 -28.69,148.5 44.39,-10.6 87.36,-41.7 116.35,-89.2"
         style="fill:#3c8f7c;fill-opacity:1;fill-rule:nonzero;stroke:none"
         id="path90" /><path
         d="m 4000.78,3717 c 45.01,-29.3 75.52,-74.5 87.26,-122.1 -42.79,-12.2 -92.95,-4.9 -137.96,24.4 -45.02,29.3 -75.53,74.5 -87.26,122.2 42.78,12.1 92.94,4.8 137.96,-24.5"
         style="fill:#3c8f7c;fill-opacity:1;fill-rule:nonzero;stroke:none"
         id="path92" /><path
         d="m 4020.95,3509.4 c 35.64,-23.3 57.73,-63.1 63.75,-107.1 -37.13,-15.8 -78.91,-13.8 -114.55,9.4 -35.64,23.3 -57.73,63.1 -63.75,107.1 37.13,15.8 78.92,13.9 114.55,-9.4"
         style="fill:#3c8f7c;fill-opacity:1;fill-rule:nonzero;stroke:none"
         id="path94" /><path
         d="m 4168.22,3755.4 c 40.06,21.4 84.91,22.6 123.28,7.2 -10.13,-41.4 -37.1,-78.6 -77.16,-100.1 -40.06,-21.4 -84.9,-22.6 -123.29,-7.1 10.15,41.4 37.11,78.6 77.17,100"
         style="fill:#3c8f7c;fill-opacity:1;fill-rule:nonzero;stroke:none"
         id="path96" /><path
         d="m 4163.78,3612 c 40.07,21.4 84.91,22.6 123.29,7.2 -10.14,-41.5 -37.1,-78.6 -77.16,-100.1 -40.07,-21.4 -84.91,-22.6 -123.29,-7.1 10.14,41.4 37.1,78.6 77.16,100"
         style="fill:#3c8f7c;fill-opacity:1;fill-rule:nonzero;stroke:none"
         id="path98" /><path
         d="m 4046.74,3281.3 c 21.19,-5 38.76,-19.3 49.37,-37.9 -15.06,-12.6 -35.45,-18 -56.63,-13 -21.18,4.9 -38.76,19.2 -49.36,37.8 15.05,12.6 35.44,18 56.62,13.1"
         style="fill:#3c8f7c;fill-opacity:1;fill-rule:nonzero;stroke:none"
         id="path100" /><path
         d="m 4219.74,2521 c -391.07,93.6 -689.32,382.8 -870.67,609 -196.87,245.6 -302.34,471.9 -303.38,474.2 l -15.92,-8.2 c 1.05,-2.2 107.26,-230.3 305.39,-477.5 183.09,-228.5 484.45,-520.7 880.37,-615.3 l 4.21,17.8"
         style="fill:#3c8f7c;fill-opacity:1;fill-rule:nonzero;stroke:none"
         id="path102" /><path
         d="m 3050.98,3691 c 41.18,-59 55,-129.5 43.46,-193 -61.41,7.9 -121.4,43.1 -162.58,102.1 -41.18,58.9 -54.99,129.4 -43.46,193 61.4,-7.9 121.4,-43.2 162.58,-102.1"
         style="fill:#3c8f7c;fill-opacity:1;fill-rule:nonzero;stroke:none"
         id="path104" /><path
         d="m 3040.53,3447.9 c 68.17,-18.1 121.83,-62.9 151.37,-119.1 -53.01,-34.4 -121.53,-46.8 -189.7,-28.7 -68.16,18 -121.82,62.9 -151.37,119.1 53.02,34.3 121.54,46.7 189.7,28.7"
         style="fill:#3c8f7c;fill-opacity:1;fill-rule:nonzero;stroke:none"
         id="path106" /><path
         d="m 3098.52,3233 c 69.11,16.3 136.9,2.1 188,-33.6 -32.6,-55.4 -88.67,-98.8 -157.78,-115.1 -69.11,-16.2 -136.89,-2 -187.99,33.7 32.59,55.3 88.67,98.8 157.77,115"
         style="fill:#3c8f7c;fill-opacity:1;fill-rule:nonzero;stroke:none"
         id="path108" /><path
         d="m 3254.33,3037.7 c 69.1,16.3 136.89,2 187.99,-33.6 -32.6,-55.4 -88.67,-98.8 -157.77,-115.1 -69.12,-16.3 -136.9,-2.1 -188,33.6 32.6,55.4 88.67,98.8 157.78,115.1"
         style="fill:#3c8f7c;fill-opacity:1;fill-rule:nonzero;stroke:none"
         id="path110" /><path
         d="m 3207.74,3362.4 c -3.49,66.5 18.36,129.1 55.7,174.1 41.56,-35.4 69.65,-91.9 73.13,-158.4 3.48,-66.4 -18.37,-129 -55.7,-174.1 -41.56,35.4 -69.65,92 -73.13,158.4"
         style="fill:#3c8f7c;fill-opacity:1;fill-rule:nonzero;stroke:none"
         id="path112" /><path
         d="m 3370.22,3160.3 c -4.49,66.4 16.41,129.4 53.06,175.2 42.09,-34.7 71.03,-90.7 75.52,-157.1 4.49,-66.4 -16.41,-129.4 -53.06,-175.1 -42.09,34.7 -71.03,90.7 -75.52,157"
         style="fill:#3c8f7c;fill-opacity:1;fill-rule:nonzero;stroke:none"
         id="path114" /><path
         d="m 3504.53,2845 c 25.22,16.4 54.57,19.9 80.51,12.1 -4.61,-27.8 -20.45,-53.8 -45.66,-70.3 -25.22,-16.4 -54.58,-19.9 -80.52,-12.1 4.6,27.8 20.45,53.8 45.67,70.3"
         style="fill:#3c8f7c;fill-opacity:1;fill-rule:nonzero;stroke:none"
         id="path116" /><path
         d="m 5254.9,1968.7 16.91,1.1 c -24.35,447.3 139.84,868.2 281.87,1142.5 154.14,297.7 316.18,491.9 317.79,493.8 l -12.4,12.7 c -1.63,-1.9 -164.79,-197.3 -319.88,-496.8 -143.28,-276.6 -308.9,-701.2 -284.29,-1153.3"
         style="fill:#3c8f7c;fill-opacity:1;fill-rule:nonzero;stroke:none"
         id="path118" /><path
         d="m 5944.89,3631.7 c -38.62,-65 -94.04,-105.4 -150.32,-116.5 -9.52,67.7 4.26,143.9 42.88,209 38.61,65 94.04,105.4 150.32,116.4 9.51,-67.7 -4.27,-143.9 -42.88,-208.9"
         style="fill:#3c8f7c;fill-opacity:1;fill-rule:nonzero;stroke:none"
         id="path120" /><path
         d="m 5738.43,3553.8 c 2.76,-78.5 -20.72,-151.6 -60.07,-203.3 -42.67,43.4 -71.1,111.1 -73.86,189.7 -2.76,78.5 20.73,151.6 60.07,203.3 42.68,-43.4 71.1,-111.2 73.86,-189.7"
         style="fill:#3c8f7c;fill-opacity:1;fill-rule:nonzero;stroke:none"
         id="path122" /><path
         d="m 5573.64,3414 c 31.78,-67 37.66,-143.7 21.18,-210.7 -54.97,14.2 -106.07,57.5 -137.87,124.4 -31.79,67 -37.66,143.8 -21.18,210.7 54.97,-14.1 106.08,-57.4 137.87,-124.4"
         style="fill:#3c8f7c;fill-opacity:1;fill-rule:nonzero;stroke:none"
         id="path124" /><path
         d="m 5460.42,3070.4 c 15.22,-26.9 19.87,-58.9 14.87,-87.5 -23.44,4 -46.08,20.3 -61.3,47.3 -15.23,27 -19.87,58.9 -14.87,87.5 23.43,-4 46.08,-20.3 61.3,-47.3"
         style="fill:#3c8f7c;fill-opacity:1;fill-rule:nonzero;stroke:none"
         id="path126" /><path
         d="m 5411.57,2947.1 c 15.22,-27 19.87,-58.9 14.87,-87.6 -23.44,4 -46.08,20.4 -61.3,47.4 -15.23,26.9 -19.87,58.9 -14.87,87.5 23.44,-4 46.08,-20.4 61.3,-47.3"
         style="fill:#3c8f7c;fill-opacity:1;fill-rule:nonzero;stroke:none"
         id="path128" /><path
         d="m 5783.06,3347.2 c 57.68,-0.9 108.14,-30 141.13,-75.3 -36.85,-44.3 -89.76,-71.9 -147.44,-71.1 -57.68,0.9 -108.14,30 -141.13,75.3 36.85,44.3 89.76,71.9 147.44,71.1"
         style="fill:#3c8f7c;fill-opacity:1;fill-rule:nonzero;stroke:none"
         id="path130" /><path
         d="m 5689.43,3172.8 c 57.67,-0.8 108.14,-30 141.13,-75.3 -36.85,-44.3 -89.76,-71.9 -147.44,-71.1 -57.68,0.9 -108.14,30 -141.14,75.4 36.86,44.3 89.77,71.9 147.45,71"
         style="fill:#3c8f7c;fill-opacity:1;fill-rule:nonzero;stroke:none"
         id="path132" /><path
         d="m 5534.46,2935.2 c 37.55,-0.5 70.39,-19.5 91.87,-49 -24,-28.9 -58.43,-46.8 -95.97,-46.3 -37.54,0.6 -70.39,19.5 -91.86,49.1 23.99,28.8 58.42,46.8 95.96,46.2"
         style="fill:#3c8f7c;fill-opacity:1;fill-rule:nonzero;stroke:none"
         id="path134" /><path
         d="m 3796.62,1235.3 c 0,74.4 449.65,-13.5 487.06,88 37.4,101.5 -385.11,107.3 -385.11,244.5 0,137.2 215.32,41 341.58,41 126.26,0 -249.28,58.8 -249.28,107.3 0,48.6 131.76,23.1 131.76,74.7 0,51.6 -691.92,90.5 -610.94,216.7 80.98,126.2 452.96,-36.8 555.1,28.5 102.14,65.4 -545.66,136.6 -561.69,233.7 -16.03,97.1 477.32,-83.2 547.18,-13.3 69.86,69.8 -780.12,320.9 -744.51,505.4 35.61,184.5 644.25,-236.3 796.4,-191 152.17,45.3 -767.26,693.1 -553.59,945.5 213.67,252.3 621.58,-835.4 760.79,-796.6 139.21,38.9 -174.33,687.4 -32.13,800.2 142.21,112.8 550.37,-913 576.15,-1123.7 25.77,-210.6 77.56,453.1 300.95,530.8 223.38,77.6 6.47,-411.2 45.32,-560.2 38.85,-148.9 220.13,382.1 464.56,343.2 244.43,-38.8 -441.9,-524.4 -373.91,-666.9 67.98,-142.5 597.96,475.5 764.03,309.5 166.07,-166.1 -638.35,-627 -594.35,-753.1 43.99,-126.2 526.6,90 665.57,-49 138.97,-138.9 -518.46,-227.2 -605.63,-227.2 -87.17,0 -420.32,-109.6 -94.95,-88 325.37,21.5 -1630.36,-74.5 -1630.36,0"
         style="fill:#3c8f7c;fill-opacity:1;fill-rule:nonzero;stroke:none"
         id="path136" /><path
         d="m 5078.33,1149.2 c 0,0 541.48,-29 699.14,70.3 157.64,99.2 33.22,176.5 33.22,176.5 0,0 500.71,10.9 499.45,129.5 -1.25,118.6 -122.62,111.8 -122.62,111.8 0,0 252.73,171.8 205.59,278.8 -72.43,164.5 -484.08,-121.9 -484.08,-121.9 0,0 134.94,160.3 25.91,197.7 -299.32,102.8 -856.61,-842.7 -856.61,-842.7"
         style="fill:#50bfa5;fill-opacity:1;fill-rule:nonzero;stroke:none"
         id="path138" /><path
         d="m 6393.11,1916.1 c 47.14,-107 -205.59,-278.8 -205.59,-278.8 0,0 182.41,2.4 152.8,-113 -29.49,-114.9 -488.11,-153.7 -488.11,-153.7 0,0 160.12,-31.3 2.47,-130.5 -157.65,-99.3 -776.35,-90.9 -776.35,-90.9 l 1314.78,766.9"
         style="fill:#96d9c9;fill-opacity:1;fill-rule:nonzero;stroke:none"
         id="path140" /><path
         d="m 27667.9,2836.9 c 185.4,289.7 220,639.5 216.3,881.9 -3.9,263.2 -52.5,460.2 -52.9,462.2 l 13.4,4.7 c 0.5,-2 49.4,-200.5 53.4,-465.4 3.7,-244.8 -31.3,-598.2 -219,-891.4 l -11.2,8"
         style="fill:#3c8f7c;fill-opacity:1;fill-rule:nonzero;stroke:none"
         id="path142" /><path
         d="m 27785.6,4229.1 c 4.6,-59.5 30.9,-109.5 68.9,-140.1 32.4,41.4 50.6,98.2 46.1,157.8 -4.6,59.5 -31,109.5 -68.9,140.1 -32.5,-41.4 -50.7,-98.2 -46.1,-157.8"
         style="fill:#3c8f7c;fill-opacity:1;fill-rule:nonzero;stroke:none"
         id="path144" /><path
         d="m 27910.9,4091.7 c -31.4,-51.6 -41.2,-110.3 -31.1,-161.2 48.1,11.5 94.8,45.2 126.2,96.7 31.5,51.6 41.2,110.2 31.1,161.2 -48.1,-11.5 -94.7,-45.2 -126.2,-96.7"
         style="fill:#3c8f7c;fill-opacity:1;fill-rule:nonzero;stroke:none"
         id="path146" /><path
         d="m 27981.9,3929.9 c -48.8,-31.8 -81.9,-80.9 -94.7,-132.6 46.4,-13.2 100.9,-5.2 149.7,26.5 48.8,31.8 82,80.9 94.7,132.6 -46.4,13.2 -100.9,5.3 -149.7,-26.5"
         style="fill:#3c8f7c;fill-opacity:1;fill-rule:nonzero;stroke:none"
         id="path148" /><path
         d="m 27960,3704.6 c -38.7,-25.3 -62.6,-68.4 -69.2,-116.2 40.3,-17.1 85.7,-15 124.3,10.2 38.7,25.3 62.7,68.5 69.2,116.2 -40.3,17.1 -85.6,15 -124.3,-10.2"
         style="fill:#3c8f7c;fill-opacity:1;fill-rule:nonzero;stroke:none"
         id="path150" /><path
         d="m 27800.2,3971.5 c -43.4,23.3 -92.1,24.6 -133.7,7.8 11,-44.9 40.2,-85.3 83.7,-108.6 43.4,-23.2 92.1,-24.5 133.7,-7.7 -11,44.9 -40.2,85.3 -83.7,108.5"
         style="fill:#3c8f7c;fill-opacity:1;fill-rule:nonzero;stroke:none"
         id="path152" /><path
         d="m 27805,3815.9 c -43.4,23.3 -92.1,24.6 -133.7,7.8 11,-44.9 40.2,-85.3 83.7,-108.5 43.5,-23.3 92.1,-24.6 133.8,-7.8 -11,44.9 -40.3,85.3 -83.8,108.5"
         style="fill:#3c8f7c;fill-opacity:1;fill-rule:nonzero;stroke:none"
         id="path154" /><path
         d="m 27932,3457.1 c -23,-5.4 -42,-20.9 -53.5,-41.1 16.3,-13.6 38.4,-19.5 61.4,-14.2 23,5.4 42.1,20.9 53.6,41.1 -16.4,13.7 -38.5,19.6 -61.5,14.2"
         style="fill:#3c8f7c;fill-opacity:1;fill-rule:nonzero;stroke:none"
         id="path156" /><path
         d="m 27744.3,2632.3 c 424.3,101.4 747.9,415.3 944.7,660.7 213.6,266.4 328,512 329.1,514.4 l 17.3,-8.8 c -1.1,-2.5 -116.4,-249.9 -331.3,-518.1 -198.7,-247.9 -525.6,-564.9 -955.2,-667.6 l -4.6,19.4"
         style="fill:#3c8f7c;fill-opacity:1;fill-rule:nonzero;stroke:none"
         id="path158" /><path
         d="m 29012.4,3901.6 c -44.7,-64 -59.7,-140.5 -47.2,-209.4 66.7,8.5 131.8,46.8 176.4,110.8 44.7,64 59.7,140.4 47.2,209.4 -66.6,-8.6 -131.7,-46.8 -176.4,-110.8"
         style="fill:#3c8f7c;fill-opacity:1;fill-rule:nonzero;stroke:none"
         id="path160" /><path
         d="m 29023.7,3637.8 c -73.9,-19.6 -132.1,-68.2 -164.2,-129.2 57.5,-37.2 131.9,-50.7 205.8,-31.1 74,19.6 132.2,68.2 164.3,129.2 -57.6,37.2 -131.9,50.7 -205.9,31.1"
         style="fill:#3c8f7c;fill-opacity:1;fill-rule:nonzero;stroke:none"
         id="path162" /><path
         d="m 28960.8,3404.8 c -75,17.6 -148.5,2.2 -203.9,-36.5 35.3,-60.1 96.2,-107.2 171.1,-124.9 75,-17.7 148.6,-2.2 204,36.5 -35.4,60.1 -96.2,107.2 -171.2,124.9"
         style="fill:#3c8f7c;fill-opacity:1;fill-rule:nonzero;stroke:none"
         id="path164" /><path
         d="m 28791.8,3192.8 c -75,17.7 -148.6,2.2 -204,-36.5 35.4,-60.1 96.2,-107.2 171.2,-124.8 75,-17.7 148.5,-2.3 204,36.4 -35.4,60.1 -96.2,107.2 -171.2,124.9"
         style="fill:#3c8f7c;fill-opacity:1;fill-rule:nonzero;stroke:none"
         id="path166" /><path
         d="m 28842.3,3545.1 c 3.8,72.1 -19.9,140.1 -60.4,188.9 -45.1,-38.4 -75.6,-99.7 -79.4,-171.8 -3.7,-72.1 20,-140.1 60.5,-188.9 45.1,38.4 75.5,99.7 79.3,171.8"
         style="fill:#3c8f7c;fill-opacity:1;fill-rule:nonzero;stroke:none"
         id="path168" /><path
         d="m 28666,3325.9 c 4.9,72 -17.8,140.4 -57.5,190 -45.7,-37.6 -77.1,-98.4 -82,-170.4 -4.8,-72 17.8,-140.4 57.6,-190 45.7,37.6 77.1,98.4 81.9,170.4"
         style="fill:#3c8f7c;fill-opacity:1;fill-rule:nonzero;stroke:none"
         id="path170" /><path
         d="m 28520.3,2983.7 c -27.3,17.9 -59.2,21.7 -87.3,13.2 5,-30.1 22.1,-58.4 49.5,-76.3 27.4,-17.8 59.2,-21.6 87.4,-13.1 -5,30.1 -22.2,58.3 -49.6,76.2"
         style="fill:#3c8f7c;fill-opacity:1;fill-rule:nonzero;stroke:none"
         id="path172" /><path
         d="m 26621.2,2032.9 -18.3,1.3 c 26.4,485.3 -151.8,941.9 -305.9,1239.6 -167.2,322.9 -343,533.6 -344.8,535.7 l 13.5,13.8 c 1.8,-2.1 178.8,-214.1 347,-539 155.5,-300.1 335.2,-760.8 308.5,-1251.4"
         style="fill:#3c8f7c;fill-opacity:1;fill-rule:nonzero;stroke:none"
         id="path174" /><path
         d="m 25872.6,3837.3 c 41.9,-70.6 102,-114.3 163.1,-126.4 10.3,73.5 -4.7,156.2 -46.6,226.7 -41.8,70.6 -102,114.4 -163,126.4 -10.4,-73.5 4.6,-156.1 46.5,-226.7"
         style="fill:#3c8f7c;fill-opacity:1;fill-rule:nonzero;stroke:none"
         id="path176" /><path
         d="m 26096.6,3752.8 c -3,-85.2 22.5,-164.5 65.2,-220.6 46.3,47.1 77.1,120.6 80.1,205.8 3,85.2 -22.5,164.5 -65.2,220.6 -46.3,-47.1 -77.1,-120.6 -80.1,-205.8"
         style="fill:#3c8f7c;fill-opacity:1;fill-rule:nonzero;stroke:none"
         id="path178" /><path
         d="m 26275.4,3601.1 c -34.5,-72.6 -40.9,-155.9 -23,-228.6 59.6,15.4 115.1,62.3 149.6,135 34.5,72.7 40.8,155.9 23,228.6 -59.7,-15.3 -115.1,-62.3 -149.6,-135"
         style="fill:#3c8f7c;fill-opacity:1;fill-rule:nonzero;stroke:none"
         id="path180" /><path
         d="m 26398.2,3228.3 c -16.5,-29.2 -21.5,-63.9 -16.1,-95 25.4,4.4 50,22.1 66.5,51.4 16.5,29.2 21.6,63.9 16.1,95 -25.4,-4.4 -50,-22.1 -66.5,-51.4"
         style="fill:#3c8f7c;fill-opacity:1;fill-rule:nonzero;stroke:none"
         id="path182" /><path
         d="m 26451.2,3094.5 c -16.5,-29.3 -21.5,-63.9 -16.1,-95 25.4,4.4 50,22.1 66.5,51.4 16.5,29.2 21.5,63.9 16.1,94.9 -25.4,-4.3 -50,-22.1 -66.5,-51.3"
         style="fill:#3c8f7c;fill-opacity:1;fill-rule:nonzero;stroke:none"
         id="path184" /><path
         d="m 26048.2,3528.6 c -62.6,-0.9 -117.4,-32.5 -153.2,-81.7 40,-48.1 97.4,-78 160,-77.1 62.6,0.9 117.3,32.5 153.1,81.7 -40,48.1 -97.4,78 -159.9,77.1"
         style="fill:#3c8f7c;fill-opacity:1;fill-rule:nonzero;stroke:none"
         id="path186" /><path
         d="m 26149.8,3339.4 c -62.6,-0.9 -117.4,-32.5 -153.2,-81.7 40,-48.1 97.4,-78 160,-77.1 62.6,0.9 117.3,32.5 153.1,81.7 -40,48.1 -97.4,78 -159.9,77.1"
         style="fill:#3c8f7c;fill-opacity:1;fill-rule:nonzero;stroke:none"
         id="path188" /><path
         d="m 26317.9,3081.6 c -40.7,-0.6 -76.4,-21.2 -99.7,-53.2 26,-31.3 63.4,-50.8 104.1,-50.2 40.8,0.6 76.4,21.2 99.7,53.2 -26,31.3 -63.4,50.8 -104.1,50.2"
         style="fill:#3c8f7c;fill-opacity:1;fill-rule:nonzero;stroke:none"
         id="path190" /><path
         d="m 28203.4,1237.2 c 0,80.8 -487.9,-14.5 -528.4,95.5 -40.6,110.1 417.8,116.4 417.8,265.3 0,148.9 -233.6,44.5 -370.6,44.5 -137,0 270.4,63.8 270.4,116.4 0,52.7 -142.9,25.1 -142.9,81.1 0,55.9 750.7,98.1 662.8,235.1 -87.8,137 -491.4,-39.9 -602.2,31 -110.8,70.8 592,148.1 609.4,253.5 17.4,105.4 -517.9,-90.3 -593.7,-14.5 -75.8,75.8 846.4,348.2 807.8,548.4 -38.6,200.2 -699,-256.4 -864.1,-207.3 -165.1,49.2 832.5,752 600.6,1025.8 -231.8,273.9 -674.4,-906.3 -825.4,-864.2 -151,42.2 189.2,745.8 34.9,868.2 -154.3,122.4 -597.2,-990.6 -625.1,-1219.2 -28,-228.5 -84.2,491.6 -326.6,575.9 -242.3,84.2 -7,-446.2 -49.1,-607.7 -42.2,-161.6 -238.9,414.4 -504.1,372.3 -265.2,-42.2 479.5,-569 405.7,-723.6 -73.7,-154.5 -648.8,516 -828.9,335.8 -180.2,-180.2 692.6,-680.3 644.8,-817.1 -47.7,-136.9 -571.3,97.7 -722.1,-53.1 -150.8,-150.8 562.5,-246.6 657.1,-246.6 94.6,0 456,-118.9 103,-95.5 -353,23.4 1768.9,-80.7 1768.9,0"
         style="fill:#3c8f7c;fill-opacity:1;fill-rule:nonzero;stroke:none"
         id="path192" /><path
         d="m 26812.8,1143.9 c 0,0 -587.5,-31.5 -758.6,76.2 -171,107.7 -36,191.5 -36,191.5 0,0 -543.3,11.8 -541.9,140.5 1.4,128.7 133,121.3 133,121.3 0,0 -274.2,186.4 -223,302.5 78.6,178.5 525.2,-132.3 525.2,-132.3 0,0 -146.4,173.9 -28.1,214.5 324.7,111.6 929.4,-914.2 929.4,-914.2"
         style="fill:#50bfa5;fill-opacity:1;fill-rule:nonzero;stroke:none"
         id="path194" /><path
         d="m 25386.3,1975.9 c -51.2,-116.1 223,-302.5 223,-302.5 0,0 -197.9,2.6 -165.8,-122.5 32.1,-124.7 529.6,-166.8 529.6,-166.8 0,0 -173.7,-34 -2.6,-141.7 171,-107.7 842.3,-98.5 842.3,-98.5 l -1426.5,832"
         style="fill:#3c8f7c;fill-opacity:1;fill-rule:nonzero;stroke:none"
         id="path196" /><path
         d="m 2861.65,5873.6 c 0.87,29.3 41.29,52 62.73,26.1 21.35,-25.9 20.45,-8.5 41.26,-64.4 59.74,-160.7 147.53,-316.2 249.72,-452.1 195.8,-260.3 389.64,-391.7 609.71,-521.8 -90.69,204.3 -151.42,422.4 -159.16,642.4 -2.81,80.2 -1.27,163.4 33.03,236.9 9.57,20.6 46.38,16.4 50.11,-6.5 18.49,-113.6 -8.72,-199.2 28.02,-402.3 87.69,-484.9 434.71,-999.1 769.48,-1359.2 -64.21,609.6 -95.32,1302.4 19.49,1917.3 18.83,100.9 48.77,196.8 76.6,295.3 6.54,23.2 39.49,13.3 35.43,-9.7 -5.78,-32.8 -60.48,-456 -63.78,-485.1 -53.06,-468.3 -42.46,-987.1 -1.16,-1460.1 259.68,351.6 433.49,762.9 514.76,1192.4 24.02,126.9 30.44,258 64.12,382.6 4.64,17.2 33,19 36.53,0 34.59,-186.7 -34.68,-516.9 -85.16,-696.3 -102.3,-363.6 -265.98,-689.6 -489.76,-980.7 -8.7,-11.4 359.38,-2856.6 349.48,-2892.6 -16.68,-60.8 -122.54,-103.5 -138.95,4.4 -6.7,43.8 -208.94,1773.9 -300.2,2575.3 -34.48,19 -56.67,52.7 -145.38,152.5 -205.3,230.7 -408.31,517.9 -544,788.7 -81.43,4.6 -669.41,290.7 -961.08,942.2 -8.41,18.8 -46.28,106.9 -51.7,126.6 -4.64,16.9 -0.64,31.4 -0.14,48.1"
         style="fill:#184655;fill-opacity:1;fill-rule:nonzero;stroke:none"
         id="path198" /><path
         d="m 4750.02,6796.1 c -6.69,87.6 -10.18,177.1 -10.18,268.3 0,1016.2 431.33,1840.1 963.41,1840.1 532.07,0 963.41,-823.9 963.41,-1840.1 0,-91.2 -3.49,-180.7 -10.19,-268.3 H 4750.02"
         style="fill:#3c8f7c;fill-opacity:1;fill-rule:nonzero;stroke:none"
         id="path200" /><path
         d="m 3659.7,7248.3 c -6.69,123.5 -10.18,249.8 -10.18,378.3 0,1433.2 431.33,2595.1 963.41,2595.1 532.07,0 963.41,-1161.9 963.41,-2595.1 0,-128.5 -3.49,-254.8 -10.19,-378.3 H 3659.7"
         style="fill:#50bfa5;fill-opacity:1;fill-rule:nonzero;stroke:none"
         id="path202" /><path
         d="m 4012.44,5658.1 c 6.7,87.6 10.19,177.2 10.19,268.3 0,1016.3 -431.34,1840.1 -963.41,1840.1 -532.08,0 -963.41,-823.8 -963.41,-1840.1 0,-91.1 3.48,-180.7 10.18,-268.3 h 1906.45"
         style="fill:#50bfa5;fill-opacity:1;fill-rule:nonzero;stroke:none"
         id="path204" /><path
         d="m 5554.31,5658.1 c 8.49,123.5 12.91,249.8 12.91,378.4 0,1433.2 -546.8,2595 -1221.31,2595 -674.51,0 -1221.31,-1161.8 -1221.31,-2595 0,-128.6 4.42,-254.9 12.9,-378.4 h 2416.81"
         style="fill:#3c8f7c;fill-opacity:1;fill-rule:nonzero;stroke:none"
         id="path206" /><path
         d="m 4616.58,8631.5 c 337.11,0 638.26,-368.6 837.03,-946.7 101.2,53.1 208.75,81.7 320.22,81.7 598.52,0 1083.71,-823.8 1083.71,-1840.1 0,-91.1 -3.92,-180.7 -11.46,-268.3 H 3544.32 c -7.53,123.5 -11.45,249.8 -11.45,378.4 0,1433.2 485.19,2595 1083.71,2595"
         style="fill:#50bfa5;fill-opacity:1;fill-rule:nonzero;stroke:none"
         id="path208" /><path
         d="m 30502.8,3289.6 c 137.9,358.8 273,717.8 371,1091 301.7,1148.6 228.9,1985.8 217.6,2388.4 -1.4,53.2 83.9,67.7 91.3,12.9 25.7,-189 31.4,-380.9 32.6,-571.6 2.2,-322.1 -17.4,-644.4 -58.7,-966.3 221.3,-57.6 430.6,28.7 601.9,183.7 295.2,267.3 400.6,623.5 447,1018.1 4.8,40.3 6.3,78.4 39.1,101.7 7.3,20.7 37.5,27.1 45,-3.8 46.8,-48.1 24.1,-144.6 16.9,-206.7 -97.4,-840.4 -608.3,-1247.7 -1019.5,-1244.2 -45.1,0.4 -100,2.6 -149,16.3 -29.7,-201 -67.8,-400.7 -114.4,-598.2 -88.9,-376.3 -213.5,-739.5 -350.7,-1099.3 -469,-1230.4 -618.6,-1858.9 -751.9,-2215 -20.1,-71.6 -126,-41.6 -107.5,30.9 6.6,25.8 372.5,1237.9 689.3,2062.1"
         style="fill:#29446d;fill-opacity:1;fill-rule:nonzero;stroke:none"
         id="path210" /><path
         d="m 28623.6,6524.2 c 4.4,26.4 19.9,44 25.8,68.8 7.7,32.7 61.1,36 66.7,0 3.2,-20.6 14.6,-33.2 19,-54.3 14.3,-68.1 -20.2,-450.8 70,-1036.7 24,-155.7 50.5,-310.6 102.4,-459.2 83.8,-240.3 236.5,-499.2 426.5,-662.9 6,343.2 26.5,685.9 67.7,1026.8 24.6,204.1 55.7,407.1 93.4,609 18.4,98.3 38.3,196.2 59.7,293.9 22.4,102.4 43.6,200.8 92.6,293.5 15.1,28.5 57.9,15.3 58,-16.3 0.2,-91 -18,-174.8 -37,-263.2 -18.9,-88 -36.6,-176.2 -53,-264.8 -122.1,-656 -168,-1238.6 -167.5,-1895.4 201.2,253.1 377.2,556.2 507.5,853.9 156.7,357.9 262.2,743 306.2,1133.8 12.2,109.4 19.7,219.3 22.1,329.4 1.2,56.9 2.3,113.9 3.5,170.9 0.6,29.3 11.8,117.7 61.2,91.8 45.4,-23.8 41.1,-77 44.9,-123.4 4.1,-50.7 4.5,-101.2 3.9,-152 -1.2,-97.3 -6.5,-194.5 -15.5,-291.4 -65.3,-701.8 -330.1,-1395.6 -732.8,-1964 -61.4,-86.7 -124.7,-179.5 -199.3,-255.2 17.2,-1123.3 187.6,-2621 190.5,-2734.4 0.7,-25.1 0,-18.6 -9.2,-27.9 -36.5,-36.5 -79.2,-48.4 -92.9,-9.3 -25.9,74 -21.7,143.4 -60.2,553.2 -68.8,730.8 -145.9,2404.9 -145.6,2472.7 -239.1,171.8 -408.4,436 -519.1,712 -58.6,146.5 -93.1,297.1 -118.9,453.1 -87.9,530.5 -85.2,1060.8 -70.6,1147.6"
         style="fill:#29446d;fill-opacity:1;fill-rule:nonzero;stroke:none"
         id="path212" /><path
         d="m 30267.1,7440.9 c -9.1,81 -13.8,163.8 -13.8,248 0,939.4 583.8,1700.9 1303.9,1700.9 720.1,0 1303.8,-761.5 1303.8,-1700.9 0,-84.2 -4.7,-167 -13.7,-248 h -2580.2"
         style="fill:#4e9b87;fill-opacity:1;fill-rule:nonzero;stroke:none"
         id="path214" /><path
         d="m 28791.5,7859 c -9.1,114.1 -13.8,230.9 -13.8,349.6 0,1324.8 583.7,2398.8 1303.8,2398.8 720.1,0 1303.9,-1074 1303.9,-2398.8 0,-118.7 -4.7,-235.5 -13.8,-349.6 h -2580.1"
         style="fill:#50bfa5;fill-opacity:1;fill-rule:nonzero;stroke:none"
         id="path216" /><path
         d="m 31355.6,6389 c 11.5,114.2 17.5,230.9 17.5,349.7 0,1324.8 -740.1,2398.8 -1652.9,2398.8 -912.9,0 -1653,-1074 -1653,-2398.8 0,-118.8 6,-235.5 17.5,-349.7 h 3270.9"
         style="fill:#4e9b87;fill-opacity:1;fill-rule:nonzero;stroke:none"
         id="path218" /><path
         d="m 30086.5,9137.5 c 456.2,0 863.8,-340.7 1132.8,-875.1 137,49.1 282.5,75.5 433.4,75.5 810,0 1466.7,-761.5 1466.7,-1700.9 0,-84.2 -5.3,-167 -15.5,-248 h -4468.6 c -10.2,114.2 -15.5,230.9 -15.5,349.7 0,1324.8 656.6,2398.8 1466.7,2398.8"
         style="fill:#50bfa5;fill-opacity:1;fill-rule:nonzero;stroke:none"
         id="path220" /><path
         d="M 32640.5,1145.3 H 1228.78 v 81.6 H 32640.5 v -81.6"
         style="fill:#1a2538;fill-opacity:1;fill-rule:nonzero;stroke:none"
         id="path222" /><path
         d="m 13460.6,2159 c -168.5,94.4 -273.2,281.7 -311.2,556.6 -30.1,217.5 -18.7,490.5 33.8,811.4 89.2,545.3 268.8,1047.7 270.7,1052.7 l 28.2,-10.2 c -1.8,-5 -180.7,-505.1 -269.4,-1047.7 -81.3,-497.1 -101.7,-1132.5 262.6,-1336.6 l -14.7,-26.2"
         style="fill:#1a2538;fill-opacity:1;fill-rule:nonzero;stroke:none"
         id="path224" /><path
         d="m 13620.6,2159 c -168.5,94.4 -273.2,281.7 -311.2,556.6 -30.1,217.5 -18.7,490.5 33.8,811.4 89.2,545.3 268.8,1047.7 270.7,1052.7 l 28.2,-10.2 c -1.8,-5 -180.7,-505.1 -269.4,-1047.7 -81.3,-497.1 -101.7,-1132.5 262.6,-1336.6 l -14.7,-26.2"
         style="fill:#1a2538;fill-opacity:1;fill-rule:nonzero;stroke:none"
         id="path226" /><path
         d="m 13694.6,4858.7 c -0.6,2 -58.3,200.6 -64.2,503.5 -5.4,279.4 33.3,707.7 248.5,1161.7 96.5,203.5 300.5,450.7 516.5,712.4 367.3,445 783.5,949.3 833.3,1417.9 40.7,383.3 -49.1,608.2 -131.6,729.4 -89,130.7 -188.9,172.1 -189.9,172.5 l 11.2,27.9 c 4.4,-1.8 108,-44.2 202.2,-181.6 86,-125.4 179.7,-357.6 137.9,-751.4 -50.7,-477.6 -470,-985.6 -840,-1433.8 -214.7,-260.2 -417.6,-506 -512.5,-706.2 -407.1,-858.7 -184.9,-1636.1 -182.7,-1643.8 l -28.7,-8.5"
         style="fill:#1a2538;fill-opacity:1;fill-rule:nonzero;stroke:none"
         id="path228" /><path
         d="m 13635.3,4253.1 -407.2,93.5 258.7,1126.2 407.2,-93.5 -258.7,-1126.2"
         style="fill:#5184ce;fill-opacity:1;fill-rule:nonzero;stroke:none"
         id="path230" /><path
         d="m 13665.6,4246.1 -467.8,107.5 31.9,138.6 467.8,-107.5 -31.9,-138.6"
         style="fill:#184655;fill-opacity:1;fill-rule:nonzero;stroke:none"
         id="path232" /><path
         d="m 13897,5253.2 -467.8,107.5 31.8,138.6 467.8,-107.5 -31.8,-138.6"
         style="fill:#184655;fill-opacity:1;fill-rule:nonzero;stroke:none"
         id="path234" /><path
         d="m 15443.2,10267.1 -30.8,-27.6 c -15.8,-14.2 -39.7,-13.6 -53.2,1.3 l -546.6,601.3 c -13.6,14.9 -11.7,38.5 4.1,52.7 l 30.8,27.6 c 15.8,14.2 39.7,13.6 53.3,-1.4 l 546.5,-601.2 c 13.6,-14.9 11.8,-38.5 -4.1,-52.7"
         style="fill:#13375b;fill-opacity:1;fill-rule:nonzero;stroke:none"
         id="path236" /><path
         d="m 17296.3,10755.5 c -73.1,59.5 -481.2,114.1 -474,27.7 7.2,-86.3 -551.1,-1226.2 -551.1,-1226.2 l -654.3,573.1 c -6.1,20.1 -111.5,215.5 -114.7,254 -3.4,40.4 -120.6,111 -175,100.6 -54.5,-10.4 46.5,-78.7 53.2,-91.3 18,-34.1 -51.8,-46.9 -51.8,-46.9 0,0 -200.4,110.1 -204.6,174.8 -4.3,64.7 -45.7,200.4 -89,172 -22.3,-14.6 -22.1,-110.9 -15.1,-156.6 -12.9,51.9 -31.1,110.4 -48.9,116.2 -32.4,10.6 -48.5,-30.6 -42.6,-50.9 5.8,-20.3 58.2,-240.4 74.1,-265.2 15.6,-24.2 339.2,-285.1 385.8,-341.8 0,0 584,-792.1 988.6,-904.9 58.6,-16.3 228.4,181.9 417.3,416.7 188.8,234.8 730.4,1063 502.1,1248.7"
         style="fill:#ea9081;fill-opacity:1;fill-rule:nonzero;stroke:none"
         id="path238" /><path
         d="m 16558.5,10343.5 c 233.6,525.3 542.7,1364.1 913.9,1410.6 0,0 230.7,48 351,-271.6 67.8,-185.2 -248.8,-1097.1 -653.6,-1701.8 -134.7,211.2 -385.7,460.2 -611.3,562.8"
         style="fill:#274f89;fill-opacity:1;fill-rule:nonzero;stroke:none"
         id="path240" /><path
         d="m 18637.1,11617.9 c 207.7,-30.8 334.1,-813.6 334.1,-813.6 l 629,149.6 c 0,0 -213.2,806.6 -590.6,1109.6 -377.3,303 -1203.7,-7.1 -1502.1,-258.8 -298.3,-251.7 -125.8,-507 -125.8,-507 0,0 1047.7,351 1255.4,320.2"
         style="fill:#13375b;fill-opacity:1;fill-rule:nonzero;stroke:none"
         id="path242" /><path
         d="m 17147.2,11331.5 c 0,0 131.5,-345.5 175.9,-633.6 44.5,-288.2 269.6,-506.3 380.8,-1227.5 111.1,-721.2 291.8,-1374.8 291.8,-1374.8 0,0 798.8,37.6 934.6,226.6 135.7,189 -115,1731.3 -358.3,2466.7 -243.3,735.5 410.4,1021.1 29,1226.4 -381.5,205.3 -819.9,-16.2 -1005.9,-106.1 -186,-90 -472.4,-418.7 -447.9,-577.7"
         style="fill:#184655;fill-opacity:1;fill-rule:nonzero;stroke:none"
         id="path244" /><path
         d="m 18526,10887 c 0,0 161.9,-567.2 160.8,-1161.1 -1.1,-594 247.4,-1736.2 247.4,-1736.2 0,0 639.5,-348.2 773.6,4.1 25.2,66.2 15.6,815.5 -13.9,1125.8 -31.4,329.5 -211.7,1472.3 -270.7,1842.5 -12.3,77.7 -44.1,150.8 -92.1,212.5 -154.2,198.4 -506.1,636.3 -610.9,640.5 -136.8,5.4 -337.9,-317.1 -194.2,-928.1"
         style="fill:#f7cc7f;fill-opacity:1;fill-rule:nonzero;stroke:none"
         id="path246" /><path
         d="m 18669.7,9271.7 c -5,37.4 -9.9,74.8 -14.5,111.9 180.3,-60.9 775.1,61.9 1009.9,119.4 4.9,-39 9.3,-75 13,-107.4 -215.2,-52.8 -793.7,-193.4 -1008.4,-123.9"
         style="fill:#13375b;fill-opacity:1;fill-rule:nonzero;stroke:none"
         id="path248" /><path
         d="m 19724.7,8511.9 c 0.7,-35.8 1.2,-70.7 1.6,-104.6 -231.2,-80.8 -715.1,90 -947.1,169.6 -7,39.6 -14.1,80.5 -21.2,122.5 215.7,-74.2 763.1,-255.7 966.7,-187.5"
         style="fill:#13375b;fill-opacity:1;fill-rule:nonzero;stroke:none"
         id="path250" /><path
         d="m 19721.2,8659.9 c -99.7,-61.6 -719.5,-451.5 -868.2,-479.9 -5.9,30.5 -12.5,64.5 -19.5,101.4 104.4,23.4 576.9,314.2 883.8,502.7 1.4,-41.4 2.8,-82.9 3.9,-124.2"
         style="fill:#13375b;fill-opacity:1;fill-rule:nonzero;stroke:none"
         id="path252" /><path
         d="m 16864.7,2557.3 22,-395.5 c 8.1,-50.2 39.8,-174 39.8,-219.5 0,-171.2 -747.6,145.3 -580,221.1 15.1,6.9 94.6,58.8 99.6,117.1 7.7,89.7 27.1,271.3 27.1,271.3 l 391.5,5.5"
         style="fill:#f7a491;fill-opacity:1;fill-rule:nonzero;stroke:none"
         id="path254" /><path
         d="m 16348.3,2165 c 0,0 175.5,-52.3 265.4,-65.4 89.9,-13.1 208.5,97.1 272,67.3 70,-32.7 63,-355.4 63,-355.4 0,0 -937,-56.2 -1201.7,30.6 -104.8,34.4 242.5,201 601.3,322.9"
         style="fill:#f47458;fill-opacity:1;fill-rule:nonzero;stroke:none"
         id="path256" /><path
         d="m 18264.9,2519.4 22.1,-395.5 c 8,-50.1 39.8,-173.9 39.8,-219.5 0,-171.2 -747.6,145.3 -580.1,221.1 15.2,6.9 118.2,97.6 123.2,155.8 7.7,89.8 3.6,232.6 3.6,232.6 l 391.4,5.5"
         style="fill:#f7a491;fill-opacity:1;fill-rule:nonzero;stroke:none"
         id="path258" /><path
         d="m 17748.6,2127.2 c 0,0 175.5,-52.4 265.4,-65.5 89.9,-13.1 208.4,97.1 272,67.4 70,-32.8 72.8,-327.7 72.8,-327.7 0,0 -1001.7,-74 -1237.2,-4.6 -105.8,31.2 268.2,208.4 627,330.4"
         style="fill:#f47458;fill-opacity:1;fill-rule:nonzero;stroke:none"
         id="path260" /><path
         d="m 17327,8217.7 -407.9,-179.3 -573,-3193.8 26.9,-2424.6 533,-12.7 c 0,0 247.9,2120.9 247.9,2285.3 0,164.4 1148.3,2876.4 1148.3,2876.4 l -975.2,648.7"
         style="fill:#1a2538;fill-opacity:1;fill-rule:nonzero;stroke:none"
         id="path262" /><path
         d="m 17324.1,8039.7 c 0,0 232.9,-2491.9 232.9,-2911.9 0,-420.1 188.8,-2771 188.8,-2771 l 534.3,3.2 c 0,0 38.5,716.6 95.8,1770.8 8.9,165.1 -11.6,498.2 0,669.1 83.1,1229.4 266.2,2842.5 187.7,3301.2 -12.7,73.9 -64.9,233.6 -111.1,282.4 -349.9,368.7 -1128.4,-343.8 -1128.4,-343.8"
         style="fill:#283a56;fill-opacity:1;fill-rule:nonzero;stroke:none"
         id="path264" /><path
         d="m 14325.1,2110 c 0,-487.7 -395.4,-883.1 -883.1,-883.1 -487.7,0 -883.1,395.4 -883.1,883.1 0,487.7 395.4,883.1 883.1,883.1 487.7,0 883.1,-395.4 883.1,-883.1"
         style="fill:#184655;fill-opacity:1;fill-rule:nonzero;stroke:none"
         id="path266" /><path
         d="m 21275.8,2110 c 0,-487.7 -395.4,-883.1 -883.1,-883.1 -487.7,0 -883.1,395.4 -883.1,883.1 0,487.7 395.4,883.1 883.1,883.1 487.7,0 883.1,-395.4 883.1,-883.1"
         style="fill:#184655;fill-opacity:1;fill-rule:nonzero;stroke:none"
         id="path268" /><path
         d="m 14040.2,2110 c 0,-330.4 -267.8,-598.2 -598.2,-598.2 -330.4,0 -598.2,267.8 -598.2,598.2 0,330.4 267.8,598.2 598.2,598.2 330.4,0 598.2,-267.8 598.2,-598.2"
         style="fill:#5184ce;fill-opacity:1;fill-rule:nonzero;stroke:none"
         id="path270" /><path
         d="m 20990.9,2110 c 0,-330.4 -267.8,-598.2 -598.2,-598.2 -330.4,0 -598.2,267.8 -598.2,598.2 0,330.4 267.8,598.2 598.2,598.2 330.4,0 598.2,-267.8 598.2,-598.2"
         style="fill:#5184ce;fill-opacity:1;fill-rule:nonzero;stroke:none"
         id="path272" /><path
         d="m 20440.1,2163.8 c -16.6,44.2 -65.8,66.6 -110,50 l -1034.7,-388.7 h -4166.8 l -1060.1,2353.8 -139.7,-444.3 935.1,-2063.4 0.1,0.1 c 3.1,-10.7 11.2,-17.1 30.4,-17.1 h 4444.3 c 25.2,0 1051.5,399.6 1051.5,399.6 44.2,16.6 66.5,65.9 49.9,110"
         style="fill:#1a2538;fill-opacity:1;fill-rule:nonzero;stroke:none"
         id="path274" /><path
         d="m 16852.5,7832.4 182,1150.2 c 0,0 -164.5,1059.4 -153.2,1786.1 6.8,322.2 195.7,754.6 238.5,763.8 214,46 280.4,380.4 637.9,135.1 421,-294.8 893,-1470.8 852.4,-3813 0,0 -1304.1,-166.1 -1757.6,-22.2"
         style="fill:#5184ce;fill-opacity:1;fill-rule:nonzero;stroke:none"
         id="path276" /><path
         d="m 16908.7,11919.2 90.2,-310.8 c 0,0 93.9,-457.3 261.2,-505.9 167.2,-48.6 371.7,560.5 371.7,560.5 l -445.1,857.2 -278,-601"
         style="fill:#f7a491;fill-opacity:1;fill-rule:nonzero;stroke:none"
         id="path278" /><path
         d="m 17312.1,12278.6 c 9.7,-286.7 -173.7,-513.2 -326.9,-622.9 l -76.5,263.5 278,601 125.4,-241.6"
         style="fill:#f47458;fill-opacity:1;fill-rule:nonzero;stroke:none"
         id="path280" /><path
         d="m 17188.7,13029.8 c 11.7,7.7 255.6,-634.8 127.5,-857.4 -128.1,-222.6 -446.3,-360.3 -598.8,-244.5 -168.7,128.1 -327.7,842.8 -106.2,1092.8 221.4,250.1 577.5,9.1 577.5,9.1"
         style="fill:#f7a491;fill-opacity:1;fill-rule:nonzero;stroke:none"
         id="path282" /><path
         d="m 16792.7,13336.1 c 210.6,41.3 511,-24.7 691.5,-209.2 221.9,-226.8 -41.1,-1095.4 -41.1,-1095.4 l -117.5,159.5 c 0,0 -79.3,94.2 -56.7,200.8 22.7,106.6 -133.6,137.1 -191.8,207.7 -44.9,54.4 -79,194.8 -150.8,285.1 0,0 -221,103.1 -354.9,76.3 -228.2,-45.7 -80.5,316 221.3,375.2"
         style="fill:#13375b;fill-opacity:1;fill-rule:nonzero;stroke:none"
         id="path284" /><path
         d="m 17164.2,12476.3 c -26.1,-76 -10.3,-150.3 35.3,-166 45.7,-15.6 103.9,33.3 130,109.3 26.2,76 10.3,150.3 -35.3,166 -45.6,15.6 -103.8,-33.3 -130,-109.3"
         style="fill:#f7a491;fill-opacity:1;fill-rule:nonzero;stroke:none"
         id="path286" /><path
         d="m 16613.3,12206.7 269.3,91.7 c 0,0 28.8,-106.2 -88.4,-150 -143,-53.4 -180.9,58.3 -180.9,58.3"
         style="fill:#ffffff;fill-opacity:1;fill-rule:nonzero;stroke:none"
         id="path288" /><path
         d="m 17231.3,10477.6 c -65.2,457.7 -111.7,1092 298.7,1322 146.5,83.9 343.5,32.4 492.7,-4.7 -178.2,4.2 -335.4,-83.9 -415,-142.5 -333.7,-224.2 -269.3,-745.9 -208.4,-1150.9 153.2,-1018.4 1126.1,-706.8 1126.1,-706.8 l 39.7,-180.1 c 0,0 -505.8,-128.7 -897.8,12.8 -312.5,112.8 -436,850.2 -436,850.2"
         style="fill:#184655;fill-opacity:1;fill-rule:nonzero;stroke:none"
         id="path290" /><path
         d="m 14834.7,9916.8 c 128.6,44.3 361.5,61.2 448.4,-23.9 46.9,-46 1154,-334.2 1189.9,-310.6 86.4,56.8 372.9,806.1 531.6,1225.2 158.7,419 224.2,451.3 371.1,507 125.5,47.5 503.1,-142.2 472.1,-357.4 -59.8,-415.7 -923,-1916.1 -1015.5,-1951.9 -343.5,-133 -1719.3,603.1 -1745.2,615.8 -34.6,16.8 -137.1,-31.2 -171.6,-14.4 -34.6,16.9 -105.1,-100.3 -150.4,-6.8 -11.8,24.5 -59,272.7 69.6,317"
         style="fill:#f7a491;fill-opacity:1;fill-rule:nonzero;stroke:none"
         id="path292" /><path
         d="m 13550.4,3312 197,-39.7 1263.9,6277.9 -196.9,39.7 -1264,-6277.9"
         style="fill:#1a2538;fill-opacity:1;fill-rule:nonzero;stroke:none"
         id="path294" /><path
         d="m 13392.3,2908.3 344.7,-69.4 887.2,4406.9 -344.7,69.4 -887.2,-4406.9"
         style="fill:#f47458;fill-opacity:1;fill-rule:nonzero;stroke:none"
         id="path296" /><path
         d="m 13361.4,1864.3 v 0 c 136,-27.4 268.4,60.6 295.8,196.6 l 157.2,781.2 c 3.5,17.3 -7.6,34 -24.8,37.5 l -430.1,86.6 c -17.2,3.4 -34,-7.7 -37.4,-24.9 L 13164.8,2160 c -27.4,-136 60.6,-268.4 196.6,-295.7"
         style="fill:#1a2538;fill-opacity:1;fill-rule:nonzero;stroke:none"
         id="path298" /><path
         d="M 13412.5,3109.2 13796,3032 c 30.1,-6.1 59.4,13.4 65.4,43.5 l 369.7,1836 c 6,30.1 -13.4,59.3 -43.5,65.4 l -383.5,77.2 c -30.1,6.1 -59.3,-13.4 -65.4,-43.5 l -369.7,-1836 c -6,-30.1 13.5,-59.4 43.5,-65.4"
         style="fill:#1a2538;fill-opacity:1;fill-rule:nonzero;stroke:none"
         id="path300" /><path
         d="m 14765.1,9599.8 c -16.4,-81.6 36.4,-161 118,-177.5 81.6,-16.4 161,36.4 177.4,118 16.5,81.6 -36.3,161 -117.9,177.5 -81.6,16.4 -161.1,-36.4 -177.5,-118"
         style="fill:#f47458;fill-opacity:1;fill-rule:nonzero;stroke:none"
         id="path302" /><path
         d="m 16692.2,10365 c 233.6,525.3 633.5,1342.6 1004.7,1389.1 0,0 230.7,48 351,-271.6 67.8,-185.2 -248.8,-1097.1 -653.6,-1701.8 -134.7,211.2 -476.5,481.7 -702.1,584.3"
         style="fill:#466eb6;fill-opacity:1;fill-rule:nonzero;stroke:none"
         id="path304" /><path
         d="m 18953.6,7826.8 -203.3,-24.1 c -90.6,-10.7 -172.7,54.1 -183.4,144.7 l -159.2,1347.7 c -10.8,90.5 54,172.6 144.6,183.4 l 203.3,24 c 90.5,10.7 172.6,-54.1 183.3,-144.7 l 159.3,-1347.6 c 10.7,-90.6 -54,-172.7 -144.6,-183.4"
         style="fill:#50bfa5;fill-opacity:1;fill-rule:nonzero;stroke:none"
         id="path306" /><path
         d="m 18460.6,8847.3 531.3,62.8 -13.4,112.9 -531.3,-62.8 13.4,-112.9"
         style="fill:#13375b;fill-opacity:1;fill-rule:nonzero;stroke:none"
         id="path308" /></g></g></svg>
