<?xml version="1.0" encoding="UTF-8" standalone="no"?>
<!-- Created with Inkscape (http://www.inkscape.org/) -->

<svg
   version="1.1"
   id="svg2"
   xml:space="preserve"
   width="4580"
   height="2666.6667"
   viewBox="0 0 4580 2666.6667"
   sodipodi:docname="10751.eps"
   xmlns:inkscape="http://www.inkscape.org/namespaces/inkscape"
   xmlns:sodipodi="http://sodipodi.sourceforge.net/DTD/sodipodi-0.dtd"
   xmlns="http://www.w3.org/2000/svg"
   xmlns:svg="http://www.w3.org/2000/svg"><defs
     id="defs6"><clipPath
       clipPathUnits="userSpaceOnUse"
       id="clipPath260"><path
         d="m 19050.6,3687.5 -49,1.2 c 28.4,836.6 265.7,1679.5 305.7,1816.2 -138.4,75.7 -1070.8,583.3 -1703.9,876.6 -539.6,249.9 -1130.6,275.7 -1351.9,275.7 -29,0 -51.7,-0.4 -67.1,-0.9 V 3757.5 l -49.1,1.2 v 2897.2 c -62.3,1.2 -240.3,4.2 -475.4,4.2 -598.1,0 -1565.1,-19.1 -1935.1,-134.4 -515.2,-160.6 -1204.7,-889.1 -1289.1,-979.7 l 182,-853.9 c 44.7,2.1 88,3.2 130.1,3.2 643.5,0 981.2,-247.2 1153.4,-463.4 127.6,-160.3 183.9,-323.2 208.2,-423.8 l -51.4,1.3 c -25.1,97 -80,247.9 -196.8,393.9 -233,291.1 -616.4,442.9 -1114.6,442.9 -48,0 -97.1,-1.4 -147.1,-4.2 l -21,-1.2 -196,919.7 8.5,9.3 c 30.7,33.7 759.6,828.3 1319.2,1002.7 376.2,117.3 1326.1,137.2 1927.3,137.2 286.6,0 494,-4.5 522,-5.2 6.2,0.3 38.5,1.8 91.3,1.8 225.3,0 825.1,-26.4 1373.2,-280.3 683.4,-316.5 1713.9,-881.9 1724.2,-887.6 l 17.5,-9.6 -5.8,-19.1 c -2.9,-9.3 -278.6,-920 -309.3,-1822.2"
         id="path258" /></clipPath></defs><sodipodi:namedview
     id="namedview4"
     pagecolor="#ffffff"
     bordercolor="#666666"
     borderopacity="1.0"
     inkscape:pageshadow="2"
     inkscape:pageopacity="0.0"
     inkscape:pagecheckerboard="0" /><g
     id="g8"
     inkscape:groupmode="layer"
     inkscape:label="ink_ext_XXXXXX"
     transform="matrix(1.3333333,0,0,-1.3333333,0,2666.6667)"><g
       id="g10"
       transform="scale(0.1)"><path
         d="M 0,0 H 34350 V 20000 H 0 Z"
         style="fill:#ffffff;fill-opacity:1;fill-rule:nonzero;stroke:none"
         id="path12" /><path
         d="M 4030.27,2455.5 H 32351.4 c 2347.5,1362.4 1139.4,5462 -821.3,6293.1 -2110.6,894.6 1240.8,3988.4 -2010.4,4992.6 -2122.8,655.6 -4999.8,-76.8 -6405.1,1334.7 -1651.1,1658.5 -4394,3677 -9502.4,2108.4 C 9672.34,15974.5 11812.3,13642.2 5365.07,12939.9 2049.86,12578.9 2690.48,9489.5 2999.6,8851.1 3268.83,8295 5050.04,7413.1 2574.56,6198.5 -1055.38,4417.5 3944.7,2488.3 4030.27,2455.5"
         style="fill:#eafcfc;fill-opacity:1;fill-rule:nonzero;stroke:none"
         id="path14" /><path
         d="m 11823,7035 c 0,0 2901.6,3675.8 4627.3,3664 1725.7,-11.8 3605.6,-2421.1 6061.4,-4478.8 2752.1,-2305.9 -841.4,-2402.7 -1048.8,-2421.6 -207.5,-19 -7363,233.7 -7482.4,358.2 -119.3,124.5 -2029.9,1718.7 -2029.9,1718.7 L 11823,7035"
         style="fill:#c5ddf9;fill-opacity:1;fill-rule:nonzero;stroke:none"
         id="path16" /><path
         d="m 26711.3,6924.4 h 122.7 v 1359.2 h -122.7 V 6924.4"
         style="fill:#355389;fill-opacity:1;fill-rule:nonzero;stroke:none"
         id="path18" /><path
         d="m 26772.7,10920.4 400.2,-3234.7 h -800.5 z"
         style="fill:#3c8f7c;fill-opacity:1;fill-rule:nonzero;stroke:none"
         id="path20" /><path
         d="m 27027.7,8858.9 -570.7,-489.4 21.9,177.3 531.1,455.4 17.7,-143.3"
         style="fill:#50bfa5;fill-opacity:1;fill-rule:nonzero;stroke:none"
         id="path22" /><path
         d="m 26940,9567.9 -349.5,-119.4 16.4,132.7 318,108.8 15.1,-122.1"
         style="fill:#50bfa5;fill-opacity:1;fill-rule:nonzero;stroke:none"
         id="path24" /><path
         d="m 10012.1,9317.6 357.4,-2887.9 h -714.7 z"
         style="fill:#3c8f7c;fill-opacity:1;fill-rule:nonzero;stroke:none"
         id="path26" /><path
         d="m 10641.6,8893.5 272.2,-2199.4 h -544.3 z"
         style="fill:#3c8f7c;fill-opacity:1;fill-rule:nonzero;stroke:none"
         id="path28" /><path
         d="m 11185.9,8238.5 272.2,-2199.4 h -544.3 z"
         style="fill:#3c8f7c;fill-opacity:1;fill-rule:nonzero;stroke:none"
         id="path30" /><path
         d="M 9343.58,8672.7 9700.92,5784.8 H 8986.24 Z"
         style="fill:#3c8f7c;fill-opacity:1;fill-rule:nonzero;stroke:none"
         id="path32" /><path
         d="m 10694.7,7774.5 c 3099.7,-515.7 7750.8,-5150.8 11293.3,-5150.8 3542.6,0 4305.4,1108.6 5633.8,874.2 1328.5,-234.4 3111.9,-874.2 3111.9,-874.2 L 4408.81,2545.9 c 0,0 3186.17,5744.4 6285.89,5228.6"
         style="fill:#86b1f2;fill-opacity:1;fill-rule:nonzero;stroke:none"
         id="path34" /><path
         d="m 21915,9125.4 357.4,-2887.9 h -714.7 z"
         style="fill:#3c8f7c;fill-opacity:1;fill-rule:nonzero;stroke:none"
         id="path36" /><path
         d="m 22766,8275.2 272.2,-2199.4 h -544.4 z"
         style="fill:#3c8f7c;fill-opacity:1;fill-rule:nonzero;stroke:none"
         id="path38" /><path
         d="m 20621.7,7101.2 272.1,-2199.5 h -544.3 z"
         style="fill:#3c8f7c;fill-opacity:1;fill-rule:nonzero;stroke:none"
         id="path40" /><path
         d="m 21246.5,8480.5 357.3,-2887.9 h -714.7 z"
         style="fill:#3c8f7c;fill-opacity:1;fill-rule:nonzero;stroke:none"
         id="path42" /><path
         d="M 24744.6,7774.5 C 21644.8,7258.8 16993.8,2623.7 13451.2,2623.7 9908.71,2623.7 9145.91,3732.3 7817.46,3497.9 6489.01,3263.5 4705.61,2623.7 4705.61,2623.7 l 26324.89,-77.8 c 0,0 -3186.2,5744.4 -6285.9,5228.6"
         style="fill:#86b1f2;fill-opacity:1;fill-rule:nonzero;stroke:none"
         id="path44" /><path
         d="m 23683.6,3447.4 h 139.9 V 4998 h -139.9 V 3447.4"
         style="fill:#355389;fill-opacity:1;fill-rule:nonzero;stroke:none"
         id="path46" /><path
         d="m 23753.5,8006.2 456.6,-3690.4 h -913.2 z"
         style="fill:#3c8f7c;fill-opacity:1;fill-rule:nonzero;stroke:none"
         id="path48" /><path
         d="m 24044.5,5654.3 -651.1,-558.3 25,202.3 605.9,519.5 20.2,-163.5"
         style="fill:#50bfa5;fill-opacity:1;fill-rule:nonzero;stroke:none"
         id="path50" /><path
         d="m 23944.4,6463.2 -398.7,-136.3 18.8,151.5 362.7,124 17.2,-139.2"
         style="fill:#50bfa5;fill-opacity:1;fill-rule:nonzero;stroke:none"
         id="path52" /><path
         d="M 25264.5,2786.2 H 25398 V 5125 h -133.5 V 2786.2"
         style="fill:#355389;fill-opacity:1;fill-rule:nonzero;stroke:none"
         id="path54" /><path
         d="M 25296.3,9295 25954,4574 h -1315.5 z"
         style="fill:#3c8f7c;fill-opacity:1;fill-rule:nonzero;stroke:none"
         id="path56" /><path
         d="m 25912.3,4873.6 -1180.2,372 17.8,128 1142.9,-360.2 19.5,-139.8"
         style="fill:#50bfa5;fill-opacity:1;fill-rule:nonzero;stroke:none"
         id="path58" /><path
         d="m 25704.5,6365 -782.1,246.6 17.8,128 744.8,-234.8 19.5,-139.8"
         style="fill:#50bfa5;fill-opacity:1;fill-rule:nonzero;stroke:none"
         id="path60" /><path
         d="m 4408.81,2545.9 c 0,0 3398.5,2952.1 7780.59,3133.5 1471.4,60.8 7496.8,-1160.1 12570.6,-2119.3 213.3,-40.3 674.5,-435.1 890.5,-475.7 2402,-451.5 4640.5,-546.9 5364.5,-576 l -26606.19,37.5"
         style="fill:#96d9c9;fill-opacity:1;fill-rule:nonzero;stroke:none"
         id="path62" /><path
         d="m 31728.7,5792.9 4.9,254.3 c 0,188.5 -143.9,341.3 -321.4,341.3 -447.2,0 -809.8,-385.1 -809.8,-860.2 v -347.4 c 0,-152.2 -80.8,-284.3 -199.3,-350.6 -107.7,-60.2 -173.5,-180.5 -173.5,-309.8 v -183.1 c 0,-198.3 87.6,-383.3 233.2,-507.4 85.1,-72.6 139.6,-184.1 139.6,-309 v -259.3 c 0,-286.7 218.8,-519.1 488.6,-519.1 h 154 c 269.8,0 488.6,232.4 488.6,519.1 v 0 c -44.3,362.1 63.1,571 186.9,690.5 182.1,175.6 288.7,422.6 288.7,683.9 v 36.7 c 0,275.7 -119.7,533.9 -319.9,709.5 -88.4,77.5 -160.6,204 -160.6,410.6"
         style="fill:#4e9b87;fill-opacity:1;fill-rule:nonzero;stroke:none"
         id="path64" /><path
         d="m 32231.7,2441.6 c 0,0 -1247.6,1657.2 -2032.7,1911.3 -785.1,254.2 -45.2,-755.3 -45.2,-755.3 0,0 -1392.7,1522.9 -1903.8,1385.7 -468.5,-125.9 0,-1069.9 0,-1069.9 0,0 -527.6,522.7 -1167.5,522.7 -639.9,0 494.6,-1957.3 494.6,-1957.3 l 4654.6,-37.2"
         style="fill:#96d9c9;fill-opacity:1;fill-rule:nonzero;stroke:none"
         id="path66" /><path
         d="m 28250,2478.8 c 0,0 -852.8,2280.7 -1908.9,2016.9 -855.9,-213.7 -247.4,-1361.2 -299.6,-1309.1 -52.1,52.2 -511.2,831.1 -1253.9,831.1 -742.8,0 228,-1051.2 228,-1051.2 0,0 -1582.5,494.2 -1706.4,-24.8 -102.9,-430.7 472.3,-462.9 472.3,-462.9 H 28250"
         style="fill:#3c8f7c;fill-opacity:1;fill-rule:nonzero;stroke:none"
         id="path68" /><path
         d="m 8753.28,2904.7 c 4.8,28.4 7.3,57.5 7.3,87.1 0,330.1 -309.34,597.7 -690.93,597.7 -381.58,0 -690.92,-267.6 -690.92,-597.7 0,-29.6 2.5,-58.7 7.3,-87.1 h 1367.25"
         style="fill:#3c8f7c;fill-opacity:1;fill-rule:nonzero;stroke:none"
         id="path70" /><path
         d="m 9535.21,3051.6 c 4.81,40.1 7.31,81.1 7.31,122.9 0,465.4 -309.34,842.8 -690.93,842.8 -381.59,0 -690.92,-377.4 -690.92,-842.8 0,-41.8 2.5,-82.8 7.3,-122.9 h 1367.24"
         style="fill:#50bfa5;fill-opacity:1;fill-rule:nonzero;stroke:none"
         id="path72" /><path
         d="m 9282.24,2535.1 c -4.8,28.5 -7.3,57.5 -7.3,87.1 0,330.1 309.34,597.7 690.92,597.7 381.64,0 690.94,-267.6 690.94,-597.7 0,-29.6 -2.5,-58.6 -7.3,-87.1 H 9282.24"
         style="fill:#50bfa5;fill-opacity:1;fill-rule:nonzero;stroke:none"
         id="path74" /><path
         d="m 8176.46,2535.1 c -6.08,40.1 -9.25,81.1 -9.25,122.9 0,465.5 392.15,842.8 875.88,842.8 483.74,0 875.88,-377.3 875.88,-842.8 0,-41.8 -3.16,-82.8 -9.25,-122.9 H 8176.46"
         style="fill:#3c8f7c;fill-opacity:1;fill-rule:nonzero;stroke:none"
         id="path76" /><path
         d="m 8848.98,3500.8 c -241.77,0 -457.75,-119.7 -600.29,-307.5 -72.59,17.3 -149.71,26.6 -229.66,26.6 -429.23,0 -777.2,-267.6 -777.2,-597.7 0,-29.6 2.81,-58.6 8.22,-87.1 h 2367.91 c 5.41,40.1 8.22,81.1 8.22,122.9 0,465.5 -347.97,842.8 -777.2,842.8"
         style="fill:#50bfa5;fill-opacity:1;fill-rule:nonzero;stroke:none"
         id="path78" /><path
         d="m 5853.88,4310.4 c -203.39,317.7 -241.34,701.4 -237.36,967.4 4.31,288.7 57.6,504.9 58.14,507 l -14.71,5.2 c -0.55,-2.2 -54.26,-219.9 -58.65,-510.5 -4.06,-268.6 34.33,-656.3 240.23,-978 l 12.35,8.9"
         style="fill:#3c8f7c;fill-opacity:1;fill-rule:nonzero;stroke:none"
         id="path80" /><path
         d="m 5724.74,5837.6 c -5,-65.3 -33.92,-120.1 -75.57,-153.7 -35.59,45.5 -55.56,107.8 -50.56,173.1 5,65.3 33.93,120.1 75.57,153.8 35.59,-45.5 55.56,-107.8 50.56,-173.2"
         style="fill:#3c8f7c;fill-opacity:1;fill-rule:nonzero;stroke:none"
         id="path82" /><path
         d="m 5587.28,5686.8 c 34.5,-56.5 45.19,-120.9 34.14,-176.8 -52.83,12.6 -103.97,49.6 -138.47,106.1 -34.5,56.6 -45.2,121 -34.15,176.8 52.84,-12.6 103.97,-49.5 138.48,-106.1"
         style="fill:#3c8f7c;fill-opacity:1;fill-rule:nonzero;stroke:none"
         id="path84" /><path
         d="m 5509.4,5509.3 c 53.57,-34.8 89.89,-88.6 103.86,-145.4 -50.92,-14.5 -110.63,-5.7 -164.21,29.1 -53.58,34.9 -89.89,88.7 -103.86,145.4 50.92,14.5 110.63,5.8 164.21,-29.1"
         style="fill:#3c8f7c;fill-opacity:1;fill-rule:nonzero;stroke:none"
         id="path86" /><path
         d="m 5533.41,5262.2 c 42.42,-27.7 68.71,-75.1 75.88,-127.4 -44.2,-18.8 -93.93,-16.5 -136.35,11.2 -42.41,27.7 -68.71,75 -75.87,127.4 44.19,18.8 93.93,16.5 136.34,-11.2"
         style="fill:#3c8f7c;fill-opacity:1;fill-rule:nonzero;stroke:none"
         id="path88" /><path
         d="m 5708.7,5555 c 47.68,25.5 101.05,26.9 146.73,8.5 -12.06,-49.3 -44.15,-93.5 -91.84,-119 -47.68,-25.5 -101.05,-26.9 -146.73,-8.5 12.06,49.3 44.16,93.5 91.84,119"
         style="fill:#3c8f7c;fill-opacity:1;fill-rule:nonzero;stroke:none"
         id="path90" /><path
         d="m 5703.42,5384.3 c 47.68,25.5 101.05,27 146.74,8.6 -12.07,-49.3 -44.16,-93.6 -91.85,-119.1 -47.68,-25.5 -101.05,-26.9 -146.74,-8.5 12.07,49.3 44.16,93.5 91.85,119"
         style="fill:#3c8f7c;fill-opacity:1;fill-rule:nonzero;stroke:none"
         id="path92" /><path
         d="m 5564.11,4990.7 c 25.22,-5.9 46.13,-22.9 58.76,-45.1 -17.92,-14.9 -42.19,-21.4 -67.41,-15.5 -25.21,5.9 -46.13,22.9 -58.75,45 17.92,15 42.19,21.5 67.4,15.6"
         style="fill:#3c8f7c;fill-opacity:1;fill-rule:nonzero;stroke:none"
         id="path94" /><path
         d="m 5770.02,4085.8 c -465.47,111.3 -820.47,455.6 -1036.31,724.8 -234.32,292.3 -359.85,561.7 -361.09,564.4 l -18.96,-9.7 c 1.25,-2.7 127.67,-274.1 363.5,-568.4 C 4935.08,4525 5293.77,4177.2 5765,4064.6 l 5.02,21.2"
         style="fill:#3c8f7c;fill-opacity:1;fill-rule:nonzero;stroke:none"
         id="path96" /><path
         d="m 4378.91,5478.3 c 49.01,-70.2 65.46,-154.1 51.73,-229.7 -73.09,9.4 -144.5,51.3 -193.51,121.5 -49.01,70.2 -65.46,154.1 -51.73,229.8 73.09,-9.4 144.49,-51.4 193.51,-121.6"
         style="fill:#3c8f7c;fill-opacity:1;fill-rule:nonzero;stroke:none"
         id="path98" /><path
         d="m 4366.47,5189 c 81.14,-21.5 145.01,-74.9 180.17,-141.8 -63.1,-40.8 -144.65,-55.7 -225.79,-34.2 -81.13,21.6 -145,74.9 -180.16,141.8 63.1,40.9 144.65,55.7 225.78,34.2"
         style="fill:#3c8f7c;fill-opacity:1;fill-rule:nonzero;stroke:none"
         id="path100" /><path
         d="m 4435.5,4933.3 c 82.25,19.4 162.94,2.4 223.76,-40 -38.8,-66 -105.54,-117.6 -187.8,-137 -82.25,-19.4 -162.93,-2.5 -223.75,40 38.79,65.9 105.54,117.6 187.79,137"
         style="fill:#3c8f7c;fill-opacity:1;fill-rule:nonzero;stroke:none"
         id="path102" /><path
         d="m 4620.94,4700.8 c 82.26,19.3 162.94,2.4 223.76,-40.1 -38.8,-65.9 -105.54,-117.6 -187.79,-136.9 -82.26,-19.4 -162.94,-2.5 -223.76,40 38.8,65.9 105.54,117.6 187.79,137"
         style="fill:#3c8f7c;fill-opacity:1;fill-rule:nonzero;stroke:none"
         id="path104" /><path
         d="m 4565.49,5087.3 c -4.15,79.1 21.86,153.6 66.3,207.2 49.46,-42.2 82.9,-109.4 87.04,-188.5 4.15,-79.1 -21.86,-153.7 -66.3,-207.3 -49.46,42.2 -82.9,109.5 -87.04,188.6"
         style="fill:#3c8f7c;fill-opacity:1;fill-rule:nonzero;stroke:none"
         id="path106" /><path
         d="m 4758.89,4846.7 c -5.35,79.1 19.53,154 63.15,208.5 50.09,-41.3 84.54,-107.9 89.88,-186.9 5.35,-79 -19.53,-154 -63.15,-208.5 -50.09,41.3 -84.54,107.9 -89.88,186.9"
         style="fill:#3c8f7c;fill-opacity:1;fill-rule:nonzero;stroke:none"
         id="path108" /><path
         d="m 4918.74,4471.4 c 30.02,19.6 64.96,23.7 95.83,14.4 -5.48,-33 -24.34,-64 -54.35,-83.6 -30.02,-19.6 -64.96,-23.8 -95.83,-14.5 5.48,33.1 24.34,64.1 54.35,83.7"
         style="fill:#3c8f7c;fill-opacity:1;fill-rule:nonzero;stroke:none"
         id="path110" /><path
         d="m 7002.11,3428.4 20.12,1.3 c -28.98,532.4 166.45,1033.4 335.5,1359.9 183.46,354.3 376.33,585.4 378.25,587.7 l -14.76,15.2 c -1.94,-2.3 -196.14,-235 -380.74,-591.4 -170.53,-329.2 -367.66,-834.6 -338.37,-1372.7"
         style="fill:#3c8f7c;fill-opacity:1;fill-rule:nonzero;stroke:none"
         id="path112" /><path
         d="m 7823.36,5407.8 c -45.96,-77.4 -111.93,-125.5 -178.92,-138.6 -11.32,80.5 5.08,171.2 51.04,248.7 45.96,77.4 111.93,125.4 178.91,138.6 11.33,-80.6 -5.07,-171.3 -51.03,-248.7"
         style="fill:#3c8f7c;fill-opacity:1;fill-rule:nonzero;stroke:none"
         id="path114" /><path
         d="m 7577.63,5315.1 c 3.28,-93.5 -24.68,-180.5 -71.5,-242 -50.79,51.6 -84.63,132.3 -87.91,225.8 -3.29,93.5 24.67,180.4 71.49,242 50.8,-51.7 84.64,-132.3 87.92,-225.8"
         style="fill:#3c8f7c;fill-opacity:1;fill-rule:nonzero;stroke:none"
         id="path116" /><path
         d="m 7381.48,5148.7 c 37.84,-79.7 44.83,-171.1 25.22,-250.8 -65.44,16.8 -126.26,68.4 -164.1,148.1 -37.84,79.7 -44.83,171.1 -25.22,250.8 65.44,-16.9 126.26,-68.4 164.1,-148.1"
         style="fill:#3c8f7c;fill-opacity:1;fill-rule:nonzero;stroke:none"
         id="path118" /><path
         d="m 7246.73,4739.7 c 18.12,-32.1 23.64,-70.1 17.69,-104.2 -27.89,4.8 -54.84,24.3 -72.96,56.4 -18.12,32 -23.65,70.1 -17.7,104.2 27.9,-4.8 54.85,-24.3 72.97,-56.4"
         style="fill:#3c8f7c;fill-opacity:1;fill-rule:nonzero;stroke:none"
         id="path120" /><path
         d="m 7188.58,4592.9 c 18.12,-32.1 23.65,-70.1 17.7,-104.2 -27.9,4.8 -54.84,24.3 -72.96,56.3 -18.12,32.1 -23.65,70.2 -17.7,104.2 27.9,-4.7 54.84,-24.2 72.96,-56.3"
         style="fill:#3c8f7c;fill-opacity:1;fill-rule:nonzero;stroke:none"
         id="path122" /><path
         d="m 7630.75,5069.1 c 68.64,-1 128.71,-35.6 167.99,-89.6 -43.88,-52.7 -106.86,-85.6 -175.5,-84.6 -68.66,1 -128.72,35.7 -167.99,89.7 43.87,52.7 106.84,85.6 175.5,84.5"
         style="fill:#3c8f7c;fill-opacity:1;fill-rule:nonzero;stroke:none"
         id="path124" /><path
         d="m 7519.3,4861.6 c 68.65,-1 128.72,-35.7 167.99,-89.6 -43.87,-52.8 -106.85,-85.6 -175.5,-84.6 -68.65,1 -128.71,35.7 -167.99,89.6 43.88,52.8 106.85,85.6 175.5,84.6"
         style="fill:#3c8f7c;fill-opacity:1;fill-rule:nonzero;stroke:none"
         id="path126" /><path
         d="m 7334.86,4578.8 c 44.68,-0.7 83.77,-23.2 109.33,-58.4 -28.55,-34.3 -69.54,-55.7 -114.22,-55 -44.69,0.6 -83.78,23.2 -109.34,58.3 28.55,34.4 69.55,55.7 114.23,55.1"
         style="fill:#3c8f7c;fill-opacity:1;fill-rule:nonzero;stroke:none"
         id="path128" /><path
         d="m 5266.41,2555.4 c 0,88.6 535.19,-15.9 579.71,104.8 44.52,120.8 -458.37,127.7 -458.37,291 0,163.4 256.28,48.8 406.56,48.8 150.28,0 -296.7,70 -296.7,127.8 0,57.8 156.82,27.5 156.82,88.9 0,61.4 -823.55,107.7 -727.16,257.9 96.38,150.3 539.13,-43.8 660.7,34 121.57,77.7 -649.47,162.5 -668.55,278.1 -19.08,115.6 568.13,-99.1 651.28,-15.9 83.15,83.1 -928.53,382 -886.14,601.6 42.38,219.6 766.81,-281.3 947.91,-227.3 181.1,53.9 -913.23,824.9 -658.92,1125.3 254.33,300.4 739.84,-994.3 905.53,-948.1 165.7,46.2 -207.5,818.1 -38.24,952.4 169.25,134.2 655.07,-1086.7 685.75,-1337.5 30.68,-250.7 92.33,539.4 358.2,631.8 265.88,92.4 7.71,-489.4 53.95,-666.7 46.24,-177.3 262,454.7 552.94,408.4 290.94,-46.2 -525.96,-624.2 -445.04,-793.7 80.91,-169.6 711.71,566 909.38,368.3 197.66,-197.6 -759.79,-746.2 -707.43,-896.4 52.36,-150.1 626.79,107.2 792.2,-58.2 165.41,-165.4 -617.09,-270.5 -720.85,-270.5 -103.76,0 -500.29,-130.4 -113.02,-104.8 387.27,25.7 -1940.51,-88.6 -1940.51,0"
         style="fill:#3c8f7c;fill-opacity:1;fill-rule:nonzero;stroke:none"
         id="path130" /><path
         d="m 6791.95,2453.1 c 0,0 644.5,-34.6 832.14,83.6 187.64,118.1 39.54,210 39.54,210 0,0 595.97,13 594.48,154.2 -1.5,141.2 -145.96,133.1 -145.96,133.1 0,0 300.81,204.4 244.71,331.8 -86.22,195.8 -576.18,-145.1 -576.18,-145.1 0,0 160.62,190.8 30.84,235.3 C 7455.25,3578.4 6791.95,2453.1 6791.95,2453.1"
         style="fill:#50bfa5;fill-opacity:1;fill-rule:nonzero;stroke:none"
         id="path132" /><path
         d="m 8356.86,3365.8 c 56.1,-127.4 -244.71,-331.8 -244.71,-331.8 0,0 217.11,2.9 181.87,-134.5 -35.1,-136.8 -580.96,-182.9 -580.96,-182.9 0,0 190.57,-37.3 2.93,-155.4 -187.65,-118.2 -924.04,-108.1 -924.04,-108.1 l 1564.91,912.7"
         style="fill:#96d9c9;fill-opacity:1;fill-rule:nonzero;stroke:none"
         id="path134" /><path
         d="m 4153.56,8076.2 c 1.04,34.8 49.15,61.9 74.66,31 25.42,-30.8 24.34,-10 49.11,-76.6 71.1,-191.3 175.6,-376.4 297.23,-538.1 233.05,-309.9 463.77,-466.2 725.71,-621.1 -107.94,243.2 -180.23,502.8 -189.44,764.7 -3.35,95.4 -1.52,194.4 39.3,281.9 11.4,24.5 55.21,19.5 59.65,-7.8 22.01,-135.1 -10.38,-237 33.35,-478.8 104.37,-577.1 517.41,-1189.1 915.86,-1617.7 -76.41,725.5 -113.44,1550.2 23.21,2282 22.41,120.1 58.05,234.3 91.17,351.5 7.79,27.6 47,15.8 42.17,-11.6 -6.88,-39 -71.98,-542.7 -75.91,-577.4 -63.16,-557.4 -50.54,-1174.8 -1.38,-1737.9 309.07,418.6 515.95,908.1 612.69,1419.3 28.59,151.1 36.22,307.1 76.32,455.4 5.52,20.4 39.27,22.6 43.47,0 41.17,-222.2 -41.27,-615.2 -101.35,-828.8 -121.77,-432.8 -316.59,-820.7 -582.94,-1167.3 -10.36,-13.4 427.74,-3400 415.97,-3442.9 -19.86,-72.3 -145.85,-123.1 -165.4,5.3 -7.96,52.2 -248.68,2111.4 -357.3,3065.2 -41.04,22.6 -67.45,62.8 -173.03,181.5 -244.36,274.7 -486,616.5 -647.5,938.8 -96.91,5.5 -796.76,346 -1143.92,1121.4 -10,22.4 -55.08,127.3 -61.52,150.7 -5.53,20.1 -0.78,37.5 -0.18,57.3"
         style="fill:#184655;fill-opacity:1;fill-rule:nonzero;stroke:none"
         id="path136" /><path
         d="m 6401.18,9174.2 c -7.97,104.2 -12.12,210.8 -12.12,319.3 0,1209.6 513.39,2190.1 1146.69,2190.1 633.3,0 1146.69,-980.5 1146.69,-2190.1 0,-108.5 -4.15,-215.1 -12.12,-319.3 H 6401.18"
         style="fill:#50bfa5;fill-opacity:1;fill-rule:nonzero;stroke:none"
         id="path138" /><path
         d="m 5103.44,9712.5 c -7.97,146.9 -12.12,297.3 -12.12,450.2 0,1705.9 513.39,3088.8 1146.69,3088.8 633.3,0 1146.69,-1382.9 1146.69,-3088.8 0,-152.9 -4.15,-303.3 -12.12,-450.2 H 5103.44"
         style="fill:#96d9c9;fill-opacity:1;fill-rule:nonzero;stroke:none"
         id="path140" /><path
         d="m 5523.29,7819.7 c 7.96,104.3 12.12,210.9 12.12,319.3 0,1209.6 -513.39,2190.2 -1146.69,2190.2 -633.3,0 -1146.69,-980.6 -1146.69,-2190.2 0,-108.4 4.15,-215 12.12,-319.3 h 2269.14"
         style="fill:#96d9c9;fill-opacity:1;fill-rule:nonzero;stroke:none"
         id="path142" /><path
         d="m 7358.48,7819.7 c 10.1,147 15.36,297.4 15.36,450.3 0,1705.9 -650.82,3088.8 -1453.65,3088.8 -802.83,0 -1453.66,-1382.9 -1453.66,-3088.8 0,-152.9 5.26,-303.3 15.37,-450.3 h 2876.58"
         style="fill:#50bfa5;fill-opacity:1;fill-rule:nonzero;stroke:none"
         id="path144" /><path
         d="m 6242.35,11358.8 c 401.24,0 759.7,-438.8 996.27,-1126.8 120.46,63.2 248.46,97.2 381.14,97.2 712.38,0 1289.87,-980.6 1289.87,-2190.2 0,-108.4 -4.66,-215 -13.63,-319.3 H 4966.1 c -8.96,147 -13.63,297.4 -13.63,450.3 0,1705.9 577.5,3088.8 1289.88,3088.8"
         style="fill:#96d9c9;fill-opacity:1;fill-rule:nonzero;stroke:none"
         id="path146" /><path
         d="m 4289.53,3045.5 c 4.03,39.4 6.14,79.6 6.14,120.6 0,457.1 -260.02,827.7 -580.75,827.7 -320.75,0 -580.76,-370.6 -580.76,-827.7 0,-41 2.1,-81.2 6.14,-120.6 h 1149.23"
         style="fill:#3c8f7c;fill-opacity:1;fill-rule:nonzero;stroke:none"
         id="path148" /><path
         d="m 4946.79,3248.9 c 4.04,55.5 6.13,112.3 6.13,170.1 0,644.7 -260.01,1167.2 -580.75,1167.2 -320.74,0 -580.75,-522.5 -580.75,-1167.2 0,-57.8 2.1,-114.6 6.13,-170.1 h 1149.24"
         style="fill:#50bfa5;fill-opacity:1;fill-rule:nonzero;stroke:none"
         id="path150" /><path
         d="m 4734.15,2533.6 c -4.04,39.4 -6.14,79.7 -6.14,120.7 0,457.1 260.01,827.6 580.75,827.6 320.75,0 580.76,-370.5 580.76,-827.6 0,-41 -2.1,-81.3 -6.14,-120.7 H 4734.15"
         style="fill:#50bfa5;fill-opacity:1;fill-rule:nonzero;stroke:none"
         id="path152" /><path
         d="m 3804.7,2533.6 c -5.12,55.6 -7.79,112.4 -7.79,170.2 0,644.6 329.62,1167.2 736.22,1167.2 406.61,0 736.23,-522.6 736.23,-1167.2 0,-57.8 -2.67,-114.6 -7.79,-170.2 H 3804.7"
         style="fill:#3c8f7c;fill-opacity:1;fill-rule:nonzero;stroke:none"
         id="path154" /><path
         d="m 4369.97,3871 c -203.21,0 -384.76,-165.8 -504.57,-425.8 -61.01,23.9 -125.83,36.7 -193.03,36.7 -360.8,0 -653.28,-370.5 -653.28,-827.6 0,-41 2.37,-81.3 6.91,-120.7 h 1990.34 c 4.54,55.6 6.91,112.4 6.91,170.2 0,644.6 -292.48,1167.2 -653.28,1167.2"
         style="fill:#50bfa5;fill-opacity:1;fill-rule:nonzero;stroke:none"
         id="path156" /><path
         d="m 16191.4,14125 h -4098.3 c -1.9,20.1 -3,40.4 -3,61.1 0,347.8 281.9,629.7 629.7,629.7 111.2,0 215.5,-28.9 306.2,-79.4 128,352.5 465.9,604.3 862.7,604.3 333.5,0 625.4,-177.9 786.1,-444 70,21.8 144.4,33.6 221.6,33.6 298.4,0 555.8,-175.8 674.4,-429.4 40.8,10.6 83.6,16.3 127.7,16.3 240.3,0 441.3,-167.6 492.9,-392.2"
         style="fill:#f5fefe;fill-opacity:1;fill-rule:nonzero;stroke:none"
         id="path158" /><path
         d="m 23752.1,10196.4 h -1973.6 c 24.8,108.2 121.6,188.9 237.4,188.9 21.2,0 41.8,-2.7 61.5,-7.8 57.1,122.1 181,206.7 324.7,206.7 37.2,0 73,-5.6 106.7,-16.1 77.4,128.1 218,213.8 378.6,213.8 191.1,0 353.8,-121.3 415.4,-291 43.7,24.3 93.9,38.2 147.5,38.2 167.4,0 303.2,-135.8 303.2,-303.2 0,-10 -0.5,-19.8 -1.4,-29.5"
         style="fill:#f5fefe;fill-opacity:1;fill-rule:nonzero;stroke:none"
         id="path160" /><path
         d="m 18313.4,11603.5 h -2425.3 c -1.2,11.9 -1.8,24 -1.8,36.2 0,205.8 166.8,372.7 372.7,372.7 65.7,0 127.5,-17.1 181.1,-47.1 75.8,208.7 275.8,357.7 510.6,357.7 197.4,0 370.1,-105.3 465.2,-262.7 41.4,12.9 85.5,19.8 131.1,19.8 176.7,0 329,-104 399.2,-254.1 24.1,6.3 49.4,9.7 75.5,9.7 142.2,0 261.2,-99.2 291.7,-232.2"
         style="fill:#f5fefe;fill-opacity:1;fill-rule:nonzero;stroke:none"
         id="path162" /><path
         d="m 23038.2,13165 h -3275.5 c -1.5,16.1 -2.4,32.4 -2.4,48.8 0,278 225.3,503.3 503.3,503.3 88.8,0 172.2,-23.1 244.7,-63.5 102.3,281.8 372.4,483 689.5,483 266.5,0 499.8,-142.2 628.2,-354.8 56,17.4 115.4,26.8 177.1,26.8 238.6,0 444.3,-140.4 539,-343.1 32.6,8.4 66.8,13 102.1,13 192.1,0 352.7,-134 394,-313.5"
         style="fill:#f5fefe;fill-opacity:1;fill-rule:nonzero;stroke:none"
         id="path164" /><path
         d="M 11457.4,10972.3 H 9824.66 c 20.56,89.5 100.65,156.3 196.34,156.3 17.6,0 34.7,-2.3 50.9,-6.5 47.3,101 149.8,171 268.7,171 30.8,0 60.4,-4.7 88.3,-13.3 64,106 180.3,176.8 313.2,176.8 158,0 292.7,-100.3 343.7,-240.7 36.1,20.1 77.7,31.6 121.9,31.6 138.6,0 250.9,-112.3 250.9,-250.9 0,-8.2 -0.4,-16.3 -1.2,-24.3"
         style="fill:#f5fefe;fill-opacity:1;fill-rule:nonzero;stroke:none"
         id="path166" /><path
         d="m 15751.8,8148.6 v 44.7 h 151.7 v -44.7 h -151.7"
         style="fill:#f7cc7f;fill-opacity:1;fill-rule:nonzero;stroke:none"
         id="path168" /><path
         d="m 16071.8,7137.1 v 1060.5 c 0,70.1 -56.8,126.9 -126.9,126.9 h -220.8 c -70.1,0 -126.9,-56.8 -126.9,-126.9 V 7137.1 c 0,-70.1 56.8,-126.9 126.9,-126.9 h 220.8 c 70.1,0 126.9,56.8 126.9,126.9"
         style="fill:#f47458;fill-opacity:1;fill-rule:nonzero;stroke:none"
         id="path170" /><path
         d="m 15834.5,7010.2 h 127.4 c 60.7,0 109.9,26.8 109.9,59.9 v 1194.5 c 0,33.1 -34.5,59.9 -95.2,59.9 h -142.1 V 7010.2"
         style="fill:#b75742;fill-opacity:1;fill-rule:nonzero;stroke:none"
         id="path172" /><path
         d="m 15799.6,7532.1 v 306.2 h 56.1 v -306.2 h -56.1"
         style="fill:#1a1a1a;fill-opacity:1;fill-rule:nonzero;stroke:none"
         id="path174" /><path
         d="m 16523.9,7138.9 v 771.7 c 0,71.1 -57.6,128.8 -128.7,128.8 H 16178 c -71.1,0 -128.7,-57.7 -128.7,-128.8 v -771.7 c 0,-71.1 57.6,-128.7 128.7,-128.7 h 217.2 c 71.1,0 128.7,57.6 128.7,128.7"
         style="fill:#355389;fill-opacity:1;fill-rule:nonzero;stroke:none"
         id="path176" /><path
         d="m 16286.6,7010.2 h 127.3 c 60.8,0 110,21 110,46.9 v 935.4 c 0,25.9 -49.2,46.9 -110,46.9 h -127.3 V 7010.2"
         style="fill:#5184ce;fill-opacity:1;fill-rule:nonzero;stroke:none"
         id="path178" /><path
         d="m 16203.8,7901.6 v 35 h 151.8 v -35 h -151.8"
         style="fill:#f7cc7f;fill-opacity:1;fill-rule:nonzero;stroke:none"
         id="path180" /><path
         d="m 16251.7,7418.8 v 239.8 h 56.1 v -239.8 h -56.1"
         style="fill:#1a1a1a;fill-opacity:1;fill-rule:nonzero;stroke:none"
         id="path182" /><path
         d="m 14040.8,6762.4 h -22.7 v 230.9 h 22.7 v -230.9"
         style="fill:#13375b;fill-opacity:1;fill-rule:nonzero;stroke:none"
         id="path184" /><path
         d="m 16790.3,6762.4 h -22.7 v 230.9 h 22.7 v -230.9"
         style="fill:#13375b;fill-opacity:1;fill-rule:nonzero;stroke:none"
         id="path186" /><path
         d="m 15798.1,7485 h -1567.5 c -76.9,0 -139.2,-62.3 -139.2,-139.2 v -196.2 c 0,-76.9 62.3,-139.2 139.2,-139.2 h 1567.5 c 76.9,0 139.3,62.3 139.3,139.2 v 196.2 c 0,76.9 -62.4,139.2 -139.3,139.2"
         style="fill:#b75742;fill-opacity:1;fill-rule:nonzero;stroke:none"
         id="path188" /><path
         d="M 15937.4,7247.7 V 7375 c 0,60.8 -37.7,110 -84.1,110 h -1677.8 c -46.5,0 -84.1,-49.2 -84.1,-110 v -127.3 h 1846"
         style="fill:#91342a;fill-opacity:1;fill-rule:nonzero;stroke:none"
         id="path190" /><path
         d="m 14388.6,7164.9 h -62.7 v 151.8 h 62.7 v -151.8"
         style="fill:#f7cc7f;fill-opacity:1;fill-rule:nonzero;stroke:none"
         id="path192" /><path
         d="m 15640.2,7164.9 h 62.703 v 151.797 h -62.703 z"
         style="fill:#f7cc7f;fill-opacity:1;fill-rule:nonzero;stroke:none"
         id="path194" /><path
         d="m 15204.4,7212.8 h -430.1 v 56.1 h 430.1 v -56.1"
         style="fill:#1a1a1a;fill-opacity:1;fill-rule:nonzero;stroke:none"
         id="path196" /><path
         d="m 15522.1,7959.6 h -1015.5 c -82.5,0 -149.4,-66.9 -149.4,-149.4 v -175.8 c 0,-82.5 66.9,-149.4 149.4,-149.4 h 1015.5 c 82.5,0 149.5,66.9 149.5,149.4 v 175.8 c 0,82.5 -67,149.4 -149.5,149.4"
         style="fill:#4e9b87;fill-opacity:1;fill-rule:nonzero;stroke:none"
         id="path198" /><path
         d="m 15671.6,7722.3 v 127.3 c 0,60.8 -26.9,110 -59.9,110 h -1194.6 c -33.1,0 -59.9,-49.2 -59.9,-110 v -127.3 h 1314.4"
         style="fill:#3c8f7c;fill-opacity:1;fill-rule:nonzero;stroke:none"
         id="path200" /><path
         d="m 14533.1,7639.5 h -44.6 v 151.8 h 44.6 v -151.8"
         style="fill:#f7cc7f;fill-opacity:1;fill-rule:nonzero;stroke:none"
         id="path202" /><path
         d="m 16689.9,7010.8 -1087.4,0.7 -17.5,484.4 h 1104.9 c 133.9,0 242.5,-108.6 242.5,-242.5 0,-134 -108.6,-242.6 -242.5,-242.6"
         style="fill:#fae0b2;fill-opacity:1;fill-rule:nonzero;stroke:none"
         id="path204" /><path
         d="m 15834.5,7253.4 c 0,-134 -100,-242.6 -223.4,-242.6 -123.4,0 -223.4,108.6 -223.4,242.6 0,133.9 100,242.5 223.4,242.5 123.4,0 223.4,-108.6 223.4,-242.5"
         style="fill:#f7cc7f;fill-opacity:1;fill-rule:nonzero;stroke:none"
         id="path206" /><path
         d="m 16064.9,6988.1 -0.2,0.2 c -10,7.8 -12,22 -4.6,32.4 73.6,104 94,214.7 60.8,329.3 -18.4,63.7 -49.5,112.4 -67.1,136.5 -7.1,9.7 -5.5,23.2 3.5,31.3 l 0.2,0.2 c 10.4,9.2 26.4,7.5 34.6,-3.7 19.8,-27 53.2,-79.5 73.7,-149.2 26.6,-90.4 35.4,-226.6 -67.2,-371.8 -7.8,-11 -23,-13.4 -33.7,-5.2"
         style="fill:#f47458;fill-opacity:1;fill-rule:nonzero;stroke:none"
         id="path208" /><path
         d="m 16462.4,6988.1 -0.2,0.2 c -10.1,7.8 -12,22 -4.7,32.4 73.6,104 94.1,214.7 60.9,329.3 -18.5,63.7 -49.6,112.4 -67.1,136.5 -7.1,9.7 -5.6,23.2 3.4,31.3 l 0.3,0.2 c 10.4,9.2 26.4,7.5 34.6,-3.7 19.7,-27 53.1,-79.5 73.6,-149.2 26.6,-90.4 35.4,-226.6 -67.1,-371.8 -7.8,-11 -23.1,-13.4 -33.7,-5.2"
         style="fill:#f47458;fill-opacity:1;fill-rule:nonzero;stroke:none"
         id="path210" /><path
         d="m 15522.7,7031.2 h -1.4 c -10.2,4.9 -20,10.6 -29.4,17 2.7,0 6.8,-0.1 12.1,-0.1 44.5,0 171.5,6.4 234.9,75.5 37.8,41.2 51.2,98.5 40,170.5 -8.6,55.2 -35.3,97.2 -77.3,121.5 -25.1,14.6 -54.4,21.9 -84.4,21.9 -22.5,0 -45.4,-4.1 -67.3,-12.5 -47.4,-18.2 -86.7,-61.3 -100.3,-109.8 -8.5,-30.5 -11,-76.6 25.3,-123.4 27.7,-35.8 64.3,-47 97,-47 22.5,0 43,5.3 57.5,11.6 30.8,13.3 53.9,45.1 58.9,81 3.8,26.9 -8.4,53.1 -32,68.1 -12,7.7 -25.3,11.5 -38.5,11.5 -13,0 -25.9,-3.7 -37.4,-11.1 -23,-14.8 -28,-37.8 -15.4,-70.2 l -16,-6.2 c -19.7,50.6 1.1,77.3 22.1,90.9 14.3,9.2 30.4,13.8 46.6,13.8 16.5,0 33,-4.7 47.9,-14.2 29.2,-18.7 44.5,-51.3 39.8,-85 -5.9,-41.7 -33,-78.8 -69.2,-94.4 -16.2,-7 -39.3,-13 -64.5,-13 -37.1,0 -78.8,12.8 -110.4,53.7 -31.8,40.9 -41.8,90.1 -28.3,138.5 15.3,54.4 57.7,100.9 110.7,121.2 23.9,9.2 48.9,13.7 73.5,13.7 33,0 65.3,-8.2 93,-24.2 32.5,-18.9 73.8,-57.4 85.7,-133.8 12.1,-77.4 -2.9,-139.5 -44.4,-184.7 -67,-73.1 -183.1,-80.8 -228.8,-80.8"
         style="fill:#ec5d2c;fill-opacity:1;fill-rule:nonzero;stroke:none"
         id="path212" /><path
         d="m 15504.6,7639.5 h -44.6 v 151.8 h 44.6 v -151.8"
         style="fill:#f7cc7f;fill-opacity:1;fill-rule:nonzero;stroke:none"
         id="path214" /><path
         d="m 15149.6,7687.4 h -306.2 v 56.1 h 306.2 v -56.1"
         style="fill:#1a1a1a;fill-opacity:1;fill-rule:nonzero;stroke:none"
         id="path216" /><path
         d="m 14243.8,6991.9 -14.8,7.8 517,980 14.8,-7.8 -517,-980"
         style="fill:#000000;fill-opacity:1;fill-rule:nonzero;stroke:none"
         id="path218" /><path
         d="m 15841,6974 -530.3,1005.3 14.8,7.8 530.3,-1005.3 -14.8,-7.8"
         style="fill:#000000;fill-opacity:1;fill-rule:nonzero;stroke:none"
         id="path220" /><path
         d="m 16831.5,6992.7 -429.7,1054.3 15.5,6.3 429.6,-1054.3 -15.4,-6.3"
         style="fill:#000000;fill-opacity:1;fill-rule:nonzero;stroke:none"
         id="path222" /><path
         d="m 16359.1,6993 -471.2,1335.4 15.8,5.6 471.1,-1335.4 -15.7,-5.6"
         style="fill:#000000;fill-opacity:1;fill-rule:nonzero;stroke:none"
         id="path224" /><path
         d="m 16896.2,6980.1 h -2979.3 v 31.4 h 2979.3 v -31.4"
         style="fill:#13375b;fill-opacity:1;fill-rule:nonzero;stroke:none"
         id="path226" /><path
         d="m 11823,3676.6 c 0,0 2273.4,-377.3 2300.6,-360.9 27.3,16.3 321.7,1286.6 321.7,1286.6 0,0 -1879.9,338 -1910.4,338 -30.4,0 -439.3,-327.1 -444.8,-348.9 -5.4,-21.8 -267.1,-914.8 -267.1,-914.8"
         style="fill:#183658;fill-opacity:1;fill-rule:nonzero;stroke:none"
         id="path228" /><path
         d="m 18757.6,3353.9 c 54.5,-5.5 2807.7,53.5 2807.7,53.5 l -207.2,633.4 c 0,0 -381.6,577.1 -583.3,566.6 -76.2,-4 -294.5,21.2 -548,46.5 -418,41.6 -931.5,83.3 -1060.4,-6.1 -207.1,-143.6 -392.4,-29.1 -490.5,-372.6 -98.2,-343.5 -174.7,-381.9 -98.3,-588.9 76.4,-207 180,-332.4 180,-332.4"
         style="fill:#183658;fill-opacity:1;fill-rule:nonzero;stroke:none"
         id="path230" /><path
         d="m 12033.9,3450.5 c 0,-517.7 419.5,-937.4 937.1,-937.4 517.5,0 937,419.7 937,937.4 0,517.7 -419.5,937.4 -937,937.4 -517.6,0 -937.1,-419.7 -937.1,-937.4"
         style="fill:#1a1a1a;fill-opacity:1;fill-rule:nonzero;stroke:none"
         id="path232" /><path
         d="m 12319,3450.5 c 0,-360.2 291.9,-652.2 652,-652.2 360,0 651.9,292 651.9,652.2 0,360.2 -291.9,652.2 -651.9,652.2 -360.1,0 -652,-292 -652,-652.2"
         style="fill:#9e9da2;fill-opacity:1;fill-rule:nonzero;stroke:none"
         id="path234" /><path
         d="m 12534.9,3450.5 c 0,-240.9 195.2,-436.2 436.1,-436.2 240.8,0 436,195.3 436,436.2 0,240.9 -195.2,436.2 -436,436.2 -240.9,0 -436.1,-195.3 -436.1,-436.2"
         style="fill:#d8d9dd;fill-opacity:1;fill-rule:nonzero;stroke:none"
         id="path236" /><path
         d="m 19248.6,3450.5 c 0,-517.7 419.5,-937.4 937.1,-937.4 517.5,0 937,419.7 937,937.4 0,517.7 -419.5,937.4 -937,937.4 -517.6,0 -937.1,-419.7 -937.1,-937.4"
         style="fill:#1a1a1a;fill-opacity:1;fill-rule:nonzero;stroke:none"
         id="path238" /><path
         d="m 19533.7,3450.5 c 0,-360.2 291.9,-652.2 652,-652.2 360,0 651.9,292 651.9,652.2 0,360.2 -291.9,652.2 -651.9,652.2 -360.1,0 -652,-292 -652,-652.2"
         style="fill:#9e9da2;fill-opacity:1;fill-rule:nonzero;stroke:none"
         id="path240" /><path
         d="m 19749.6,3450.5 c 0,-240.9 195.3,-436.2 436.1,-436.2 240.8,0 436,195.3 436,436.2 0,240.9 -195.2,436.2 -436,436.2 -240.8,0 -436.1,-195.3 -436.1,-436.2"
         style="fill:#d8d9dd;fill-opacity:1;fill-rule:nonzero;stroke:none"
         id="path242" /><path
         d="m 22337,4342.6 c -79.2,522.4 -335.3,632.1 -1092.9,783.6 -835.9,167.2 -1897.2,712.4 -1897.2,712.4 0,0 -1810,886.8 -2253.4,988.6 -443.4,101.7 -1533.7,72.7 -2449.6,65.4 -915.9,-7.3 -1453.8,-261.7 -1919,-625.1 -465.3,-363.5 -1272.1,-639.7 -1272.1,-639.7 l -146.6,-26.2 c -150.7,-26.9 -260.5,-158 -260.5,-311.1 V 3994.2 c 0,-146.8 98.9,-275.2 240.8,-312.7 l 529.7,-139.9 c 43.2,-7.5 83.3,23.2 88.1,66.7 58,530.4 516.4,933.4 1063.1,932.8 581.3,-0.7 1058.1,-478.4 1057.7,-1059.7 0,-66.1 -6.2,-130.7 -17.8,-193.4 -12,-64.7 37.7,-124.4 103.6,-124.4 h 4875.2 c 94.7,0 168.3,83.2 155.8,177.1 -6.1,45.2 -9.3,91.3 -9.4,138.1 -1.8,574.2 462.6,1050.2 1036.6,1062 595.1,12.3 1081.4,-466.4 1081.4,-1058.7 0,-39.2 -2.2,-78 -6.3,-116.1 -11.8,-107.9 71.7,-202.4 180.2,-202.4 h 701.1 c 127.4,0 230.8,103.3 230.8,230.8 v 679 c 0,90.1 -5.8,180.1 -19.3,269.2"
         style="fill:#f7cc7f;fill-opacity:1;fill-rule:nonzero;stroke:none"
         id="path244" /><path
         d="m 11076.6,5137.1 h 577.4 c 49.5,0 83,-50.3 63.9,-96 l -64.9,-154.7 c -61.8,-147.6 -206.2,-243.6 -366.1,-243.6 h -210.3 c -41.1,0 -74.5,33.4 -74.5,74.5 v 345.3 c 0,41.2 33.4,74.5 74.5,74.5"
         style="fill:#cf283c;fill-opacity:1;fill-rule:nonzero;stroke:none"
         id="path246" /><path
         d="m 21418.6,4897.2 c 318,-48.6 684.2,-349.8 684.2,-349.8 87.5,-94 15.2,-246.7 -113.1,-238.6 l -619.9,39.1 c -128.8,8.2 -238.6,96.3 -274.5,220.2 -60.3,208.2 -9,380 323.3,329.1"
         style="fill:#eafcfc;fill-opacity:1;fill-rule:nonzero;stroke:none"
         id="path248" /><path
         d="m 11049.1,3945.9 c -39.8,1 -67.9,-39 -53.3,-75.9 41.5,-104.5 130.4,-186.7 244.2,-216.7 l 593.5,-156.8 c 48.4,-8.3 93.3,26 98.6,74.8 11,100.5 35,196.8 70.1,287.6 11.8,30.8 -10.6,64 -43.5,64.8 l -909.6,22.2"
         style="fill:#eab054;fill-opacity:1;fill-rule:nonzero;stroke:none"
         id="path250" /><path
         d="m 21255.4,3701.6 c -45.1,1.1 -79.9,-38.5 -74.1,-83.2 6.4,-49.7 9.8,-100.4 9.8,-151.8 0,-43.6 -2.4,-86.5 -7,-128.8 -13.1,-119.7 79.5,-224.6 200,-224.6 h 777.9 c 141.4,0 256.1,114.6 256.1,256.1 v 201.3 c 0,57.1 -45.6,103.7 -102.6,105.1 l -1060.1,25.9"
         style="fill:#eab054;fill-opacity:1;fill-rule:nonzero;stroke:none"
         id="path252" /><g
         id="g254"><g
           id="g256"
           clip-path="url(#clipPath260)"><path
             d="m 12382.5,3687.5 h 6983.2 v 3022.2 h -6983.2 z"
             style="fill:#f6ae51;fill-opacity:1;fill-rule:nonzero;stroke:none"
             id="path262" /></g></g><path
         d="m 11932.4,3573.3 c 0,0.4 0.1,0.9 0.1,1.3 0,-0.4 -0.1,-0.9 -0.1,-1.3 m 0.2,1.8 c 3.1,27.5 7.1,54.6 12.1,81.4 h 0.1 c -5,-26.8 -9.1,-53.9 -12.2,-81.4"
         style="fill:#95b980;fill-opacity:1;fill-rule:nonzero;stroke:none"
         id="path264" /><path
         d="m 11944.8,3656.5 h -0.1 c 1.8,9.8 3.8,19.5 5.9,29.2 v 0 c -2.1,-9.7 -4,-19.4 -5.8,-29.2"
         style="fill:#182e38;fill-opacity:1;fill-rule:nonzero;stroke:none"
         id="path266" /><path
         d="m 11848,3495.2 c -4.8,0 -9.6,0.4 -14.5,1.3 l -593.5,156.8 v 0 c -108.9,28.7 -195,105.2 -238.6,203.3 -1.9,4.4 -3.8,8.9 -5.6,13.4 l 954.8,-184.3 c -2.1,-9.7 -4.1,-19.4 -5.9,-29.2 -5,-26.8 -9,-53.9 -12.1,-81.4 -0.1,-0.2 -0.1,-0.3 -0.1,-0.5 0,-0.4 -0.1,-0.9 -0.1,-1.3 -0.1,-0.7 -0.2,-1.3 -0.3,-2 v 0 c -4.8,-43.9 -41.6,-76.1 -84.1,-76.1"
         style="fill:#e99635;fill-opacity:1;fill-rule:nonzero;stroke:none"
         id="path268" /><path
         d="m 21182.8,3315.5 c 0,7.4 0.5,14.8 1.3,22.3 -0.8,-7.5 -1.3,-14.9 -1.3,-22.3 m 1.3,22.3 c 2.2,20.4 3.8,40.9 5,61.6 0,0 0,0 0.1,0 -1.2,-20.7 -2.9,-41.2 -5.1,-61.6"
         style="fill:#95b980;fill-opacity:1;fill-rule:nonzero;stroke:none"
         id="path270" /><path
         d="m 21189.1,3399.4 c 0.2,4 0.4,8 0.6,12.1 h 0.1 c -0.2,-4.1 -0.4,-8.1 -0.6,-12.1 -0.1,0 -0.1,0 -0.1,0"
         style="fill:#182e38;fill-opacity:1;fill-rule:nonzero;stroke:none"
         id="path272" /><path
         d="m 22162,3113.2 h -777.9 c -5.4,0 -10.8,0.2 -16.1,0.6 -105.1,8.3 -185.3,96.8 -185.2,201.7 0,7.4 0.5,14.8 1.3,22.3 v 0 0 c 2.2,20.4 3.9,40.9 5.1,61.6 0.2,4 0.4,8 0.6,12.1 h 1228.3 v -42.2 c 0,-141.5 -114.7,-256.1 -256.1,-256.1"
         style="fill:#e99635;fill-opacity:1;fill-rule:nonzero;stroke:none"
         id="path274" /><path
         d="m 19178.4,3411.5 c -0.1,53 3.7,105.3 11.1,156.4 8.9,61.5 -36.8,117.1 -98.9,118.7 l -5070.7,123.7 c -55.4,1.4 -95.2,-51.4 -80.1,-104.7 26.3,-92.8 40.3,-190.6 40.3,-291.5 -0.1,-66.9 -6.2,-132.3 -17.9,-195.8 -12.3,-66.3 37.7,-127.7 105.2,-127.7 h 4962 c 97.4,0 171,86.1 158.3,182.6 -6,45.3 -9.1,91.4 -9.3,138.3"
         style="fill:#eab054;fill-opacity:1;fill-rule:nonzero;stroke:none"
         id="path276" /><path
         d="m 19178.4,3411.5 v 0 c 0,0.8 0,1.7 0,2.6 h 0.1 l -0.1,-2.6"
         style="fill:#182e38;fill-opacity:1;fill-rule:nonzero;stroke:none"
         id="path278" /><path
         d="m 19029.4,3090.6 h -4962 c -60.6,0 -107.1,49.6 -107.1,107.7 0,6.6 0.6,13.3 1.9,20 11.7,63.5 17.8,128.9 17.9,195.8 h 5198.4 c -0.1,-0.9 -0.1,-1.8 -0.1,-2.6 v 0 c 0.2,-46.9 3.3,-93 9.3,-138.3 0.9,-7.1 1.4,-14.2 1.4,-21.3 0.2,-87.5 -69.5,-161.3 -159.7,-161.3"
         style="fill:#e99635;fill-opacity:1;fill-rule:nonzero;stroke:none"
         id="path280" /><path
         d="m 12990.7,5451.5 2802.4,-26.5 c 0,0 171.5,4.6 194.8,166 23.4,161.4 21.4,852.7 21.4,852.7 0,0 -20.4,138.8 -153.3,140.6 -80.8,1 -757.8,49.4 -1416.3,-30.8 -537.2,-65.4 -1034.1,-310.8 -1410.9,-687.6 l -198.9,-199 c 0,0 -134.2,-212.6 160.8,-215.4"
         style="fill:#eafcfc;fill-opacity:1;fill-rule:nonzero;stroke:none"
         id="path282" /><path
         d="m 16321.2,6356 v -724.8 c 0,-94.1 72.3,-171.5 163.6,-175.2 l 2202,-88.5 c 50.6,-2 100.1,20.8 129.1,63.5 39.5,58.3 44.1,154.1 -153.3,282.6 -343.1,223.4 -1216.1,706.7 -1539,753.5 -205.6,29.7 -474.6,42.6 -642.9,48.1 -87.3,2.8 -159.5,-69.3 -159.5,-159.2"
         style="fill:#eafcfc;fill-opacity:1;fill-rule:nonzero;stroke:none"
         id="path284" /><path
         d="m 13405.9,5789.6 c 0,0 1826,207.9 1865.1,171.9 39.2,-36 292.9,-629.8 339,-792.2 l -2150.7,20.3 -151.4,228.4 98,371.6"
         style="fill:#b75742;fill-opacity:1;fill-rule:nonzero;stroke:none"
         id="path286" /><path
         d="m 17277.4,5626.4 c 0,0 168,-198.9 215.7,-413.5 l -52.9,-86 -106.1,112.5 -56.7,387"
         style="fill:#263d60;fill-opacity:1;fill-rule:nonzero;stroke:none"
         id="path288" /><path
         d="m 17456.8,6148 c -32.2,209.9 -222,360.9 -420.5,259 -44.6,-22.9 -105.1,-69.4 -135.9,-109 -83.3,-107.1 -104.7,-239.3 -190.8,-343.2 31.7,-24 69.9,-49.2 115.5,-73.4 l 53.6,71.5 -18.5,-89.2 c 133.3,-63.8 321.5,-116.5 578.9,-115 32.3,145.8 34.9,287.3 17.7,399.3"
         style="fill:#1a1a1a;fill-opacity:1;fill-rule:nonzero;stroke:none"
         id="path290" /><path
         d="m 17011.5,5686.2 c 0,0 -190.9,12.1 -266.5,-70.1 -75.5,-82.2 167.6,-732.7 181.3,-837.3 13.8,-104.7 -112.7,-313.3 -112.7,-313.3 0,0 525.5,-245.9 653.7,-161.2 0,0 -20.5,838.7 -34.3,913.4 -13.7,74.8 -128.2,378.8 -155.6,408.7 -27.5,29.9 -265.9,59.8 -265.9,59.8"
         style="fill:#355389;fill-opacity:1;fill-rule:nonzero;stroke:none"
         id="path292" /><path
         d="m 17075.1,5940.9 c 0,0 -1,-5.6 -2.8,-15.1 -8.5,-45.9 -41.3,-197.9 -63.4,-239.8 -26.8,-50.5 91.6,-211.6 205.5,-192 34,5.9 -28.6,148.1 -25.6,163.2 5.7,28.8 13.5,68.1 21.5,108.5 4.5,22.7 9.1,45.8 13.4,67.5 12.2,61.6 22.1,112 22.1,112 l -170.7,-4.3"
         style="fill:#f7a491;fill-opacity:1;fill-rule:nonzero;stroke:none"
         id="path294" /><path
         d="m 13419.5,5754.5 c -1.9,12.6 -6.7,24.3 -13.6,35.1 l -271.4,-271.5 c 0,0 -204.1,-323.5 244.7,-327.7 l 123.4,-1.2 -83.1,565.3"
         style="fill:#b75742;fill-opacity:1;fill-rule:nonzero;stroke:none"
         id="path296" /><path
         d="m 17072,5924.3 c 0.1,0.5 0.2,1 0.3,1.5 -0.1,-0.5 -0.2,-1 -0.3,-1.5"
         style="fill:#5c352d;fill-opacity:1;fill-rule:nonzero;stroke:none"
         id="path298" /><path
         d="m 17210.4,5766.1 c -26.4,3.8 -53.9,16.6 -81.5,40.8 -30.1,26.3 -49.9,57.9 -61.8,91.7 2,10 3.6,18.8 4.9,25.7 0.1,0.5 0.2,1 0.3,1.5 v 0 c 1.8,9.5 2.8,15.1 2.8,15.1 l 170.7,4.3 c 0,0 -9.9,-50.4 -22.1,-112 v 0 c -4.3,-21.6 -8.8,-44.5 -13.3,-67.1"
         style="fill:#f69680;fill-opacity:1;fill-rule:nonzero;stroke:none"
         id="path300" /><path
         d="m 17190,6328.6 c 0,0 -80.5,9.2 -130.9,-55.9 -50.5,-65.2 -104.9,-266.7 20.5,-376.2 125.3,-109.6 249.1,14.4 267.5,145.9 18.3,131.5 25.5,290.9 -157.1,286.2"
         style="fill:#f7a491;fill-opacity:1;fill-rule:nonzero;stroke:none"
         id="path302" /><path
         d="m 17384.1,6044.3 c -14.9,-29 -40,-45.1 -56,-35.9 -16.1,9.2 -16.9,40.2 -2,69.3 15,29 40.1,45.1 56.1,35.9 16,-9.2 16.9,-40.2 1.9,-69.3"
         style="fill:#f7a491;fill-opacity:1;fill-rule:nonzero;stroke:none"
         id="path304" /><path
         d="m 17199,6350.1 c 0,0 -107.5,-191.6 -184.4,-200.5 -77,-8.8 -87.1,-110.7 -87.1,-110.7 0,0 27.5,234.7 103.7,279.9 76.1,45.3 167.8,31.3 167.8,31.3"
         style="fill:#1a1a1a;fill-opacity:1;fill-rule:nonzero;stroke:none"
         id="path306" /><path
         d="m 17034.7,6101.5 c 6.3,-34.1 -6.3,-65.3 -28.1,-69.7 -21.8,-4.5 -44.5,19.5 -50.7,53.5 -6.3,34 6.3,65.2 28.1,69.7 21.7,4.5 44.5,-19.5 50.7,-53.5"
         style="fill:#f7a491;fill-opacity:1;fill-rule:nonzero;stroke:none"
         id="path308" /><path
         d="m 16764.2,4755.7 c -0.4,1.8 71.9,309.2 101.2,377.1 29.2,68 142.8,383.7 142.8,383.7 l -147,32.1 c 0,0 -94.9,-247 -138.2,-358.7 -43.2,-111.7 -24.7,-317.6 -26.6,-375.7 l -6.4,-50 c -1.5,-6.4 -2.9,-11.8 -3.5,-12.8 -1.8,-2.9 -6.8,-22.3 -7,-24 -0.3,-1.7 -4.6,-8.3 -6.3,-11.1 -1.8,-2.9 -5.8,-42.4 -6.6,-48.7 -0.9,-6.4 1.9,-20.8 1.9,-20.8 l -1.5,-26.5 c -1.2,-19.4 19,-14.3 19,-14.3 -0.5,-9.2 2.7,-14 7.8,-15.7 3.3,-1.1 6.9,-0.9 9.4,-0.7 1.5,0.1 2.5,0.2 2.9,0.1 0.9,-0.4 1.3,-3.3 1.3,-3.3 -0.5,-5.8 6.1,-10.3 10.3,-11.1 4.2,-0.9 11.8,2 13.9,4.5 2.2,2.5 3.7,2.1 3.7,2.1 4.3,-3.6 20.7,-3.5 24.5,1.8 3.8,5.3 7.2,33.3 8.9,35.7 1.7,2.6 5.4,6.9 5.9,10.9 0.6,4 14,32.6 14.8,38.3 0.8,5.7 -7.5,25 -9.4,36.6 -1.8,11.5 -13.1,29.4 -15.8,34.6 -1,2 -0.7,8.6 0,15.9 v 0"
         style="fill:#f48c7f;fill-opacity:1;fill-rule:nonzero;stroke:none"
         id="path310" /><path
         d="m 17250,5978.7 -123.5,6.4 c 0,0 0.4,-47.1 54.6,-51.5 66.2,-5.3 68.9,45.1 68.9,45.1"
         style="fill:#ffffff;fill-opacity:1;fill-rule:nonzero;stroke:none"
         id="path312" /><path
         d="m 16573.5,5884.3 -44.7,-295.7 c 0,0 163.3,-352.1 260.8,-321.5 81.8,25.6 31.5,337.1 31.5,337.1 0,0 -44.6,167.3 -31.2,251.1 13.3,83.7 -216.4,29 -216.4,29"
         style="fill:#f7a491;fill-opacity:1;fill-rule:nonzero;stroke:none"
         id="path314" /><path
         d="m 16789.9,5855.3 c 13.3,83.7 -216.4,29 -216.4,29 l -3.7,-24.5 c 6.8,-16.4 15,-30.4 24.9,-41.2 51.3,-55.4 131.5,-88.7 200.9,-91.2 -7,45.2 -11.2,93.5 -5.7,127.9"
         style="fill:#f47458;fill-opacity:1;fill-rule:nonzero;stroke:none"
         id="path316" /><path
         d="m 16535.9,6302.7 c -6.5,2.4 -52.1,-336.8 34.3,-430.1 86.5,-93.3 254.9,-123.9 315.3,-50.4 66.8,81.3 63.4,445.8 -71,541.8 -134.3,96 -278.6,-61.3 -278.6,-61.3"
         style="fill:#f7a491;fill-opacity:1;fill-rule:nonzero;stroke:none"
         id="path318" /><path
         d="m 16763.4,6545.4 c -103.9,-21.2 -171.2,-84.9 -195.9,-112 -47.1,-5.6 -111.2,-31.8 -177.4,-141.7 -81.4,-135.2 -21.3,-285.1 73.4,-358.5 94.8,-73.5 93.5,-158.4 93.5,-158.4 l 14.9,43.9 c 11.1,33.2 15.6,68.5 11.9,103.4 -2.2,20.9 -6.7,43.6 -15.3,62.2 -22.8,49.1 48.9,81.7 69,122.5 15.5,31.5 16.3,103.4 40.7,155.4 l 29.1,39.7 c 0,0 67.3,52.5 133,37.6 32.2,-7.2 46.3,48.3 36.9,103.7 -9.9,58.1 -45.6,116.2 -113.8,102.2"
         style="fill:#13375b;fill-opacity:1;fill-rule:nonzero;stroke:none"
         id="path320" /><path
         d="m 16633.1,6046.5 c 0.7,-41.4 -18,-75.3 -41.8,-75.7 -23.9,-0.4 -43.7,32.8 -44.4,74.2 -0.7,41.4 18.1,75.2 41.9,75.7 23.8,0.4 43.6,-32.8 44.3,-74.2"
         style="fill:#f7a491;fill-opacity:1;fill-rule:nonzero;stroke:none"
         id="path322" /><path
         d="m 16773.5,5950.9 130.3,6.7 c 0,0 -0.5,-49.8 -57.7,-54.4 -69.7,-5.7 -72.6,47.7 -72.6,47.7"
         style="fill:#ffffff;fill-opacity:1;fill-rule:nonzero;stroke:none"
         id="path324" /><path
         d="m 16491.9,5600.5 c 11.9,22.3 34.2,37.3 59.5,39.5 109.4,9.8 410.3,10 563.8,-255.8 24.2,-41.9 41.6,-87.4 54.1,-134.2 l 32.3,-133.2 -791.6,25.8 1.3,87.9 c -8,128.4 19.9,256.5 80.6,370"
         style="fill:#3c8f7c;fill-opacity:1;fill-rule:nonzero;stroke:none"
         id="path326" /><path
         d="m 18372.2,5068.2 115,466.8 c 7.7,31.3 -11.4,62.8 -42.7,70.5 -31.2,7.7 -62.8,-11.4 -70.5,-42.6 l -120.5,-489.3 118.7,-5.4"
         style="fill:#1a1a1a;fill-opacity:1;fill-rule:nonzero;stroke:none"
         id="path328" /><path
         d="m 18075.3,5081.7 c 32.5,20.3 58.9,37 76.6,47.8 1.4,0.8 84.2,40.6 85.6,41.3 v 0 c 11.6,4.3 21.5,7.7 23.8,7.7 6.3,0.2 42.3,12.3 45.2,13.7 2.9,1.3 17.7,1.3 24,1.4 6.3,0.2 72.8,34.5 83.8,39.7 10.9,5.2 30.8,24.5 30.8,24.5 l 43.4,24.8 c 31.8,18.2 3,44.8 3,44.8 15,8.6 19.2,18.6 16.7,28.6 -2.6,9.9 -11.2,18 -11.6,19.9 -0.4,2 3.8,5.5 3.8,5.5 9.7,5.2 10,20.2 7,27.8 -3.1,7.5 -15.3,16.6 -21.5,17.4 -6.2,0.7 -7.2,3.5 -7.2,3.5 1.4,10.5 -15.8,36.4 -28.1,36.9 -6.2,0.3 -21.4,-5.5 -35.7,-11.3 -14,-5.7 -27.1,-11.4 -30,-11.3 -5.7,0.1 -16.2,1.5 -23.1,-1.8 -7,-3.3 -66,-11.4 -75.9,-16.1 -9.8,-4.6 -31.6,-37.6 -48,-52.4 -16.3,-14.8 -33,-51.1 -38.4,-60.7 -2.1,-3.7 -12.8,-10.1 -25.1,-16.4 v 0 c -1.9,-2 -362.8,-132.4 -576.5,-196.1 l 477.4,-19.2"
         style="fill:#f7a491;fill-opacity:1;fill-rule:nonzero;stroke:none"
         id="path330" /><path
         d="m 16950,5126.9 c -22.3,134.3 -49.9,275.5 -79.5,340.6 -64.9,142.9 -283.9,228 -391.3,139.2 -57.3,-47.4 -32.6,-273 16.2,-467.8 l 454.6,-12"
         style="fill:#50bfa5;fill-opacity:1;fill-rule:nonzero;stroke:none"
         id="path332" /><path
         d="m 13768.7,5904.3 c 0,0 -268.3,6.6 -359.3,-53.6 -91.1,-60.3 -80,-660.1 -80,-660.1 l 88.4,-16.8 c 0,0 32.1,-412.8 100.7,-434.3 68.5,-21.5 518.9,116.7 612.5,232.8 93.6,116.2 -198.2,971.9 -198.2,971.9 l -164.1,-39.9"
         style="fill:#3c8f7c;fill-opacity:1;fill-rule:nonzero;stroke:none"
         id="path334" /><path
         d="m 14245.5,6380 c 23.3,72.5 39,291.4 44.1,365.7 -3.6,5.4 -23.1,37.3 -21.1,99.6 1.5,44 -29.3,116.9 -1,112 28.2,-5 29.7,-81.4 46.6,-68.2 16.9,13.1 24.7,173.1 50.3,168.6 25.5,-4.5 8.2,-155.1 23.3,-143.3 15.2,11.7 15.8,150.7 52,144.3 36.2,-6.3 -15.9,-163.3 3.5,-166.7 19.4,-3.4 49.6,96.4 78.7,91.4 29.1,-5.1 -47.8,-134.5 -38.9,-127.6 8.9,7 70.9,59.8 81.2,48 11.7,-13.4 -131.9,-164.6 -132.3,-204.4 11.9,-100.8 35.7,-283.4 3.2,-398.2 -39.7,-140.4 -141.7,-452.4 -141.7,-452.4 l -217.3,51.7 c 0,0 141.7,393.6 169.4,479.5"
         style="fill:#f7a491;fill-opacity:1;fill-rule:nonzero;stroke:none"
         id="path336" /><path
         d="m 14338,6859.5 c 10.7,-4.8 19.5,-12.2 27.3,-20.6 0.8,-1.7 28,-27.3 21,-68.9 -4.7,25.4 -10.1,53.7 -48.3,89.5"
         style="fill:#f48c7f;fill-opacity:1;fill-rule:nonzero;stroke:none"
         id="path338" /><path
         d="m 12948.4,5786.9 c 0,0 5.5,34.9 -23.5,88.9 -18.7,34.6 -24.3,105.2 -43.8,90 -19.5,-15.1 9.8,-76.9 -8.3,-73.1 -18.2,3.8 -87.8,128.7 -105.4,114.9 -17.7,-13.7 55.5,-127.4 39.3,-124 -16.3,3.4 -72.1,114.3 -97.1,94.9 -25,-19.5 77.2,-124.4 63.8,-134.9 -13.4,-10.4 -76.2,57.4 -96.3,41.8 -20.1,-15.7 89.9,-88.5 80.4,-86.6 -9.6,2 -77.8,19.6 -80.9,6.1 -3.5,-15.4 138.9,-60.3 155.1,-91.9 16.2,-31.7 261.1,-347.5 331,-347.6 70,-0.2 384.2,212.5 407,281.6 22.8,69.2 -5.6,142.5 -51.4,152 -45.8,9.6 -338.7,-201.3 -353.1,-198.3 -14.4,3 -216.8,186.2 -216.8,186.2"
         style="fill:#f7a491;fill-opacity:1;fill-rule:nonzero;stroke:none"
         id="path340" /><path
         d="m 12875.6,5863.4 c -6.9,-9.4 -11,-20.3 -13.6,-31.4 0.2,-1.9 -10.8,-37.5 15.8,-70.3 -8.4,24.5 -17.7,51.7 -2.2,101.7"
         style="fill:#f48c7f;fill-opacity:1;fill-rule:nonzero;stroke:none"
         id="path342" /><path
         d="m 13610.3,5350.9 c 0,0 282.1,-224.3 313.3,-270.1 23.3,-34.2 -54.2,-420 -54.2,-420 0,0 -111.6,-3.5 -162.6,36.2 0,0 30.5,266.6 17.1,277 -13.4,10.5 -323,148.1 -323,148.1 l 19.6,158.2 189.8,70.6"
         style="fill:#b75742;fill-opacity:1;fill-rule:nonzero;stroke:none"
         id="path344" /><path
         d="m 14151.5,6158.1 c 0,0 48.9,-9.1 215.7,-191.3 l -194,-394.6 -179.3,328 157.6,257.9"
         style="fill:#9bc1f9;fill-opacity:1;fill-rule:nonzero;stroke:none"
         id="path346" /><path
         d="m 13836.8,5879.8 c 0,0 127.5,28.5 172.2,50.4 44.6,21.9 457.8,-951.7 353.6,-986 -217.6,-71.8 -782.5,-261.6 -782.5,-261.6 0,0 -16.3,56.5 4.3,159.1 35.5,177.8 23.7,574.7 16.3,644 -4.4,40.8 -245.5,-77.2 -245.5,-77.2 l -94.9,307.7 c 0,0 275.1,93.7 367.4,123.4 25.8,8.2 209.1,40.2 209.1,40.2"
         style="fill:#9bc1f9;fill-opacity:1;fill-rule:nonzero;stroke:none"
         id="path348" /><path
         d="m 14308.3,5277.1 c -51.6,160.6 -393.3,622.4 -396.3,626.8 l 55.8,38.1 c 12.5,-18.3 290.9,-409.8 345.5,-579.7 l -5,-85.2"
         style="fill:#3c8f7c;fill-opacity:1;fill-rule:nonzero;stroke:none"
         id="path350" /><path
         d="m 13567.2,4979 -35.4,44.9 c 2.4,1.9 240.2,192.4 246.6,403.5 6.5,213.2 -165.4,418.1 -167.1,420.2 l 43.5,37 c 7.7,-9 187.9,-223.4 180.8,-459 -7.3,-237.8 -257.7,-438.1 -268.4,-446.6"
         style="fill:#3c8f7c;fill-opacity:1;fill-rule:nonzero;stroke:none"
         id="path352" /><path
         d="m 13775.8,6530.8 c 0,0 100.9,74.9 196.5,-46.7 76.2,-97 66.1,-66.5 103.8,-114.7 37.6,-48.3 94.5,-52.4 103.1,-132.7 8.7,-80.2 -27.4,-96.7 -27.4,-96.7 0,0 40.6,-58.8 10,-127 -30.5,-68.2 -117.9,-133.5 -197,-133 0,0 -110.4,-77 -231.4,-59.3 -120.9,17.7 -79.9,22.2 -128.1,17 -48.1,-5.2 -185.4,46.8 -174.3,145.3 0,0 -89.5,85.7 -20.8,171 68.7,85.2 105.9,144.6 139.3,252.8 33.4,108.2 170.1,143.2 226.3,124"
         style="fill:#1a1a1a;fill-opacity:1;fill-rule:nonzero;stroke:none"
         id="path354" /><path
         d="m 13910.8,5976.9 c 0,0 11,-142.5 25.8,-154.4 14.7,-11.9 35.7,-32 19.8,-68 -16,-36 -103.5,-23.5 -145.2,-8.4 -40.1,14.5 -68.4,46.5 -68.4,46.5 l -4.3,227 172.3,-42.7"
         style="fill:#f7a491;fill-opacity:1;fill-rule:nonzero;stroke:none"
         id="path356" /><path
         d="m 13860.5,5911.9 c -28.3,6.7 -78.1,20 -121.4,76 l -0.6,31.7 172.3,-42.7 c 0,0 2.7,-34.8 7.2,-71.4 -23.3,-1.5 -43.9,3.3 -57.5,6.4"
         style="fill:#f48c7f;fill-opacity:1;fill-rule:nonzero;stroke:none"
         id="path358" /><path
         d="m 13669.2,6144.1 c 0,0 -13,83.1 -62.5,61.4 -49.5,-21.8 3.1,-143.6 45.2,-134.8 42,8.7 17.3,73.4 17.3,73.4"
         style="fill:#f7a491;fill-opacity:1;fill-rule:nonzero;stroke:none"
         id="path360" /><path
         d="m 13823.8,6467.1 c 0,0 80,10.4 127.8,-47.6 47.7,-58 111.4,-231.5 56.9,-361.8 -54.5,-130.3 -144.2,-109.3 -181.2,-100.6 -37,8.6 -110.4,28.7 -158.5,139.8 -48,111.2 -50,372.5 155,370.2"
         style="fill:#f7a491;fill-opacity:1;fill-rule:nonzero;stroke:none"
         id="path362" /><path
         d="m 15459.9,5139.2 147.5,-704.3 -254.4,24.7 -122.5,644.1 229.4,35.5"
         style="fill:#f7a491;fill-opacity:1;fill-rule:nonzero;stroke:none"
         id="path364" /><path
         d="m 15503.6,5118.5 -273.1,-14.8 c 0,0 -20.3,188.6 -25,278.8 -5.7,109.4 -3.6,250.8 9.7,248.5 37.6,-6.6 88.6,-24.5 120.4,-63.8 110.2,-136.1 168,-448.7 168,-448.7"
         style="fill:#5184ce;fill-opacity:1;fill-rule:nonzero;stroke:none"
         id="path366" /><path
         d="m 15324,5407.2 c 6.6,-33.2 179.6,-953.6 179.6,-953.6 -409.5,-224.5 -722.1,-33 -722.1,-33 0,0 15.6,618.8 -5.3,704.7 -13.9,56.8 -64.3,430.8 -27.6,443.4 47,16.1 118,39.9 177.3,49.2 50.6,7.9 248.1,21.2 284.1,11.1 0,0 86.5,-82.6 114,-221.8"
         style="fill:#eafcfc;fill-opacity:1;fill-rule:nonzero;stroke:none"
         id="path368" /><path
         d="m 15177.3,6285.4 c 0,0 165.6,2.5 151.9,-134.7 0,0 123.2,-47.9 41.1,-158.9 0,0 87.6,-119.5 -64.9,-234.1 0,0 -40.5,-160.4 -213.2,-83.7 0,0 -51.1,-38.2 -121.8,12.8 -70.7,51 -79.9,81.2 -79.9,81.2 0,0 -156.3,29.7 -134.8,173.4 0,0 -82.1,70 41.9,157.9 0,0 -2.3,197.2 165.3,170.6 0,0 97.8,150.5 214.4,15.5"
         style="fill:#13375b;fill-opacity:1;fill-rule:nonzero;stroke:none"
         id="path370" /><path
         d="m 14917.9,5962.5 c -4.5,-35 -27.3,-60.9 -51,-57.9 -23.6,3.1 -39.2,33.9 -34.7,68.9 4.5,35 27.3,60.9 51,57.8 23.6,-3 39.1,-33.8 34.7,-68.8"
         style="fill:#f7a491;fill-opacity:1;fill-rule:nonzero;stroke:none"
         id="path372" /><path
         d="m 15306.7,5855.6 c -14.5,-32.1 -43.9,-50.2 -65.7,-40.4 -21.7,9.8 -27.5,43.8 -13,76 14.5,32.1 43.9,50.2 65.6,40.4 21.8,-9.8 27.6,-43.8 13.1,-76"
         style="fill:#f7a491;fill-opacity:1;fill-rule:nonzero;stroke:none"
         id="path374" /><path
         d="m 15107.1,5749 c -0.2,-2.5 13.9,-92.6 21.3,-140.3 2.8,-17.7 -7.3,-34.9 -24.2,-41.2 -45.1,-16.7 -132.9,-38.1 -188.2,20 -5,5.3 -7.4,12.6 -6.6,19.9 l 22.9,210.8 174.8,-69.2"
         style="fill:#f7a491;fill-opacity:1;fill-rule:nonzero;stroke:none"
         id="path376" /><path
         d="m 15120.7,5658.2 c -47.8,-19.9 -186.2,-2.7 -196.6,84.5 l 8.2,75.5 174.8,-69.2 c -0.1,-1.2 9.4,-63.3 13.6,-90.8"
         style="fill:#f48c7f;fill-opacity:1;fill-rule:nonzero;stroke:none"
         id="path378" /><path
         d="m 15151.8,6178.4 c 0,0 -72.8,15.8 -142.5,-27.4 -69.6,-43.3 -182.6,-213.3 -88.1,-361 94.5,-147.8 254.9,-75.5 311.4,41.6 56.5,117 80.6,291.3 -80.8,346.8"
         style="fill:#f7a491;fill-opacity:1;fill-rule:nonzero;stroke:none"
         id="path380" /><path
         d="m 15106.8,5812.7 -97,5.6 c 0,0 0.1,-37 42.7,-40.6 51.9,-4.5 54.3,35 54.3,35"
         style="fill:#ffffff;fill-opacity:1;fill-rule:nonzero;stroke:none"
         id="path382" /><path
         d="m 15276.3,6095.5 c 0,0 -70.6,37.8 -123.2,32.9 -52.7,-5 -224.1,-129.6 -249,-108.8 -24.9,20.9 7.2,131.1 27.1,147.1 19.9,16 99.3,64.1 106.1,65 6.8,0.9 78.9,-0.4 91.2,-3.6 12.4,-3.2 101.6,-45.7 101.6,-45.7 l 46.2,-86.9"
         style="fill:#13375b;fill-opacity:1;fill-rule:nonzero;stroke:none"
         id="path384" /><path
         d="m 14250.2,4370.1 c 1.5,4.2 5.1,4.4 8.9,4.6 36.1,2.3 72.2,5 107.9,11.5 6,1.1 11.8,2.7 17.3,5 9.8,4.3 19.7,4.5 29.8,2.1 5.5,-1.4 11.1,-1.5 16.7,-1.3 18.2,0.7 69.6,20 96.1,25.5 6,1.2 10.7,6 12,12 23,104.6 72,339.1 76.8,415.9 6.3,98.1 60,541.5 60,541.5 l 182.4,-44.7 c 0,0 -64.2,-328.1 -79.8,-486.7 -12,-122.4 -125.8,-385.1 -161.6,-460.7 -17,-56 -58.8,-58.8 -68.5,-60.3 -5.5,-0.9 -10.6,-3.8 -14.1,-8.1 -6.3,-7.9 -13.7,-14.9 -22.2,-20.6 -6.3,-4.2 -11,-9.7 -15.1,-16 -7.3,-11.4 -13.8,-23.4 -20.2,-35.3 -4.3,-8 -8.9,-10.6 -15.7,-9 -7.2,1.8 -10.8,7 -10.9,15.7 -0.2,12.9 3.5,24.8 9.7,36 5.7,10.5 5.1,16.5 -2.3,25.7 -4.2,5.4 -8.6,10.5 -14.1,14.7 -5.5,4.3 -11.3,7.4 -18.7,6.2 -12.9,-3.7 -25.9,-6.7 -39.2,-8.6 l -10.8,-2.6 -6,-1.5 c -0.9,-0.2 -20.1,-2.9 -26.6,-3.2 -5.3,-0.1 -13.9,-0.7 -21.2,-1.3 -6.6,-0.6 -20.6,2.5 -21.1,2.5 -6.4,-0.1 -12.2,2 -17.1,6.2 -2,1.7 -4,3.6 -3.1,6.6 0.9,2.8 3,4 5.8,4.6 4.3,1 26.6,4.4 26.4,5.3 -6.7,-0.2 -27.6,-0.3 -34.3,-0.4 -9,0 -16.9,3 -23.3,9.4 -2.5,2.6 -5.4,5.1 -3.9,9.3"
         style="fill:#f7a491;fill-opacity:1;fill-rule:nonzero;stroke:none"
         id="path386" /><path
         d="m 14554,5120.1 264.2,-127.8 c 0,0 41.5,194.1 72.5,314.1 26.6,103.1 -105.1,286.7 -148.9,261.5 -98.2,-56.1 -187.8,-447.8 -187.8,-447.8"
         style="fill:#5184ce;fill-opacity:1;fill-rule:nonzero;stroke:none"
         id="path388" /><path
         d="m 16340,5462 2350,-100 c 0,0 -205,-685.8 -210,-720 -5,-34.2 -776.2,-455 -970,-450 -193.8,5.1 -645.7,167.2 -743,195.9 -97.2,28.6 -349.8,225.6 -334.7,346.9 15.2,121.2 -92.3,727.2 -92.3,727.2"
         style="fill:#f7cc7f;fill-opacity:1;fill-rule:nonzero;stroke:none"
         id="path390" /><path
         d="m 17016.3,5114.1 h -630.6 c -15.5,0 -28.2,12.7 -28.2,28.2 v 54.5 c 0,15.6 12.7,28.2 28.2,28.2 h 630.6 c 15.5,0 28.2,-12.6 28.2,-28.2 v -54.5 c 0,-15.5 -12.7,-28.2 -28.2,-28.2"
         style="fill:#eab054;fill-opacity:1;fill-rule:nonzero;stroke:none"
         id="path392" /><path
         d="m 17289.1,6423.5 318.4,-131 -18.2,65.5 -118.7,65.5 c 0,0 -97.3,18.9 -106.8,23.9 -9.4,5.1 -74.7,-23.9 -74.7,-23.9"
         style="fill:#f7cc7f;fill-opacity:1;fill-rule:nonzero;stroke:none"
         id="path394" /><path
         d="m 18816.1,5431.4 c 0.1,0 0.1,0.1 0.1,0.1 l -0.1,-0.1 m 0.3,0.4 c 0,0.1 0,0.1 0.1,0.1 -0.1,0 -0.1,0 -0.1,-0.1"
         style="fill:#d9d6c8;fill-opacity:1;fill-rule:nonzero;stroke:none"
         id="path396" /><path
         d="m 18693,5367.4 c -2.1,0 -4.1,0 -6.2,0.1 l -189.8,7.6 c -0.2,0.4 -0.4,0.6 -0.4,0.8 -0.4,2 3.8,5.5 3.8,5.5 9.7,5.2 10,20.2 7,27.8 -3.1,7.5 -15.3,16.6 -21.5,17.4 -6.2,0.7 -7.2,3.5 -7.2,3.5 0.8,5.9 -4.3,16.7 -11.2,25.1 l 19.7,79.8 c 7.7,31.3 -11.4,62.8 -42.7,70.5 -4.7,1.2 -9.3,1.7 -14,1.7 -26.2,0 -50,-17.7 -56.5,-44.3 l -30.7,-124.5 c -20.3,-3.8 -50.6,-8.7 -57.4,-11.9 -7.8,-3.7 -23.1,-25.3 -37.3,-41.4 l -834.3,33.6 c -19,36.1 -38.9,69.2 -57.5,97.9 l 119.8,182.1 -83.7,7.1 -81.3,-123.6 c -16.4,22.4 -28.4,37.1 -32.6,42.2 -0.6,0.7 -1.1,1.4 -1.6,2 v 0 0 c -3.6,3.9 -10.9,7.8 -20.7,11.7 l 49.4,75.2 1500.9,-128.5 c 44.4,-64.9 33.9,-116.2 9.5,-152.9 -0.1,0 -0.1,0 -0.1,-0.1 -0.1,-0.1 -0.1,-0.2 -0.2,-0.3 0,0 0,-0.1 -0.1,-0.1 -0.1,-0.1 -0.1,-0.3 -0.2,-0.4 v 0 c -27.8,-41 -74.5,-63.6 -122.9,-63.6"
         style="fill:#d4e9fa;fill-opacity:1;fill-rule:nonzero;stroke:none"
         id="path398" /><path
         d="m 17414.3,5418.7 -47.1,1.9 c -8.9,24 -18.1,47.9 -27.1,70.5 l 16.7,25.5 c 18.6,-28.7 38.5,-61.8 57.5,-97.9 v 0 m -108.6,154.5 c -11.2,24.9 -20.6,43.3 -26.7,51.2 4.2,-5.1 16.2,-19.8 32.6,-42.2 l -5.9,-9"
         style="fill:#859dbc;fill-opacity:1;fill-rule:nonzero;stroke:none"
         id="path400" /><path
         d="m 17367.2,5420.6 -283.1,11.3 v 0 l 36.1,-1.4 43.3,65.9 c 10.4,-2.6 20.9,-4 31.4,-4 6.5,0 13,0.5 19.5,1.6 17,3 9.8,39.9 -1.2,78 l 43.5,66.1 c 9.8,-3.9 17.1,-7.8 20.7,-11.7 v 0 0 c 0.5,-0.6 1,-1.3 1.6,-2 6.1,-7.9 15.5,-26.3 26.7,-51.2 l -96.3,-146.3 86.2,-3.5 44.5,67.7 c 9,-22.6 18.2,-46.5 27.1,-70.5"
         style="fill:#8ba6cc;fill-opacity:1;fill-rule:nonzero;stroke:none"
         id="path402" /><path
         d="m 17194.9,5492.4 c -10.5,0 -21,1.4 -31.4,4 l 49.7,75.6 c 11,-38.1 18.2,-75 1.2,-78 -6.5,-1.1 -13,-1.6 -19.5,-1.6"
         style="fill:#d9c6cf;fill-opacity:1;fill-rule:nonzero;stroke:none"
         id="path404" /><path
         d="m 16437,5465.1 c -67.5,23.5 -115.8,89.2 -115.8,166.1 v 166.4 l 235.7,-20.2 c 0.1,-1.6 0.1,-2.4 0.1,-2.6 l -20.9,-137.8 c -4.3,-1.3 -8.6,-3.1 -12.6,-5.2 -16.2,-5.9 -31.1,-14.2 -44.3,-25.1 -20.7,-17.1 -30.7,-57.4 -32.7,-111.2 -3.4,-10 -6.6,-20.2 -9.5,-30.4 m 371.5,192.7 c -4.3,20.2 -9.1,44.4 -12.9,69.6 v 0 c -1.5,9.9 -2.9,19.9 -4.1,29.9 l 236.1,-20.2 c -6.5,-21.8 -12.9,-39.9 -18.6,-50.8 -3.9,0.2 -12.2,0.5 -23.7,0.5 -39.2,0 -115.3,-3.7 -176.8,-29"
         style="fill:#d4e9fa;fill-opacity:1;fill-rule:nonzero;stroke:none"
         id="path406" /><path
         d="m 16964.3,5547.1 c -47.2,31.7 -97.1,53.3 -146,67.9 -2.3,9.4 -5.9,24.5 -9.8,42.8 61.5,25.3 137.6,29 176.8,29 11.5,0 19.8,-0.3 23.7,-0.5 -0.1,-0.1 -0.1,-0.2 -0.1,-0.3 -7.3,-13.7 -3.9,-35.7 7.4,-59.9 l -52,-79"
         style="fill:#8ba6cc;fill-opacity:1;fill-rule:nonzero;stroke:none"
         id="path408" /><path
         d="m 17016.3,5626.1 c -11.3,24.2 -14.7,46.2 -7.4,59.9 0,0.1 0,0.2 0.1,0.3 5.7,10.9 12.1,29 18.6,50.8 l 120.7,-10.3 -62.3,5.3 -69.7,-106"
         style="fill:#d9c6cf;fill-opacity:1;fill-rule:nonzero;stroke:none"
         id="path410" /><path
         d="m 16818.3,5615 c -73.7,22 -144.9,27.9 -200.3,27.9 -6,0 -11.9,0 -17.5,-0.2 -3.3,0.2 -6.6,0.2 -9.8,0.2 -10.9,0 -21.7,-0.7 -32.1,-2.3 -2.5,-0.2 -4.9,-0.4 -7.2,-0.6 -5.3,-0.4 -10.3,-1.5 -15.3,-3 l 20.9,137.8 v 0 l 0.8,2.5 100.1,-8.6 c 43.2,-25.1 92.7,-39.7 137.7,-41.3 3.8,-25.2 8.6,-49.4 12.9,-69.6 3.9,-18.3 7.5,-33.4 9.8,-42.8"
         style="fill:#d9c6cf;fill-opacity:1;fill-rule:nonzero;stroke:none"
         id="path412" /><path
         d="m 16795.6,5727.4 v 0 c -45,1.6 -94.5,16.2 -137.7,41.3 l 133.6,-11.4 c 1.2,-10 2.6,-20 4.1,-29.9"
         style="fill:#d8b3b9;fill-opacity:1;fill-rule:nonzero;stroke:none"
         id="path414" /><path
         d="m 16557,5774.8 v 0 c 0,0.2 0,1 -0.1,2.6 l 0.9,-0.1 -0.8,-2.5"
         style="fill:#7e9bba;fill-opacity:1;fill-rule:nonzero;stroke:none"
         id="path416" /><path
         d="m 17084.1,5431.9 -202.7,8.2 c -3.6,10.2 -7.3,19.4 -10.9,27.4 -45.2,99.5 -165.1,171 -270,175.2 5.6,0.2 11.5,0.2 17.5,0.2 55.4,0 126.6,-5.9 200.3,-27.9 48.9,-14.6 98.8,-36.2 146,-67.9 l -70.7,-107.5 190.5,-7.7 v 0 m -637.9,30.3 c -3.1,0.9 -6.2,1.8 -9.2,2.9 v 0 c 2.9,10.2 6.1,20.4 9.5,30.4 -0.4,-10.6 -0.5,-21.7 -0.3,-33.3 m 77.3,169.6 c 4,2.1 8.3,3.9 12.6,5.2 5,1.5 10,2.6 15.3,3 2.3,0.2 4.7,0.4 7.2,0.6 -12.2,-1.8 -23.9,-4.7 -35.1,-8.8"
         style="fill:#8ebec7;fill-opacity:1;fill-rule:nonzero;stroke:none"
         id="path418" /><path
         d="m 18343.3,5438.4 30.7,124.5 c 6.5,26.6 30.3,44.3 56.5,44.3 4.7,0 9.3,-0.5 14,-1.7 31.3,-7.7 50.4,-39.2 42.7,-70.5 l -19.7,-79.8 c -5.2,6.5 -11.5,11.6 -16.9,11.8 -0.1,0 -0.3,0 -0.4,0 -6.5,0 -21.3,-5.6 -35.3,-11.3 -13.9,-5.6 -27,-11.3 -29.9,-11.3 0,0 0,0 -0.1,0 -2.6,0.1 -6.4,0.4 -10.3,0.4 -4.5,0 -9.2,-0.4 -12.8,-2.2 -2.2,-1 -9.3,-2.5 -18.5,-4.2"
         style="fill:#818fa0;fill-opacity:1;fill-rule:nonzero;stroke:none"
         id="path420" /><path
         d="m 18497,5375.1 -248.4,10 v 0 c 14.2,16.1 29.5,37.7 37.3,41.4 6.8,3.2 37.1,8.1 57.4,11.9 9.2,1.7 16.3,3.2 18.5,4.2 3.6,1.8 8.3,2.2 12.8,2.2 3.9,0 7.7,-0.3 10.3,-0.4 0.1,0 0.1,0 0.1,0 2.9,0 16,5.7 29.9,11.3 14,5.7 28.8,11.3 35.3,11.3 0.1,0 0.3,0 0.4,0 5.4,-0.2 11.7,-5.3 16.9,-11.8 6.9,-8.4 12,-19.2 11.2,-25.1 0,0 1,-2.8 7.2,-3.5 6.2,-0.8 18.4,-9.9 21.5,-17.4 3,-7.6 2.7,-22.6 -7,-27.8 0,0 -4.2,-3.5 -3.8,-5.5 0,-0.2 0.2,-0.4 0.4,-0.8 v 0"
         style="fill:#d9c6cf;fill-opacity:1;fill-rule:nonzero;stroke:none"
         id="path422" /><path
         d="m 16881.4,5440.1 -396.6,15.9 c -13.3,0.6 -26.3,2.7 -38.6,6.2 -0.2,11.6 -0.1,22.7 0.3,33.3 2,53.8 12,94.1 32.7,111.2 13.2,10.9 28.1,19.2 44.3,25.1 11.2,4.1 22.9,7 35.1,8.8 10.4,1.6 21.2,2.3 32.1,2.3 3.2,0 6.5,0 9.8,-0.2 104.9,-4.2 224.8,-75.7 270,-175.2 3.6,-8 7.3,-17.2 10.9,-27.4"
         style="fill:#96d1d7;fill-opacity:1;fill-rule:nonzero;stroke:none"
         id="path424" /><path
         d="m 18807,5584.8 -1500.9,128.5 v 0 l -104.4,8.9 c 1.3,6.3 2.5,12.7 3.8,19.1 l 1592.6,-144.3 8.9,-12.2 m -1779.4,152.3 -236.1,20.2 c -0.9,7.3 -1.6,14.6 -2.3,21.7 l 244.1,-22.1 c -1.9,-6.8 -3.8,-13.5 -5.7,-19.8"
         style="fill:#d0e6fa;fill-opacity:1;fill-rule:nonzero;stroke:none"
         id="path426" /><path
         d="m 17201.7,5722.2 -53.4,4.6 -120.7,10.3 c 1.9,6.3 3.8,13 5.7,19.8 l 172.2,-15.6 c -1.3,-6.4 -2.5,-12.8 -3.8,-19.1"
         style="fill:#d4ccda;fill-opacity:1;fill-rule:nonzero;stroke:none"
         id="path428" /><path
         d="m 16556.9,5777.4 -235.7,20.2 v 23.9 l 232.4,-21.1 c 2.5,-11 3.1,-19.1 3.3,-23"
         style="fill:#d0e6fa;fill-opacity:1;fill-rule:nonzero;stroke:none"
         id="path430" /><path
         d="m 16657.9,5768.7 -100.1,8.6 7.6,22 55.3,-5 c 11.6,-9.4 24.1,-18 37.2,-25.6"
         style="fill:#d4ccda;fill-opacity:1;fill-rule:nonzero;stroke:none"
         id="path432" /><path
         d="m 16791.5,5757.3 -133.6,11.4 c -13.1,7.6 -25.6,16.2 -37.2,25.6 l 168.5,-15.3 c 0.7,-7.1 1.4,-14.4 2.3,-21.7"
         style="fill:#d3bdc8;fill-opacity:1;fill-rule:nonzero;stroke:none"
         id="path434" /><path
         d="m 16557.8,5777.3 -0.9,0.1 c -0.2,3.9 -0.8,12 -3.3,23 l 11.8,-1.1 -7.6,-22"
         style="fill:#8fabc9;fill-opacity:1;fill-rule:nonzero;stroke:none"
         id="path436" /><path
         d="m 18807,5584.8 -1500.9,128.5 v 0 L 18807,5584.8 m -1779.4,152.3 -236.1,20.2 v 0 l 236.1,-20.2 v 0"
         style="fill:#cae1f9;fill-opacity:1;fill-rule:nonzero;stroke:none"
         id="path438" /><path
         d="m 17256.7,5638.1 c -16.8,6.5 -41.1,12.9 -68,18.7 0,0.1 0.1,0.3 0.1,0.4 3.6,18.2 8.1,40.7 12.9,65 l 104.4,-8.9 -49.4,-75.2"
         style="fill:#ddedfb;fill-opacity:1;fill-rule:nonzero;stroke:none"
         id="path440" /><path
         d="m 17120.2,5430.5 -36.1,1.4 c -23.5,32 -49.3,59.2 -76.6,82.5 0.5,1.4 0.7,2.1 0.7,2.1 l -4.4,1 c -12.9,10.7 -26.1,20.5 -39.5,29.6 l 52,79 c 23.8,-51.6 82.5,-113.6 147.2,-129.7 l -43.3,-65.9 m 93,141.5 c -10.8,37.7 -25.5,76.5 -24.5,84.8 26.9,-5.8 51.2,-12.2 68,-18.7 l -43.5,-66.1"
         style="fill:#a2b8d6;fill-opacity:1;fill-rule:nonzero;stroke:none"
         id="path442" /><path
         d="m 17163.5,5496.4 c -64.7,16.1 -123.4,78.1 -147.2,129.7 l 69.7,106 62.3,-5.3 53.4,-4.6 c -4.8,-24.3 -9.3,-46.8 -12.9,-65 0,-0.1 -0.1,-0.3 -0.1,-0.4 -1,-8.3 13.7,-47.1 24.5,-84.8 l -49.7,-75.6"
         style="fill:#e1d1d9;fill-opacity:1;fill-rule:nonzero;stroke:none"
         id="path444" /><path
         d="m 17007.5,5514.4 c -1.2,1 -2.5,2 -3.7,3.1 l 4.4,-1 c 0,0 -0.2,-0.7 -0.7,-2.1"
         style="fill:#e0cad3;fill-opacity:1;fill-rule:nonzero;stroke:none"
         id="path446" /><path
         d="m 17084.1,5431.9 -190.5,7.7 70.7,107.5 c 13.4,-9.1 26.6,-18.9 39.5,-29.6 1.2,-1.1 2.5,-2.1 3.7,-3.1 27.3,-23.3 53.1,-50.5 76.6,-82.5"
         style="fill:#a5cbd2;fill-opacity:1;fill-rule:nonzero;stroke:none"
         id="path448" /><path
         d="m 17306.1,5713.3 -104.4,8.9 v 0 l 104.4,-8.9"
         style="fill:#d9ebfb;fill-opacity:1;fill-rule:nonzero;stroke:none"
         id="path450" /><path
         d="m 17356.8,5516.6 c -16.7,25.8 -32.3,48.1 -45.2,65.6 l 81.3,123.6 83.7,-7.1 -119.8,-182.1"
         style="fill:#ddedfb;fill-opacity:1;fill-rule:nonzero;stroke:none"
         id="path452" /><path
         d="m 17340.1,5491.1 c -12.3,30.8 -24.1,59.2 -34.4,82.1 l 5.9,9 c 12.9,-17.5 28.5,-39.8 45.2,-65.6 l -16.7,-25.5"
         style="fill:#9db1c9;fill-opacity:1;fill-rule:nonzero;stroke:none"
         id="path454" /><path
         d="m 17295.6,5423.4 -86.2,3.5 96.3,146.3 c 10.3,-22.9 22.1,-51.3 34.4,-82.1 l -44.5,-67.7"
         style="fill:#a2b8d6;fill-opacity:1;fill-rule:nonzero;stroke:none"
         id="path456" /><path
         d="m 12953.7,5453.1 2839.4,-28.1 25.4,-899.9 c 0,0 -331.7,-482.5 -371.7,-477.4 -40,5 -888.1,141.4 -964.2,136.4 -76.2,-5.1 -740.9,321.2 -772.3,314.7 -31.4,-6.5 -238.5,104.6 -238.5,104.6 l -337.6,238.5 -334.7,344.5 154.2,266.7"
         style="fill:#f7cc7f;fill-opacity:1;fill-rule:nonzero;stroke:none"
         id="path458" /><path
         d="m 13528.5,5169.6 h -630.6 c -15.5,0 -28.2,12.6 -28.2,28.2 v 54.4 c 0,15.6 12.7,28.2 28.2,28.2 h 630.6 c 15.5,0 28.2,-12.6 28.2,-28.2 v -54.4 c 0,-15.6 -12.7,-28.2 -28.2,-28.2"
         style="fill:#eab054;fill-opacity:1;fill-rule:nonzero;stroke:none"
         id="path460" /><path
         d="m 13948.5,6105.8 -98.2,-19 c 0,0 9.4,-36.8 52.9,-29.8 53,8.6 45.3,48.8 45.3,48.8"
         style="fill:#ffffff;fill-opacity:1;fill-rule:nonzero;stroke:none"
         id="path462" /><path
         d="m 13644.2,6199.9 c 0,0 221.8,101.6 243.7,260.8 22,159.2 -182.3,7.1 -182.3,7.1 l -82.6,-79.2 21.2,-188.7"
         style="fill:#1a1a1a;fill-opacity:1;fill-rule:nonzero;stroke:none"
         id="path464" /><path
         d="m 16401.9,5482.1 c 0,0 41.3,-28.4 93.5,-26.5 0,0 -69.5,-21.2 -71.5,-19.5 -2,1.7 -37,29.8 -36.5,30.4 l 14.5,15.6"
         style="fill:#f7cc7f;fill-opacity:1;fill-rule:nonzero;stroke:none"
         id="path466" /><path
         d="m 16616,6509.9 277.6,-17.6 c 0,0 -45.5,75.3 -64.7,75.3 -19.3,0 -146.3,0 -146.3,0 l -66.6,-57.7"
         style="fill:#f7cc7f;fill-opacity:1;fill-rule:nonzero;stroke:none"
         id="path468" /><path
         d="M 32552.7,2318.7 H 2622.4 c -62.74,0 -113.61,50.8 -113.61,113.6 0,62.7 50.87,113.6 113.61,113.6 h 29930.3 c 62.7,0 113.6,-50.9 113.6,-113.6 0,-62.8 -50.9,-113.6 -113.6,-113.6"
         style="fill:#183658;fill-opacity:1;fill-rule:nonzero;stroke:none"
         id="path470" /></g></g></svg>
