<?xml version="1.0" encoding="UTF-8" standalone="no"?>
<!-- Created with Inkscape (http://www.inkscape.org/) -->

<svg
   version="1.1"
   id="svg2"
   xml:space="preserve"
   width="4266.6665"
   height="2666.6667"
   viewBox="0 0 4266.6665 2666.6667"
   sodipodi:docname="9800.eps"
   xmlns:inkscape="http://www.inkscape.org/namespaces/inkscape"
   xmlns:sodipodi="http://sodipodi.sourceforge.net/DTD/sodipodi-0.dtd"
   xmlns="http://www.w3.org/2000/svg"
   xmlns:svg="http://www.w3.org/2000/svg"><defs
     id="defs6" /><sodipodi:namedview
     id="namedview4"
     pagecolor="#ffffff"
     bordercolor="#666666"
     borderopacity="1.0"
     inkscape:pageshadow="2"
     inkscape:pageopacity="0.0"
     inkscape:pagecheckerboard="0" /><g
     id="g8"
     inkscape:groupmode="layer"
     inkscape:label="ink_ext_XXXXXX"
     transform="matrix(1.3333333,0,0,-1.3333333,0,2666.6667)"><g
       id="g10"
       transform="scale(0.1)"><path
         d="M 0,0 H 32000 V 20000 H 0 Z"
         style="fill:#ffffff;fill-opacity:1;fill-rule:nonzero;stroke:none"
         id="path12" /><path
         d="M 30261.6,3772.8 C 30104.9,2785.7 29254.4,2058.7 28255.1,2059.2 l -5755.6,2.6 -5043.3,2.4 h -151.4 l -1079.7,0.4 h -139.3 l -1030.4,0.4 -176.2,0.1 -1435.7,0.6 -253.1,0.3 -1170.9,0.6 h -174.9 l -143.5,0.1 -2017.99,1 -352.41,0.1 -1558.89,0.7 h -88.82 l -243.54,0.1 -2403.76,1.2 c -307.4,0.1 -605.02,67.5 -874.94,191.4 -408.89,187.6 -754.14,505.2 -973.68,916 -155.68,291.4 -323.53,632.7 -486.25,1014 -260.37,610.5 -507.61,1323.8 -670.57,2100.6 -130.36,620.9 -206.76,1282.4 -193.16,1964.3 2.28,122.4 7.64,245.6 16.12,369.3 7.4,107.3 17.07,215 29.25,323.1 39.04,347.5 103.87,698.4 198.89,1050.1 115.33,426.5 275.05,854.4 487.44,1279.1 252.37,504.9 579.36,1005.3 994.33,1493.5 224.08,263.7 473.95,524 751.51,779.3 4974.28,4575.1 9799.47,2650.5 10488.87,2650.5 3323.4,0 2520.4,2097.8 6200.5,2418.7 7783.1,678.8 6625.4,-6490.8 6625.3,-6491.1 0,-0.3 -115,-394.3 -150.4,-541.1 -47.9,-197.2 -84.7,-383.9 -111.2,-560.9 -2,-13.5 -4,-27 -5.9,-40.5 -7.4,-51.4 -13.9,-101.7 -19.2,-151.4 -40.2,-353.7 -37.8,-667.5 -1.5,-949.7 67.7,-528.2 253.7,-945.8 501.9,-1306.9 165.6,-241.1 359,-456.8 563.4,-663.2 57.3,-57.9 115.5,-115.1 174.3,-171.9 75.9,-73.5 152.6,-146.3 229.4,-219.2 102.4,-97.3 205,-194.9 305.6,-294.6 21.6,-21.2 43.1,-42.7 64.5,-64.3 36.8,-37 73.2,-74.4 109.1,-112.2 148.2,-155.1 289.6,-317.4 417.6,-493.2 28.1,-38.1 55.2,-76.9 81.8,-116.3 31.2,-46.4 61.3,-93.8 90.5,-142.3 92.7,-154 174.8,-318.8 242.6,-497.8 199.2,-526.1 275.5,-1174.5 139.8,-2030.3"
         style="fill:#ebf3fa;fill-opacity:1;fill-rule:nonzero;stroke:none"
         id="path14" /><path
         d="M 14188.1,5161 5616.49,6446.9 1837.09,8256.1 c 2.28,122.4 7.64,245.6 16.12,369.3 7.4,107.3 17.07,215 29.25,323.1 39.04,347.5 103.87,698.4 198.89,1050.1 115.33,426.5 275.05,854.4 487.44,1279.1 0,0 1924.65,799.1 2756.88,799.1 125.04,0 225.33,-18 290.82,-59.5 489.31,-309.9 1865.57,-2159.5 2530.8,-2159.5 16.43,0 32.31,1.2 47.85,3.5 380.76,56.4 703.25,376.3 1080.55,376.3 261.51,0 549.32,-153.6 901.21,-655.2 633.1,-902.6 1059,-1377.3 1554.3,-1377.3 177.1,0 363.1,60.7 570.7,184.3 617.1,367.4 999.9,857.2 1458.1,857.2 126.8,0 259.3,-37.5 404.2,-125.5 668.6,-405.9 2106,-2721.9 2106,-2721.9 L 14188.1,5161"
         style="fill:#d6e6fb;fill-opacity:1;fill-rule:nonzero;stroke:none"
         id="path16" /><path
         d="m 18858.8,5160.9 c -1472,0 -1686.1,1262.2 -1686.1,1262.2 0,0 1853.4,2674.7 2118.4,2674.7 2.3,0 4.5,-0.2 6.6,-0.6 220.3,-44 792.1,-958.3 1076.1,-958.3 23.7,0 45.4,6.4 64.8,20.2 250.7,179.1 1300.3,3820 1701.1,3858.2 7.6,0.7 15.3,1.1 23.1,1.1 172.9,0 379,-175.6 565.9,-351.2 186.9,-175.7 354.7,-351.3 450.9,-351.3 16.4,0 30.6,5 42.6,16 86.8,79.7 478,897.3 881.5,1607.4 321.7,566.5 651.4,1064.5 840.2,1064.5 0.2,0 0.3,0 0.5,0 189.5,-0.8 447.8,-411.3 720.2,-931.6 v 0 c -272.4,520.3 -530.7,930.8 -720.2,931.6 -0.2,0 -0.3,0 -0.5,0 -188.8,0 -518.5,-498 -840.2,-1064.5 l -0.1,-0.2 c 0,0 602.9,631.7 678,631.7 4.9,0 7.6,-2.7 7.6,-8.7 0,-82.6 6,-326.8 53.9,-326.7 7.5,0 16,6 25.7,19.5 59.8,83.7 152.7,260.5 237.4,260.5 16.8,0 33.3,-7 49.2,-23.1 95.5,-97.3 509.2,-420.3 509.2,-420.3 v 0 c 459.8,-878.1 959.5,-2069.2 1236.6,-2134 29.1,-6.8 59.2,-9.9 90.2,-9.9 115,0 242.7,42.6 376.3,98.5 -2,-13.5 -4,-27 -5.9,-40.5 -7.4,-51.4 -13.9,-101.7 -19.2,-151.4 -19.9,-175.5 -29.4,-341.1 -29.4,-497.9 0,-159.4 9.6,-309.6 27.9,-451.8 67.7,-528.2 253.7,-945.8 501.9,-1306.9 165.6,-241.1 359,-456.8 563.4,-663.2 -398.9,-134 -981,-328.2 -1664.5,-552.4 -1.5,197 -33.5,1335.3 -573.3,1351.7 -8.8,0.3 -17.7,0.4 -26.6,0.4 -227.9,0 -460.9,-86.9 -692.8,-173.7 -231.9,-86.9 -462.7,-173.8 -686.4,-173.8 -124.9,0 -247.6,27.1 -366.9,96.4 -51.6,30 -112,43.5 -179.3,43.5 -322.8,0 -805.3,-311.3 -1243.7,-622.6 -438.5,-311.3 -832.8,-622.6 -979.1,-622.6 -5.4,0 -10.5,0.4 -15.3,1.3 -286.5,53 429.8,1218.3 387,1686.8 -4.7,51.5 -29.8,74.5 -71.1,74.5 -334.8,0 -1728.3,-1515.1 -1855.8,-1702.2 -56.4,-82.7 -137.7,-117.6 -222.2,-117.6 -130.2,0 -267.8,83 -332.9,202.4 -8,14.6 -19,21.4 -32.8,21.4 -171.7,0 -755.1,-1056.2 -755.1,-1056.2 L 18630,5885 l 1074.4,-125.4 2256.2,107.5 3097.6,950 C 22700,6064 19987.4,5247 19095.7,5171.2 c -82.4,-7 -161.3,-10.3 -236.9,-10.3"
         style="fill:#c0dafc;fill-opacity:1;fill-rule:nonzero;stroke:none"
         id="path18" /><path
         d="m 25058.2,6817.1 c 595.5,190.2 1168.5,376.3 1683.7,545.4 0.2,-18.7 0,-29 0,-29 l -1683.7,-516.4"
         style="fill:#c0dafc;fill-opacity:1;fill-rule:nonzero;stroke:none"
         id="path20" /><path
         d="M 19704.4,5759.6 18630,5885 l 465.6,487.2 c 0,0 583.4,1056.2 755.1,1056.2 13.8,0 24.8,-6.8 32.8,-21.4 65.1,-119.4 202.7,-202.4 332.9,-202.4 84.5,0 165.8,34.9 222.2,117.6 127.5,187.1 1521,1702.2 1855.8,1702.2 41.3,0 66.4,-23 71.1,-74.5 42.8,-468.5 -673.5,-1633.8 -387,-1686.8 4.8,-0.9 9.9,-1.3 15.3,-1.3 146.3,0 540.6,311.3 979.1,622.6 438.4,311.3 920.9,622.6 1243.7,622.6 67.3,0 127.7,-13.5 179.3,-43.5 119.3,-69.3 242,-96.4 366.9,-96.4 223.7,0 454.5,86.9 686.4,173.8 231.9,86.8 464.9,173.7 692.8,173.7 8.9,0 17.8,-0.1 26.6,-0.4 539.8,-16.4 571.8,-1154.7 573.3,-1351.7 -515.2,-169.1 -1088.2,-355.2 -1683.7,-545.4 l -3097.6,-950 -2256.2,-107.5"
         style="fill:#a6cbfd;fill-opacity:1;fill-rule:nonzero;stroke:none"
         id="path22" /><path
         d="m 28810.1,7523.8 c 0,0 -7770.8,-1619.4 -8581.6,-1574.9 0,0 573.4,569.7 1289.7,593.6 716.2,23.8 1026.6,700 1862.3,779.7 835.7,79.8 1337.1,-99.3 1683.3,79.8 346.2,179.1 740.2,1050.6 1552,1026.7 696.3,-20.6 962.2,-5.9 1227.2,149.4 212,-308.7 469.7,-575.9 737.7,-835.2 75.9,-73.4 152.6,-146.2 229.4,-219.1"
         style="fill:#80b4ff;fill-opacity:1;fill-rule:nonzero;stroke:none"
         id="path24" /><path
         d="m 13300.5,6671 -11447.17,1953.6 -0.12,0.8 c 7.41,107.3 17.07,215 29.25,323.1 39.04,347.5 103.86,698.4 198.89,1050.1 0,0 1220.8,245.8 1811.74,0 590.94,-245.9 537.22,-639.8 1002.81,-693.5 465.47,-53.8 887.72,-8.9 1237.87,-287.5 350.26,-278.5 875.55,-477.5 1408.71,-445.7 533.27,31.9 1671.34,159.2 2117.11,-199 445.61,-358.1 1329.11,-1138 2093.11,-1126.1 764.1,11.9 1187.7,-191.4 1313.2,-370.1 121.5,-173.1 228.2,-204 234.6,-205.7"
         style="fill:#afcdfb;fill-opacity:1;fill-rule:nonzero;stroke:none"
         id="path26" /><path
         d="m 30326.4,4410 c -7.9,-199 -28.9,-410.7 -64.8,-637.2 -156.7,-987.1 -1007.1,-1714.1 -2006.5,-1713.6 l -5755.6,2.6 -5043.3,2.4 h -151.4 l -1079.7,0.4 h -139.3 l -1030.4,0.4 -176.2,0.1 -1435.7,0.6 -253.1,0.3 -1170.9,0.6 h -174.9 l -143.5,0.1 -2017.99,1 -352.42,0.1 -1647.7,0.7 -243.54,0.1 -2403.76,1.2 c -307.4,0.1 -605.02,67.5 -874.94,191.4 -408.89,187.6 -754.14,505.2 -973.68,916 -405.07,758.2 -892.03,1852.7 -1156.82,3114.5 -53.59,255.4 -98,517.5 -130.84,785.1 -54.08,439.2 -76.64,893.1 -56.94,1355.6 7.4,170.9 20.53,343.1 39.99,516.1 1127.09,15.2 4103.99,-72.3 7647.01,-1198.4 C 14057,6311 18233.2,5386.1 21277.7,6138.3 c 2532.3,625.6 5677.3,1400.3 7532.4,1385.5 102.4,-97.3 205,-194.9 305.6,-294.6 21.6,-21.2 43.1,-42.7 64.5,-64.3 36.8,-37 73.2,-74.4 109.1,-112.2 148.2,-155.1 289.6,-317.4 417.6,-493.2 28.1,-38.1 55.2,-76.9 81.8,-116.3 31.2,-46.4 61.3,-93.8 90.5,-142.3 92.7,-154 174.8,-318.8 242.6,-497.8 146.4,-386.9 226.5,-840 204.6,-1393.1"
         style="fill:#bfe2a8;fill-opacity:1;fill-rule:nonzero;stroke:none"
         id="path28" /><path
         d="m 22365.5,13492.2 -6995.6,71.6 c 0,0 314.1,578.1 1058.2,578.1 41.4,0 84,-1.8 128.1,-5.5 0,0 591.1,522.5 1388.2,522.5 345.4,0 729.5,-98.1 1121,-379.4 0,0 368.5,61.7 865.3,61.7 463.5,0 1038.6,-53.7 1530.7,-261.3 679.6,-286.8 904.1,-587.7 904.1,-587.7"
         style="fill:#f5fafe;fill-opacity:1;fill-rule:nonzero;stroke:none"
         id="path30" /><path
         d="m 16632.1,12017.3 -5925.6,50.3 c 0,0 266,406.7 896.3,406.7 35.1,0 71.1,-1.3 108.5,-3.9 0,0 500.7,367.6 1175.9,367.6 292.6,0 617.9,-69 949.5,-266.9 0,0 312.1,43.4 732.9,43.4 392.6,0 879.8,-37.8 1296.6,-183.8 575.7,-201.8 765.9,-413.4 765.9,-413.4"
         style="fill:#f5fafe;fill-opacity:1;fill-rule:nonzero;stroke:none"
         id="path32" /><path
         d="m 11251.3,14075.6 -4220.56,50.3 c 0,0 189.45,406.7 638.42,406.7 24.96,0 50.66,-1.3 77.24,-3.9 0,0 356.65,367.5 837.54,367.5 208.42,0 440.12,-69 676.34,-266.8 0,0 222.29,43.4 522,43.4 279.62,0 626.62,-37.8 923.52,-183.9 410,-201.7 545.5,-413.3 545.5,-413.3"
         style="fill:#f5fafe;fill-opacity:1;fill-rule:nonzero;stroke:none"
         id="path34" /><path
         d="m 14111.2,6164.7 c 0,0 -4443.69,504.8 -6242.37,1157.5 -1798.69,652.8 -1929.44,460.9 -1493.98,115.2 435.46,-345.8 2946.5,-1162.9 1905.86,-1255.8 -1040.63,-92.8 -2913.47,180.2 -3619.28,-542.1 -705.8,-722.3 -1814.6,-1371.5 0,-1511.7 1814.61,-140.1 7113.57,855.3 7113.57,855.3 l 2336.2,1181.6"
         style="fill:#daed8e;fill-opacity:1;fill-rule:nonzero;stroke:none"
         id="path36" /><path
         d="m 19011.1,6948.3 c 0,0 644.7,-1551.9 716.3,-1599.7 71.7,-47.7 335.2,-108.2 353.1,-179.9 17.9,-71.6 429.7,-1020.6 429.7,-1020.6 l -1575.7,-304.4 -1253.5,734.1 1330.1,2370.5"
         style="fill:#a36f4b;fill-opacity:1;fill-rule:nonzero;stroke:none"
         id="path38" /><path
         d="m 28255.1,2059.2 -4754.5,2.1 -1001.1,0.5 -5043.3,2.4 h -151.4 l -1079.7,0.4 h -139.3 l -1030.4,0.4 -176.2,0.1 -1435.7,0.6 -253.1,0.3 -1170.9,0.6 h -174.9 l -143.5,0.1 -2017.99,1 -352.42,0.1 -1647.7,0.7 -243.54,0.1 -2403.76,1.2 c -307.4,0.1 -605.02,67.5 -874.94,191.4 1285.86,598.8 5201.82,2392.3 8308.25,3493.3 3772.5,1337.1 5921.4,2053.4 6542.1,1193.8 620.8,-859.5 -1647.4,-2674.1 -405.9,-2721.9 1241.6,-47.7 4226.1,334.3 5348.3,119.4 1120,-214.4 1003.3,-643 1311.5,-668.4 1.1,-0.1 1.7,-0.1 1.7,-0.1 310.4,-23.9 2698.1,143.2 2984.6,-286.5 286.5,-429.8 3.8,-1331.6 3.8,-1331.6"
         style="fill:#d8a987;fill-opacity:1;fill-rule:nonzero;stroke:none"
         id="path40" /><path
         d="m 24103.6,12939.1 0.1,0.2 c 321.7,566.5 651.4,1064.5 840.2,1064.5 0.2,0 0.3,0 0.5,0 189.5,-0.8 447.8,-411.3 720.2,-931.6 v -0.2 0 c 0,0 -413.7,323 -509.2,420.3 -15.9,16.1 -32.4,23.1 -49.2,23.1 -84.7,0 -177.6,-176.8 -237.4,-260.5 -9.7,-13.5 -18.2,-19.5 -25.7,-19.5 -47.9,-0.1 -53.9,244.1 -53.9,326.7 0,6 -2.7,8.7 -7.6,8.7 -75.1,0 -678,-631.7 -678,-631.7"
         style="fill:#edf5fe;fill-opacity:1;fill-rule:nonzero;stroke:none"
         id="path42" /><path
         d="m 21522.3,10905.5 c 0,0 489.3,1295.7 744,1255.9 254.7,-39.8 602.8,-627.5 602.8,-627.5 0,0 -354.1,303.1 -419.8,201.7 -65.6,-101.5 -77.6,-302 -191,-201.7 -113.4,100.2 -185,114.6 -244.7,0 -59.7,-114.7 -491.3,-628.4 -491.3,-628.4"
         style="fill:#f8fcff;fill-opacity:1;fill-rule:nonzero;stroke:none"
         id="path44" /><path
         d="m 8947.24,3486.3 c -310.39,-382.1 -2220.5,-501.4 -2160.81,-776 47.87,-220 930.82,-378.7 985.38,-641.8 h -88.82 l -243.54,0.1 -2403.76,1.2 c -307.4,0.1 -605.02,67.5 -874.94,191.4 -408.89,187.6 -754.14,505.2 -973.68,916 -155.68,291.4 -323.53,632.7 -486.24,1014 0,0 814.54,820.5 2820.15,499.5 2005.62,-321 2283.66,511.4 3223.31,252 939.66,-259.4 1181.88,-38.4 1528.11,-252 346.2,-213.6 -1313.22,-571.7 -1492.29,-738.8 -179.07,-167.2 477.53,-83.6 167.13,-465.6"
         style="fill:#509b67;fill-opacity:1;fill-rule:nonzero;stroke:none"
         id="path46" /><path
         d="m 3745.82,4605.9 c 0,0 -409.82,981.1 -22.24,1194.8 387.58,213.6 -43.54,-842.4 122.11,-1234.2 82.03,-194 -99.87,39.4 -99.87,39.4"
         style="fill:#509b67;fill-opacity:1;fill-rule:nonzero;stroke:none"
         id="path48" /><path
         d="m 3556.8,4365.2 c 0,0 -505.16,620 -269.65,861.2 235.52,241.3 147.21,-620.3 350.37,-867.5 100.61,-122.4 -80.72,6.3 -80.72,6.3"
         style="fill:#509b67;fill-opacity:1;fill-rule:nonzero;stroke:none"
         id="path50" /><path
         d="m 3928.78,4421.6 c 0,0 -47.81,973.8 357.77,1040.4 405.58,66.6 -303.89,-715.4 -283.06,-1104.9 10.31,-192.9 -74.71,64.5 -74.71,64.5"
         style="fill:#509b67;fill-opacity:1;fill-rule:nonzero;stroke:none"
         id="path52" /><path
         d="m 5345.01,3439.1 c 0,0 -55.82,587.5 157.53,638 213.34,50.6 -46.91,-611.8 -46.91,-611.8 l -110.62,-26.2"
         style="fill:#82b378;fill-opacity:1;fill-rule:nonzero;stroke:none"
         id="path54" /><path
         d="m 5504.17,3424.3 c 0,0 228.5,462.1 433.52,397.7 205.02,-64.3 -327.22,-431.1 -327.22,-431.1 l -106.3,33.4"
         style="fill:#82b378;fill-opacity:1;fill-rule:nonzero;stroke:none"
         id="path56" /><path
         d="m 5063.35,3406.7 c 0,0 230.81,127.3 429.78,95.5 198.96,-31.8 230.8,-63.7 318.35,-95.5 87.54,-31.9 194.99,-95.5 147.24,-123.4 -47.76,-27.8 -445.7,23.9 -541.2,0 -95.51,-23.9 -595.25,36.1 -354.17,123.4"
         style="fill:#82b378;fill-opacity:1;fill-rule:nonzero;stroke:none"
         id="path58" /><path
         d="m 9586.68,2610.3 c 0,0 267.78,1247.3 640.82,954.8 373.1,-292.4 -422.26,-580.4 -640.82,-954.8"
         style="fill:#82b378;fill-opacity:1;fill-rule:nonzero;stroke:none"
         id="path60" /><path
         d="m 9477.15,2541.7 c 0,0 -122.41,906.3 125.19,950.6 247.61,44.3 -122.03,-676.3 -125.19,-950.6"
         style="fill:#82b378;fill-opacity:1;fill-rule:nonzero;stroke:none"
         id="path62" /><path
         d="m 9224.82,2613.1 c 0,0 213.91,103.8 369.57,94.2 155.66,-9.6 574.61,-59.2 536.31,-142 -38.4,-82.9 -457.58,-11.2 -563.77,-24.7 -106.17,-13.5 -456.82,-5.8 -342.11,72.5"
         style="fill:#82b378;fill-opacity:1;fill-rule:nonzero;stroke:none"
         id="path64" /><path
         d="m 23674.7,3493.3 c 0,0 -7.9,429.8 191,505.4 199,75.6 -171.1,-394 -191,-505.4"
         style="fill:#509b67;fill-opacity:1;fill-rule:nonzero;stroke:none"
         id="path66" /><path
         d="m 23834.5,3554.5 c 0,0 151.9,543.7 430.7,563.9 278.8,20.2 -363.7,-431.2 -430.7,-563.9"
         style="fill:#509b67;fill-opacity:1;fill-rule:nonzero;stroke:none"
         id="path68" /><path
         d="m 5211.46,5413.9 c 80.05,-32.4 366.06,-6.2 375.32,16.6 9.26,22.9 -177.8,240.8 -257.85,273.3 -80.05,32.4 -171.24,-6.2 -203.68,-86.2 -32.44,-80.1 6.16,-171.3 86.21,-203.7"
         style="fill:#509b67;fill-opacity:1;fill-rule:nonzero;stroke:none"
         id="path70" /><path
         d="m 5932.97,5277.4 c -44.93,-73.8 -65.24,-360.3 -44.18,-373.1 21.05,-12.8 266.35,136.6 311.3,210.3 44.94,73.8 21.58,170 -52.18,215 -73.76,44.9 -169.99,21.5 -214.94,-52.2"
         style="fill:#509b67;fill-opacity:1;fill-rule:nonzero;stroke:none"
         id="path72" /><path
         d="m 5547.5,4716.7 c 82.29,-26.3 365.47,21.7 372.97,45.2 7.49,23.5 -195.61,226.5 -277.89,252.8 -82.29,26.2 -170.28,-19.2 -196.54,-101.5 -26.25,-82.2 19.17,-170.2 101.46,-196.5"
         style="fill:#509b67;fill-opacity:1;fill-rule:nonzero;stroke:none"
         id="path74" /><path
         d="m 5964.06,4439.4 c -0.28,6.5 -31.93,655 -386.96,989.8 l 7.55,8 c 358.31,-337.9 390.13,-990.7 390.4,-997.3 l -10.99,-0.5"
         style="fill:#509b67;fill-opacity:1;fill-rule:nonzero;stroke:none"
         id="path76" /><path
         d="m 8233.41,5947.5 c -77.72,-51.6 -386.09,-85.5 -400.81,-63.4 -14.73,22.2 136.23,293.2 213.95,344.8 77.72,51.6 182.56,30.5 234.16,-47.3 51.6,-77.7 30.43,-182.5 -47.3,-234.1"
         style="fill:#509b67;fill-opacity:1;fill-rule:nonzero;stroke:none"
         id="path78" /><path
         d="m 7499.25,5647.3 c 63.47,-68.3 146.76,-367.2 127.24,-385.3 -19.51,-18.1 -311.35,87.1 -374.82,155.5 -63.48,68.3 -59.52,175.2 8.86,238.7 68.37,63.5 175.24,59.5 238.72,-8.9"
         style="fill:#509b67;fill-opacity:1;fill-rule:nonzero;stroke:none"
         id="path80" /><path
         d="m 8028.16,5137.1 c -81.42,-45.5 -391.47,-55.9 -404.47,-32.6 -13,23.2 158.15,281.9 239.57,327.5 81.42,45.5 184.34,16.4 229.88,-65 45.54,-81.4 16.45,-184.3 -64.98,-229.9"
         style="fill:#509b67;fill-opacity:1;fill-rule:nonzero;stroke:none"
         id="path82" /><path
         d="m 7647.11,4753.8 c -1.11,7 -107.49,700 196.03,1130.9 l -9.71,6.9 C 7527.1,5456.7 7634.26,4758.9 7635.38,4751.9 l 11.73,1.9"
         style="fill:#509b67;fill-opacity:1;fill-rule:nonzero;stroke:none"
         id="path84" /><path
         d="m 6697.7,4383.9 -22.78,3.6 c -89.72,1160.8 -444.17,1993.7 -449.14,2005 l 20.74,9 c 4.95,-11.5 362,-849.9 451.18,-2017.6"
         style="fill:#509b67;fill-opacity:1;fill-rule:nonzero;stroke:none"
         id="path86" /><path
         d="m 5985.3,6509.4 c 43.71,-49.6 248.39,-129.2 262.53,-116.7 14.13,12.4 -39.5,225.4 -83.2,274.9 -43.71,49.6 -119.29,54.3 -168.81,10.6 -49.52,-43.7 -54.23,-119.3 -10.52,-168.8"
         style="fill:#ffffff;fill-opacity:1;fill-rule:nonzero;stroke:none"
         id="path88" /><path
         d="m 6298.97,6682 c -39.47,-53 -75.32,-269.7 -60.21,-280.9 15.12,-11.3 212.52,85 252,138 39.47,52.9 28.53,127.8 -24.43,167.3 -52.96,39.5 -127.89,28.6 -167.36,-24.4"
         style="fill:#ffffff;fill-opacity:1;fill-rule:nonzero;stroke:none"
         id="path90" /><path
         d="m 6534.41,6451.6 c -63.72,17.4 -278.52,-28.5 -283.47,-46.7 -4.96,-18.2 156.86,-166.7 220.58,-184.1 63.73,-17.4 129.47,20.2 146.83,84 17.37,63.7 -20.21,129.4 -83.94,146.8"
         style="fill:#ffffff;fill-opacity:1;fill-rule:nonzero;stroke:none"
         id="path92" /><path
         d="m 6389.3,6164.3 c -6.36,65.8 -125.41,250.3 -144.18,248.5 -18.76,-1.8 -100.26,-205.7 -93.9,-271.5 6.35,-65.7 64.8,-113.9 130.55,-107.5 65.74,6.3 113.88,64.8 107.53,130.5"
         style="fill:#ffffff;fill-opacity:1;fill-rule:nonzero;stroke:none"
         id="path94" /><path
         d="m 6063.5,6178.4 c 58.48,30.8 184.45,210.7 175.69,227.4 -8.77,16.7 -228.4,15.1 -286.88,-15.6 -58.48,-30.7 -81,-103 -50.29,-161.5 30.7,-58.4 102.99,-80.9 161.48,-50.3"
         style="fill:#ffffff;fill-opacity:1;fill-rule:nonzero;stroke:none"
         id="path96" /><path
         d="m 6200.29,6412 c 3.43,21.4 23.62,36.1 45.1,32.7 21.48,-3.5 36.11,-23.6 32.7,-45.1 -3.43,-21.5 -23.62,-36.1 -45.1,-32.7 -21.48,3.4 -36.12,23.6 -32.7,45.1"
         style="fill:#f99746;fill-opacity:1;fill-rule:nonzero;stroke:none"
         id="path98" /><path
         d="m 6691.19,5570.7 c -64.99,-80 -135.14,-415.3 -112.32,-433.8 22.8,-18.6 336.74,118.5 401.74,198.4 64.99,79.9 52.89,197.4 -27.04,262.4 -79.92,65 -197.39,52.9 -262.38,-27"
         style="fill:#509b67;fill-opacity:1;fill-rule:nonzero;stroke:none"
         id="path100" /><path
         d="m 8782.93,4307.5 22.78,3.7 c 89.72,1160.7 444.17,1993.7 449.14,2005 l -20.74,8.9 c -4.95,-11.4 -361.99,-849.9 -451.18,-2017.6"
         style="fill:#509b67;fill-opacity:1;fill-rule:nonzero;stroke:none"
         id="path102" /><path
         d="m 9495.33,6433 c -43.71,-49.5 -248.39,-129.2 -262.53,-116.7 -14.13,12.5 39.49,225.5 83.2,275 43.71,49.5 119.29,54.2 168.81,10.5 49.52,-43.7 54.23,-119.3 10.52,-168.8"
         style="fill:#ffffff;fill-opacity:1;fill-rule:nonzero;stroke:none"
         id="path104" /><path
         d="m 9181.66,6605.6 c 39.47,-52.9 75.32,-269.6 60.21,-280.9 -15.12,-11.2 -212.52,85 -252,138 -39.47,53 -28.53,127.9 24.43,167.4 52.96,39.4 127.89,28.5 167.36,-24.5"
         style="fill:#ffffff;fill-opacity:1;fill-rule:nonzero;stroke:none"
         id="path106" /><path
         d="m 8946.22,6375.2 c 63.72,17.4 278.52,-28.5 283.47,-46.7 4.96,-18.1 -156.86,-166.7 -220.58,-184 -63.73,-17.4 -129.47,20.2 -146.83,83.9 -17.37,63.7 20.21,129.5 83.94,146.8"
         style="fill:#ffffff;fill-opacity:1;fill-rule:nonzero;stroke:none"
         id="path108" /><path
         d="m 9091.33,6088 c 6.36,65.7 125.41,250.3 144.18,248.5 18.76,-1.8 100.26,-205.8 93.9,-271.5 -6.35,-65.8 -64.8,-113.9 -130.55,-107.6 -65.74,6.4 -113.88,64.8 -107.53,130.6"
         style="fill:#ffffff;fill-opacity:1;fill-rule:nonzero;stroke:none"
         id="path110" /><path
         d="m 9417.13,6102.1 c -58.48,30.7 -184.45,210.6 -175.69,227.3 8.77,16.7 228.4,15.2 286.88,-15.5 58.48,-30.7 81,-103 50.29,-161.5 -30.7,-58.5 -102.99,-81 -161.48,-50.3"
         style="fill:#ffffff;fill-opacity:1;fill-rule:nonzero;stroke:none"
         id="path112" /><path
         d="m 9280.34,6335.6 c -3.43,21.5 -23.61,36.1 -45.1,32.7 -21.48,-3.4 -36.11,-23.6 -32.69,-45.1 3.42,-21.5 23.61,-36.1 45.09,-32.7 21.48,3.4 36.12,23.6 32.7,45.1"
         style="fill:#f99746;fill-opacity:1;fill-rule:nonzero;stroke:none"
         id="path114" /><path
         d="m 8789.44,5494.3 c 64.99,-79.9 135.14,-415.2 112.33,-433.8 -22.81,-18.5 -336.75,118.5 -401.74,198.4 -65,80 -52.9,197.4 27.03,262.4 79.92,65 197.39,52.9 262.38,-27"
         style="fill:#509b67;fill-opacity:1;fill-rule:nonzero;stroke:none"
         id="path116" /><path
         d="m 21833.7,4662.7 c 104.8,-46.2 485.2,-23 498.4,6.9 13.2,29.9 -226,326.5 -330.9,372.8 -104.8,46.2 -227.3,-1.2 -273.5,-106.1 -46.3,-104.8 1.2,-227.3 106,-273.6"
         style="fill:#509b67;fill-opacity:1;fill-rule:nonzero;stroke:none"
         id="path118" /><path
         d="m 22784.9,4452.5 c -62.6,-96 -101.1,-475.1 -73.7,-492.9 27.4,-17.9 358.7,170.3 421.3,266.2 62.6,96 35.5,224.6 -60.5,287.1 -96,62.6 -224.5,35.6 -287.1,-60.4"
         style="fill:#509b67;fill-opacity:1;fill-rule:nonzero;stroke:none"
         id="path120" /><path
         d="m 22251,3724.7 c 108.1,-38.2 485.5,13.9 496.4,44.7 10.9,30.9 -250.2,308.4 -358.2,346.5 -108.1,38.2 -226.6,-18.5 -264.7,-126.5 -38.2,-108.1 18.5,-226.6 126.5,-264.7"
         style="fill:#509b67;fill-opacity:1;fill-rule:nonzero;stroke:none"
         id="path122" /><path
         d="m 22792.1,3340.1 c -0.1,8.7 -15.7,869.7 -472.9,1328.1 l 10.3,10.3 c 461.4,-462.6 477.1,-1329.5 477.2,-1338.2 l -14.6,-0.2"
         style="fill:#509b67;fill-opacity:1;fill-rule:nonzero;stroke:none"
         id="path124" /><path
         d="m 23497.1,3314.5 -19.9,3.1 c -78.5,1015.9 -388.8,1744.9 -393.1,1754.8 l 18.1,7.8 c 4.4,-10 316.9,-743.8 394.9,-1765.7"
         style="fill:#509b67;fill-opacity:1;fill-rule:nonzero;stroke:none"
         id="path126" /><path
         d="m 22873.6,5174.6 c 38.3,-43.3 217.4,-113 229.8,-102.1 12.4,10.9 -34.6,197.3 -72.8,240.6 -38.3,43.4 -104.4,47.5 -147.8,9.2 -43.3,-38.2 -47.4,-104.4 -9.2,-147.7"
         style="fill:#ffffff;fill-opacity:1;fill-rule:nonzero;stroke:none"
         id="path128" /><path
         d="m 23148.1,5325.7 c -34.5,-46.4 -65.9,-236 -52.6,-245.9 13.2,-9.8 186,74.4 220.5,120.8 34.5,46.3 25,111.9 -21.4,146.5 -46.3,34.5 -111.9,24.9 -146.5,-21.4"
         style="fill:#ffffff;fill-opacity:1;fill-rule:nonzero;stroke:none"
         id="path130" /><path
         d="m 23354.2,5124.1 c -55.8,15.1 -243.8,-25 -248.1,-40.9 -4.3,-15.9 137.3,-145.9 193.1,-161.1 55.7,-15.2 113.3,17.7 128.5,73.4 15.2,55.8 -17.7,113.3 -73.5,128.6"
         style="fill:#ffffff;fill-opacity:1;fill-rule:nonzero;stroke:none"
         id="path132" /><path
         d="m 23227.2,4872.6 c -5.6,57.6 -109.7,219.1 -126.2,217.5 -16.4,-1.6 -87.7,-180.1 -82.2,-237.6 5.6,-57.5 56.8,-99.7 114.3,-94.1 57.5,5.5 99.7,56.7 94.1,114.2"
         style="fill:#ffffff;fill-opacity:1;fill-rule:nonzero;stroke:none"
         id="path134" /><path
         d="m 22942.1,4885 c 51.2,26.9 161.4,184.3 153.7,198.9 -7.6,14.7 -199.9,13.3 -251,-13.6 -51.2,-26.8 -70.9,-90.1 -44,-141.3 26.8,-51.2 90.1,-70.9 141.3,-44"
         style="fill:#ffffff;fill-opacity:1;fill-rule:nonzero;stroke:none"
         id="path136" /><path
         d="m 23061.8,5089.4 c 3,18.8 20.7,31.6 39.5,28.6 18.8,-3 31.6,-20.7 28.6,-39.5 -3,-18.8 -20.7,-31.6 -39.5,-28.6 -18.8,3 -31.6,20.7 -28.6,39.5"
         style="fill:#f99746;fill-opacity:1;fill-rule:nonzero;stroke:none"
         id="path138" /><path
         d="m 23491.4,4353.1 c -56.9,-70 -118.3,-363.4 -98.3,-379.6 20,-16.3 294.7,103.7 351.6,173.6 56.9,70 46.3,172.8 -23.7,229.6 -69.9,56.9 -172.7,46.3 -229.6,-23.6"
         style="fill:#509b67;fill-opacity:1;fill-rule:nonzero;stroke:none"
         id="path140" /><path
         d="m 28255.1,2059.2 -4754.5,2.1 c 24,226.6 454.4,341.1 414.5,564.7 -51.2,286.5 -2169.3,394 -1319.3,759.5 834.9,359 2605.8,294.3 2669.2,291.9 1.1,-0.1 1.7,-0.1 1.7,-0.1 310.4,-23.9 2698.1,143.2 2984.6,-286.5 286.5,-429.8 3.8,-1331.6 3.8,-1331.6"
         style="fill:#509b67;fill-opacity:1;fill-rule:nonzero;stroke:none"
         id="path142" /><path
         d="m 14159.9,4662.6 c 0,0 29.2,-455.8 117.4,-462.1 11.8,-0.9 447.3,0.1 447.3,0.1 l 556,4.4 c 0,0 -3.9,134 -166.5,162 -162.6,27.9 -434.9,141.5 -533.8,356.1 -104.1,225.8 -420.4,-60.5 -420.4,-60.5"
         style="fill:#af5919;fill-opacity:1;fill-rule:nonzero;stroke:none"
         id="path144" /><path
         d="m 16989.3,5048.9 c 0,0 84.9,-448.7 173.2,-444.2 11.8,0.6 443.9,54.9 443.9,54.9 l 551.3,72.5 c 0,0 -20.3,132.5 -185.1,140.3 -164.8,7.8 -448.9,87.2 -573.4,288.1 -130.9,211.3 -409.9,-111.6 -409.9,-111.6"
         style="fill:#af5919;fill-opacity:1;fill-rule:nonzero;stroke:none"
         id="path146" /><path
         d="m 16003.4,9565.5 c 0,0 -143.4,-930.4 -682.3,-2582.5 -538.9,-1652.2 -611.2,-2367.3 -611.2,-2367.3 l -582,15.1 c 0,0 -8.9,1804.3 239.3,2635.1 248.2,830.7 47.4,2993.1 47.4,2993.1 l 1588.8,-693.5"
         style="fill:#163560;fill-opacity:1;fill-rule:nonzero;stroke:none"
         id="path148" /><path
         d="m 16161.3,10410 c 0,0 792.3,-1600 993.8,-2866.6 201.6,-1266.6 360.2,-2425.5 360.2,-2425.5 0,0 -194.7,-71.6 -559.5,-103.2 0,0 -617.4,1839 -682.9,2297 -65.5,458 -1905.4,2289 -1761.8,2740.9 143.7,452 1650.2,357.4 1650.2,357.4"
         style="fill:#1c468a;fill-opacity:1;fill-rule:nonzero;stroke:none"
         id="path150" /><path
         d="m 15013.3,13496.4 c 0,0 -818.2,-785.5 -857.4,-1108.9 -39.1,-323.4 397,-828.2 397,-828.2 l 460.4,1937.1"
         style="fill:#ed7d2b;fill-opacity:1;fill-rule:nonzero;stroke:none"
         id="path152" /><path
         d="m 15153.8,13489.4 309.8,-202.2 447.1,84.3 c -6.3,36.1 -36.2,185.7 -63.3,321.1 -1.7,8 -3.3,16 -4.9,23.8 -23.2,115.3 -43.3,214.3 -43.3,214.3 l -418.1,183.4 -155.9,68.4 c 0.4,-2.5 12.4,-128 14,-146.3 29.9,-325.4 -85.4,-546.8 -85.4,-546.8"
         style="fill:#ffb27d;fill-opacity:1;fill-rule:nonzero;stroke:none"
         id="path154" /><path
         d="m 15795.6,13593.2 c -8.6,3.6 -538.8,158.8 -596.4,139.7 -57.5,-19.1 -91.3,-130.6 -91.3,-130.6 l 867.1,-194 c 0,0 -68.5,138.5 -179.4,184.9"
         style="fill:#ed7d2b;fill-opacity:1;fill-rule:nonzero;stroke:none"
         id="path156" /><path
         d="m 14376.6,10034.9 c 90.7,-409.5 1585.5,-454.8 1970,-82.1 43.7,42.5 45.5,239.8 28.4,505.6 -33.5,519.5 -139,1300.8 -143.9,1700.1 -2.4,192.8 -29.4,390 -65,569 -76,381.5 -191.1,680.8 -191.1,680.8 0,0 -730.6,234.4 -867.1,194 -657.7,-194.8 -822,-3157.8 -731.3,-3567.4"
         style="fill:#f99746;fill-opacity:1;fill-rule:nonzero;stroke:none"
         id="path158" /><path
         d="m 16375,10458.4 c -33.5,519.5 -51.6,1377.3 -56.5,1776.6 -2.4,192.8 -116.8,313.5 -152.4,492.5 l -439.4,76.6 c 0,0 -425.6,-1754.8 648.3,-2345.7"
         style="fill:#ed7d2b;fill-opacity:1;fill-rule:nonzero;stroke:none"
         id="path160" /><path
         d="m 15586.5,11073 c 0,0 497.6,434.8 683.7,709.8 l 140.6,-95 c 0,0 -392.3,-656.6 -767.3,-829.7 -375,-173.1 -57,214.9 -57,214.9"
         style="fill:#163560;fill-opacity:1;fill-rule:nonzero;stroke:none"
         id="path162" /><path
         d="m 15270.6,14030.5 c 92,-155.2 434.1,-288.8 576.8,-337.9 -1.7,8 -3.3,16 -4.9,23.8 -23.2,115.3 -43.3,214.3 -43.3,214.3 l -418.1,183.4 c -92.3,1.1 -148.5,-19.7 -110.5,-83.6"
         style="fill:#fca56b;fill-opacity:1;fill-rule:nonzero;stroke:none"
         id="path164" /><path
         d="m 15941.1,13975.6 c 0,0 -634.6,-306.6 -819.4,91.6 -184.9,398.1 -391.3,626.7 6,839.3 397.4,212.6 547.2,97.4 641.3,-20.4 94,-117.9 332.4,-820.4 172.1,-910.5"
         style="fill:#ffb27d;fill-opacity:1;fill-rule:nonzero;stroke:none"
         id="path166" /><path
         d="m 15736.9,14922.3 c 0,0 29.6,-490.9 -73.7,-484.8 -103.4,6.2 -196.6,8.2 -160.2,-135.7 36.4,-143.9 200.5,-291.9 -104.5,-363.6 -305,-71.8 -867.5,658.6 -805.1,822 180.1,471.6 1418.3,745.6 1143.5,162.1"
         style="fill:#163560;fill-opacity:1;fill-rule:nonzero;stroke:none"
         id="path168" /><path
         d="m 14715,11779 c 0,0 -75.9,-9.2 -82.8,-80.6 -7,-71.4 -54.9,-940.6 -11.4,-963.6 43.4,-23 224.1,-13.7 234.6,0 10.5,13.7 49.6,967.6 23.3,1025.1 0,0 -88.1,34.2 -163.7,19.1"
         style="fill:#163560;fill-opacity:1;fill-rule:nonzero;stroke:none"
         id="path170" /><path
         d="m 16379.3,10787.4 c 0,0 104.8,-77.8 126.8,-162.1 35.7,-136.6 12.9,-264.4 -121.1,-315.7 -49.4,-19 -56.2,98.4 -92.8,148.8 -36.6,50.5 -167.3,78.4 -137.4,155.1 29.9,76.8 88.4,226.9 88.4,226.9 l 136.1,-53"
         style="fill:#ffb27d;fill-opacity:1;fill-rule:nonzero;stroke:none"
         id="path172" /><path
         d="m 16204.9,10742.1 c 0,0 -82.9,-91.1 -91.4,-149.8 -8.6,-58.6 -12,-149.3 -13.9,-188 -1.9,-38.7 17.6,-70.7 53.4,-7.7 35.8,63.1 66.6,146.9 90.9,146.8 24.4,-0.1 -39,198.7 -39,198.7"
         style="fill:#ffb27d;fill-opacity:1;fill-rule:nonzero;stroke:none"
         id="path174" /><path
         d="m 15630.7,13511.9 c 0,0 520.3,-92 921.8,-680.9 401.5,-588.9 550.2,-965.5 476.9,-1178.2 -73.3,-212.7 -439,-872.2 -512.8,-961.5 -63.2,-76.4 -246.4,-70.9 -366.2,-19.3 0,0 232.2,981.3 138.8,1087.3 -39.9,45.3 -554.9,480.2 -636.4,269.4 -134.9,-348.8 -22.1,1483.2 -22.1,1483.2"
         style="fill:#f99746;fill-opacity:1;fill-rule:nonzero;stroke:none"
         id="path176" /><path
         d="m 16075.2,13311.5 c 0,0 -85.3,150.6 -287.4,180.7 -202,30.1 -324.2,-205 -324.2,-205 l 151.1,-57.4 c 0,0 97.2,178.5 185.1,178.5 110.9,0 200.6,-37.7 275.4,-96.8"
         style="fill:#163560;fill-opacity:1;fill-rule:nonzero;stroke:none"
         id="path178" /><path
         d="m 15747.7,12589.5 c 0,0 -210.4,2.8 -480.1,9.1 -474.2,10.9 -1131.6,32.2 -1148.5,66.6 -26.4,54.1 8.7,655.8 170.8,699.3 14.1,3.8 34.3,6.9 59.4,9.3 261.8,25.1 1062,-22.4 1246.7,-81.8 202.1,-65.2 151.7,-702.5 151.7,-702.5"
         style="fill:#163560;fill-opacity:1;fill-rule:nonzero;stroke:none"
         id="path180" /><path
         d="m 15267.6,12598.6 c -474.2,10.9 -1131.6,32.2 -1148.5,66.6 -26.4,54.1 8.7,655.8 170.8,699.3 14.1,3.8 34.3,6.9 59.4,9.3 309.7,-13.4 653,-45.4 765.9,-81.8 188,-60.6 157.7,-615.4 152.4,-693.4"
         style="fill:#1c468a;fill-opacity:1;fill-rule:nonzero;stroke:none"
         id="path182" /><path
         d="m 15747.7,12589.5 c 0,0 -1624.3,161.4 -1905.6,67.5 -281.3,-93.8 -281.3,-2010.2 -193.4,-2142.1 87.9,-131.8 1683.6,-254.3 1909.9,-184.3 226.3,70 189.1,2258.9 189.1,2258.9"
         style="fill:#1c468a;fill-opacity:1;fill-rule:nonzero;stroke:none"
         id="path184" /><path
         d="m 15267.9,12631.8 c 0,0 -222.4,-20.3 -242.8,-178.5 -20.4,-158.3 -160.8,-2084.8 -33.5,-2135.8 127.4,-50.9 657,-30.3 687.8,0 30.7,30.4 145.4,2144.6 68.3,2272 0,0 -258.3,75.7 -479.8,42.3"
         style="fill:#163560;fill-opacity:1;fill-rule:nonzero;stroke:none"
         id="path186" /><path
         d="m 14260.7,13156.9 c 0,0 -51.8,-267.3 15,-308 66.9,-40.7 229.4,-52.3 269.8,-4.6 40.3,47.7 31.6,307.2 31.6,307.2 l -316.4,5.4"
         style="fill:#163560;fill-opacity:1;fill-rule:nonzero;stroke:none"
         id="path188" /><path
         d="m 14260.7,13156.9 c 0,0 22.6,-108.1 149.4,-110.3 126.7,-2.1 167,104.9 167,104.9 0,0 -172,77.8 -316.4,5.4"
         style="fill:#29589b;fill-opacity:1;fill-rule:nonzero;stroke:none"
         id="path190" /><path
         d="m 14387.2,13088.8 c 0.2,13 11,23.4 24,23.2 13,-0.2 23.4,-11 23.2,-24 -0.2,-13.1 -11,-23.5 -24,-23.2 -13.1,0.2 -23.5,10.9 -23.2,24"
         style="fill:#f99746;fill-opacity:1;fill-rule:nonzero;stroke:none"
         id="path192" /><path
         d="m 14739.1,13124.4 c 0,0 -68.8,-263.4 -4.7,-308.4 64.1,-44.9 225.5,-66.8 268.9,-21.8 43.3,44.9 51.2,304.5 51.2,304.5 l -315.4,25.7"
         style="fill:#163560;fill-opacity:1;fill-rule:nonzero;stroke:none"
         id="path194" /><path
         d="m 14739.1,13124.4 c 0,0 15.7,-109.4 142,-119.6 126.4,-10.3 173.4,93.9 173.4,93.9 0,0 -166.6,88.6 -315.4,25.7"
         style="fill:#29589b;fill-opacity:1;fill-rule:nonzero;stroke:none"
         id="path196" /><path
         d="m 14861,13048.3 c 1,13 12.4,22.7 25.4,21.6 13,-1 22.7,-12.4 21.7,-25.5 -1.1,-13 -12.5,-22.6 -25.5,-21.6 -13,1.1 -22.7,12.5 -21.6,25.5"
         style="fill:#f99746;fill-opacity:1;fill-rule:nonzero;stroke:none"
         id="path198" /><path
         d="m 13811.3,12431.3 c 0,0 -70.3,-248.3 -30.7,-313.2 39.5,-64.8 931.8,-108.8 988.9,-56 57.2,52.7 66,338.4 66,338.4 l -1024.2,30.8"
         style="fill:#163560;fill-opacity:1;fill-rule:nonzero;stroke:none"
         id="path200" /><path
         d="m 13811.3,12431.3 c 0,0 122,-153.9 430.2,-158.2 308.3,-4.4 594,127.4 594,127.4 0,0 -720.9,127.5 -1024.2,30.8"
         style="fill:#29589b;fill-opacity:1;fill-rule:nonzero;stroke:none"
         id="path202" /><path
         d="m 14193.7,12331.3 c 0,14.6 11.9,26.4 26.4,26.4 14.6,0 26.4,-11.8 26.4,-26.4 0,-14.6 -11.8,-26.4 -26.4,-26.4 -14.5,0 -26.4,11.8 -26.4,26.4"
         style="fill:#f99746;fill-opacity:1;fill-rule:nonzero;stroke:none"
         id="path204" /><path
         d="m 14591.2,11789.2 c 0,0 -737,31.4 -779.9,0 -42.8,-31.5 -59.3,-1046.8 -26.3,-1096.3 32.9,-49.4 778,-72.5 778,-72.5 l 28.2,1168.8"
         style="fill:#29589b;fill-opacity:1;fill-rule:nonzero;stroke:none"
         id="path206" /><path
         d="m 30326.4,4410 c -451.6,22 -1131.3,56.9 -1717,95 -978.9,63.7 -549.1,366.1 -95.5,796 453.7,430 -1408.7,190.9 -2793.5,95 -1384.8,-95.8 -3462.1,-47.4 -2722.2,551.9 739.9,599.4 6117.5,1281.3 6117.5,1281.3 21.6,-21.2 43.1,-42.7 64.5,-64.3 36.8,-37 73.2,-74.4 109.1,-112.2 148.2,-155.1 289.6,-317.4 417.6,-493.2 28.1,-38.1 55.2,-76.9 81.8,-116.3 31.2,-46.4 61.3,-93.8 90.5,-142.3 92.7,-154 174.8,-318.8 242.6,-497.8 146.4,-386.9 226.5,-840 204.6,-1393.1"
         style="fill:#daed8e;fill-opacity:1;fill-rule:nonzero;stroke:none"
         id="path208" /><path
         d="m 4412.05,7688.5 c -454.97,0 -1190.13,-23.9 -965.8,-167.1 224.31,-143.3 415.32,-358.2 -348.72,-382 -755.33,-23.7 -1188.33,-61.8 -1198.12,-62.6 -54.08,439.2 -76.64,893.1 -56.94,1355.6 0,0 707.57,201.6 1137.35,0 429.77,-201.7 738.5,-39.5 1072.76,-254.4 334.28,-214.9 1038.63,-238.8 1181.89,-358.2 143.25,-119.4 -367.58,-131.3 -822.42,-131.3"
         style="fill:#82b378;fill-opacity:1;fill-rule:nonzero;stroke:none"
         id="path210" /><path
         d="m 21987.8,2778.8 33.5,569.4 c 0,0 -286.5,238.4 -327.5,254.8 -40.9,16.4 -659.4,111 -659.4,111 l 26.7,-534.8 193.7,-388.6 733,-11.8"
         style="fill:#edc5a2;fill-opacity:1;fill-rule:nonzero;stroke:none"
         id="path212" /><path
         d="m 20579.1,2797.6 c 0,0 -40,414.6 -18.7,459.9 21.3,45.4 409.5,469.6 474,456.5 64.4,-13.1 419.8,-145.8 482.1,-196 62.2,-50.2 206.8,-442.6 204.4,-483.4 -2.4,-40.8 -14.8,-251.2 -14.8,-251.2 l -1127,14.2"
         style="fill:#f9ddbf;fill-opacity:1;fill-rule:nonzero;stroke:none"
         id="path214" /><path
         d="m 21029.9,2645.5 4.4,244.5 c 0.7,38.3 -16.9,74.6 -47.5,97.6 -66.1,49.8 -178.5,133.2 -199.8,140.7 -19.2,6.8 -205.4,29.3 -342.2,45.2 -75.4,8.7 -139.7,-54.1 -132.9,-129.7 l 20.2,-221.3 c 1.5,-16.4 6.3,-32.3 14.3,-46.8 l 107,-194.4 c 21.5,-39.1 63.1,-63 107.7,-61.9 l 352.2,8.7 c 64,1.6 115.5,53.4 116.6,117.4"
         style="fill:#edc5a2;fill-opacity:1;fill-rule:nonzero;stroke:none"
         id="path216" /><path
         d="m 20099.7,2505.6 c -62,-1.8 -114.9,44.1 -122.2,105.7 -10.7,90.7 -22.4,208.5 -13.8,228.9 14.3,34 388.2,337.7 436,329.9 47.8,-7.7 212.1,-74.6 259.4,-109.7 47.3,-35 165.4,-319.2 164.8,-349.3 l -1.2,-71 c -1.2,-63.9 -52.4,-115.6 -116.3,-117.4 l -606.7,-17.1"
         style="fill:#f9ddbf;fill-opacity:1;fill-rule:nonzero;stroke:none"
         id="path218" /><path
         d="m 11167.4,4117.9 -3.7,206.7 c -0.6,32.4 14.3,63.1 40.2,82.6 55.9,42.1 151,112.6 169,118.9 16.2,5.8 173.6,24.8 289.3,38.2 63.8,7.4 118.2,-45.7 112.4,-109.6 l -17,-187.1 c -1.3,-13.9 -5.4,-27.4 -12.1,-39.7 l -90.5,-164.3 c -18.2,-33.1 -53.4,-53.3 -91.1,-52.4 l -297.8,7.4 c -54.2,1.3 -97.7,45.1 -98.7,99.3"
         style="fill:#edc5a2;fill-opacity:1;fill-rule:nonzero;stroke:none"
         id="path220" /><path
         d="m 11954.1,3999.5 c 52.4,-1.5 97.2,37.3 103.3,89.4 9.1,76.8 18.9,176.4 11.7,193.6 -12.1,28.8 -328.3,285.5 -368.7,279 -40.4,-6.5 -179.4,-63.1 -219.4,-92.8 -40,-29.6 -139.8,-270 -139.4,-295.4 l 1.1,-60 c 1,-54.1 44.3,-97.8 98.3,-99.3 l 513.1,-14.5"
         style="fill:#f9ddbf;fill-opacity:1;fill-rule:nonzero;stroke:none"
         id="path222" /><path
         d="m 10322,3965.9 -2,112.4 c -0.4,17.6 7.7,34.3 21.8,44.9 30.4,22.9 82.1,61.3 91.9,64.7 8.8,3.1 94.4,13.5 157.4,20.8 34.6,4 64.2,-24.9 61.1,-59.6 l -9.3,-101.8 c -0.7,-7.5 -2.9,-14.9 -6.6,-21.5 l -49.2,-89.4 c -9.9,-18 -29,-29 -49.5,-28.5 l -162,4 c -29.4,0.7 -53.1,24.6 -53.6,54"
         style="fill:#edc5a2;fill-opacity:1;fill-rule:nonzero;stroke:none"
         id="path224" /><path
         d="m 10749.8,3901.6 c 28.5,-0.8 52.8,20.2 56.2,48.6 4.9,41.7 10.2,95.9 6.3,105.3 -6.6,15.6 -178.5,155.2 -200.5,151.7 -22,-3.6 -97.5,-34.3 -119.3,-50.5 -21.7,-16.1 -76,-146.8 -75.8,-160.6 l 0.6,-32.7 c 0.5,-29.4 24.1,-53.1 53.5,-54 l 279,-7.8"
         style="fill:#f9ddbf;fill-opacity:1;fill-rule:nonzero;stroke:none"
         id="path226" /><path
         d="m 18717.7,3600.6 -2,112.3 c -0.4,17.7 7.7,34.4 21.8,45 30.4,22.9 82.1,61.2 91.9,64.7 8.8,3.1 94.4,13.4 157.3,20.7 34.7,4.1 64.3,-24.8 61.2,-59.6 l -9.3,-101.7 c -0.7,-7.6 -2.9,-14.9 -6.6,-21.6 l -49.2,-89.4 c -9.9,-18 -29,-29 -49.5,-28.5 l -162,4 c -29.4,0.8 -53.1,24.6 -53.6,54.1"
         style="fill:#edc5a2;fill-opacity:1;fill-rule:nonzero;stroke:none"
         id="path228" /><path
         d="m 19145.4,3536.2 c 28.5,-0.8 52.9,20.3 56.2,48.6 5,41.7 10.3,95.9 6.4,105.3 -6.6,15.6 -178.5,155.2 -200.5,151.7 -22,-3.5 -97.5,-34.3 -119.3,-50.4 -21.7,-16.2 -76,-146.9 -75.8,-160.7 l 0.6,-32.6 c 0.5,-29.4 24.1,-53.2 53.5,-54 l 278.9,-7.9"
         style="fill:#f9ddbf;fill-opacity:1;fill-rule:nonzero;stroke:none"
         id="path230" /><path
         d="m 8063.31,2416.2 -2.03,112.3 c -0.32,17.7 7.79,34.4 21.87,45 30.39,22.8 82.07,61.2 91.89,64.7 8.8,3.1 94.42,13.4 157.33,20.7 34.69,4.1 64.28,-24.8 61.11,-59.6 l -9.25,-101.8 c -0.69,-7.5 -2.94,-14.8 -6.59,-21.5 l -49.2,-89.4 c -9.9,-18 -29.02,-29 -49.56,-28.5 l -161.92,4 c -29.46,0.8 -53.12,24.6 -53.65,54.1"
         style="fill:#edc5a2;fill-opacity:1;fill-rule:nonzero;stroke:none"
         id="path232" /><path
         d="m 8491.08,2351.8 c 28.5,-0.8 52.86,20.3 56.2,48.6 4.91,41.7 10.28,95.9 6.33,105.3 -6.58,15.6 -178.51,155.2 -200.48,151.7 -21.98,-3.6 -97.54,-34.3 -119.29,-50.4 -21.75,-16.2 -76.05,-146.9 -75.8,-160.7 l 0.59,-32.6 c 0.53,-29.4 24.07,-53.2 53.45,-54.1 l 279,-7.8"
         style="fill:#f9ddbf;fill-opacity:1;fill-rule:nonzero;stroke:none"
         id="path234" /><path
         d="m 10653.8,4294 -1.4,78.3 c -0.2,12.3 5.4,23.9 15.2,31.3 21.2,16 57.2,42.7 64,45.1 6.2,2.1 65.8,9.3 109.6,14.4 24.2,2.9 44.8,-17.3 42.6,-41.5 l -6.4,-70.9 c -0.5,-5.2 -2.1,-10.3 -4.6,-15 l -34.3,-62.2 c -6.9,-12.6 -20.2,-20.2 -34.5,-19.9 l -112.8,2.8 c -20.5,0.5 -37,17.1 -37.4,37.6"
         style="fill:#edc5a2;fill-opacity:1;fill-rule:nonzero;stroke:none"
         id="path236" /><path
         d="m 10951.8,4249.2 c 19.8,-0.5 36.8,14.1 39.1,33.9 3.4,29 7.2,66.8 4.4,73.3 -4.5,10.9 -124.3,108.1 -139.6,105.7 -15.3,-2.5 -68,-23.9 -83.1,-35.2 -15.1,-11.2 -53,-102.2 -52.8,-111.9 l 0.4,-22.7 c 0.4,-20.5 16.8,-37 37.2,-37.6 l 194.4,-5.5"
         style="fill:#f9ddbf;fill-opacity:1;fill-rule:nonzero;stroke:none"
         id="path238" /></g></g></svg>
