<?xml version="1.0" encoding="UTF-8" standalone="no"?>
<!-- Created with Inkscape (http://www.inkscape.org/) -->

<svg
   version="1.1"
   id="svg2"
   xml:space="preserve"
   width="3680"
   height="2453.3333"
   viewBox="0 0 3680 2453.3333"
   sodipodi:docname="Happy woman riding plane or aircraft flat vector illustration.eps"
   xmlns:inkscape="http://www.inkscape.org/namespaces/inkscape"
   xmlns:sodipodi="http://sodipodi.sourceforge.net/DTD/sodipodi-0.dtd"
   xmlns="http://www.w3.org/2000/svg"
   xmlns:svg="http://www.w3.org/2000/svg"><defs
     id="defs6" /><sodipodi:namedview
     id="namedview4"
     pagecolor="#ffffff"
     bordercolor="#666666"
     borderopacity="1.0"
     inkscape:pageshadow="2"
     inkscape:pageopacity="0.0"
     inkscape:pagecheckerboard="0" /><g
     id="g8"
     inkscape:groupmode="layer"
     inkscape:label="ink_ext_XXXXXX"
     transform="matrix(1.3333333,0,0,-1.3333333,0,2453.3333)"><g
       id="g10"
       transform="scale(0.1)"><path
         d="M 27600,0 H 0 V 18400 H 27600 V 0"
         style="fill:#ffffff;fill-opacity:1;fill-rule:nonzero;stroke:none"
         id="path12" /><path
         d="m 10535.6,13054.5 c 198.4,-278.2 515.3,-494.8 853.2,-556.2 29.9,-5.4 42.7,40.3 12.6,45.7 -325.5,59.2 -633.4,265.9 -824.8,534.4 -17.6,24.7 -58.8,1 -41,-23.9 v 0"
         style="fill:#8a80ee;fill-opacity:1;fill-rule:nonzero;stroke:none"
         id="path14" /><path
         d="m 22141,13662.5 h -5469.6 c 0,0 71.9,537.3 634.6,537.3 562.8,0 572,-379.4 1012.7,294.2 440.7,673.6 1322.2,459.1 1682.8,-126 360.6,-585.1 684.9,330.2 1394.6,74.2 505.8,-182.4 744.9,-779.7 744.9,-779.7"
         style="fill:#f1f0ff;fill-opacity:1;fill-rule:nonzero;stroke:none"
         id="path16" /><path
         d="M 9794.43,11754.5 H 3079.28 c 0,0 88.21,659.6 779.12,659.6 690.91,0 702.23,-465.7 1243.32,361.2 541.09,827 1623.26,563.6 2065.97,-154.7 442.71,-718.3 840.88,405.5 1712.19,91.2 621.03,-224 914.55,-957.3 914.55,-957.3"
         style="fill:#f1f0ff;fill-opacity:1;fill-rule:nonzero;stroke:none"
         id="path18" /><path
         d="m 9146.08,3599.4 h -4085.1 c 0,0 53.66,401.3 473.97,401.3 420.31,0 427.2,-283.3 756.36,219.8 329.17,503 987.5,342.8 1256.82,-94.2 269.31,-436.9 511.53,246.7 1041.59,55.5 377.8,-136.3 556.36,-582.4 556.36,-582.4"
         style="fill:#f1f0ff;fill-opacity:1;fill-rule:nonzero;stroke:none"
         id="path20" /><path
         d="M 24002,1083.4 H 6480.47 c 0,0 230.16,1721.1 2032.93,1721.1 1802.8,0 1832.3,-1215.2 3244.1,942.6 1411.9,2157.7 4235.6,1470.5 5390.7,-403.8 1155.1,-1874.2 2194.1,1058 4467.5,237.9 C 23236.2,2996.8 24002,1083.4 24002,1083.4"
         style="fill:#f1f0ff;fill-opacity:1;fill-rule:nonzero;stroke:none"
         id="path22" /><path
         d="m 24002,7176 h -4595.8 c 0,0 60.4,537.8 533.2,537.8 472.9,0 480.6,-379.7 851,294.6 370.3,674.22 1110.9,459.48 1413.9,-126.2 303,-585.6 575.5,330.6 1171.8,74.4 425.1,-182.7 625.9,-780.6 625.9,-780.6"
         style="fill:#f1f0ff;fill-opacity:1;fill-rule:nonzero;stroke:none"
         id="path24" /><path
         d="m 19592.2,1735.3 c -131.4,610.2 -367.5,1181.4 -688.9,1693.9 -128.4,204.9 -270.3,400.4 -424.7,585.2 -974.1,1166.4 -2439.3,1908.6 -4078,1908.6 -1614.4,0 -3060.4,-720.4 -4034.2,-1857.1 -184.2,-215 -351.4,-444.8 -499.84,-687.5 C 9451.17,2699 9184.27,1918.9 9110.84,1083.4 H 19690.5 c -19.3,221.5 -52.4,439 -98.3,651.9"
         style="fill:#f2efff;fill-opacity:1;fill-rule:nonzero;stroke:none"
         id="path26" /><path
         d="M 19690.5,1083.4 H 9110.84 c 73.43,835.5 340.33,1615.6 755.72,2295 l 868.24,1076.1 c 0,0 643.3,-2035.8 4334.5,-1997.8 2442.8,25.1 3439.3,591.9 3834,972.5 321.4,-512.5 557.5,-1083.7 688.9,-1693.9 45.9,-212.9 79,-430.4 98.3,-651.9"
         style="fill:#e1ddf8;fill-opacity:1;fill-rule:nonzero;stroke:none"
         id="path28" /><path
         d="m 19592.3,1735.3 c -14.1,-21.3 -35.9,-33.2 -58.2,-27.8 -27.8,6.9 -37.8,36.2 -48.7,63 -60.6,148.9 -179.4,257.8 -310.3,284.3 -43.4,8.7 -93,6.7 -121.8,-38.9 -16.7,-26.5 -18.9,-64.8 -1.8,-90.9 23.9,-36.4 57.1,-13.9 85.2,-25 23.1,-9.3 37,-38.3 48.7,-65 40.8,-92.8 81.7,-185.7 122.4,-278.6 39.2,-89.1 79.3,-182 84.8,-283.7 3.5,-65.6 -8,-130.2 -30.5,-189.3 h -6167.3 c 34.7,45.5 72.4,87.7 109.9,126.1 55.3,56.7 116.9,124.3 117.3,214.4 0.3,32.3 -8,64.1 -8.9,96.5 -2.3,68.5 31.3,136.8 81,164.7 0,0 37.5,60.6 136.9,26.5 100.3,-34.3 202.2,3.8 300.8,45.6 98.4,42 232.4,46.5 279.6,-70.5 15.7,-38.9 18.4,-86 39,-121.2 35.4,-60.2 105.8,-60.8 157.3,-98.4 37.1,-27 63.2,-73 98.1,-104.4 35,-31.7 88.4,-44.6 117.7,-5 15.9,21.5 20.6,53.6 36.9,74.7 22.2,28.7 57.9,29 89.5,27.6 203.2,-8.4 406.7,1.1 608.7,28.5 65.2,8.9 146.9,39.7 149.6,125.1 1.6,44.2 -20.6,83.7 -52.1,103.6 -64.4,40.8 -131.9,14.7 -198.7,15.4 -116.9,1 -231.4,89.2 -282.3,223.3 -12.5,33.1 -40.9,53.7 -69.7,48.1 -61.1,-11.8 -42.8,-111.5 -71.2,-168.9 -31.3,-62.8 -108.6,-53.2 -157.5,-12.2 -151.6,127.3 -164.8,445.6 -376.6,477.4 -56.4,8.3 -113.1,-8.5 -163.7,-40.6 -141.6,-90 -221.2,-261.7 -330.7,-395 -55.8,-68.3 -128.2,-129.3 -205.5,-117.2 -123.4,19.3 -173.1,262.9 -72.6,355.3 72.5,66.6 200.6,74.6 209.6,187.5 4.2,51.8 -23.8,101.2 -20.3,153.2 3.3,48.8 33.2,87.3 61.7,120.5 181.2,210.9 382.6,391.9 576,584.7 6.5,127 -215.6,9 -239.2,164.8 -6.7,44.8 9,90.5 37.1,119.2 251.3,255.9 552.4,552.8 876.1,479.1 68.9,-15.8 147.2,-68.4 147.8,-156.7 0.5,-48.1 -23.8,-96.4 19.1,-141.5 19.5,-20.7 45.1,-30.4 70.6,-29.3 210.7,9.4 378.6,225.3 585,259.4 121.2,20.1 269.8,-12 343.6,111.2 19.4,32.4 32.5,74.6 61.6,91.6 39.3,22.9 76.3,-10.5 113.3,-49.7 43,-45.5 108.2,-24.4 130,40.9 24.7,73.7 96.9,141.7 161.1,177.8 171.7,96.6 353.2,195.4 540.2,171.8 252.2,-31.7 468.2,-281.8 721.7,-282 89.6,0 180.3,31.7 267.6,6.6 52.2,-14.9 99.6,-49.2 150.3,-70.3 45.4,-18.7 91.5,-26.4 138.1,-27.2 540.5,-647.2 929.8,-1425 1113.7,-2279.1"
         style="fill:#b4d287;fill-opacity:1;fill-rule:nonzero;stroke:none"
         id="path30" /><path
         d="m 11582.1,2752.6 c -2.6,-91.2 -56.9,-190.1 -129,-183 -33.6,3.4 -63.5,28.7 -96.6,37.6 -73.1,19.6 -152.2,-60.5 -153.1,-154.9 -0.3,-30.9 6.5,-62.4 -0.2,-92.2 -11.3,-49.6 -56,-75.2 -96.8,-77.7 -40.8,-2.7 -81.2,11 -122.2,9.2 -64.4,-2.8 -123.5,-43.3 -180,-82.8 -116.9,-81.8 -240.3,-172.2 -300.4,-323 -41.5,-104.7 -50.3,-233.5 -116.1,-315.9 -105.5,-131.8 -315.1,-89.7 -385.1,-255.1 -34.12,-80.8 -32.17,-220.8 -104.16,-231.4 h -787.6 c 99.62,1133.9 555.58,2165.7 1255.56,2982.5 116,-17.9 228.6,-82 346.2,-82.2 86.1,-0.1 171.6,34.1 257.3,23.2 35.4,-4.6 73.3,-19.6 92.5,-57.5 42.7,-83.8 -35.9,-180.8 -104,-231.1 -145.2,-107.3 -295.4,-216.8 -462.3,-245.2 -53.9,-9.1 -111.1,-10.7 -157.4,-46.8 -67,-52.3 -89.6,-177.9 -47,-261.7 51.2,-100.8 163.6,-118.9 231,-202.8 18,-22.2 33,-49.2 55.4,-63.6 55.2,-35.6 118.1,22.4 162.9,76.6 56.2,67.8 113.4,137.7 147.1,226 22.5,59.1 35.5,128.2 76,169.3 43.8,44.5 105.7,42.1 161.8,37.4 136.2,-11.1 294.7,-39.4 361.8,-189.4 27,-60.7 33.7,-131.9 47.5,-199.4 18.2,-88.4 49.5,-174.8 46.9,-266.1"
         style="fill:#b4d287;fill-opacity:1;fill-rule:nonzero;stroke:none"
         id="path32" /><path
         d="m 13517.6,4502.7 c -7.8,12.3 -21.3,16 -33.7,18.1 -124.1,20.9 -249.9,-40.3 -374.2,-21.7 -150.6,22.7 -297.9,132.4 -440.5,67.2 -55.3,-25.2 -123.6,-15.1 -123.6,-15.1 -102.6,-10.6 -205.9,21.9 -308.2,7.9 -70.3,-9.7 -137.5,-40.9 -203.9,-72 -94.1,-44 -188.2,-87.9 -282.3,-131.9 54.4,-52.1 128.6,-49.6 196.3,-61.1 67.6,-11.6 144.5,-54.6 155.5,-139.7 11.7,-90.2 -57,-163.2 -78.2,-250.6 -12.5,-51.5 -8,-106.8 -3.3,-160.4 7.2,-82.3 14.3,-164.5 21.5,-246.8 5.7,-65.7 17,-142.1 63.7,-171.9 53.7,-34.3 117.9,17.5 153.2,79.1 35.3,61.5 58.8,137 107.8,180.9 56.7,50.7 133.1,46.6 197.3,80.1 73.9,38.7 126.2,124.2 196.1,173.5 131.1,92.2 295.2,41.9 441.5,83.7 19.5,5.5 40.1,13.9 52,34.2 31.3,53.1 -20.5,121.1 -28.2,186.5 -9.5,80.4 50.9,146.5 110.1,178.1 59.3,31.6 127.2,49.4 170,110 14.1,19.9 24.4,51.2 11.1,71.9"
         style="fill:#b4d287;fill-opacity:1;fill-rule:nonzero;stroke:none"
         id="path34" /><path
         d="m 18406.7,4796.1 c -430.7,0 -779.9,349.2 -779.9,780 0,430.7 349.2,779.8 779.9,779.8 430.7,0 780,-349.1 780,-779.8 0,-430.8 -349.3,-780 -780,-780 z m 0,2070.6 c -755.3,0 -1367.5,-612.2 -1367.5,-1367.4 0,-755.3 612.2,-2197.3 1367.5,-2197.3 755.3,0 1367.5,1442 1367.5,2197.3 0,755.2 -612.2,1367.4 -1367.5,1367.4"
         style="fill:#e84a3c;fill-opacity:1;fill-rule:nonzero;stroke:none"
         id="path36" /><path
         d="m 18626.2,4796.1 c -430.7,0 -779.9,349.2 -779.9,780 0,430.7 349.2,779.8 779.9,779.8 430.7,0 780,-349.1 780,-779.8 0,-430.8 -349.3,-780 -780,-780 z m 0,2070.6 c -755.2,0 -1367.4,-612.2 -1367.4,-1367.4 0,-755.3 612.2,-2197.3 1367.4,-2197.3 755.3,0 1367.6,1442 1367.6,2197.3 0,755.2 -612.3,1367.4 -1367.6,1367.4"
         style="fill:#ff6a51;fill-opacity:1;fill-rule:nonzero;stroke:none"
         id="path38" /><path
         d="m 13693.2,2553.2 c -274.8,0 -497.5,222.7 -497.5,497.6 0,274.7 222.7,497.5 497.5,497.5 274.8,0 497.6,-222.8 497.6,-497.5 0,-274.9 -222.8,-497.6 -497.6,-497.6 z m 0,1320.9 c -481.8,0 -872.3,-390.5 -872.3,-872.3 0,-481.8 390.5,-1401.7 872.3,-1401.7 481.8,0 872.4,919.9 872.4,1401.7 0,481.8 -390.6,872.3 -872.4,872.3"
         style="fill:#e84a3c;fill-opacity:1;fill-rule:nonzero;stroke:none"
         id="path40" /><path
         d="m 13833.3,2553.2 c -274.8,0 -497.6,222.7 -497.6,497.6 0,274.7 222.8,497.5 497.6,497.5 274.7,0 497.5,-222.8 497.5,-497.5 0,-274.9 -222.8,-497.6 -497.5,-497.6 z m 0,1320.9 c -481.9,0 -872.4,-390.5 -872.4,-872.3 0,-481.8 390.5,-1401.7 872.4,-1401.7 481.8,0 872.4,919.9 872.4,1401.7 0,481.8 -390.6,872.3 -872.4,872.3"
         style="fill:#ff6a51;fill-opacity:1;fill-rule:nonzero;stroke:none"
         id="path42" /><path
         d="m 10421.5,4454.5 c -197.5,0 -357.6,160.1 -357.6,357.7 0,197.5 160.1,357.6 357.6,357.6 197.5,0 357.7,-160.1 357.7,-357.6 0,-197.6 -160.2,-357.7 -357.7,-357.7 z m 0,949.6 c -346.3,0 -627.07,-280.8 -627.07,-627.1 0,-346.4 280.77,-1007.6 627.07,-1007.6 346.3,0 627.1,661.2 627.1,1007.6 0,346.3 -280.8,627.1 -627.1,627.1"
         style="fill:#e84a3c;fill-opacity:1;fill-rule:nonzero;stroke:none"
         id="path44" /><path
         d="m 10522.2,4454.5 c -197.5,0 -357.6,160.1 -357.6,357.7 0,197.5 160.1,357.6 357.6,357.6 197.5,0 357.6,-160.1 357.6,-357.6 0,-197.6 -160.1,-357.7 -357.6,-357.7 z m 0,949.6 c -346.4,0 -627.09,-280.8 -627.09,-627.1 0,-346.4 280.69,-1007.6 627.09,-1007.6 346.3,0 627.1,661.2 627.1,1007.6 0,346.3 -280.8,627.1 -627.1,627.1"
         style="fill:#ff6a51;fill-opacity:1;fill-rule:nonzero;stroke:none"
         id="path46" /><path
         d="m 17494.3,8257 c -245.7,405.06 -930.7,1573.05 -1039.9,2172.8 -133.6,733 557,1655.6 771.4,769.5 51.3,-212 98.4,-431.2 136.5,-649.1 122,-697.43 370.8,-1378.41 543,-1796.97 14.4,-38.24 63.8,-99.41 171.3,-212.1 180.2,-189.03 420.4,-372.23 593.7,-462.33 40.6,-21.1 -485.3,-141.5 -888.1,-52.8 -96.4,21.3 -285.6,146.1 -382.2,128.6 -38.1,-6.9 105,74.1 94.3,102.4"
         style="fill:#fbc7b1;fill-opacity:1;fill-rule:nonzero;stroke:none"
         id="path48" /><path
         d="m 18737.2,8022.3 c 25.2,5 37.6,-33.2 12.3,-38.2 -231.1,-45.7 -465.2,-37.8 -698.3,-12.8 -239.6,25.7 -477.9,59.8 -718.5,76.9 -25.5,1.8 -27.4,42 -1.7,40.1 229.2,-16.3 456.6,-46.9 684.8,-73 240,-27.4 483,-40.1 721.4,7"
         style="fill:#353659;fill-opacity:1;fill-rule:nonzero;stroke:none"
         id="path50" /><path
         d="M 17372.8,8460.57 C 17748.7,8249.5 17782.2,8026 17782.2,8026 l -414.1,39.6 c -100,126.1 4.7,394.97 4.7,394.97"
         style="fill:#353659;fill-opacity:1;fill-rule:nonzero;stroke:none"
         id="path52" /><path
         d="m 18427.8,8263.6 c 72.1,-28.1 135.5,-76 263.6,-130.7 100.4,-42.8 158.6,-134 -94,-153.7 -252.7,-19.6 -519.4,17.1 -519.4,17.1 0,0 226.3,315.2 349.8,267.3"
         style="fill:#353659;fill-opacity:1;fill-rule:nonzero;stroke:none"
         id="path54" /><path
         d="m 14453.6,12262 c 0,0 2183.4,-208.5 2642.2,-718.2 l -802.9,-710.5 c 0,0 -1513.4,-1 -1697,66 -183.5,66.9 -461,1311.2 -142.3,1362.7"
         style="fill:#fbc7b1;fill-opacity:1;fill-rule:nonzero;stroke:none"
         id="path56" /><path
         d="m 14600.8,12582.2 c 0,0 265.6,-210.3 556.6,-311.5 291,-101.2 470.9,-157.5 403.6,-168.7 -379.5,-63.3 -430.5,-299.4 -430.5,-299.4 l -498.1,132.9 -409.9,563.8 104.8,255.1 273.5,-172.2"
         style="fill:#ff6a51;fill-opacity:1;fill-rule:nonzero;stroke:none"
         id="path58" /><path
         d="m 14879.3,13142.6 c 262.9,-435.7 580.1,-594.5 822.6,-796 172.9,-143.5 1074.8,-784 1074.8,-784 l 544,233.7 c 0,0 -1006.3,865 -1290.4,1208.1 -238.1,287.7 -600.9,996.9 -873.9,1353.7 -149.8,195.8 -738.4,354.5 -738.4,354.5 0,0 355.9,-1395.4 461.3,-1570"
         style="fill:#ffbf61;fill-opacity:1;fill-rule:nonzero;stroke:none"
         id="path60" /><path
         d="m 11830.6,7897.8 -81.1,-845.6 c 0,0 1601.7,-230.5 2322.7,-38.7 130.9,34.8 216.8,179.8 203.9,339.8 l -87.2,1082.51 c -13.3,165.71 -128.6,297.87 -268.7,307.58 -467.8,32.4 -1494.1,66.58 -2100.6,-191.83 l 11,-653.76"
         style="fill:#f2efff;fill-opacity:1;fill-rule:nonzero;stroke:none"
         id="path62" /><path
         d="m 22888,10268.6 c -331.7,-427.72 -1183.2,-994.26 -1962.5,-1128.99 -833,-144.12 -6664,-727.55 -8697.1,-929.01 -462.8,-46 -932,-9.7 -1397.9,107.6 L 6430.45,9426.82 c -149.72,37.76 -292.52,127.04 -416.72,258.17 -95.83,101.14 -180.65,227.05 -249.06,373.31 -111.87,239.4 -193.65,471.1 -97.63,482.7 0,0 13434.26,1617.5 14199.36,1630.4 687.9,11.8 1407.3,-219.7 2062.4,-672.9 73.1,-50.5 145.5,-103.8 217.1,-160 0,0 50.6,-21.5 127.8,-59.4 237.6,-117.2 726.1,-391.5 756.6,-679.9 9.3,-87.8 -43.4,-203 -142.3,-330.6"
         style="fill:#f2efff;fill-opacity:1;fill-rule:nonzero;stroke:none"
         id="path64" /><path
         d="m 9391.14,10978.5 -933.84,324.9 c -579.8,201.7 -1122.31,638.5 -1564.76,1259.8 l -1382.37,1941.1 c -55.41,77.9 -129.6,117.3 -202.01,107.6 l -387.62,-52.3 c -83.57,-11.3 -129.29,-140.4 -90.82,-256.5 l 1233.25,-3721.6 3328.17,397"
         style="fill:#ff6a51;fill-opacity:1;fill-rule:nonzero;stroke:none"
         id="path66" /><path
         d="M 14062.1,11536.7 12367,11338 c 0,0 -919.6,991.8 -1268.3,1528.4 -44,67.5 -78.8,127.7 -101.6,177.9 -41.8,91.8 -91.3,231.4 -142.9,393.6 -186.2,585.8 -402.3,1467.4 -402.3,1467.4 -4.2,13.9 1.8,28.6 11.5,29.5 l 156.7,14.6 c 60.3,5.7 120.5,-39.1 155.8,-116.7 132.7,-290.6 462.3,-1010.4 638.4,-1371.4 58.2,-119.9 99.5,-200 110.9,-211.8 5,-5 29.2,-22.8 69,-50.9 408.1,-287.1 2467.9,-1661.9 2467.9,-1661.9"
         style="fill:#e1ddf8;fill-opacity:1;fill-rule:nonzero;stroke:none"
         id="path68" /><path
         d="m 22273.6,11279 -196.4,-182.7 -54.5,-50.6 -274.3,-254.9 c -21.2,-19.8 -46.9,-31.7 -74.5,-35 -12.7,-1.6 -25.7,-1.5 -38.9,0.7 l -69,11.1 -620.2,99.7 c -65.9,10.6 -122.1,73.9 -134.8,151.7 l -22.7,139.7 c -6.1,37.2 13.7,69.9 44.5,73.5 l 506.2,59.5 33.7,4 44.7,18.3 260.5,106.7 57.5,23.6 166.3,68.1 27,-13.8 c 73.2,-50.6 145.6,-103.9 217.1,-160.1 0,0 50.7,-21.4 127.8,-59.5"
         style="fill:#c1b2ff;fill-opacity:1;fill-rule:nonzero;stroke:none"
         id="path70" /><path
         d="m 21277.7,11433 361.3,-834.1 89.6,37.9 -376.3,819.1 -74.6,-22.9"
         style="fill:#f2efff;fill-opacity:1;fill-rule:nonzero;stroke:none"
         id="path72" /><path
         d="m 21583.4,11523.4 498.6,-542.3 43.2,66.4 -500.5,509.4 -41.3,-33.5"
         style="fill:#f2efff;fill-opacity:1;fill-rule:nonzero;stroke:none"
         id="path74" /><path
         d="m 12269.1,9659 -223.7,-22.61 c -41,-4.13 -77.6,23.37 -81.9,61.43 l -45.1,402.68 c -4.2,38.1 25.5,72.3 66.4,76.4 l 223.8,22.6 c 40.9,4.2 77.5,-23.3 81.8,-61.4 l 45.1,-402.69 c 4.3,-38.06 -25.5,-72.27 -66.4,-76.41"
         style="fill:#c1b2ff;fill-opacity:1;fill-rule:nonzero;stroke:none"
         id="path76" /><path
         d="m 12946.6,9727.46 -223.7,-22.61 c -40.9,-4.13 -77.6,23.37 -81.8,61.44 l -45.2,402.71 c -4.2,38 25.5,72.2 66.4,76.4 l 223.8,22.6 c 40.9,4.1 77.5,-23.4 81.8,-61.4 l 45.1,-402.73 c 4.3,-38.06 -25.4,-72.27 -66.4,-76.41"
         style="fill:#c1b2ff;fill-opacity:1;fill-rule:nonzero;stroke:none"
         id="path78" /><path
         d="m 13624.2,9795.93 -223.8,-22.61 c -40.9,-4.14 -77.6,23.36 -81.8,61.43 l -45.1,402.65 c -4.3,38.1 25.4,72.3 66.4,76.4 l 223.7,22.6 c 40.9,4.2 77.6,-23.3 81.8,-61.4 l 45.1,-402.66 c 4.3,-38.07 -25.4,-72.28 -66.3,-76.41"
         style="fill:#c1b2ff;fill-opacity:1;fill-rule:nonzero;stroke:none"
         id="path80" /><path
         d="m 14301.7,9864.39 -223.8,-22.61 c -40.9,-4.14 -77.5,23.37 -81.8,61.43 l -45.1,402.69 c -4.3,38 25.4,72.3 66.4,76.4 l 223.7,22.6 c 41,4.1 77.6,-23.4 81.9,-61.4 l 45.1,-402.7 c 4.2,-38.07 -25.5,-72.28 -66.4,-76.41"
         style="fill:#c1b2ff;fill-opacity:1;fill-rule:nonzero;stroke:none"
         id="path82" /><path
         d="m 14979.2,9932.85 -223.8,-22.61 c -40.9,-4.14 -77.5,23.37 -81.8,61.43 l -45.1,402.73 c -4.3,38 25.5,72.2 66.4,76.4 l 223.7,22.6 c 41,4.1 77.6,-23.4 81.9,-61.5 l 45.1,-402.6 c 4.3,-38.11 -25.5,-72.31 -66.4,-76.45"
         style="fill:#c1b2ff;fill-opacity:1;fill-rule:nonzero;stroke:none"
         id="path84" /><path
         d="m 15656.7,10001.3 -223.7,-22.6 c -41,-4.13 -77.6,23.4 -81.9,61.4 l -45.1,402.7 c -4.2,38.1 25.5,72.3 66.4,76.4 l 223.8,22.6 c 40.9,4.2 77.5,-23.3 81.8,-61.4 l 45.1,-402.7 c 4.3,-38 -25.4,-72.3 -66.4,-76.4"
         style="fill:#c1b2ff;fill-opacity:1;fill-rule:nonzero;stroke:none"
         id="path86" /><path
         d="m 16334.2,10069.8 -223.7,-22.6 c -40.9,-4.2 -77.6,23.3 -81.8,61.4 l -45.1,402.7 c -4.3,38 25.4,72.3 66.3,76.4 l 223.8,22.6 c 40.9,4.1 77.6,-23.4 81.8,-61.4 l 45.1,-402.7 c 4.3,-38.1 -25.4,-72.3 -66.4,-76.4"
         style="fill:#c1b2ff;fill-opacity:1;fill-rule:nonzero;stroke:none"
         id="path88" /><path
         d="m 17011.8,10138.2 -223.8,-22.6 c -40.9,-4.1 -77.6,23.4 -81.8,61.5 l -45.1,402.6 c -4.3,38.1 25.4,72.3 66.4,76.5 l 223.7,22.6 c 40.9,4.1 77.6,-23.4 81.8,-61.5 l 45.2,-402.6 c 4.2,-38.1 -25.5,-72.3 -66.4,-76.5"
         style="fill:#c1b2ff;fill-opacity:1;fill-rule:nonzero;stroke:none"
         id="path90" /><path
         d="m 22888,10268.6 c -331.7,-427.72 -1183.2,-994.26 -1962.5,-1128.99 -833,-144.12 -6664,-727.55 -8697.1,-929.01 -462.8,-46 -932,-9.7 -1397.9,107.6 L 6430.45,9426.82 c -149.72,37.76 -292.52,127.04 -416.72,258.17 l 1670.85,382.41 c 0,0 795.77,-1022.95 4185.92,-1178.09 3390.2,-155.13 10078,556.67 11017.2,1379.09 0.1,0.1 0.2,0.2 0.3,0.2"
         style="fill:#e1ddf8;fill-opacity:1;fill-rule:nonzero;stroke:none"
         id="path92" /><path
         d="m 7684.54,10067.3 -2736,-907.28 c -10.87,-3.6 -22.01,-5.76 -33.3,-6.43 l -461.62,-27.67 c -13.15,-0.79 -18.43,26.44 -6.5,33.5 l 1530.28,904.28 c 8.23,4.9 16.84,8.3 25.74,10.4 164.92,37.8 1789.41,400.9 1681.4,-6.8"
         style="fill:#ff6a51;fill-opacity:1;fill-rule:nonzero;stroke:none"
         id="path94" /><path
         d="m 16424.7,9512.85 c 89.9,5.04 134.2,-106.93 57.9,-146.54 -1319,-685.08 -6247,-3234.51 -6605.98,-3271.61 -414.77,-42.9 -1483.39,183.3 -1483.39,183.3 0,0 3071.57,2224.71 3285.57,2395.52 66.3,52.87 -26.1,261.84 -93.8,404.21 -37.9,79.76 15.7,164.48 106.8,169.59 l 4732.9,265.53"
         style="fill:#c1b2ff;fill-opacity:1;fill-rule:nonzero;stroke:none"
         id="path96" /><path
         d="m 9951.75,6120.3 c 0,0 -399.14,-78.5 -621.23,226.5 -175.77,241.3 -881.49,1240.8 -1168.2,1647.2 -76.62,108.6 -191.62,167.9 -308.61,159.4 l -299.19,-21.8 c 0,0 798.05,-1950.3 851.26,-2049.8 124.71,-233.3 809.88,-317.7 1545.97,38.5"
         style="fill:#ff6a51;fill-opacity:1;fill-rule:nonzero;stroke:none"
         id="path98" /><path
         d="m 14497.1,8658.13 c 101.4,462.74 410.6,1781.07 745,2290.77 408.7,623 1545,815 1089.3,25.4 -109,-188.9 -226,-380.2 -348.7,-564.2 -392.5,-589.29 -681.9,-1254.03 -845.7,-1675.96 -15.9,-37.65 -22.3,-116.02 -22.2,-271.73 0.2,-261.21 47.9,-559.51 111.3,-744.21 14.9,-43.3 -449.1,232.1 -679.7,574.1 -55.2,81.9 -106.1,302.75 -188.1,356.65 -32.4,21.25 127.1,-18.71 138.8,9.18"
         style="fill:#fbc7b1;fill-opacity:1;fill-rule:nonzero;stroke:none"
         id="path100" /><path
         d="m 15235.6,7631.1 c 21.6,-13.7 4.3,-49.9 -17.4,-36.1 -199,126.3 -363.1,293.3 -514.7,472.2 -155.8,183.8 -304.9,372.84 -467.3,551.12 -17.3,18.91 9,49.29 26.4,30.23 154.7,-169.88 298.4,-348.75 445.6,-525.05 154.9,-185.3 322.2,-362.1 527.4,-492.4"
         style="fill:#353659;fill-opacity:1;fill-rule:nonzero;stroke:none"
         id="path102" /><path
         d="m 14549.5,8889.34 c 126.7,-412.02 -3.1,-597.04 -3.1,-597.04 l -272.6,314.2 c 14.5,160.29 275.7,282.84 275.7,282.84"
         style="fill:#353659;fill-opacity:1;fill-rule:nonzero;stroke:none"
         id="path104" /><path
         d="m 15177.8,8019.3 c 32.9,-70.1 45.8,-148.5 100.9,-276.5 43.2,-100.2 22.4,-206.4 -174.1,-46.5 -196.6,160.1 -364.5,370.5 -364.5,370.5 0,0 381.4,72.3 437.7,-47.5"
         style="fill:#353659;fill-opacity:1;fill-rule:nonzero;stroke:none"
         id="path106" /><path
         d="m 13766,12140.4 c 0,0 2179.1,-228.8 2638,-738.5 l -798.6,-690.2 c 0,0 -1513.5,-1 -1697,65.9 -183.5,67 -461.1,1311.3 -142.4,1362.8"
         style="fill:#fbc7b1;fill-opacity:1;fill-rule:nonzero;stroke:none"
         id="path108" /><path
         d="m 13417.9,12672.4 c 0,0 -798.4,-828.5 -540.3,-1475.8 258.1,-647.4 1226.7,-580.7 1461.9,-525.7 235.2,54.9 78.5,1131.7 848,1245.3 108,16 -687,356.4 -734.9,583.1 -47.9,226.8 -284.7,207.2 -284.7,207.2 l -750,-34.1"
         style="fill:#ff6a51;fill-opacity:1;fill-rule:nonzero;stroke:none"
         id="path110" /><path
         d="m 13971.8,15553.5 c 0,0 -367.2,-404.1 -1154.3,14.6 -787.1,418.8 -1132.3,-613.6 -1132.3,-613.6 0,0 68.9,-342.2 224.5,-476 0,0 197.1,94.3 305.1,81 0,0 -200.9,-62.2 -249.4,-184.3 0,0 147.6,-358.9 513.7,-434.7 366,-75.8 1601.8,656.2 1601.8,656.2 l 466.6,551.6 -575.7,405.2"
         style="fill:#262f36;fill-opacity:1;fill-rule:nonzero;stroke:none"
         id="path112" /><path
         d="m 15070.1,15646.4 c 0,0 125.3,402.5 -220.3,497.2 -319.7,87.6 220.3,-497.2 220.3,-497.2"
         style="fill:#262f36;fill-opacity:1;fill-rule:nonzero;stroke:none"
         id="path114" /><path
         d="m 11770.8,14711.4 c 149.9,324.1 477.6,551.2 835.6,568.6 196.6,9.5 389.7,-36.9 582,-69.8 160.8,-27.5 330.2,-52.4 484.2,16.7 156.1,70.1 270.7,209.5 329.2,368.2 3.5,9.6 -11,16.6 -14.6,6.9 -61.2,-166 -185.5,-312.3 -354.7,-374 -185.9,-67.7 -397,-10.2 -584.3,23.9 -175.4,31.9 -355.4,61.5 -533.7,35.6 -150.3,-21.9 -294.5,-80.7 -419.3,-167 -146.8,-101.6 -264.1,-240.2 -339,-402.1 -4.4,-9.5 10.2,-16.4 14.6,-7 v 0"
         style="fill:#45515a;fill-opacity:1;fill-rule:nonzero;stroke:none"
         id="path116" /><path
         d="m 12880.6,14696.9 c 0,0 -352.8,-1285.2 -178.5,-1614.4 174.3,-329.1 854,-291.3 981.5,-140.6 127.5,150.8 -130.6,1605.3 -130.6,1605.3 l -672.4,149.7"
         style="fill:#8a80ee;fill-opacity:1;fill-rule:nonzero;stroke:none"
         id="path118" /><path
         d="m 15120.8,13495.4 c -63.7,-296.6 -261.5,-797 -331,-968.6 -15.2,-37.5 -49,-63.4 -89.1,-68.5 -291.4,-37.1 -1467.9,-162.8 -1444,228.9 0,0 236.2,958.3 71.3,1577.2 -135.6,509.2 700.1,544.3 1021.3,469.6 677.6,-157.5 861.8,-818 771.5,-1238.6"
         style="fill:#ffbf61;fill-opacity:1;fill-rule:nonzero;stroke:none"
         id="path120" /><path
         d="m 14750.2,14599 c -14.7,-3.2 455.1,-825.4 194.8,-1669.3 v 0 c 0,0 433.2,827.3 -24.5,1600.3 0,0 -115.4,80.9 -170.3,69"
         style="fill:#8a80ee;fill-opacity:1;fill-rule:nonzero;stroke:none"
         id="path122" /><path
         d="m 14169.9,14845.1 c 181.4,345.2 239.9,537.4 240.2,538.2 l 114.9,-95 23.7,-19.6 205.6,-169.9 c 0,0 -4.5,-16.1 -11.4,-42.1 -9.9,-38.1 -24.9,-97.3 -38,-158.7 -16.8,-79 -30.7,-161.7 -27.2,-207.4 5.2,-66.5 97.7,-257.4 -193,-188.7 -303.4,71.8 -361,255.4 -314.8,343.2"
         style="fill:#fbc7b1;fill-opacity:1;fill-rule:nonzero;stroke:none"
         id="path124" /><path
         d="m 14529.6,15262.6 c 0,0 7.9,-11.6 20.9,-30 42.2,-60.3 138.1,-194.6 185.5,-240.6 -12.2,-45.7 -30.8,-116.8 -47.6,-190.5 -53.9,50.2 -217.6,225.4 -160.9,453 0.7,2.7 1.3,5.3 2.1,8.1"
         style="fill:#fc9171;fill-opacity:1;fill-rule:nonzero;stroke:none"
         id="path126" /><path
         d="m 14222,15375.1 c -298.6,909.6 530.7,756 749.9,520.3 219.3,-235.7 384,-936 -43.2,-973.5 -427.3,-37.5 -706.7,453.2 -706.7,453.2"
         style="fill:#fbc7b1;fill-opacity:1;fill-rule:nonzero;stroke:none"
         id="path128" /><path
         d="m 14711.3,14940.1 c -133.5,46.3 -251.4,124 -346.6,228.4 -5,5.5 3.8,12.9 8.7,7.5 94,-103 210.1,-179.4 341.8,-225.1 7,-2.4 3.1,-13.2 -3.9,-10.8"
         style="fill:#fc9171;fill-opacity:1;fill-rule:nonzero;stroke:none"
         id="path130" /><path
         d="m 14967.2,15445.3 c 19.2,-39.7 6.5,-41.9 -28.3,-60.5 -6.5,-3.5 -10.7,7.2 -4.2,10.7 9.3,5 28.7,19.2 29.7,30 0.8,9.9 -16.7,31.3 -22.4,40.7 -10.9,18.3 -23,35.8 -34,54.1 -16.3,27.2 -34.6,57.1 -36.6,89.6 -2.8,46.3 34.6,77 78.7,75 7.4,-0.3 5.6,-11.7 -1.7,-11.3 -89.8,4.1 -64.6,-87.1 -38.7,-133.2 18.1,-32.2 41.5,-61.8 57.5,-95.1"
         style="fill:#c56146;fill-opacity:1;fill-rule:nonzero;stroke:none"
         id="path132" /><path
         d="m 14643.8,15614.8 c -9,18.1 5.9,51.5 37,67 31.2,15.4 66.8,7.2 75.8,-10.9 9,-18.1 -14.3,-34.5 -45.5,-50 -31.1,-15.5 -58.3,-24.2 -67.3,-6.1"
         style="fill:#c56146;fill-opacity:1;fill-rule:nonzero;stroke:none"
         id="path134" /><path
         d="m 14882.6,15718.1 c -6,19.2 14,49.8 47.3,60.1 33.2,10.3 67,-3.6 73,-22.8 6,-19.3 -19.7,-31.8 -52.9,-42.1 -33.2,-10.3 -61.5,-14.5 -67.4,4.8"
         style="fill:#c56146;fill-opacity:1;fill-rule:nonzero;stroke:none"
         id="path136" /><path
         d="m 14742.5,15494.9 c -7.9,22.1 -1.7,44.6 13.8,50.1 15.5,5.6 34.4,-7.9 42.3,-30.1 8,-22.2 1.8,-44.6 -13.7,-50.1 -15.5,-5.6 -34.5,7.9 -42.4,30.1"
         style="fill:#262f36;fill-opacity:1;fill-rule:nonzero;stroke:none"
         id="path138" /><path
         d="m 14973.8,15579.5 c -7.9,22.2 -1.8,44.7 13.7,50.2 15.5,5.5 34.5,-8 42.4,-30.1 7.9,-22.2 1.8,-44.7 -13.7,-50.2 -15.5,-5.5 -34.5,8 -42.4,30.1"
         style="fill:#262f36;fill-opacity:1;fill-rule:nonzero;stroke:none"
         id="path140" /><path
         d="m 15045.9,15306 c -5.1,-17.3 -13.2,-38.8 -24.5,-52.5 -15.8,-19.3 -39.4,-35 -74.9,-37.2 -39.3,-2.4 -68,9.9 -88.6,26.6 -12.3,9.9 -23.6,26.4 -32.1,41 -3.2,5.7 -2.9,11.9 -0.1,16.8 3.2,5.6 9.4,9.4 16.7,8.5 1.8,-0.2 3.7,-0.5 5.6,-0.7 0.8,-0.1 1.7,-0.2 2.6,-0.3 2.8,-0.3 5.7,-0.6 8.6,-0.8 1.2,-0.2 2.4,-0.3 3.6,-0.4 9.6,-0.8 20.2,-1.5 31.6,-1.7 3.7,-0.1 7.5,-0.1 11.3,-0.1 1.9,0 3.8,0 5.7,0.1 2,0 3.9,0.1 6,0.1 1.9,0.1 3.9,0.1 5.9,0.2 2,0.1 4,0.2 6.1,0.3 2.9,0.2 5.8,0.4 8.7,0.6 2.3,0.2 4.6,0.3 7,0.6 5.3,0.5 10.8,1.1 16.3,1.9 1.9,0.2 4,0.5 5.9,0.9 7.3,1 14.7,2.4 22.1,4 3.2,0.7 6.4,1.4 9.6,2.2 2.6,0.6 5.3,1.3 8,2 1.1,0.3 2.1,0.6 3.2,0.9 2.4,0.6 4.8,1.4 7.2,2.1 3.2,0.9 6.4,2 9.6,3.1 6.2,2.1 12.1,0 15.9,-4.2 3.2,-3.6 4.7,-8.6 3,-14"
         style="fill:#262f36;fill-opacity:1;fill-rule:nonzero;stroke:none"
         id="path142" /><path
         d="m 15042.9,15320 c -29.8,-22.9 -76.4,-50.3 -123.4,-44.8 -37.4,4.3 -70,15.2 -93.8,25.5 3.2,5.6 9.4,9.4 16.7,8.5 1.8,-0.2 3.7,-0.5 5.6,-0.7 0.8,-0.1 1.7,-0.2 2.6,-0.3 2.8,-0.3 5.7,-0.6 8.6,-0.8 1.2,-0.2 2.4,-0.3 3.6,-0.4 9.6,-0.8 20.2,-1.5 31.6,-1.7 3.7,-0.1 7.5,-0.2 11.3,-0.1 1.9,0 3.8,0 5.7,0.1 2,0 4,0 6,0.1 1.9,0.1 3.9,0.1 5.9,0.2 2,0.1 4,0.2 6.1,0.3 2.9,0.2 5.8,0.4 8.7,0.6 2.3,0.2 4.6,0.3 7,0.6 5.3,0.5 10.8,1.1 16.3,1.9 1.9,0.2 4,0.5 5.9,0.9 7.3,1 14.7,2.4 22.1,4 3.2,0.7 6.4,1.4 9.6,2.2 2.7,0.6 5.3,1.3 8,2 1.1,0.3 2.1,0.6 3.2,0.9 2.4,0.6 4.8,1.4 7.2,2.1 3.2,0.9 6.4,2 9.6,3.1 6.2,2.1 12.1,0 15.9,-4.2"
         style="fill:#ffffff;fill-opacity:1;fill-rule:nonzero;stroke:none"
         id="path144" /><path
         d="m 15021.4,15253.5 c -15.8,-19.3 -39.4,-35 -74.9,-37.2 -39.3,-2.4 -68,9.9 -88.6,26.6 16.8,8.7 49.3,21.6 87.2,17 0,0 52.8,24.8 76.3,-6.4"
         style="fill:#e55a4d;fill-opacity:1;fill-rule:nonzero;stroke:none"
         id="path146" /><path
         d="m 13427.9,14174.2 c -436.8,387.8 -854.2,841.9 -1114,1255.6 -119.5,190.3 -443.3,1129.3 -443.3,1129.3 l 456.1,306 c 0,0 388.9,-802.2 665,-1151.8 231.3,-293.1 736.8,-784.1 1178.2,-868.2 l 30.5,-985.7 c 0,0 -620,179.4 -772.5,314.8"
         style="fill:#ffbf61;fill-opacity:1;fill-rule:nonzero;stroke:none"
         id="path148" /><path
         d="m 12326.7,16865.1 c -3.9,15.5 -22,20.3 -49.9,15.6 -8,-1.4 -16.9,-3.5 -26.5,-6.5 -45.2,-13.5 -105.9,-43.8 -170.5,-87.3 -55,-37 -103.9,-77.4 -140.6,-114.4 -15.4,-15.6 -28.7,-30.7 -39.4,-44.6 -6.3,-8.4 -11.8,-16.4 -16.3,-23.8 -5.8,-9.9 -10,-19 -12.1,-26.9 -1,-3.8 -1.5,-7.4 -1.6,-10.6 -0.1,-2.7 0.1,-5.3 0.7,-7.5 3.7,-14.5 19.8,-19.5 44.6,-16.3 17,2.4 38.3,8.6 62.4,18.4 0.2,0 0.6,0.1 0.8,0.3 40.1,16.4 88.3,42.5 138.8,76.6 27,18.3 52.6,37.2 76,56.1 33.1,26.9 62,53.7 84.2,78.5 15.9,17.6 28.5,34.1 37.1,48.7 10.5,17.9 15,32.8 12.3,43.7"
         style="fill:#ff964a;fill-opacity:1;fill-rule:nonzero;stroke:none"
         id="path150" /><path
         d="m 12277.3,16772.7 c -27.4,40.9 -25.4,66.9 -27,101.5 -1.1,23.3 -3.8,50.6 -18.4,88.8 -27.3,72 -133.6,320.9 -165.1,394.4 -5.8,13.8 -24.1,16.7 -33.9,5.5 -30.6,-34.9 -35.9,-107.2 -24.1,-159.3 3.5,-19.2 -1.5,-55.6 -11,-53.5 -94.7,122.8 -273.9,341.6 -307.7,315.8 -30.7,-23.5 76.2,-188.9 154.8,-297.6 l -5.8,-2.9 c -109.4,123.1 -245.5,318.2 -281.9,286.6 -39.5,-34.4 58,-225.6 161.6,-347.4 l -6.1,-3.1 c -0.6,0.7 -1.2,1.4 -1.8,2.1 -99.9,114.9 -224.1,249.5 -265.5,219.2 -20.4,-15 63.3,-155.2 147.8,-281.8 24.9,-44.5 10.9,-47.2 -4.8,-42 -7.5,3.9 -14.9,7.5 -22.2,10.9 -0.1,0.1 -0.1,0.1 -0.1,0.1 -73,34.5 -105.7,32.9 -115.7,8.7 -6.7,-16.1 111,-75.3 224.2,-211 56,-67 138.2,-114 225.2,-179.8 24.3,-18.1 49.9,-39.8 77.7,-66.7 0,-0.1 0,-0.1 0,-0.1 40.2,16.4 88.7,42.7 139.6,77 27,18.3 52.6,37.2 76,56.1 33.1,26.9 62,53.7 84.2,78.5"
         style="fill:#fbc7b1;fill-opacity:1;fill-rule:nonzero;stroke:none"
         id="path152" /><path
         d="m 13984.1,14901.7 c 0,0 97.6,-307.7 -24.6,-750 -153.2,-554 -447.4,-791.6 -634.3,-805.5 -186.9,-14 -54.3,-203.6 -54.3,-203.6 0,0 691.7,93.5 874.2,882.9 127.4,550.9 24.8,819.6 24.8,819.6 l -185.8,56.6"
         style="fill:#8a80ee;fill-opacity:1;fill-rule:nonzero;stroke:none"
         id="path154" /><path
         d="m 14927,16069.2 c 0,0 6.9,-707.3 -577.3,-604.7 0,0 54,-189.3 -20.1,-288.3 -74.1,-99 -385,268.4 -385,268.4 0,0 -221.8,266.6 -45.5,569.9 176.4,303.3 756,374.5 1027.9,54.7"
         style="fill:#262f36;fill-opacity:1;fill-rule:nonzero;stroke:none"
         id="path156" /><path
         d="m 14303,15300.2 c -73,48.1 -101.3,134.1 -63.1,192.1 38.2,58 128.3,66.1 201.4,18 73,-48 101.3,-134 63.1,-192 -38.2,-58 -128.3,-66.1 -201.4,-18.1"
         style="fill:#fbc7b1;fill-opacity:1;fill-rule:nonzero;stroke:none"
         id="path158" /><path
         d="m 14277.8,15308.5 c -37.9,27.8 -53.2,71.1 -60.3,116 -1.1,7.3 10.3,8.6 11.4,1.3 6.7,-41.9 20.3,-82.4 56.1,-108.4 44.9,-32.6 106.8,-48.3 161.4,-44.3 7.4,0.6 8.8,-10.8 1.4,-11.4 -57.5,-4.2 -122.9,12.2 -170,46.8"
         style="fill:#c56146;fill-opacity:1;fill-rule:nonzero;stroke:none"
         id="path160" /><path
         d="m 14397.5,15429.2 c -5.4,5 1.8,14 7.3,9 9.4,-8.7 23.8,-22.4 23.7,-36.5 -0.1,-6.9 -4.6,-11.8 -7.9,-17.4 -8.2,-13.5 -9.5,-26.9 -3.1,-41.7 3,-6.8 -7.7,-11 -10.7,-4.3 -5,11.5 -6.7,23.5 -3.5,35.8 1.5,6 5.4,10.7 7.3,16.3 6.1,18 -0.6,27.4 -13.1,38.8"
         style="fill:#c56146;fill-opacity:1;fill-rule:nonzero;stroke:none"
         id="path162" /><path
         d="m 14453,15491.1 c -9.4,10.8 -20.8,18.9 -33.9,24.5 -6.9,2.9 -2.2,13.4 4.7,10.5 14.9,-6.4 27.8,-15.9 38.5,-28.2 4.8,-5.5 -4.5,-12.3 -9.3,-6.8"
         style="fill:#c56146;fill-opacity:1;fill-rule:nonzero;stroke:none"
         id="path164" /><path
         d="m 14332.3,15262 c -23.8,-59.9 -73.7,-81.2 -136.1,-76.1 -60.6,5 -91.3,37.3 -120.9,85.3 -38.1,61.9 -73,126.1 -124.3,178.3 -7.2,7.3 -20,-2.5 -12.7,-9.9 44.7,-45.5 76.9,-100.1 109.7,-154.4 24.1,-39.7 46,-84.7 90.7,-104.3 80,-35.1 176.1,-6.6 208.5,74.9 3.8,9.7 -11.1,15.9 -14.9,6.2 v 0"
         style="fill:#45515a;fill-opacity:1;fill-rule:nonzero;stroke:none"
         id="path166" /><path
         d="m 13965.4,13490.5 c 114.2,-78.3 238.9,-151.8 382.4,-121.1 10.1,2.2 7.9,18.2 -2.3,16 -140,-30 -259.4,41.9 -370.3,118 -8.6,5.8 -18.4,-7 -9.8,-12.9 v 0"
         style="fill:#ffffff;fill-opacity:1;fill-rule:nonzero;stroke:none"
         id="path168" /><path
         d="m 14592,14464.2 c -11.4,-79.7 -22.8,-159.9 -19.7,-240.7 3.2,-87.3 39.5,-165 48.6,-250.6 9.5,-89.2 -25.3,-175.4 -24.9,-264.2 0.4,-73.5 35.5,-128.7 56.8,-196.7 33,-105.4 -40.6,-184.9 -72.7,-278.6 -28.6,-83.3 -21,-161.3 -24.3,-247.2 -3.5,-89.7 -56.6,-167 -97.8,-243.9 -46.9,-87.2 -93.7,-174.5 -140.5,-261.7 -4.9,-9.2 10,-15.3 14.9,-6.2 46.8,87.3 93.7,174.5 140.5,261.7 36.2,67.4 84.7,137.2 96,214.3 13.9,94.4 -6,183.2 26.1,276.9 26.1,76.5 85.1,146.1 84,230.1 -0.9,67.8 -44.7,125.3 -59.6,189.8 -21.9,94.8 16.5,187.1 18.9,281.7 2.2,83.5 -34.5,158.9 -45.6,240.6 -13.1,97.4 1.5,196.2 15.4,292.7 1.4,10.2 -14.6,12.2 -16.1,2 v 0"
         style="fill:#ffffff;fill-opacity:1;fill-rule:nonzero;stroke:none"
         id="path170" /><path
         d="m 15074.3,10654.5 c 200.4,287.1 530.3,469.9 879.9,488 7.6,0.4 7.7,12.2 0,11.8 -354,-18.2 -687.2,-203.1 -890.1,-493.8 -4.4,-6.3 5.9,-12.2 10.2,-6 v 0"
         style="fill:#fc9171;fill-opacity:1;fill-rule:nonzero;stroke:none"
         id="path172" /><path
         d="m 15175.2,11905.3 c 199.3,-60 399.3,-117.3 600.2,-171.7 7.4,-2 10.5,9.4 3.2,11.4 -200.9,54.5 -401,111.7 -600.2,171.8 -7.3,2.2 -10.5,-9.3 -3.2,-11.5 v 0"
         style="fill:#fc9171;fill-opacity:1;fill-rule:nonzero;stroke:none"
         id="path174" /><path
         d="m 13421.3,12288.7 c -10.2,-89.4 -33.3,-176 -70,-258.1 -29.2,-65 -80.1,-121.8 -104.2,-188.3 -8.1,-22.3 -11.7,-46.8 -6.2,-70.2 6.6,-28.5 23.7,-35.9 41,-55.2 29.8,-33.2 30,-51.8 12.3,-87.1 -5,-10 -10.6,-19.8 -15.1,-30.1 -6.4,-14.8 -18.1,-40.6 -7.3,-56.6 8.8,-13.3 10.7,-6.2 24.7,-9.1 3.8,-0.8 9.4,4.9 13.1,5 31.8,1 49.6,-5.9 66.4,-30.7 16.1,-23.8 16.6,-53.9 16.3,-81.5 -0.5,-58 -1.4,-108.3 38,-154.9 83.8,-99.4 240.4,-113.8 360.7,-123.9 190.7,-16 385.5,-4.9 568.5,-70.4 7.2,-2.6 10.3,8.9 3.1,11.5 -145.6,52.1 -299.5,56.4 -452.4,63.5 -142.2,6.7 -323,5.5 -440.7,98.3 -29.5,23.3 -54,53.9 -62.4,91.4 -9.1,41.1 1.2,83.1 -4.4,124.5 -5,36.5 -29.2,81.2 -70.1,86.3 -7.6,0.9 -19.8,-4.2 -26.1,-2.7 -10.7,2.6 -21.9,21.1 -22.7,28.5 -0.8,7.4 8.7,21.5 11.8,27.8 10.1,20.8 26.7,44.1 27.5,68.1 0.4,12.8 -3,24.1 -11.1,34.2 -10.1,12.4 -26.4,19.3 -37.6,30.8 -27.3,28.1 -28.8,61.5 -15.6,98.4 13.8,38.5 40.5,71 61.1,106 19.8,33.5 37.1,68.5 52.1,104.4 32,76.9 51.7,157.4 61.2,240.1 0.8,7.5 -11,7.5 -11.9,0 v 0"
         style="fill:#ffffff;fill-opacity:1;fill-rule:nonzero;stroke:none"
         id="path176" /><path
         d="m 15087,11952.9 c -261.2,-17.1 -499.7,-181.3 -604.5,-422 -121.9,-280.2 -78.5,-635.1 -309.9,-864 -5.5,-5.3 2.9,-13.7 8.4,-8.3 206.7,204.4 197,512.4 277.6,772.9 87.4,282.3 329.5,490 628.4,509.5 7.6,0.5 7.6,12.3 0,11.9 v 0"
         style="fill:#ffffff;fill-opacity:1;fill-rule:nonzero;stroke:none"
         id="path178" /><path
         d="m 15129.9,11941.7 c -482.1,107.6 -974.7,266.2 -1474.5,234.3 -8,-0.6 -8.5,-13.1 -0.4,-12.6 498.7,31.8 990,-126.3 1471.1,-233.8 7.9,-1.7 11.7,10.3 3.8,12.1 v 0"
         style="fill:#eb4738;fill-opacity:1;fill-rule:nonzero;stroke:none"
         id="path180" /><path
         d="m 14459.8,12095.8 c -285.9,-11 -566.6,-63.9 -829.2,-179.8 -7.4,-3.3 -1.4,-14.3 6,-11.1 260.6,115 539.1,167.4 822.8,178.3 8.1,0.3 8.5,12.9 0.4,12.6 v 0"
         style="fill:#eb4738;fill-opacity:1;fill-rule:nonzero;stroke:none"
         id="path182" /><path
         d="m 14785.8,15808.5 c 24.4,88.5 -41.8,159.4 -132.5,178.2 -136.6,28.3 -288,-39.3 -425.5,-55.9 -160.6,-19.4 -305.7,4.9 -461.4,19.9 -145.3,13.9 -263.4,-33.4 -391.7,-101.6 -9.7,-5.2 -0.7,-17.6 9,-12.4 64,34 129.1,69.1 199.9,87.8 70.5,18.6 140.1,16.1 209.7,7.6 106.7,-13 210.1,-29 319.8,-25.4 114.6,3.8 223.2,27.3 335.5,52.3 125.8,28 369.2,28.4 320.7,-148 -2.7,-9.7 13.8,-12.2 16.5,-2.5 v 0"
         style="fill:#45515a;fill-opacity:1;fill-rule:nonzero;stroke:none"
         id="path184" /><path
         d="m 13662.3,16054.4 c 114.9,32.3 199.2,-58 303.1,-75.5 102,-17 215.1,0.5 318.6,17.5 114.3,18.8 228.5,45.7 343.6,55.6 69.8,6.1 151.5,1.8 193.9,-52 46.5,-59 3.6,-132.6 -43.4,-185.2 -7.1,-7.9 5.2,-17.6 12.4,-9.6 57,63.8 100.7,154.2 33,217.3 -85.4,79.7 -243.9,41.5 -355,22.1 -153.5,-26.7 -316.2,-68.1 -470.4,-53.9 -119.2,10.9 -212.5,114.1 -340.6,78 -10.7,-3 -5.8,-17.4 4.8,-14.3 v 0"
         style="fill:#45515a;fill-opacity:1;fill-rule:nonzero;stroke:none"
         id="path186" /><path
         d="m 10551.8,13063.8 c 213.2,-177.2 493.7,-223.9 763.6,-219.9 163.3,2.4 325.8,20.7 488.6,31 83.2,5.2 166.8,13.8 250.3,7.1 99.8,-7.9 203.6,-44 213,-158.1 2.5,-30.2 49.9,-30.4 47.4,0 -16.4,200.8 -236.2,214 -394.6,206 -290.6,-14.7 -586.3,-66.3 -876.6,-23 -165.7,24.7 -328.2,82.4 -458.2,190.4 -23.3,19.4 -57,-14 -33.5,-33.5 v 0"
         style="fill:#8a80ee;fill-opacity:1;fill-rule:nonzero;stroke:none"
         id="path188" /><path
         d="m 8357.21,14287 c 95.96,-125.8 216.16,-195.6 358.38,-264.8 531.34,-258.7 1151.11,80.5 1645.01,-204.2 188.4,-108.6 309.6,-306.6 382.9,-511.3 13.6,-38 25.9,-78.7 17.5,-118.2 -8,-37.5 -267,-343.1 -371.2,-465.8 -26.8,249.3 -301.6,525.1 -592.72,526.1 -299.11,1 -1404.08,-228.7 -1970.66,520.5 l 530.79,517.7"
         style="fill:#ffbf61;fill-opacity:1;fill-rule:nonzero;stroke:none"
         id="path190" /><path
         d="m 8424.32,13926.3 c 75.16,-43.8 150.04,-88 224.63,-132.7 26.25,-15.8 50.14,25.2 23.95,40.9 -74.6,44.8 -149.47,89 -224.63,132.8 -26.44,15.4 -50.35,-25.6 -23.95,-41 v 0"
         style="fill:#ffffff;fill-opacity:1;fill-rule:nonzero;stroke:none"
         id="path192" /><path
         d="m 8521.05,13879.6 c -42.88,-83.8 -87.48,-166.7 -133.79,-248.7 -15.04,-26.6 25.93,-50.5 40.96,-23.9 46.32,81.9 90.91,164.8 133.79,248.7 13.88,27.1 -27.04,51.1 -40.96,23.9 v 0"
         style="fill:#ffffff;fill-opacity:1;fill-rule:nonzero;stroke:none"
         id="path194" /><path
         d="m 8789.67,13784.8 c -28.43,-93.9 -52.78,-188.9 -73.08,-284.9 -6.29,-29.8 39.43,-42.5 45.75,-12.6 20.3,96 44.65,191 73.07,284.9 8.86,29.3 -36.91,41.8 -45.74,12.6 v 0"
         style="fill:#ffffff;fill-opacity:1;fill-rule:nonzero;stroke:none"
         id="path196" /><path
         d="m 8811.32,13754.1 c 45.23,-6.2 125.98,-15.8 131.58,-75.1 6.76,-71.6 -111.38,-41.6 -148.37,-31.4 -29.48,8.1 -42.06,-37.7 -12.61,-45.8 67.85,-18.6 192.5,-39.3 207.74,58.1 14.99,95.8 -92.64,129.9 -165.73,139.9 -29.86,4.1 -42.77,-41.6 -12.61,-45.7 v 0"
         style="fill:#ffffff;fill-opacity:1;fill-rule:nonzero;stroke:none"
         id="path198" /><path
         d="m 8849.32,13583.6 c 9.68,-4.7 16.28,-55.7 17.77,-64.5 4.47,-26.4 4.69,-52.7 2.72,-79.4 -2.26,-30.4 45.19,-30.3 47.44,0 2.7,36.6 0.43,73.1 -7.76,108.9 -5.39,23.5 -12.01,64.1 -36.22,76 -27.32,13.3 -51.4,-27.6 -23.95,-41 v 0"
         style="fill:#ffffff;fill-opacity:1;fill-rule:nonzero;stroke:none"
         id="path200" /><path
         d="m 9100.43,13440.3 c 34.32,94.7 72.74,187.6 115.37,278.9 -13.65,0 -27.31,0 -40.96,0 41.48,-95.1 82.97,-190.2 124.46,-285.3 12.18,-27.9 53.06,-3.8 40.96,24 -41.49,95 -82.97,190.1 -124.46,285.2 -6.91,15.9 -33.85,15.3 -40.96,0 -44.37,-94.9 -84.44,-191.6 -120.16,-290.2 -10.42,-28.7 35.41,-41.1 45.75,-12.6 v 0"
         style="fill:#ffffff;fill-opacity:1;fill-rule:nonzero;stroke:none"
         id="path202" /><path
         d="m 9118.61,13496.5 c 50.51,3.5 101.02,7 151.53,10.4 30.29,2.1 30.52,49.6 0,47.5 -50.51,-3.5 -101.02,-7 -151.53,-10.4 -30.29,-2.1 -30.52,-49.6 0,-47.5 v 0"
         style="fill:#ffffff;fill-opacity:1;fill-rule:nonzero;stroke:none"
         id="path204" /><path
         d="m 9402.17,13713.5 c 39.06,-92.3 86.01,-180.5 140.89,-264.4 11.49,-17.6 36.63,-13.8 43.35,5.7 31.6,91.8 59.12,184.7 82.59,278.9 7.38,29.7 -38.36,42.3 -45.74,12.7 -23.47,-94.2 -50.99,-187.2 -82.59,-279 14.45,1.9 28.9,3.8 43.35,5.7 -54.88,83.9 -101.83,172 -140.89,264.3 -11.85,28.1 -52.72,3.9 -40.96,-23.9 v 0"
         style="fill:#ffffff;fill-opacity:1;fill-rule:nonzero;stroke:none"
         id="path206" /><path
         d="m 9822.07,13735.6 c -6.87,-44.4 -13.34,-88.9 -19.26,-133.5 -5.36,-40.4 -18.51,-87.2 -15.54,-127.5 1.58,-21.4 8.12,-29.7 27.7,-37.6 41.78,-16.9 94.06,-21.2 138.26,-29.3 29.85,-5.5 42.65,40.2 12.61,45.7 -43.52,8 -102.06,11 -141.58,31.6 3.91,-6.8 7.83,-13.6 11.75,-20.4 -4.81,37.1 6.98,82 11.84,119.3 6.05,46.5 12.81,92.8 19.97,139.1 4.62,29.8 -41.08,42.7 -45.75,12.6 v 0"
         style="fill:#ffffff;fill-opacity:1;fill-rule:nonzero;stroke:none"
         id="path208" /><path
         d="m 9838.24,13585.4 c 45.56,-5.7 91.13,-11.4 136.69,-17.1 30.17,-3.8 29.97,43.7 0,47.4 -45.56,5.7 -91.13,11.4 -136.69,17.2 -30.21,3.7 -29.94,-43.7 0,-47.5 v 0"
         style="fill:#ffffff;fill-opacity:1;fill-rule:nonzero;stroke:none"
         id="path210" /><path
         d="m 9835.38,13722.6 c 53.38,-11.4 106.97,-21.6 160.81,-30.6 29.91,-5 42.71,40.7 12.61,45.7 -53.84,9 -107.43,19.2 -160.81,30.7 -29.77,6.4 -42.5,-39.4 -12.61,-45.8 v 0"
         style="fill:#ffffff;fill-opacity:1;fill-rule:nonzero;stroke:none"
         id="path212" /><path
         d="m 10238.5,13664.9 c -26,-40.1 -52,-80.1 -78,-120.2 -20.8,-32.1 -60.9,-74 -70.7,-110.8 -6.5,-24.7 8.7,-33.2 27.4,-46.2 39.4,-27.4 79.3,-54.1 118.9,-81.2 25.3,-17.2 49,23.9 24,41 -40.9,27.9 -99,54.6 -132.3,91.3 2,-7.7 4.1,-15.4 6.1,-23.1 11.6,37.9 50.8,79.2 72.4,112.6 24.4,37.5 48.8,75.1 73.2,112.6 16.6,25.7 -24.4,49.5 -41,24 v 0"
         style="fill:#ffffff;fill-opacity:1;fill-rule:nonzero;stroke:none"
         id="path214" /></g></g></svg>
